<?xml version="1.0" encoding="utf-8"?>
<!-- Generator: Adobe Illustrator 25.0.0, SVG Export Plug-In . SVG Version: 6.00 Build 0)  -->
<svg version="1.1" id="Capa_1" xmlns="http://www.w3.org/2000/svg" xmlns:xlink="http://www.w3.org/1999/xlink" x="0px" y="0px"
	 viewBox="0 0 1280 1338" style="enable-background:new 0 0 1280 1338;" xml:space="preserve">
<style type="text/css">
	.st0{fill:#FFFFFF;}
	.st1{fill:none;stroke:#FFFFFF;stroke-width:3;stroke-miterlimit:10;}
	.st2{fill:none;stroke:#FF0000;stroke-width:4;stroke-miterlimit:10;}
	.st3{fill:#FF0000;}
</style>
<g>
	<path class="st0" d="M7.1,448.6c1.6,0,2.9,0.2,3.9,0.5c1,0.3,1.8,0.8,2.4,1.4c0.6,0.6,1,1.2,1.2,2s0.3,1.6,0.3,2.4
		c0,0.9-0.1,1.8-0.4,2.6c-0.2,0.8-0.6,1.5-1.2,2.1c-0.6,0.6-1.4,1.1-2.4,1.5c-1,0.4-2.3,0.5-3.9,0.5H1.9v8.9H0.1v-21.9H7.1z
		 M10.1,459.7c0.8-0.2,1.4-0.6,1.8-1c0.4-0.4,0.8-0.9,0.9-1.6c0.2-0.6,0.2-1.3,0.2-2.1c0-0.8-0.1-1.5-0.3-2.1
		c-0.2-0.6-0.5-1.1-1-1.5c-0.5-0.4-1.1-0.7-1.9-0.9s-1.8-0.3-2.9-0.3H1.9v9.8h5.2C8.3,460,9.3,459.9,10.1,459.7z"/>
	<path class="st0" d="M26.8,469.2c-0.4,0.3-0.8,0.6-1.3,0.8c-0.5,0.2-1,0.4-1.5,0.6c-0.6,0.1-1.2,0.2-1.9,0.2c-1.7,0-3-0.4-4-1.2
		c-1-0.8-1.5-2-1.5-3.6c0-1.1,0.2-1.9,0.7-2.6s1-1.2,1.8-1.6c0.7-0.4,1.6-0.7,2.5-0.8c0.9-0.2,1.9-0.3,3-0.3l3.1-0.1v-0.5
		c0-1.6-0.3-2.7-0.9-3.4c-0.6-0.7-1.7-1.1-3.2-1.1c-0.8,0-1.4,0.1-1.9,0.2c-0.5,0.1-1,0.3-1.3,0.5c-0.3,0.2-0.6,0.5-0.8,0.8
		s-0.4,0.7-0.5,1.1l-1.6-0.2c0.6-2.6,2.6-3.9,6.2-3.9c1.1,0,2,0.1,2.8,0.4c0.8,0.3,1.4,0.6,1.8,1.1c0.5,0.5,0.8,1.1,1,1.8
		c0.2,0.7,0.3,1.6,0.3,2.5v10.4h-1.8v-2.2C27.4,468.6,27.1,468.9,26.8,469.2z M24.8,462.2c-1.2,0-2.2,0.1-3,0.3
		c-0.8,0.2-1.4,0.4-1.9,0.7c-0.5,0.3-0.8,0.7-1.1,1.2s-0.3,1-0.3,1.6c0,1,0.3,1.7,0.8,2.3c0.5,0.6,1.5,0.9,2.8,0.9
		c0.7,0,1.3-0.1,2-0.2c0.7-0.2,1.2-0.4,1.6-0.8c0.4-0.3,0.7-0.5,0.9-0.8c0.2-0.2,0.4-0.5,0.6-0.8c0.2-0.3,0.3-0.6,0.3-1
		c0.1-0.4,0.1-0.8,0.1-1.3v-2.3L24.8,462.2z"/>
	<path class="st0" d="M33.3,448.9v2.6h-2v-2.6H33.3z M35.6,454.7v15.8h-1.8v-15.8H35.6z M38.2,448.9v2.6h-2v-2.6H38.2z"/>
	<path class="st0" d="M42.5,468.7c0.8,0.5,2,0.8,3.5,0.8c1.5,0,2.6-0.3,3.2-0.9c0.6-0.6,0.9-1.3,0.9-2.1c0-0.4,0-0.7-0.1-1
		s-0.2-0.6-0.5-0.9c-0.2-0.3-0.6-0.5-1-0.7c-0.4-0.2-1-0.3-1.7-0.5l-1.9-0.3c-0.8-0.1-1.6-0.3-2.3-0.5s-1.2-0.5-1.7-0.8
		c-0.5-0.3-0.8-0.8-1-1.3c-0.2-0.5-0.4-1.1-0.4-1.9c0-0.7,0.2-1.3,0.5-1.9c0.3-0.6,0.7-1,1.3-1.4c0.5-0.4,1.2-0.7,1.9-0.9
		c0.7-0.2,1.5-0.3,2.3-0.3c1.1,0,2,0.1,2.7,0.3c0.7,0.2,1.3,0.5,1.8,0.9c0.5,0.4,0.8,0.8,1.1,1.3c0.3,0.5,0.5,1,0.6,1.6l-1.6,0.3
		c-0.2-0.5-0.4-0.9-0.6-1.2s-0.5-0.7-0.8-0.9s-0.7-0.4-1.2-0.5c-0.5-0.1-1.1-0.2-1.8-0.2c-0.8,0-1.5,0.1-2.1,0.2
		c-0.6,0.2-1,0.4-1.3,0.6c-0.3,0.3-0.6,0.6-0.7,0.9s-0.2,0.7-0.2,1.1s0,0.7,0.1,1c0.1,0.3,0.2,0.6,0.5,0.8c0.2,0.2,0.6,0.4,1,0.6
		c0.4,0.2,1,0.3,1.7,0.4l2.4,0.4c1.7,0.3,2.9,0.8,3.7,1.5c0.8,0.7,1.2,1.8,1.2,3.2c0,0.6-0.1,1.2-0.4,1.7c-0.3,0.6-0.6,1-1.1,1.4
		s-1.1,0.7-1.9,0.9S47,471,46.1,471c-1,0-1.8-0.1-2.6-0.3c-0.8-0.2-1.5-0.5-2.1-0.9c-0.6-0.4-1.1-0.9-1.4-1.5
		c-0.4-0.6-0.6-1.4-0.7-2.2h1.7C41.2,467.3,41.7,468.2,42.5,468.7z"/>
	<path class="st0" d="M59.5,470.4c-0.9-0.4-1.7-0.9-2.3-1.7c-0.6-0.7-1.1-1.6-1.4-2.6c-0.3-1-0.5-2.2-0.5-3.4c0-1.3,0.2-2.5,0.5-3.5
		c0.4-1,0.9-1.9,1.5-2.7c0.6-0.7,1.4-1.3,2.3-1.7c0.9-0.4,1.9-0.6,3.1-0.6c1.1,0,2.2,0.2,3.1,0.6c0.9,0.4,1.7,0.9,2.3,1.7
		c0.6,0.7,1.1,1.6,1.5,2.6c0.3,1,0.5,2.2,0.5,3.4c0,1.3-0.2,2.5-0.5,3.5c-0.3,1-0.8,1.9-1.5,2.7s-1.4,1.3-2.4,1.7
		c-0.9,0.4-2,0.6-3.1,0.6C61.4,471,60.4,470.8,59.5,470.4z M65.2,468.9c0.7-0.4,1.3-0.8,1.7-1.5c0.4-0.6,0.8-1.3,1-2.2
		s0.3-1.7,0.3-2.7c0-0.9-0.1-1.8-0.3-2.6c-0.2-0.8-0.5-1.5-1-2.2s-1-1.1-1.7-1.5c-0.7-0.4-1.5-0.5-2.5-0.5c-1,0-1.8,0.2-2.5,0.5
		c-0.7,0.4-1.3,0.8-1.7,1.5s-0.8,1.3-1,2.2c-0.2,0.8-0.3,1.7-0.3,2.7c0,1,0.1,1.9,0.3,2.7c0.2,0.8,0.5,1.6,1,2.2
		c0.4,0.6,1,1.1,1.7,1.5c0.7,0.4,1.5,0.5,2.5,0.5C63.6,469.5,64.5,469.3,65.2,468.9z"/>
	<path class="st0" d="M76.4,468.7c0.8,0.5,2,0.8,3.5,0.8c1.5,0,2.6-0.3,3.2-0.9c0.6-0.6,0.9-1.3,0.9-2.1c0-0.4,0-0.7-0.1-1
		s-0.2-0.6-0.5-0.9c-0.2-0.3-0.6-0.5-1-0.7c-0.4-0.2-1-0.3-1.7-0.5l-1.9-0.3c-0.8-0.1-1.6-0.3-2.3-0.5s-1.2-0.5-1.7-0.8
		c-0.5-0.3-0.8-0.8-1-1.3c-0.2-0.5-0.4-1.1-0.4-1.9c0-0.7,0.2-1.3,0.5-1.9c0.3-0.6,0.7-1,1.3-1.4c0.5-0.4,1.2-0.7,1.9-0.9
		c0.7-0.2,1.5-0.3,2.3-0.3c1.1,0,2,0.1,2.7,0.3c0.7,0.2,1.3,0.5,1.8,0.9c0.5,0.4,0.8,0.8,1.1,1.3c0.3,0.5,0.5,1,0.6,1.6l-1.6,0.3
		c-0.2-0.5-0.4-0.9-0.6-1.2s-0.5-0.7-0.8-0.9s-0.7-0.4-1.2-0.5c-0.5-0.1-1.1-0.2-1.8-0.2c-0.8,0-1.5,0.1-2.1,0.2
		c-0.6,0.2-1,0.4-1.3,0.6c-0.3,0.3-0.6,0.6-0.7,0.9s-0.2,0.7-0.2,1.1s0,0.7,0.1,1c0.1,0.3,0.2,0.6,0.5,0.8c0.2,0.2,0.6,0.4,1,0.6
		c0.4,0.2,1,0.3,1.7,0.4l2.4,0.4c1.7,0.3,2.9,0.8,3.7,1.5c0.8,0.7,1.2,1.8,1.2,3.2c0,0.6-0.1,1.2-0.4,1.7c-0.3,0.6-0.6,1-1.1,1.4
		s-1.1,0.7-1.9,0.9s-1.6,0.4-2.6,0.4c-1,0-1.8-0.1-2.6-0.3c-0.8-0.2-1.5-0.5-2.1-0.9c-0.6-0.4-1.1-0.9-1.4-1.5
		c-0.4-0.6-0.6-1.4-0.7-2.2h1.7C75.1,467.3,75.6,468.2,76.4,468.7z"/>
	<path class="st0" d="M98.5,448.6v2.7h-2v-2.7H98.5z M98.3,454.7v15.8h-1.8v-15.8H98.3z"/>
	<path class="st0" d="M104.5,454.7v2.6c0.9-1.1,1.8-1.9,2.7-2.3c1-0.5,2-0.7,3.1-0.7c1.8,0,3.1,0.5,4,1.5c0.9,1,1.3,2.4,1.3,4.3
		v10.5h-1.8v-10c0-1.7-0.3-2.8-0.9-3.6c-0.6-0.7-1.5-1.1-2.8-1.1c-0.6,0-1.3,0.1-1.9,0.4c-0.7,0.2-1.3,0.6-1.9,1.1
		c-0.6,0.5-1.1,1.1-1.4,1.6s-0.5,1.3-0.5,2.3v9.2h-1.8v-15.8H104.5z"/>
	<path class="st0" d="M129.2,470.2c-0.9,0.5-1.9,0.8-3.2,0.8c-1.2,0-2.2-0.2-3-0.7s-1.5-1.1-2.1-1.8s-1-1.6-1.2-2.6
		c-0.3-1-0.4-2-0.4-3.1c0-2.7,0.6-4.8,1.9-6.3c1.3-1.5,3-2.3,5.2-2.3c0.9,0,1.7,0.2,2.6,0.6c0.9,0.4,1.7,1.1,2.5,2.1v-8.2h1.8v21.9
		h-1.8v-2.4C130.9,469,130.1,469.7,129.2,470.2z M131.5,460.1c-0.1-0.5-0.2-1-0.4-1.4c-0.2-0.4-0.4-0.8-0.7-1.1
		c-0.3-0.3-0.6-0.6-1-0.9c-0.5-0.4-1-0.6-1.5-0.8c-0.5-0.2-1-0.2-1.6-0.2c-0.8,0-1.4,0.1-2.1,0.4c-0.6,0.3-1.2,0.7-1.6,1.2
		s-0.8,1.3-1.1,2.1c-0.3,0.9-0.4,1.9-0.4,3.2c0,1.3,0.1,2.4,0.4,3.2c0.3,0.9,0.7,1.6,1.1,2.1c0.5,0.5,1,0.9,1.6,1.1
		c0.6,0.2,1.2,0.3,1.8,0.3c0.6,0,1.2-0.1,1.7-0.2c0.5-0.1,1-0.4,1.5-0.8c0.7-0.5,1.3-1.2,1.7-2c0.4-0.8,0.6-1.8,0.6-3.1V462
		C131.6,461.3,131.6,460.7,131.5,460.1z"/>
	<path class="st0" d="M139.3,454.7v10c0,1.7,0.3,2.8,0.8,3.6c0.5,0.7,1.4,1.1,2.7,1.1c0.6,0,1.3-0.1,1.9-0.4
		c0.6-0.2,1.2-0.6,1.8-1.1c0.6-0.5,1-1.1,1.3-1.6c0.3-0.6,0.5-1.3,0.5-2.3v-9.2h1.8v15.8h-1.8v-2.6c-1.7,2-3.6,3.1-5.7,3.1
		c-1.8,0-3.1-0.5-3.9-1.5s-1.2-2.4-1.2-4.3v-10.5H139.3z"/>
	<path class="st0" d="M156.9,468.7c0.8,0.5,2,0.8,3.5,0.8c1.5,0,2.6-0.3,3.2-0.9c0.6-0.6,0.9-1.3,0.9-2.1c0-0.4,0-0.7-0.1-1
		s-0.2-0.6-0.5-0.9c-0.2-0.3-0.6-0.5-1-0.7c-0.4-0.2-1-0.3-1.7-0.5l-1.9-0.3c-0.8-0.1-1.6-0.3-2.3-0.5s-1.2-0.5-1.7-0.8
		c-0.5-0.3-0.8-0.8-1-1.3c-0.2-0.5-0.4-1.1-0.4-1.9c0-0.7,0.2-1.3,0.5-1.9c0.3-0.6,0.7-1,1.3-1.4c0.5-0.4,1.2-0.7,1.9-0.9
		c0.7-0.2,1.5-0.3,2.3-0.3c1.1,0,2,0.1,2.7,0.3c0.7,0.2,1.3,0.5,1.8,0.9c0.5,0.4,0.8,0.8,1.1,1.3c0.3,0.5,0.5,1,0.6,1.6l-1.6,0.3
		c-0.2-0.5-0.4-0.9-0.6-1.2s-0.5-0.7-0.8-0.9s-0.7-0.4-1.2-0.5c-0.5-0.1-1.1-0.2-1.8-0.2c-0.8,0-1.5,0.1-2.1,0.2
		c-0.6,0.2-1,0.4-1.3,0.6c-0.3,0.3-0.6,0.6-0.7,0.9s-0.2,0.7-0.2,1.1s0,0.7,0.1,1c0.1,0.3,0.2,0.6,0.5,0.8c0.2,0.2,0.6,0.4,1,0.6
		c0.4,0.2,1,0.3,1.7,0.4l2.4,0.4c1.7,0.3,2.9,0.8,3.7,1.5c0.8,0.7,1.2,1.8,1.2,3.2c0,0.6-0.1,1.2-0.4,1.7c-0.3,0.6-0.6,1-1.1,1.4
		s-1.1,0.7-1.9,0.9s-1.6,0.4-2.6,0.4c-1,0-1.8-0.1-2.6-0.3c-0.8-0.2-1.5-0.5-2.1-0.9c-0.6-0.4-1.1-0.9-1.4-1.5
		c-0.4-0.6-0.6-1.4-0.7-2.2h1.7C155.5,467.3,156,468.2,156.9,468.7z"/>
	<path class="st0" d="M168.5,456.2v-1.5h2.4v-4.3h1.8v4.3h4.5v1.5h-4.5v10.3c0,0.8,0.2,1.4,0.5,2s0.9,0.8,1.7,0.8c0.5,0,1,0,1.3-0.1
		c0.4-0.1,0.7-0.2,1-0.3l0.4,1.4c-0.3,0.1-0.7,0.2-1.1,0.3s-1,0.2-1.7,0.2c-0.9,0-1.6-0.2-2.1-0.5c-0.5-0.3-0.9-0.7-1.1-1.2
		c-0.3-0.5-0.4-1.1-0.5-1.7c-0.1-0.7-0.1-1.3-0.1-2.1v-9.2H168.5z"/>
	<path class="st0" d="M182,454.7v2.6c0.6-0.9,1.4-1.6,2.2-2.1c0.8-0.5,1.7-0.7,2.6-0.7c0.2,0,0.4,0,0.6,0c0.2,0,0.4,0,0.6,0.1
		l-0.2,1.7c-0.4-0.1-0.7-0.1-1-0.1c-0.5,0-1.1,0.1-1.6,0.3c-0.6,0.2-1.1,0.5-1.6,1c-0.5,0.4-0.9,0.9-1.2,1.5
		c-0.3,0.6-0.5,1.3-0.5,2.1v9.5h-1.8v-15.8H182z"/>
	<path class="st0" d="M192.5,448.6v2.7h-2v-2.7H192.5z M192.4,454.7v15.8h-1.8v-15.8H192.4z"/>
	<path class="st0" d="M205.9,469.2c-0.4,0.3-0.8,0.6-1.3,0.8c-0.5,0.2-1,0.4-1.5,0.6c-0.6,0.1-1.2,0.2-1.9,0.2c-1.7,0-3-0.4-4-1.2
		c-1-0.8-1.5-2-1.5-3.6c0-1.1,0.2-1.9,0.7-2.6s1-1.2,1.8-1.6c0.7-0.4,1.6-0.7,2.5-0.8c0.9-0.2,1.9-0.3,3-0.3l3.1-0.1v-0.5
		c0-1.6-0.3-2.7-0.9-3.4c-0.6-0.7-1.7-1.1-3.2-1.1c-0.8,0-1.4,0.1-1.9,0.2c-0.5,0.1-1,0.3-1.3,0.5c-0.3,0.2-0.6,0.5-0.8,0.8
		s-0.4,0.7-0.5,1.1l-1.6-0.2c0.6-2.6,2.6-3.9,6.2-3.9c1.1,0,2,0.1,2.8,0.4c0.8,0.3,1.4,0.6,1.8,1.1c0.5,0.5,0.8,1.1,1,1.8
		c0.2,0.7,0.3,1.6,0.3,2.5v10.4h-1.8v-2.2C206.5,468.6,206.2,468.9,205.9,469.2z M203.9,462.2c-1.2,0-2.2,0.1-3,0.3
		c-0.8,0.2-1.4,0.4-1.9,0.7c-0.5,0.3-0.8,0.7-1.1,1.2s-0.3,1-0.3,1.6c0,1,0.3,1.7,0.8,2.3c0.5,0.6,1.5,0.9,2.8,0.9
		c0.7,0,1.3-0.1,2-0.2c0.7-0.2,1.2-0.4,1.6-0.8c0.4-0.3,0.7-0.5,0.9-0.8c0.2-0.2,0.4-0.5,0.6-0.8c0.2-0.3,0.3-0.6,0.3-1
		c0.1-0.4,0.1-0.8,0.1-1.3v-2.3L203.9,462.2z"/>
	<path class="st0" d="M214.7,448.6v21.9h-1.8v-21.9H214.7z"/>
	<path class="st0" d="M221.1,448.6v2.7h-2v-2.7H221.1z M220.9,454.7v15.8h-1.8v-15.8H220.9z"/>
	<path class="st0" d="M233.9,456.2h-9.8v-1.5H236v1.5L226,469h10.5l-0.3,1.5h-12.3V469L233.9,456.2z"/>
	<path class="st0" d="M248.5,469.2c-0.4,0.3-0.8,0.6-1.3,0.8c-0.5,0.2-1,0.4-1.5,0.6c-0.6,0.1-1.2,0.2-1.9,0.2c-1.7,0-3-0.4-4-1.2
		c-1-0.8-1.5-2-1.5-3.6c0-1.1,0.2-1.9,0.7-2.6s1-1.2,1.8-1.6c0.7-0.4,1.6-0.7,2.5-0.8c0.9-0.2,1.9-0.3,3-0.3l3.1-0.1v-0.5
		c0-1.6-0.3-2.7-0.9-3.4c-0.6-0.7-1.7-1.1-3.2-1.1c-0.8,0-1.4,0.1-1.9,0.2c-0.5,0.1-1,0.3-1.3,0.5c-0.3,0.2-0.6,0.5-0.8,0.8
		s-0.4,0.7-0.5,1.1l-1.6-0.2c0.6-2.6,2.6-3.9,6.2-3.9c1.1,0,2,0.1,2.8,0.4c0.8,0.3,1.4,0.6,1.8,1.1c0.5,0.5,0.8,1.1,1,1.8
		c0.2,0.7,0.3,1.6,0.3,2.5v10.4h-1.8v-2.2C249.2,468.6,248.9,468.9,248.5,469.2z M246.5,462.2c-1.2,0-2.2,0.1-3,0.3
		c-0.8,0.2-1.4,0.4-1.9,0.7c-0.5,0.3-0.8,0.7-1.1,1.2s-0.3,1-0.3,1.6c0,1,0.3,1.7,0.8,2.3c0.5,0.6,1.5,0.9,2.8,0.9
		c0.7,0,1.3-0.1,2-0.2c0.7-0.2,1.2-0.4,1.6-0.8c0.4-0.3,0.7-0.5,0.9-0.8c0.2-0.2,0.4-0.5,0.6-0.8c0.2-0.3,0.3-0.6,0.3-1
		c0.1-0.4,0.1-0.8,0.1-1.3v-2.3L246.5,462.2z"/>
	<path class="st0" d="M253.9,456.2v-1.5h2.4v-4.3h1.8v4.3h4.5v1.5h-4.5v10.3c0,0.8,0.2,1.4,0.5,2s0.9,0.8,1.7,0.8c0.5,0,1,0,1.3-0.1
		c0.4-0.1,0.7-0.2,1-0.3l0.4,1.4c-0.3,0.1-0.7,0.2-1.1,0.3s-1,0.2-1.7,0.2c-0.9,0-1.6-0.2-2.1-0.5c-0.5-0.3-0.9-0.7-1.1-1.2
		c-0.3-0.5-0.4-1.1-0.5-1.7c-0.1-0.7-0.1-1.3-0.1-2.1v-9.2H253.9z"/>
	<path class="st0" d="M268.1,468.7c0.8,0.5,2,0.8,3.5,0.8c1.5,0,2.6-0.3,3.2-0.9c0.6-0.6,0.9-1.3,0.9-2.1c0-0.4,0-0.7-0.1-1
		s-0.2-0.6-0.5-0.9c-0.2-0.3-0.6-0.5-1-0.7c-0.4-0.2-1-0.3-1.7-0.5l-1.9-0.3c-0.8-0.1-1.6-0.3-2.3-0.5s-1.2-0.5-1.7-0.8
		c-0.5-0.3-0.8-0.8-1-1.3c-0.2-0.5-0.4-1.1-0.4-1.9c0-0.7,0.2-1.3,0.5-1.9c0.3-0.6,0.7-1,1.3-1.4c0.5-0.4,1.2-0.7,1.9-0.9
		c0.7-0.2,1.5-0.3,2.3-0.3c1.1,0,2,0.1,2.7,0.3c0.7,0.2,1.3,0.5,1.8,0.9c0.5,0.4,0.8,0.8,1.1,1.3c0.3,0.5,0.5,1,0.6,1.6l-1.6,0.3
		c-0.2-0.5-0.4-0.9-0.6-1.2s-0.5-0.7-0.8-0.9s-0.7-0.4-1.2-0.5c-0.5-0.1-1.1-0.2-1.8-0.2c-0.8,0-1.5,0.1-2.1,0.2
		c-0.6,0.2-1,0.4-1.3,0.6c-0.3,0.3-0.6,0.6-0.7,0.9s-0.2,0.7-0.2,1.1s0,0.7,0.1,1c0.1,0.3,0.2,0.6,0.5,0.8c0.2,0.2,0.6,0.4,1,0.6
		c0.4,0.2,1,0.3,1.7,0.4l2.4,0.4c1.7,0.3,2.9,0.8,3.7,1.5c0.8,0.7,1.2,1.8,1.2,3.2c0,0.6-0.1,1.2-0.4,1.7c-0.3,0.6-0.6,1-1.1,1.4
		s-1.1,0.7-1.9,0.9s-1.6,0.4-2.6,0.4c-1,0-1.8-0.1-2.6-0.3c-0.8-0.2-1.5-0.5-2.1-0.9c-0.6-0.4-1.1-0.9-1.4-1.5
		c-0.4-0.6-0.6-1.4-0.7-2.2h1.7C266.8,467.3,267.3,468.2,268.1,468.7z"/>
	<path class="st0" d="M9.1,507c-0.9,0.5-1.9,0.8-3.2,0.8c-1.2,0-2.2-0.2-3-0.7s-1.5-1.1-2.1-1.8s-1-1.6-1.2-2.6
		c-0.3-1-0.4-2-0.4-3.1c0-2.7,0.6-4.8,1.9-6.3s3-2.3,5.2-2.3c0.9,0,1.7,0.2,2.6,0.6c0.9,0.4,1.7,1.1,2.5,2.1v-8.2h1.8v21.9h-1.8
		v-2.4C10.7,505.8,10,506.5,9.1,507z M11.4,496.9c-0.1-0.5-0.2-1-0.4-1.4c-0.2-0.4-0.4-0.8-0.7-1.1c-0.3-0.3-0.6-0.6-1-0.9
		c-0.5-0.4-1-0.6-1.5-0.8c-0.5-0.2-1-0.2-1.6-0.2c-0.8,0-1.4,0.1-2.1,0.4c-0.6,0.3-1.2,0.7-1.6,1.2s-0.8,1.3-1.1,2.1
		c-0.3,0.9-0.4,1.9-0.4,3.2c0,1.3,0.1,2.4,0.4,3.2s0.7,1.6,1.1,2.1c0.5,0.5,1,0.9,1.6,1.1c0.6,0.2,1.2,0.3,1.8,0.3
		c0.6,0,1.2-0.1,1.7-0.2c0.5-0.1,1-0.4,1.5-0.8c0.7-0.5,1.3-1.2,1.7-2c0.4-0.8,0.6-1.8,0.6-3.1v-1.4C11.5,498,11.5,497.4,11.4,496.9
		z"/>
	<path class="st0" d="M28.7,506.5c-1.1,0.9-2.6,1.3-4.5,1.3c-2.3,0-4-0.7-5.3-2.2s-1.9-3.5-1.9-6c0-1.4,0.2-2.6,0.5-3.7
		c0.4-1.1,0.9-2,1.5-2.7c0.6-0.7,1.4-1.3,2.3-1.6c0.9-0.4,1.8-0.6,2.9-0.6c1.2,0,2.3,0.2,3.1,0.6c0.9,0.4,1.6,0.9,2.1,1.6
		c0.5,0.7,0.9,1.5,1.2,2.4c0.2,0.9,0.4,1.9,0.4,3v1.1H18.8c0,0.9,0.1,1.7,0.3,2.5c0.2,0.8,0.6,1.5,1,2.1c0.4,0.6,1,1,1.7,1.4
		c0.7,0.3,1.4,0.5,2.3,0.5c0.8,0,1.5-0.1,2-0.2c0.6-0.2,1-0.4,1.4-0.7c0.4-0.3,0.7-0.6,0.9-1c0.2-0.4,0.4-0.8,0.5-1.3h1.7
		C30.4,504.5,29.8,505.6,28.7,506.5z M28.8,495.9c-0.2-0.7-0.5-1.3-0.9-1.9c-0.4-0.5-0.9-0.9-1.5-1.2c-0.6-0.3-1.4-0.4-2.3-0.4
		c-1.5,0-2.8,0.5-3.7,1.4c-0.9,1-1.5,2.4-1.7,4.4h10.3C29.1,497.4,29,496.6,28.8,495.9z"/>
	<path class="st0" d="M36.5,485.4v21.9h-1.8v-21.9H36.5z"/>
	<path class="st0" d="M50.2,485.4l12.2,18.9v-18.9h1.8v21.9h-2l-12.3-19v19h-1.8v-21.9H50.2z"/>
	<path class="st0" d="M72.6,507.2c-0.9-0.4-1.7-0.9-2.3-1.7c-0.6-0.7-1.1-1.6-1.4-2.6c-0.3-1-0.5-2.2-0.5-3.4c0-1.3,0.2-2.5,0.5-3.5
		c0.4-1,0.9-1.9,1.5-2.7s1.4-1.3,2.3-1.7c0.9-0.4,1.9-0.6,3.1-0.6c1.1,0,2.2,0.2,3.1,0.6c0.9,0.4,1.7,0.9,2.3,1.7
		c0.6,0.7,1.1,1.6,1.5,2.6c0.3,1,0.5,2.2,0.5,3.4c0,1.3-0.2,2.5-0.5,3.5c-0.3,1-0.8,1.9-1.5,2.7s-1.4,1.3-2.4,1.7
		c-0.9,0.4-2,0.6-3.1,0.6C74.6,507.7,73.5,507.5,72.6,507.2z M78.3,505.7c0.7-0.4,1.3-0.8,1.7-1.5c0.4-0.6,0.8-1.3,1-2.2
		c0.2-0.8,0.3-1.7,0.3-2.7c0-0.9-0.1-1.8-0.3-2.6c-0.2-0.8-0.5-1.5-1-2.2s-1-1.1-1.7-1.5c-0.7-0.4-1.5-0.5-2.5-0.5
		c-1,0-1.8,0.2-2.5,0.5c-0.7,0.4-1.3,0.8-1.7,1.5s-0.8,1.3-1,2.2c-0.2,0.8-0.3,1.7-0.3,2.7c0,1,0.1,1.9,0.3,2.7
		c0.2,0.8,0.5,1.6,1,2.2c0.4,0.6,1,1.1,1.7,1.5c0.7,0.4,1.5,0.5,2.5,0.5C76.8,506.2,77.6,506,78.3,505.7z"/>
	<path class="st0" d="M88.8,491.5v2.6c0.6-0.9,1.4-1.6,2.2-2.1c0.8-0.5,1.7-0.7,2.6-0.7c0.2,0,0.4,0,0.6,0c0.2,0,0.4,0,0.6,0.1
		l-0.2,1.7c-0.4-0.1-0.7-0.1-1-0.1c-0.5,0-1.1,0.1-1.6,0.3c-0.6,0.2-1.1,0.5-1.6,1c-0.5,0.4-0.9,0.9-1.2,1.5
		c-0.3,0.6-0.5,1.3-0.5,2.1v9.5H87v-15.8H88.8z"/>
	<path class="st0" d="M105.8,507c-0.9,0.5-1.9,0.8-3.2,0.8c-1.2,0-2.2-0.2-3-0.7s-1.5-1.1-2.1-1.8s-1-1.6-1.2-2.6
		c-0.3-1-0.4-2-0.4-3.1c0-2.7,0.6-4.8,1.9-6.3s3-2.3,5.2-2.3c0.9,0,1.7,0.2,2.6,0.6c0.9,0.4,1.7,1.1,2.5,2.1v-8.2h1.8v21.9h-1.8
		v-2.4C107.4,505.8,106.6,506.5,105.8,507z M108.1,496.9c-0.1-0.5-0.2-1-0.4-1.4c-0.2-0.4-0.4-0.8-0.7-1.1c-0.3-0.3-0.6-0.6-1-0.9
		c-0.5-0.4-1-0.6-1.5-0.8c-0.5-0.2-1-0.2-1.6-0.2c-0.8,0-1.4,0.1-2.1,0.4c-0.6,0.3-1.2,0.7-1.6,1.2s-0.8,1.3-1.1,2.1
		c-0.3,0.9-0.4,1.9-0.4,3.2c0,1.3,0.1,2.4,0.4,3.2s0.7,1.6,1.1,2.1c0.5,0.5,1,0.9,1.6,1.1c0.6,0.2,1.2,0.3,1.8,0.3
		c0.6,0,1.2-0.1,1.7-0.2c0.5-0.1,1-0.4,1.5-0.8c0.7-0.5,1.3-1.2,1.7-2c0.4-0.8,0.6-1.8,0.6-3.1v-1.4
		C108.2,498,108.1,497.4,108.1,496.9z"/>
	<path class="st0" d="M138.7,496.4v8.5c-0.5,0.5-1.1,0.9-1.8,1.3c-0.7,0.4-1.3,0.7-2.1,0.9c-0.7,0.2-1.4,0.4-2.2,0.5
		c-0.7,0.1-1.4,0.2-2.1,0.2c-1.6,0-2.9-0.2-4.2-0.8c-1.2-0.5-2.3-1.2-3.2-2.2c-0.9-1-1.5-2.2-2-3.6c-0.5-1.4-0.7-3-0.7-4.9
		c0-1.9,0.2-3.5,0.8-5c0.5-1.4,1.2-2.6,2.1-3.6s1.9-1.7,3.1-2.2c1.2-0.5,2.5-0.8,3.8-0.8c2.3,0,4.1,0.5,5.3,1.6
		c1.3,1.1,2.2,2.5,2.6,4.4l-1.7,0.4c-0.2-0.7-0.5-1.3-0.8-1.9c-0.3-0.6-0.7-1.1-1.2-1.5s-1.1-0.7-1.8-1c-0.7-0.2-1.5-0.4-2.5-0.4
		c-1.3,0-2.4,0.2-3.4,0.7c-1,0.5-1.8,1.2-2.4,2.1s-1.1,1.9-1.5,3.1s-0.5,2.5-0.5,4c0,1.4,0.2,2.8,0.5,4s0.8,2.2,1.5,3.1
		s1.5,1.6,2.5,2c1,0.5,2.2,0.7,3.6,0.7c1.2,0,2.3-0.2,3.4-0.5c1.1-0.3,2.1-0.8,3-1.5v-6.1h-6.2v-1.7H138.7z"/>
	<path class="st0" d="M144.6,485.4v21.9h-1.8v-21.9H144.6z"/>
	<path class="st0" d="M152.8,507.2c-0.9-0.4-1.7-0.9-2.3-1.7c-0.6-0.7-1.1-1.6-1.4-2.6c-0.3-1-0.5-2.2-0.5-3.4
		c0-1.3,0.2-2.5,0.5-3.5c0.4-1,0.9-1.9,1.5-2.7s1.4-1.3,2.3-1.7c0.9-0.4,1.9-0.6,3.1-0.6c1.1,0,2.2,0.2,3.1,0.6
		c0.9,0.4,1.7,0.9,2.3,1.7c0.6,0.7,1.1,1.6,1.5,2.6c0.3,1,0.5,2.2,0.5,3.4c0,1.3-0.2,2.5-0.5,3.5c-0.3,1-0.8,1.9-1.5,2.7
		s-1.4,1.3-2.4,1.7c-0.9,0.4-2,0.6-3.1,0.6C154.7,507.7,153.7,507.5,152.8,507.2z M158.5,505.7c0.7-0.4,1.3-0.8,1.7-1.5
		c0.4-0.6,0.8-1.3,1-2.2c0.2-0.8,0.3-1.7,0.3-2.7c0-0.9-0.1-1.8-0.3-2.6c-0.2-0.8-0.5-1.5-1-2.2s-1-1.1-1.7-1.5
		c-0.7-0.4-1.5-0.5-2.5-0.5c-1,0-1.8,0.2-2.5,0.5c-0.7,0.4-1.3,0.8-1.7,1.5s-0.8,1.3-1,2.2c-0.2,0.8-0.3,1.7-0.3,2.7
		c0,1,0.1,1.9,0.3,2.7c0.2,0.8,0.5,1.6,1,2.2c0.4,0.6,1,1.1,1.7,1.5c0.7,0.4,1.5,0.5,2.5,0.5C156.9,506.2,157.8,506,158.5,505.7z"/>
	<path class="st0" d="M169,485.4v8.5c0.7-0.9,1.5-1.6,2.4-2.1s1.9-0.8,3.1-0.8c1.1,0,2.1,0.2,3,0.6s1.6,1,2.1,1.7
		c0.6,0.7,1,1.6,1.3,2.6c0.3,1,0.4,2.1,0.4,3.2c0,1.3-0.2,2.5-0.5,3.6c-0.3,1.1-0.8,1.9-1.4,2.7c-0.6,0.7-1.4,1.3-2.2,1.7
		c-0.9,0.4-1.8,0.6-2.9,0.6c-1,0-1.9-0.2-2.8-0.6c-0.9-0.4-1.7-1.1-2.4-2.1v2.1h-1.8v-21.9H169z M169,501.8c0.1,0.5,0.2,1,0.4,1.4
		c0.2,0.4,0.4,0.8,0.7,1.1c0.3,0.3,0.6,0.6,1,0.9c0.5,0.4,0.9,0.6,1.4,0.8c0.5,0.2,1.1,0.2,1.7,0.2c0.8,0,1.4-0.1,2.1-0.4
		c0.6-0.3,1.2-0.7,1.6-1.2s0.8-1.3,1.1-2.2c0.3-0.9,0.4-2,0.4-3.2c0-1.3-0.1-2.4-0.4-3.2c-0.3-0.9-0.7-1.5-1.1-2.1
		c-0.5-0.5-1-0.9-1.6-1.1c-0.6-0.2-1.2-0.3-1.7-0.3c-0.6,0-1.2,0.1-1.7,0.2c-0.5,0.1-1,0.4-1.5,0.8c-0.7,0.5-1.3,1.2-1.7,2
		c-0.4,0.8-0.6,1.8-0.6,3.1v1.4C168.9,500.7,168.9,501.3,169,501.8z"/>
	<path class="st0" d="M194.1,506c-0.4,0.3-0.8,0.6-1.3,0.8c-0.5,0.2-1,0.4-1.5,0.6c-0.6,0.1-1.2,0.2-1.9,0.2c-1.7,0-3-0.4-4-1.2
		c-1-0.8-1.5-2-1.5-3.6c0-1.1,0.2-1.9,0.7-2.6s1-1.2,1.8-1.6c0.7-0.4,1.6-0.7,2.5-0.8c0.9-0.2,1.9-0.2,3-0.3l3.1-0.1V497
		c0-1.6-0.3-2.7-0.9-3.4c-0.6-0.7-1.7-1.1-3.2-1.1c-0.8,0-1.4,0.1-1.9,0.2c-0.5,0.1-1,0.3-1.3,0.5c-0.3,0.2-0.6,0.5-0.8,0.8
		s-0.4,0.7-0.5,1.1l-1.6-0.2c0.6-2.6,2.6-3.9,6.2-3.9c1.1,0,2,0.1,2.8,0.4c0.8,0.3,1.4,0.6,1.8,1.1c0.5,0.5,0.8,1.1,1,1.8
		c0.2,0.7,0.3,1.6,0.3,2.5v10.4h-1.8V505C194.8,505.3,194.5,505.7,194.1,506z M192.1,499c-1.2,0-2.2,0.1-3,0.3
		c-0.8,0.2-1.4,0.4-1.9,0.7c-0.5,0.3-0.8,0.7-1.1,1.2s-0.3,1-0.3,1.6c0,1,0.3,1.7,0.8,2.3c0.5,0.6,1.5,0.9,2.8,0.9
		c0.7,0,1.3-0.1,2-0.2c0.7-0.2,1.2-0.4,1.6-0.8c0.4-0.3,0.7-0.5,0.9-0.8c0.2-0.2,0.4-0.5,0.6-0.8c0.2-0.3,0.3-0.6,0.3-1
		c0.1-0.4,0.1-0.8,0.1-1.3v-2.3L192.1,499z"/>
	<path class="st0" d="M203,485.4v21.9h-1.8v-21.9H203z"/>
</g>
<g>
	<path class="st0" d="M7.1,571.9c1.6,0,2.9,0.2,3.9,0.5c1,0.3,1.8,0.8,2.4,1.4c0.6,0.6,1,1.2,1.2,2s0.3,1.6,0.3,2.4
		c0,0.9-0.1,1.8-0.4,2.6c-0.2,0.8-0.6,1.5-1.2,2.1c-0.6,0.6-1.4,1.1-2.4,1.5c-1,0.4-2.3,0.5-3.9,0.5H1.9v8.9H0.1v-21.9H7.1z
		 M10.1,583c0.8-0.2,1.4-0.6,1.8-1s0.8-0.9,0.9-1.6c0.2-0.6,0.2-1.3,0.2-2.1c0-0.8-0.1-1.5-0.3-2.1c-0.2-0.6-0.5-1.1-1-1.5
		c-0.5-0.4-1.1-0.7-1.9-0.9s-1.8-0.3-2.9-0.3H1.9v9.8h5.2C8.3,583.3,9.3,583.2,10.1,583z"/>
	<path class="st0" d="M26.8,592.5c-0.4,0.3-0.8,0.6-1.3,0.8c-0.5,0.2-1,0.4-1.5,0.6c-0.6,0.1-1.2,0.2-1.9,0.2c-1.7,0-3-0.4-4-1.2
		c-1-0.8-1.5-2-1.5-3.6c0-1.1,0.2-1.9,0.7-2.6s1-1.2,1.8-1.6c0.7-0.4,1.6-0.7,2.5-0.8c0.9-0.2,1.9-0.2,3-0.3l3.1-0.1v-0.5
		c0-1.6-0.3-2.7-0.9-3.4c-0.6-0.7-1.7-1.1-3.2-1.1c-0.8,0-1.4,0.1-1.9,0.2c-0.5,0.1-1,0.3-1.3,0.5c-0.3,0.2-0.6,0.5-0.8,0.8
		s-0.4,0.7-0.5,1.1l-1.6-0.2c0.6-2.6,2.6-3.9,6.2-3.9c1.1,0,2,0.1,2.8,0.4c0.8,0.3,1.4,0.6,1.8,1.1c0.5,0.5,0.8,1.1,1,1.8
		c0.2,0.7,0.3,1.6,0.3,2.5v10.4h-1.8v-2.2C27.4,591.9,27.1,592.2,26.8,592.5z M24.8,585.5c-1.2,0-2.2,0.1-3,0.3
		c-0.8,0.2-1.4,0.4-1.9,0.7c-0.5,0.3-0.8,0.7-1.1,1.2s-0.3,1-0.3,1.6c0,1,0.3,1.7,0.8,2.3c0.5,0.6,1.5,0.9,2.8,0.9
		c0.7,0,1.3-0.1,2-0.2c0.7-0.2,1.2-0.4,1.6-0.8c0.4-0.3,0.7-0.5,0.9-0.8c0.2-0.2,0.4-0.5,0.6-0.8c0.2-0.3,0.3-0.6,0.3-1
		c0.1-0.4,0.1-0.8,0.1-1.3v-2.3L24.8,585.5z"/>
	<path class="st0" d="M33.3,572.2v2.6h-2v-2.6H33.3z M35.6,578v15.8h-1.8V578H35.6z M38.2,572.2v2.6h-2v-2.6H38.2z"/>
	<path class="st0" d="M42.5,592c0.8,0.5,2,0.8,3.5,0.8c1.5,0,2.6-0.3,3.2-0.9c0.6-0.6,0.9-1.3,0.9-2.1c0-0.4,0-0.7-0.1-1
		s-0.2-0.6-0.5-0.9c-0.2-0.3-0.6-0.5-1-0.7c-0.4-0.2-1-0.3-1.7-0.5l-1.9-0.3c-0.8-0.1-1.6-0.3-2.3-0.5s-1.2-0.5-1.7-0.8
		c-0.5-0.3-0.8-0.8-1-1.3c-0.2-0.5-0.4-1.1-0.4-1.9c0-0.7,0.2-1.3,0.5-1.9c0.3-0.6,0.7-1,1.3-1.4s1.2-0.7,1.9-0.9
		c0.7-0.2,1.5-0.3,2.3-0.3c1.1,0,2,0.1,2.7,0.3c0.7,0.2,1.3,0.5,1.8,0.9c0.5,0.4,0.8,0.8,1.1,1.3c0.3,0.5,0.5,1,0.6,1.6l-1.6,0.3
		c-0.2-0.5-0.4-0.9-0.6-1.2s-0.5-0.7-0.8-0.9s-0.7-0.4-1.2-0.5c-0.5-0.1-1.1-0.2-1.8-0.2c-0.8,0-1.5,0.1-2.1,0.2
		c-0.6,0.2-1,0.4-1.3,0.6c-0.3,0.3-0.6,0.6-0.7,0.9s-0.2,0.7-0.2,1.1c0,0.4,0,0.7,0.1,1c0.1,0.3,0.2,0.6,0.5,0.8
		c0.2,0.2,0.6,0.4,1,0.6c0.4,0.2,1,0.3,1.7,0.4l2.4,0.4c1.7,0.3,2.9,0.8,3.7,1.5c0.8,0.7,1.2,1.8,1.2,3.2c0,0.6-0.1,1.2-0.4,1.7
		c-0.3,0.6-0.6,1-1.1,1.4s-1.1,0.7-1.9,0.9s-1.6,0.4-2.6,0.4c-1,0-1.8-0.1-2.6-0.3c-0.8-0.2-1.5-0.5-2.1-0.9
		c-0.6-0.4-1.1-0.9-1.4-1.5c-0.4-0.6-0.6-1.4-0.7-2.2h1.7C41.2,590.6,41.7,591.5,42.5,592z"/>
	<path class="st0" d="M59.5,593.7c-0.9-0.4-1.7-0.9-2.3-1.7c-0.6-0.7-1.1-1.6-1.4-2.6c-0.3-1-0.5-2.2-0.5-3.4c0-1.3,0.2-2.5,0.5-3.5
		c0.4-1,0.9-1.9,1.5-2.7s1.4-1.3,2.3-1.7c0.9-0.4,1.9-0.6,3.1-0.6c1.1,0,2.2,0.2,3.1,0.6c0.9,0.4,1.7,0.9,2.3,1.7
		c0.6,0.7,1.1,1.6,1.5,2.6c0.3,1,0.5,2.2,0.5,3.4c0,1.3-0.2,2.5-0.5,3.5c-0.3,1-0.8,1.9-1.5,2.7s-1.4,1.3-2.4,1.7
		c-0.9,0.4-2,0.6-3.1,0.6C61.4,594.3,60.4,594.1,59.5,593.7z M65.2,592.2c0.7-0.4,1.3-0.8,1.7-1.5c0.4-0.6,0.8-1.3,1-2.2
		c0.2-0.8,0.3-1.7,0.3-2.7c0-0.9-0.1-1.8-0.3-2.6c-0.2-0.8-0.5-1.5-1-2.2s-1-1.1-1.7-1.5c-0.7-0.4-1.5-0.5-2.5-0.5
		c-1,0-1.8,0.2-2.5,0.5c-0.7,0.4-1.3,0.8-1.7,1.5s-0.8,1.3-1,2.2c-0.2,0.8-0.3,1.7-0.3,2.7c0,1,0.1,1.9,0.3,2.7
		c0.2,0.8,0.5,1.6,1,2.2c0.4,0.6,1,1.1,1.7,1.5c0.7,0.4,1.5,0.5,2.5,0.5C63.6,592.8,64.5,592.6,65.2,592.2z"/>
	<path class="st0" d="M76.4,592c0.8,0.5,2,0.8,3.5,0.8c1.5,0,2.6-0.3,3.2-0.9c0.6-0.6,0.9-1.3,0.9-2.1c0-0.4,0-0.7-0.1-1
		s-0.2-0.6-0.5-0.9c-0.2-0.3-0.6-0.5-1-0.7c-0.4-0.2-1-0.3-1.7-0.5l-1.9-0.3c-0.8-0.1-1.6-0.3-2.3-0.5s-1.2-0.5-1.7-0.8
		c-0.5-0.3-0.8-0.8-1-1.3c-0.2-0.5-0.4-1.1-0.4-1.9c0-0.7,0.2-1.3,0.5-1.9c0.3-0.6,0.7-1,1.3-1.4s1.2-0.7,1.9-0.9
		c0.7-0.2,1.5-0.3,2.3-0.3c1.1,0,2,0.1,2.7,0.3c0.7,0.2,1.3,0.5,1.8,0.9c0.5,0.4,0.8,0.8,1.1,1.3c0.3,0.5,0.5,1,0.6,1.6l-1.6,0.3
		c-0.2-0.5-0.4-0.9-0.6-1.2s-0.5-0.7-0.8-0.9s-0.7-0.4-1.2-0.5c-0.5-0.1-1.1-0.2-1.8-0.2c-0.8,0-1.5,0.1-2.1,0.2
		c-0.6,0.2-1,0.4-1.3,0.6c-0.3,0.3-0.6,0.6-0.7,0.9s-0.2,0.7-0.2,1.1c0,0.4,0,0.7,0.1,1c0.1,0.3,0.2,0.6,0.5,0.8
		c0.2,0.2,0.6,0.4,1,0.6c0.4,0.2,1,0.3,1.7,0.4l2.4,0.4c1.7,0.3,2.9,0.8,3.7,1.5c0.8,0.7,1.2,1.8,1.2,3.2c0,0.6-0.1,1.2-0.4,1.7
		c-0.3,0.6-0.6,1-1.1,1.4s-1.1,0.7-1.9,0.9s-1.6,0.4-2.6,0.4c-1,0-1.8-0.1-2.6-0.3c-0.8-0.2-1.5-0.5-2.1-0.9
		c-0.6-0.4-1.1-0.9-1.4-1.5c-0.4-0.6-0.6-1.4-0.7-2.2h1.7C75.1,590.6,75.6,591.5,76.4,592z"/>
	<path class="st0" d="M105.9,593.5c-0.9,0.5-1.9,0.8-3.2,0.8c-1.2,0-2.2-0.2-3-0.7s-1.5-1.1-2.1-1.8s-1-1.6-1.2-2.6
		c-0.3-1-0.4-2-0.4-3.1c0-2.7,0.6-4.8,1.9-6.3c1.3-1.5,3-2.3,5.2-2.3c0.9,0,1.7,0.2,2.6,0.6c0.9,0.4,1.7,1.1,2.5,2.1v-8.2h1.8v21.9
		h-1.8v-2.4C107.5,592.3,106.8,593,105.9,593.5z M108.2,583.4c-0.1-0.5-0.2-1-0.4-1.4c-0.2-0.4-0.4-0.8-0.7-1.1
		c-0.3-0.3-0.6-0.6-1-0.9c-0.5-0.4-1-0.6-1.5-0.8c-0.5-0.2-1-0.2-1.6-0.2c-0.8,0-1.4,0.1-2.1,0.4c-0.6,0.3-1.2,0.7-1.6,1.2
		s-0.8,1.3-1.1,2.1c-0.3,0.9-0.4,1.9-0.4,3.2c0,1.3,0.1,2.4,0.4,3.2c0.3,0.9,0.7,1.6,1.1,2.1c0.5,0.5,1,0.9,1.6,1.1
		c0.6,0.2,1.2,0.3,1.8,0.3c0.6,0,1.2-0.1,1.7-0.2c0.5-0.1,1-0.4,1.5-0.8c0.7-0.5,1.3-1.2,1.7-2c0.4-0.8,0.6-1.8,0.6-3.1v-1.4
		C108.3,584.6,108.3,583.9,108.2,583.4z"/>
	<path class="st0" d="M125.5,593c-1.1,0.9-2.6,1.3-4.5,1.3c-2.3,0-4-0.7-5.3-2.2c-1.3-1.5-1.9-3.5-1.9-6c0-1.4,0.2-2.6,0.5-3.7
		c0.4-1.1,0.9-2,1.5-2.7c0.6-0.7,1.4-1.3,2.3-1.6c0.9-0.4,1.8-0.6,2.9-0.6c1.2,0,2.3,0.2,3.1,0.6c0.9,0.4,1.6,0.9,2.1,1.6
		c0.5,0.7,0.9,1.5,1.2,2.4c0.2,0.9,0.4,1.9,0.4,3v1.1h-12.1c0,0.9,0.1,1.7,0.3,2.5c0.2,0.8,0.6,1.5,1,2.1c0.4,0.6,1,1,1.7,1.4
		c0.7,0.3,1.4,0.5,2.3,0.5c0.8,0,1.5-0.1,2-0.2c0.6-0.2,1-0.4,1.4-0.7c0.4-0.3,0.7-0.6,0.9-1c0.2-0.4,0.4-0.8,0.5-1.3h1.7
		C127.2,591,126.5,592.1,125.5,593z M125.6,582.5c-0.2-0.7-0.5-1.3-0.9-1.9c-0.4-0.5-0.9-0.9-1.5-1.2c-0.6-0.3-1.4-0.4-2.3-0.4
		c-1.5,0-2.8,0.5-3.7,1.4c-0.9,1-1.5,2.4-1.7,4.4h10.3C125.9,584,125.8,583.2,125.6,582.5z"/>
	<path class="st0" d="M133.3,571.9v21.9h-1.8v-21.9H133.3z"/>
	<path class="st0" d="M2.9,628.3c1.1,0.7,2.7,1.1,4.8,1.1c1.1,0,2-0.1,2.7-0.4c0.7-0.2,1.3-0.6,1.7-1c0.4-0.4,0.7-0.9,0.9-1.4
		s0.3-1.1,0.3-1.7c0-0.5-0.1-1-0.2-1.5c-0.1-0.5-0.3-0.9-0.6-1.3c-0.3-0.4-0.8-0.7-1.4-1c-0.6-0.3-1.4-0.5-2.3-0.7l-2.7-0.5
		c-1.1-0.2-2-0.4-2.8-0.7c-0.8-0.3-1.5-0.7-2.1-1.1c-0.6-0.5-1-1-1.3-1.7c-0.3-0.7-0.4-1.5-0.4-2.5s0.2-1.9,0.6-2.6s1-1.3,1.7-1.8
		c0.7-0.5,1.5-0.8,2.5-1.1s2-0.4,3-0.4c1.4,0,2.5,0.1,3.4,0.4c0.9,0.3,1.7,0.7,2.3,1.2c0.6,0.5,1.1,1,1.4,1.7s0.6,1.3,0.8,1.9
		l-1.7,0.5c-0.2-0.6-0.4-1.2-0.7-1.7c-0.3-0.5-0.6-0.9-1.1-1.3c-0.5-0.3-1-0.6-1.7-0.8c-0.7-0.2-1.5-0.3-2.5-0.3
		c-1.1,0-2.1,0.1-2.8,0.3c-0.8,0.2-1.4,0.5-1.8,0.9c-0.5,0.4-0.8,0.8-1,1.3s-0.3,1.1-0.3,1.7c0,0.6,0.1,1.1,0.2,1.6
		c0.1,0.4,0.4,0.8,0.7,1.2c0.3,0.3,0.8,0.6,1.4,0.8s1.3,0.4,2.2,0.6l3.1,0.6c1.1,0.2,2.1,0.5,2.9,0.8c0.8,0.3,1.5,0.7,2,1.2
		c0.5,0.5,0.9,1.1,1.2,1.8c0.3,0.7,0.4,1.5,0.4,2.4c0,0.8-0.2,1.6-0.5,2.4s-0.8,1.4-1.5,1.9s-1.4,1-2.4,1.3c-1,0.3-2.1,0.5-3.4,0.5
		c-1.2,0-2.3-0.1-3.3-0.3c-1-0.2-1.9-0.6-2.7-1.1s-1.4-1.1-1.9-1.9c-0.5-0.8-0.8-1.8-0.9-2.9h1.8C1.1,626.4,1.8,627.6,2.9,628.3z"/>
	<path class="st0" d="M21.1,614.8v10c0,1.7,0.3,2.8,0.8,3.6c0.5,0.7,1.4,1.1,2.7,1.1c0.6,0,1.3-0.1,1.9-0.4c0.6-0.2,1.2-0.6,1.8-1.1
		c0.6-0.5,1-1.1,1.3-1.6c0.3-0.6,0.5-1.3,0.5-2.3v-9.2h1.8v15.8H30V628c-1.7,2-3.6,3.1-5.7,3.1c-1.8,0-3.1-0.5-3.9-1.5
		s-1.2-2.4-1.2-4.3v-10.5H21.1z"/>
	<path class="st0" d="M45.5,630.3c-0.9,0.5-1.9,0.8-3.2,0.8c-1.2,0-2.2-0.2-3-0.7s-1.5-1.1-2.1-1.8s-1-1.6-1.2-2.6
		c-0.3-1-0.4-2-0.4-3.1c0-2.7,0.6-4.8,1.9-6.3c1.3-1.5,3-2.3,5.2-2.3c0.9,0,1.7,0.2,2.6,0.6c0.9,0.4,1.7,1.1,2.5,2.1v-8.2h1.8v21.9
		h-1.8v-2.4C47.2,629.1,46.4,629.8,45.5,630.3z M47.8,620.2c-0.1-0.5-0.2-1-0.4-1.4c-0.2-0.4-0.4-0.8-0.7-1.1
		c-0.3-0.3-0.6-0.6-1-0.9c-0.5-0.4-1-0.6-1.5-0.8c-0.5-0.2-1-0.2-1.6-0.2c-0.8,0-1.4,0.1-2.1,0.4c-0.6,0.3-1.2,0.7-1.6,1.2
		s-0.8,1.3-1.1,2.1c-0.3,0.9-0.4,1.9-0.4,3.2c0,1.3,0.1,2.4,0.4,3.2c0.3,0.9,0.7,1.6,1.1,2.1c0.5,0.5,1,0.9,1.6,1.1
		c0.6,0.2,1.2,0.3,1.8,0.3c0.6,0,1.2-0.1,1.7-0.2c0.5-0.1,1-0.4,1.5-0.8c0.7-0.5,1.3-1.2,1.7-2c0.4-0.8,0.6-1.8,0.6-3.1V622
		C47.9,621.3,47.9,620.7,47.8,620.2z"/>
	<path class="st0" d="M78.5,619.7v8.5c-0.5,0.5-1.1,0.9-1.8,1.3c-0.7,0.4-1.3,0.7-2.1,0.9c-0.7,0.2-1.4,0.4-2.2,0.5
		c-0.7,0.1-1.4,0.2-2.1,0.2c-1.6,0-2.9-0.2-4.2-0.8c-1.2-0.5-2.3-1.2-3.2-2.2c-0.9-1-1.5-2.2-2-3.6c-0.5-1.4-0.7-3-0.7-4.9
		c0-1.9,0.2-3.5,0.8-5c0.5-1.4,1.2-2.6,2.1-3.6s1.9-1.7,3.1-2.2c1.2-0.5,2.5-0.8,3.8-0.8c2.3,0,4.1,0.5,5.3,1.6
		c1.3,1.1,2.2,2.5,2.6,4.4l-1.7,0.4c-0.2-0.7-0.5-1.3-0.8-1.9c-0.3-0.6-0.7-1.1-1.2-1.5s-1.1-0.7-1.8-1c-0.7-0.2-1.5-0.4-2.5-0.4
		c-1.3,0-2.4,0.2-3.4,0.7c-1,0.5-1.8,1.2-2.4,2.1s-1.1,1.9-1.5,3.1c-0.3,1.2-0.5,2.5-0.5,4c0,1.4,0.2,2.8,0.5,4
		c0.3,1.2,0.8,2.2,1.5,3.1c0.7,0.9,1.5,1.6,2.5,2c1,0.5,2.2,0.7,3.6,0.7c1.2,0,2.3-0.2,3.4-0.5c1.1-0.3,2.1-0.8,3-1.5v-6.1h-6.2
		v-1.7H78.5z"/>
	<path class="st0" d="M84.4,608.7v21.9h-1.8v-21.9H84.4z"/>
	<path class="st0" d="M92.5,630.4c-0.9-0.4-1.7-0.9-2.3-1.7c-0.6-0.7-1.1-1.6-1.4-2.6c-0.3-1-0.5-2.2-0.5-3.4c0-1.3,0.2-2.5,0.5-3.5
		c0.4-1,0.9-1.9,1.5-2.7c0.6-0.7,1.4-1.3,2.3-1.7c0.9-0.4,1.9-0.6,3.1-0.6c1.1,0,2.2,0.2,3.1,0.6c0.9,0.4,1.7,0.9,2.3,1.7
		c0.6,0.7,1.1,1.6,1.5,2.6c0.3,1,0.5,2.2,0.5,3.4c0,1.3-0.2,2.5-0.5,3.5c-0.3,1-0.8,1.9-1.5,2.7s-1.4,1.3-2.4,1.7
		c-0.9,0.4-2,0.6-3.1,0.6C94.5,631,93.4,630.8,92.5,630.4z M98.2,629c0.7-0.4,1.3-0.8,1.7-1.5c0.4-0.6,0.8-1.3,1-2.2
		s0.3-1.7,0.3-2.7c0-0.9-0.1-1.8-0.3-2.6c-0.2-0.8-0.5-1.5-1-2.2s-1-1.1-1.7-1.5c-0.7-0.4-1.5-0.5-2.5-0.5c-1,0-1.8,0.2-2.5,0.5
		c-0.7,0.4-1.3,0.8-1.7,1.5s-0.8,1.3-1,2.2c-0.2,0.8-0.3,1.7-0.3,2.7c0,1,0.1,1.9,0.3,2.7c0.2,0.8,0.5,1.6,1,2.2
		c0.4,0.6,1,1.1,1.7,1.5c0.7,0.4,1.5,0.5,2.5,0.5C96.7,629.5,97.5,629.3,98.2,629z"/>
	<path class="st0" d="M108.7,608.7v8.5c0.7-0.9,1.5-1.6,2.4-2.1s1.9-0.8,3.1-0.8c1.1,0,2.1,0.2,3,0.6s1.6,1,2.1,1.7
		c0.6,0.7,1,1.6,1.3,2.6c0.3,1,0.4,2.1,0.4,3.2c0,1.3-0.2,2.5-0.5,3.6c-0.3,1.1-0.8,1.9-1.4,2.7c-0.6,0.7-1.4,1.3-2.2,1.7
		s-1.8,0.6-2.9,0.6c-1,0-1.9-0.2-2.8-0.6s-1.7-1.1-2.4-2.1v2.1h-1.8v-21.9H108.7z M108.7,625.1c0.1,0.5,0.2,1,0.4,1.4
		c0.2,0.4,0.4,0.8,0.7,1.1c0.3,0.3,0.6,0.6,1,0.9c0.5,0.4,0.9,0.6,1.4,0.8c0.5,0.2,1.1,0.2,1.7,0.2c0.8,0,1.4-0.1,2.1-0.4
		c0.6-0.3,1.2-0.7,1.6-1.2s0.8-1.3,1.1-2.2c0.3-0.9,0.4-2,0.4-3.2c0-1.3-0.1-2.4-0.4-3.2c-0.3-0.9-0.7-1.5-1.1-2.1
		c-0.5-0.5-1-0.9-1.6-1.1c-0.6-0.2-1.2-0.3-1.7-0.3c-0.6,0-1.2,0.1-1.7,0.2c-0.5,0.1-1,0.4-1.5,0.8c-0.7,0.5-1.3,1.2-1.7,2
		c-0.4,0.8-0.6,1.8-0.6,3.1v1.4C108.6,624,108.7,624.6,108.7,625.1z"/>
	<path class="st0" d="M133.9,629.3c-0.4,0.3-0.8,0.6-1.3,0.8c-0.5,0.2-1,0.4-1.5,0.6c-0.6,0.1-1.2,0.2-1.9,0.2c-1.7,0-3-0.4-4-1.2
		c-1-0.8-1.5-2-1.5-3.6c0-1.1,0.2-1.9,0.7-2.6s1-1.2,1.8-1.6c0.7-0.4,1.6-0.7,2.5-0.8c0.9-0.2,1.9-0.3,3-0.3l3.1-0.1v-0.5
		c0-1.6-0.3-2.7-0.9-3.4c-0.6-0.7-1.7-1.1-3.2-1.1c-0.8,0-1.4,0.1-1.9,0.2c-0.5,0.1-1,0.3-1.3,0.5c-0.3,0.2-0.6,0.5-0.8,0.8
		s-0.4,0.7-0.5,1.1l-1.6-0.2c0.6-2.6,2.6-3.9,6.2-3.9c1.1,0,2,0.1,2.8,0.4c0.8,0.3,1.4,0.6,1.8,1.1c0.5,0.5,0.8,1.1,1,1.8
		c0.2,0.7,0.3,1.6,0.3,2.5v10.4h-1.8v-2.2C134.6,628.6,134.2,629,133.9,629.3z M131.9,622.3c-1.2,0-2.2,0.1-3,0.3
		c-0.8,0.2-1.4,0.4-1.9,0.7c-0.5,0.3-0.8,0.7-1.1,1.2s-0.3,1-0.3,1.6c0,1,0.3,1.7,0.8,2.3c0.5,0.6,1.5,0.9,2.8,0.9
		c0.7,0,1.3-0.1,2-0.2c0.7-0.2,1.2-0.4,1.6-0.8c0.4-0.3,0.7-0.5,0.9-0.8c0.2-0.2,0.4-0.5,0.6-0.8c0.2-0.3,0.3-0.6,0.3-1
		c0.1-0.4,0.1-0.8,0.1-1.3v-2.3L131.9,622.3z"/>
	<path class="st0" d="M142.7,608.7v21.9h-1.8v-21.9H142.7z"/>
</g>
<g id="Capa_1_1_">
</g>
<g>
	<g>
		<line class="st1" x1="0.5" y1="539.8" x2="1285.4" y2="539.8"/>
	</g>
	<g>
		<g>
			<g>
				<path class="st2" d="M515.1,877.3c46.2,20.7,97.3,32.2,151.2,32.2c204.2,0,369.7-165.5,369.7-369.7c0-84.8-28.6-163-76.6-225.3"
					/>
				<g>
					<path class="st3" d="M532.6,905.7c0.9-0.6,1.2-1.9,0.5-2.8l-17.2-25.3l30.2-4.8c1.1-0.2,1.8-1.2,1.7-2.3
						c-0.2-1.1-1.2-1.8-2.3-1.7l-33.3,5.3c-0.7,0.1-1.2,0.6-1.5,1.2c-0.3,0.6-0.2,1.4,0.2,1.9l18.9,27.9c0.2,0.3,0.5,0.6,0.9,0.7
						C531.3,906.1,532.1,906.1,532.6,905.7z"/>
				</g>
			</g>
		</g>
	</g>
</g>
</svg>
