<?xml version="1.0" encoding="utf-8"?>
<!-- Generator: Adobe Illustrator 21.0.0, SVG Export Plug-In . SVG Version: 6.00 Build 0)  -->
<svg version="1.1" id="Capa_1" xmlns="http://www.w3.org/2000/svg" xmlns:xlink="http://www.w3.org/1999/xlink" x="0px" y="0px"
	 viewBox="0 0 1280 1338" style="enable-background:new 0 0 1280 1338;" xml:space="preserve">
<style type="text/css">
	.st0{fill:none;stroke:#FFFFFF;stroke-miterlimit:10;}
	.st1{enable-background:new    ;}
	.st2{fill:#FFFFFF;}
	.st3{fill:none;stroke:#FF0000;stroke-width:4;stroke-miterlimit:10;}
	.st4{fill:#FF0000;}
</style>
<g id="Capa_1_1_">
</g>
<g>
	<line class="st0" x1="0.5" y1="540.5" x2="1285.4" y2="540.5"/>
	<g class="st1">
		<path class="st2" d="M65.8,478.1c1,0,1.9,0.1,2.6,0.3c0.7,0.2,1.2,0.5,1.6,0.9c0.4,0.4,0.6,0.8,0.8,1.3c0.1,0.5,0.2,1,0.2,1.6
			s-0.1,1.1-0.2,1.7c-0.2,0.5-0.4,1-0.8,1.4c-0.4,0.4-0.9,0.7-1.6,1c-0.7,0.2-1.5,0.3-2.6,0.3h-3.4v5.8h-1.2v-14.3L65.8,478.1
			L65.8,478.1z M67.8,485.3c0.5-0.2,0.9-0.4,1.2-0.7s0.5-0.6,0.6-1s0.2-0.9,0.2-1.4s-0.1-1-0.2-1.4s-0.3-0.7-0.6-1s-0.7-0.5-1.2-0.6
			s-1.1-0.2-1.9-0.2h-3.4v6.4h3.4C66.6,485.5,67.3,485.5,67.8,485.3z"/>
		<path class="st2" d="M78.7,491.5c-0.2,0.2-0.5,0.4-0.8,0.5s-0.6,0.3-1,0.4s-0.8,0.1-1.2,0.1c-1.1,0-1.9-0.3-2.6-0.8s-1-1.3-1-2.3
			c0-0.7,0.1-1.3,0.4-1.7c0.3-0.4,0.7-0.8,1.2-1c0.5-0.3,1-0.4,1.7-0.5c0.6-0.1,1.3-0.2,1.9-0.2l2-0.1v-0.3c0-1-0.2-1.8-0.6-2.2
			c-0.4-0.5-1.1-0.7-2.1-0.7c-0.5,0-0.9,0-1.3,0.1c-0.3,0.1-0.6,0.2-0.9,0.4s-0.4,0.3-0.5,0.5c-0.1,0.2-0.2,0.4-0.3,0.7l-1.1-0.2
			c0.4-1.7,1.7-2.5,4-2.5c0.7,0,1.3,0.1,1.8,0.3c0.5,0.2,0.9,0.4,1.2,0.8c0.3,0.3,0.5,0.7,0.6,1.2s0.2,1,0.2,1.6v6.8h-1.2v-1.5
			C79.1,491.1,78.9,491.3,78.7,491.5z M77.4,487c-0.8,0-1.4,0.1-1.9,0.2s-0.9,0.3-1.3,0.5c-0.3,0.2-0.6,0.5-0.7,0.8
			c-0.1,0.3-0.2,0.7-0.2,1.1c0,0.6,0.2,1.1,0.5,1.5c0.4,0.4,1,0.6,1.9,0.6c0.4,0,0.9-0.1,1.3-0.2s0.8-0.3,1.1-0.5
			c0.2-0.2,0.4-0.3,0.6-0.5s0.3-0.3,0.4-0.5s0.2-0.4,0.2-0.7c0-0.2,0.1-0.5,0.1-0.8V487H77.4z"/>
		<path class="st2" d="M82.9,478.3v1.7h-1.3v-1.7H82.9z M84.5,482.1v10.3h-1.2v-10.3H84.5z M86.2,478.3v1.7h-1.3v-1.7H86.2z"/>
		<path class="st2" d="M89,491.2c0.5,0.3,1.3,0.5,2.3,0.5s1.7-0.2,2.1-0.6s0.6-0.8,0.6-1.4c0-0.2,0-0.5-0.1-0.7s-0.2-0.4-0.3-0.6
			c-0.2-0.2-0.4-0.3-0.7-0.4c-0.3-0.1-0.7-0.2-1.1-0.3l-1.3-0.2c-0.5-0.1-1-0.2-1.5-0.3c-0.4-0.1-0.8-0.3-1.1-0.5
			c-0.3-0.2-0.5-0.5-0.7-0.8s-0.2-0.7-0.2-1.2s0.1-0.9,0.3-1.2c0.2-0.4,0.5-0.7,0.8-0.9c0.3-0.2,0.8-0.4,1.2-0.6
			c0.5-0.1,1-0.2,1.5-0.2c0.7,0,1.3,0.1,1.8,0.2s0.9,0.3,1.2,0.6c0.3,0.2,0.5,0.5,0.7,0.8s0.3,0.7,0.4,1l-1.1,0.2
			c-0.1-0.3-0.2-0.6-0.4-0.8c-0.1-0.2-0.3-0.4-0.5-0.6s-0.5-0.3-0.8-0.3c-0.3-0.1-0.7-0.1-1.2-0.1s-1,0-1.3,0.2
			c-0.4,0.1-0.6,0.2-0.9,0.4c-0.2,0.2-0.4,0.4-0.5,0.6s-0.1,0.5-0.1,0.7s0,0.5,0.1,0.7s0.2,0.4,0.3,0.5s0.4,0.3,0.7,0.4
			c0.3,0.1,0.7,0.2,1.1,0.3l1.6,0.3c1.1,0.2,1.9,0.5,2.4,1s0.8,1.2,0.8,2.1c0,0.4-0.1,0.8-0.3,1.1c-0.2,0.4-0.4,0.7-0.7,0.9
			c-0.3,0.3-0.7,0.5-1.2,0.6s-1.1,0.2-1.7,0.2s-1.2-0.1-1.7-0.2s-1-0.3-1.4-0.6c-0.4-0.3-0.7-0.6-0.9-1s-0.4-0.9-0.4-1.5h1.1
			C88.1,490.3,88.4,490.9,89,491.2z"/>
		<path class="st2" d="M100,492.3c-0.6-0.3-1.1-0.6-1.5-1.1s-0.7-1-0.9-1.7c-0.2-0.7-0.3-1.4-0.3-2.2c0-0.8,0.1-1.6,0.4-2.3
			c0.2-0.7,0.6-1.3,1-1.7c0.4-0.5,0.9-0.8,1.5-1.1c0.6-0.3,1.3-0.4,2-0.4s1.4,0.1,2,0.4s1.1,0.6,1.5,1.1s0.7,1,1,1.7
			c0.2,0.7,0.3,1.4,0.3,2.2c0,0.8-0.1,1.6-0.3,2.3c-0.2,0.7-0.6,1.3-1,1.8s-0.9,0.9-1.5,1.1c-0.6,0.3-1.3,0.4-2.1,0.4
			S100.6,492.6,100,492.3z M103.8,491.3c0.5-0.2,0.8-0.5,1.1-1c0.3-0.4,0.5-0.9,0.6-1.4s0.2-1.1,0.2-1.8c0-0.6-0.1-1.2-0.2-1.7
			s-0.3-1-0.6-1.4c-0.3-0.4-0.7-0.7-1.1-1c-0.5-0.2-1-0.3-1.7-0.3c-0.6,0-1.2,0.1-1.7,0.3s-0.8,0.6-1.1,1c-0.3,0.4-0.5,0.9-0.6,1.4
			s-0.2,1.1-0.2,1.8s0.1,1.2,0.2,1.8s0.3,1,0.6,1.4c0.3,0.4,0.7,0.7,1.1,1s1,0.4,1.7,0.4C102.8,491.7,103.3,491.6,103.8,491.3z"/>
		<path class="st2" d="M111.1,491.2c0.5,0.3,1.3,0.5,2.3,0.5s1.7-0.2,2.1-0.6s0.6-0.8,0.6-1.4c0-0.2,0-0.5-0.1-0.7s-0.2-0.4-0.3-0.6
			c-0.2-0.2-0.4-0.3-0.7-0.4c-0.3-0.1-0.7-0.2-1.1-0.3l-1.3-0.2c-0.5-0.1-1-0.2-1.5-0.3c-0.4-0.1-0.8-0.3-1.1-0.5
			c-0.3-0.2-0.5-0.5-0.7-0.8s-0.2-0.7-0.2-1.2s0.1-0.9,0.3-1.2c0.2-0.4,0.5-0.7,0.8-0.9c0.3-0.2,0.8-0.4,1.2-0.6
			c0.5-0.1,1-0.2,1.5-0.2c0.7,0,1.3,0.1,1.8,0.2s0.9,0.3,1.2,0.6c0.3,0.2,0.5,0.5,0.7,0.8s0.3,0.7,0.4,1l-1.1,0.2
			c-0.1-0.3-0.2-0.6-0.4-0.8c-0.1-0.2-0.3-0.4-0.5-0.6s-0.5-0.3-0.8-0.3c-0.3-0.1-0.7-0.1-1.2-0.1s-1,0-1.3,0.2
			c-0.4,0.1-0.6,0.2-0.9,0.4c-0.2,0.2-0.4,0.4-0.5,0.6s-0.1,0.5-0.1,0.7s0,0.5,0.1,0.7s0.2,0.4,0.3,0.5s0.4,0.3,0.7,0.4
			c0.3,0.1,0.7,0.2,1.1,0.3l1.6,0.3c1.1,0.2,1.9,0.5,2.4,1s0.8,1.2,0.8,2.1c0,0.4-0.1,0.8-0.3,1.1c-0.2,0.4-0.4,0.7-0.7,0.9
			c-0.3,0.3-0.7,0.5-1.2,0.6s-1.1,0.2-1.7,0.2s-1.2-0.1-1.7-0.2s-1-0.3-1.4-0.6c-0.4-0.3-0.7-0.6-0.9-1s-0.4-0.9-0.4-1.5h1.1
			C110.2,490.3,110.6,490.9,111.1,491.2z"/>
		<path class="st2" d="M125.5,478.1v1.7h-1.3v-1.7H125.5z M125.4,482.1v10.3h-1.2v-10.3H125.4z"/>
		<path class="st2" d="M129.5,482.1v1.7c0.6-0.7,1.2-1.2,1.8-1.5c0.6-0.3,1.3-0.5,2-0.5c1.2,0,2,0.3,2.6,1c0.6,0.7,0.8,1.6,0.8,2.8
			v6.9h-1.2V486c0-1.1-0.2-1.9-0.6-2.3s-1-0.7-1.8-0.7c-0.4,0-0.8,0.1-1.3,0.2c-0.4,0.2-0.9,0.4-1.2,0.7c-0.4,0.3-0.7,0.7-0.9,1.1
			c-0.2,0.4-0.3,0.9-0.3,1.5v6h-1.2v-10.3h1.3V482.1z"/>
		<path class="st2" d="M145.6,492.2c-0.6,0.3-1.3,0.5-2.1,0.5s-1.4-0.1-2-0.4s-1-0.7-1.4-1.2s-0.6-1.1-0.8-1.7s-0.3-1.3-0.3-2
			c0-1.8,0.4-3.1,1.2-4.1s2-1.5,3.4-1.5c0.6,0,1.1,0.1,1.7,0.4c0.6,0.2,1.1,0.7,1.6,1.4v-5.4h1.2v14.3h-1.2V491
			C146.7,491.4,146.2,491.9,145.6,492.2z M147.1,485.6c-0.1-0.3-0.1-0.6-0.2-0.9c-0.1-0.3-0.3-0.5-0.4-0.7c-0.2-0.2-0.4-0.4-0.6-0.6
			c-0.3-0.2-0.6-0.4-1-0.5s-0.7-0.2-1.1-0.2c-0.5,0-0.9,0.1-1.4,0.3s-0.8,0.4-1.1,0.8s-0.5,0.8-0.7,1.4s-0.3,1.3-0.3,2.1
			c0,0.8,0.1,1.5,0.3,2.1s0.4,1,0.8,1.4s0.6,0.6,1,0.7s0.8,0.2,1.1,0.2c0.4,0,0.8,0,1.1-0.1s0.7-0.3,1-0.5c0.5-0.3,0.8-0.8,1.1-1.3
			s0.4-1.2,0.4-2v-0.9C147.2,486.4,147.2,485.9,147.1,485.6z"/>
		<path class="st2" d="M152.2,482.1v6.5c0,1.1,0.2,1.9,0.5,2.3c0.3,0.5,0.9,0.7,1.8,0.7c0.4,0,0.8-0.1,1.2-0.2
			c0.4-0.2,0.8-0.4,1.2-0.7c0.4-0.3,0.7-0.7,0.9-1.1s0.3-0.9,0.3-1.5v-6h1.2v10.3h-1.2v-1.7c-1.1,1.3-2.3,2-3.7,2
			c-1.2,0-2-0.3-2.5-1c-0.5-0.6-0.8-1.6-0.8-2.8V482h1.1V482.1z"/>
		<path class="st2" d="M163.7,491.2c0.5,0.3,1.3,0.5,2.3,0.5s1.7-0.2,2.1-0.6c0.4-0.4,0.6-0.8,0.6-1.4c0-0.2,0-0.5-0.1-0.7
			s-0.2-0.4-0.3-0.6c-0.2-0.2-0.4-0.3-0.7-0.4s-0.7-0.2-1.1-0.3l-1.3-0.2c-0.5-0.1-1-0.2-1.5-0.3c-0.4-0.1-0.8-0.3-1.1-0.5
			s-0.5-0.5-0.7-0.8s-0.2-0.7-0.2-1.2s0.1-0.9,0.3-1.2c0.2-0.4,0.5-0.7,0.8-0.9c0.3-0.2,0.8-0.4,1.2-0.6c0.5-0.1,1-0.2,1.5-0.2
			c0.7,0,1.3,0.1,1.8,0.2s0.9,0.3,1.2,0.6c0.3,0.2,0.5,0.5,0.7,0.8s0.3,0.7,0.4,1l-1.1,0.2c-0.1-0.3-0.2-0.6-0.4-0.8
			c-0.1-0.2-0.3-0.4-0.5-0.6s-0.5-0.3-0.8-0.3c-0.3-0.1-0.7-0.1-1.2-0.1s-1,0-1.3,0.2c-0.4,0.1-0.6,0.2-0.9,0.4
			c-0.2,0.2-0.4,0.4-0.5,0.6s-0.1,0.5-0.1,0.7s0,0.5,0.1,0.7s0.2,0.4,0.3,0.5s0.4,0.3,0.7,0.4s0.7,0.2,1.1,0.3l1.6,0.3
			c1.1,0.2,1.9,0.5,2.4,1s0.8,1.2,0.8,2.1c0,0.4-0.1,0.8-0.3,1.1c-0.2,0.4-0.4,0.7-0.7,0.9c-0.3,0.3-0.7,0.5-1.2,0.6
			s-1.1,0.2-1.7,0.2c-0.6,0-1.2-0.1-1.7-0.2s-1-0.3-1.4-0.6c-0.4-0.3-0.7-0.6-0.9-1s-0.4-0.9-0.4-1.5h1.1
			C162.8,490.3,163.1,490.9,163.7,491.2z"/>
		<path class="st2" d="M171.3,483v-1h1.6v-2.8h1.2v2.8h2.9v1h-3v6.7c0,0.5,0.1,0.9,0.3,1.3s0.6,0.5,1.1,0.5c0.3,0,0.6,0,0.9-0.1
			c0.2-0.1,0.5-0.1,0.6-0.2l0.2,0.9c-0.2,0.1-0.4,0.2-0.7,0.2s-0.7,0.1-1.1,0.1c-0.6,0-1-0.1-1.4-0.3s-0.6-0.5-0.8-0.8
			s-0.3-0.7-0.3-1.1s-0.1-0.9-0.1-1.3v-6L171.3,483L171.3,483z"/>
		<path class="st2" d="M180.1,482.1v1.7c0.4-0.6,0.9-1,1.4-1.4c0.5-0.3,1.1-0.5,1.7-0.5c0.1,0,0.3,0,0.4,0s0.3,0,0.4,0l-0.1,1.1
			c-0.2,0-0.5-0.1-0.7-0.1c-0.3,0-0.7,0.1-1.1,0.2c-0.4,0.1-0.7,0.3-1,0.7c-0.3,0.3-0.6,0.6-0.8,1s-0.3,0.8-0.3,1.4v6.2h-1.2v-10.3
			L180.1,482.1L180.1,482.1z"/>
		<path class="st2" d="M186.9,478.1v1.7h-1.3v-1.7H186.9z M186.9,482.1v10.3h-1.2v-10.3H186.9z"/>
		<path class="st2" d="M195.7,491.5c-0.2,0.2-0.5,0.4-0.8,0.5s-0.6,0.3-1,0.4s-0.8,0.1-1.2,0.1c-1.1,0-1.9-0.3-2.6-0.8
			c-0.7-0.5-1-1.3-1-2.3c0-0.7,0.1-1.3,0.4-1.7c0.3-0.4,0.7-0.8,1.2-1c0.5-0.3,1-0.4,1.7-0.5c0.6-0.1,1.3-0.2,1.9-0.2l2-0.1v-0.3
			c0-1-0.2-1.8-0.6-2.2c-0.4-0.5-1.1-0.7-2.1-0.7c-0.5,0-0.9,0-1.3,0.1c-0.3,0.1-0.6,0.2-0.9,0.4s-0.4,0.3-0.5,0.5s-0.2,0.4-0.3,0.7
			l-1.1-0.2c0.4-1.7,1.7-2.5,4-2.5c0.7,0,1.3,0.1,1.8,0.3c0.5,0.2,0.9,0.4,1.2,0.8c0.3,0.3,0.5,0.7,0.6,1.2s0.2,1,0.2,1.6v6.8h-1.2
			v-1.5C196.1,491.1,195.9,491.3,195.7,491.5z M194.4,487c-0.8,0-1.4,0.1-1.9,0.2s-0.9,0.3-1.3,0.5c-0.3,0.2-0.6,0.5-0.7,0.8
			c-0.1,0.3-0.2,0.7-0.2,1.1c0,0.6,0.2,1.1,0.5,1.5c0.4,0.4,1,0.6,1.9,0.6c0.4,0,0.9-0.1,1.3-0.2c0.4-0.1,0.8-0.3,1.1-0.5
			c0.2-0.2,0.4-0.3,0.6-0.5s0.3-0.3,0.4-0.5c0.1-0.2,0.2-0.4,0.2-0.7c0-0.2,0.1-0.5,0.1-0.8V487H194.4z"/>
		<path class="st2" d="M201.4,478.1v14.3h-1.2v-14.3H201.4z"/>
		<path class="st2" d="M205.6,478.1v1.7h-1.3v-1.7H205.6z M205.5,482.1v10.3h-1.2v-10.3H205.5z"/>
		<path class="st2" d="M214,483.1h-6.4v-1h7.8v1l-6.5,8.3h6.9l-0.2,1h-8.1v-1L214,483.1z"/>
		<path class="st2" d="M223.5,491.5c-0.2,0.2-0.5,0.4-0.8,0.5s-0.6,0.3-1,0.4s-0.8,0.1-1.2,0.1c-1.1,0-1.9-0.3-2.6-0.8
			c-0.7-0.5-1-1.3-1-2.3c0-0.7,0.1-1.3,0.4-1.7c0.3-0.4,0.7-0.8,1.2-1c0.5-0.3,1-0.4,1.7-0.5c0.6-0.1,1.3-0.2,1.9-0.2l2-0.1v-0.3
			c0-1-0.2-1.8-0.6-2.2c-0.4-0.5-1.1-0.7-2.1-0.7c-0.5,0-0.9,0-1.3,0.1c-0.3,0.1-0.6,0.2-0.9,0.4s-0.4,0.3-0.5,0.5s-0.2,0.4-0.3,0.7
			l-1.1-0.2c0.4-1.7,1.7-2.5,4-2.5c0.7,0,1.3,0.1,1.8,0.3c0.5,0.2,0.9,0.4,1.2,0.8c0.3,0.3,0.5,0.7,0.6,1.2s0.2,1,0.2,1.6v6.8h-1.2
			v-1.5C224,491.1,223.8,491.3,223.5,491.5z M222.2,487c-0.8,0-1.4,0.1-1.9,0.2s-0.9,0.3-1.3,0.5c-0.3,0.2-0.6,0.5-0.7,0.8
			c-0.1,0.3-0.2,0.7-0.2,1.1c0,0.6,0.2,1.1,0.5,1.5c0.4,0.4,1,0.6,1.9,0.6c0.4,0,0.9-0.1,1.3-0.2c0.4-0.1,0.8-0.3,1.1-0.5
			c0.2-0.2,0.4-0.3,0.6-0.5s0.3-0.3,0.4-0.5c0.1-0.2,0.2-0.4,0.2-0.7c0-0.2,0.1-0.5,0.1-0.8V487H222.2z"/>
		<path class="st2" d="M227.1,483v-1h1.6v-2.8h1.2v2.8h2.9v1h-2.9v6.7c0,0.5,0.1,0.9,0.3,1.3s0.6,0.5,1.1,0.5c0.3,0,0.6,0,0.9-0.1
			c0.2-0.1,0.5-0.1,0.6-0.2l0.2,0.9c-0.2,0.1-0.4,0.2-0.7,0.2s-0.7,0.1-1.1,0.1c-0.6,0-1-0.1-1.4-0.3s-0.6-0.5-0.8-0.8
			s-0.3-0.7-0.3-1.1s-0.1-0.9-0.1-1.3v-6L227.1,483L227.1,483z"/>
		<path class="st2" d="M236.3,491.2c0.5,0.3,1.3,0.5,2.3,0.5s1.7-0.2,2.1-0.6c0.4-0.4,0.6-0.8,0.6-1.4c0-0.2,0-0.5-0.1-0.7
			s-0.2-0.4-0.3-0.6c-0.2-0.2-0.4-0.3-0.7-0.4s-0.7-0.2-1.1-0.3l-1.3-0.2c-0.5-0.1-1-0.2-1.5-0.3c-0.4-0.1-0.8-0.3-1.1-0.5
			s-0.5-0.5-0.7-0.8s-0.2-0.7-0.2-1.2s0.1-0.9,0.3-1.2c0.2-0.4,0.5-0.7,0.8-0.9c0.3-0.2,0.8-0.4,1.2-0.6c0.5-0.1,1-0.2,1.5-0.2
			c0.7,0,1.3,0.1,1.8,0.2s0.9,0.3,1.2,0.6c0.3,0.2,0.5,0.5,0.7,0.8s0.3,0.7,0.4,1l-1.1,0.2c-0.1-0.3-0.2-0.6-0.4-0.8
			c-0.1-0.2-0.3-0.4-0.5-0.6s-0.5-0.3-0.8-0.3c-0.3-0.1-0.7-0.1-1.2-0.1s-1,0-1.3,0.2c-0.4,0.1-0.6,0.2-0.9,0.4
			c-0.2,0.2-0.4,0.4-0.5,0.6s-0.1,0.5-0.1,0.7s0,0.5,0.1,0.7s0.2,0.4,0.3,0.5s0.4,0.3,0.7,0.4s0.7,0.2,1.1,0.3l1.6,0.3
			c1.1,0.2,1.9,0.5,2.4,1s0.8,1.2,0.8,2.1c0,0.4-0.1,0.8-0.3,1.1c-0.2,0.4-0.4,0.7-0.7,0.9c-0.3,0.3-0.7,0.5-1.2,0.6
			s-1.1,0.2-1.7,0.2c-0.6,0-1.2-0.1-1.7-0.2s-1-0.3-1.4-0.6c-0.4-0.3-0.7-0.6-0.9-1s-0.4-0.9-0.4-1.5h1.1
			C235.4,490.3,235.8,490.9,236.3,491.2z"/>
	</g>
	<g class="st1">
		<path class="st2" d="M67.1,516.2c-0.6,0.3-1.3,0.5-2.1,0.5s-1.4-0.1-2-0.4c-0.6-0.3-1-0.7-1.4-1.2s-0.6-1.1-0.8-1.7
			c-0.2-0.6-0.3-1.3-0.3-2c0-1.8,0.4-3.1,1.2-4.1s2-1.5,3.4-1.5c0.6,0,1.1,0.1,1.7,0.4c0.6,0.2,1.1,0.7,1.6,1.4v-5.4h1.2v14.3h-1.2
			V515C68.2,515.4,67.7,515.9,67.1,516.2z M68.6,509.6c-0.1-0.3-0.1-0.6-0.2-0.9c-0.1-0.3-0.3-0.5-0.4-0.7c-0.2-0.2-0.4-0.4-0.6-0.6
			c-0.3-0.2-0.6-0.4-1-0.5c-0.4-0.1-0.7-0.2-1.1-0.2c-0.5,0-0.9,0.1-1.4,0.3c-0.5,0.2-0.8,0.4-1.1,0.8s-0.5,0.8-0.7,1.4
			s-0.3,1.3-0.3,2.1s0.1,1.5,0.3,2.1s0.4,1,0.8,1.4c0.4,0.4,0.6,0.6,1,0.7c0.4,0.1,0.8,0.2,1.1,0.2c0.4,0,0.8,0,1.1-0.1
			c0.3-0.1,0.7-0.3,1-0.5c0.5-0.3,0.8-0.8,1.1-1.3c0.3-0.5,0.4-1.2,0.4-2v-0.9C68.7,510.4,68.7,509.9,68.6,509.6z"/>
		<path class="st2" d="M79.9,515.9c-0.7,0.6-1.7,0.8-3,0.8c-1.5,0-2.6-0.5-3.5-1.4c-0.8-1-1.2-2.3-1.2-3.9c0-0.9,0.1-1.7,0.4-2.4
			s0.6-1.3,1-1.8c0.4-0.5,0.9-0.8,1.5-1.1c0.6-0.2,1.2-0.4,1.9-0.4c0.8,0,1.5,0.1,2,0.4c0.6,0.3,1,0.6,1.4,1.1
			c0.4,0.4,0.6,1,0.8,1.6c0.2,0.6,0.2,1.3,0.2,2v0.7h-7.9c0,0.6,0.1,1.1,0.2,1.7c0.1,0.5,0.4,1,0.7,1.3c0.3,0.3,0.7,0.7,1.1,0.9
			c0.4,0.2,0.9,0.3,1.5,0.3c0.5,0,1,0,1.3-0.1c0.4-0.1,0.7-0.2,0.9-0.4c0.2-0.2,0.4-0.4,0.6-0.6c0.1-0.2,0.3-0.5,0.3-0.8h1.1
			C81.1,514.6,80.6,515.3,79.9,515.9z M80,509c-0.1-0.5-0.3-0.9-0.6-1.2c-0.3-0.3-0.6-0.6-1-0.8c-0.4-0.2-0.9-0.3-1.5-0.3
			c-1,0-1.8,0.3-2.4,0.9s-1,1.6-1.1,2.9h6.7C80.2,510,80.1,509.4,80,509z"/>
		<path class="st2" d="M85,502.1v14.3h-1.2v-14.3H85z"/>
		<path class="st2" d="M94,502.1l8,12.4v-12.4h1.2v14.3h-1.3l-8-12.4v12.4h-1.2v-14.3H94z"/>
		<path class="st2" d="M108.6,516.3c-0.6-0.3-1.1-0.6-1.5-1.1s-0.7-1-0.9-1.7c-0.2-0.7-0.3-1.4-0.3-2.2c0-0.8,0.1-1.6,0.4-2.3
			c0.2-0.7,0.6-1.3,1-1.7c0.4-0.5,0.9-0.8,1.5-1.1c0.6-0.3,1.3-0.4,2-0.4s1.4,0.1,2,0.4s1.1,0.6,1.5,1.1s0.7,1,1,1.7
			c0.2,0.7,0.3,1.4,0.3,2.2c0,0.8-0.1,1.6-0.3,2.3c-0.2,0.7-0.6,1.3-1,1.8s-0.9,0.9-1.5,1.1c-0.6,0.3-1.3,0.4-2.1,0.4
			S109.2,516.6,108.6,516.3z M112.4,515.3c0.5-0.2,0.8-0.5,1.1-1c0.3-0.4,0.5-0.9,0.6-1.4s0.2-1.1,0.2-1.8c0-0.6-0.1-1.2-0.2-1.7
			s-0.3-1-0.6-1.4c-0.3-0.4-0.7-0.7-1.1-1c-0.5-0.2-1-0.3-1.7-0.3c-0.6,0-1.2,0.1-1.7,0.3s-0.8,0.6-1.1,1c-0.3,0.4-0.5,0.9-0.6,1.4
			s-0.2,1.1-0.2,1.8s0.1,1.2,0.2,1.8s0.3,1,0.6,1.4c0.3,0.4,0.7,0.7,1.1,1s1,0.4,1.7,0.4C111.4,515.7,111.9,515.6,112.4,515.3z"/>
		<path class="st2" d="M119.2,506.1v1.7c0.4-0.6,0.9-1,1.4-1.4c0.5-0.3,1.1-0.5,1.7-0.5c0.1,0,0.3,0,0.4,0s0.3,0,0.4,0L123,507
			c-0.2,0-0.5-0.1-0.7-0.1c-0.3,0-0.7,0.1-1.1,0.2s-0.7,0.3-1,0.7c-0.3,0.3-0.6,0.6-0.8,1c-0.2,0.4-0.3,0.8-0.3,1.4v6.2H118v-10.3
			L119.2,506.1L119.2,506.1z"/>
		<path class="st2" d="M130.3,516.2c-0.6,0.3-1.3,0.5-2.1,0.5c-0.8,0-1.4-0.1-2-0.4c-0.6-0.3-1-0.7-1.4-1.2s-0.6-1.1-0.8-1.7
			c-0.2-0.6-0.3-1.3-0.3-2c0-1.8,0.4-3.1,1.2-4.1c0.8-1,2-1.5,3.4-1.5c0.6,0,1.1,0.1,1.7,0.4c0.6,0.2,1.1,0.7,1.6,1.4v-5.4h1.2v14.3
			h-1.2V515C131.4,515.4,130.9,515.9,130.3,516.2z M131.8,509.6c-0.1-0.3-0.1-0.6-0.2-0.9s-0.3-0.5-0.4-0.7
			c-0.2-0.2-0.4-0.4-0.6-0.6c-0.3-0.2-0.6-0.4-1-0.5s-0.7-0.2-1.1-0.2c-0.5,0-0.9,0.1-1.4,0.3c-0.4,0.2-0.8,0.4-1.1,0.8
			c-0.3,0.4-0.5,0.8-0.7,1.4s-0.3,1.3-0.3,2.1s0.1,1.5,0.3,2.1s0.4,1,0.8,1.4c0.4,0.4,0.6,0.6,1,0.7c0.4,0.1,0.8,0.2,1.1,0.2
			c0.4,0,0.8,0,1.1-0.1c0.3-0.1,0.7-0.3,1-0.5c0.5-0.3,0.8-0.8,1.1-1.3s0.4-1.2,0.4-2v-0.9C131.9,510.4,131.8,509.9,131.8,509.6z"/>
		<path class="st2" d="M151.8,509.3v5.5c-0.3,0.3-0.7,0.6-1.2,0.9c-0.4,0.2-0.9,0.4-1.3,0.6s-0.9,0.3-1.4,0.3s-0.9,0.1-1.4,0.1
			c-1,0-1.9-0.2-2.7-0.5c-0.8-0.3-1.5-0.8-2.1-1.4s-1-1.4-1.3-2.3c-0.3-0.9-0.5-2-0.5-3.2s0.2-2.3,0.5-3.3c0.3-0.9,0.8-1.7,1.3-2.4
			c0.6-0.6,1.2-1.1,2-1.4s1.6-0.5,2.5-0.5c1.5,0,2.7,0.3,3.5,1s1.4,1.6,1.7,2.9l-1.1,0.3c-0.1-0.5-0.3-0.9-0.5-1.3s-0.5-0.7-0.8-1
			s-0.7-0.5-1.2-0.6c-0.5-0.2-1-0.2-1.6-0.2c-0.8,0-1.6,0.2-2.2,0.5c-0.6,0.3-1.2,0.8-1.6,1.3s-0.8,1.3-1,2
			c-0.2,0.8-0.3,1.6-0.3,2.6c0,0.9,0.1,1.8,0.3,2.6c0.2,0.8,0.5,1.5,1,2c0.4,0.6,1,1,1.7,1.3s1.4,0.5,2.3,0.5c0.8,0,1.5-0.1,2.2-0.3
			s1.4-0.5,1.9-1v-4h-4.1v-1.1h5.4V509.3z"/>
		<path class="st2" d="M155.7,502.1v14.3h-1.2v-14.3H155.7z"/>
		<path class="st2" d="M161,516.3c-0.6-0.3-1.1-0.6-1.5-1.1s-0.7-1-0.9-1.7c-0.2-0.7-0.3-1.4-0.3-2.2c0-0.8,0.1-1.6,0.4-2.3
			c0.2-0.7,0.6-1.3,1-1.7c0.4-0.5,0.9-0.8,1.5-1.1c0.6-0.3,1.3-0.4,2-0.4s1.4,0.1,2,0.4s1.1,0.6,1.5,1.1s0.7,1,1,1.7
			c0.2,0.7,0.3,1.4,0.3,2.2c0,0.8-0.1,1.6-0.3,2.3c-0.2,0.7-0.6,1.3-1,1.8s-0.9,0.9-1.5,1.1c-0.6,0.3-1.3,0.4-2.1,0.4
			S161.6,516.6,161,516.3z M164.7,515.3c0.5-0.2,0.8-0.5,1.1-1c0.3-0.4,0.5-0.9,0.6-1.4s0.2-1.1,0.2-1.8c0-0.6-0.1-1.2-0.2-1.7
			c-0.1-0.5-0.3-1-0.6-1.4s-0.7-0.7-1.1-1c-0.5-0.2-1-0.3-1.7-0.3c-0.6,0-1.2,0.1-1.7,0.3s-0.8,0.6-1.1,1s-0.5,0.9-0.6,1.4
			s-0.2,1.1-0.2,1.8s0.1,1.2,0.2,1.8s0.3,1,0.6,1.4s0.7,0.7,1.1,1s1,0.4,1.7,0.4C163.7,515.7,164.3,515.6,164.7,515.3z"/>
		<path class="st2" d="M171.6,502.1v5.5c0.5-0.6,1-1,1.5-1.4c0.6-0.3,1.2-0.5,2-0.5c0.7,0,1.4,0.1,2,0.4s1,0.6,1.4,1.1
			s0.6,1,0.8,1.7s0.3,1.4,0.3,2.1c0,0.9-0.1,1.7-0.3,2.4c-0.2,0.7-0.5,1.3-0.9,1.8s-0.9,0.8-1.5,1.1c-0.6,0.3-1.2,0.4-1.9,0.4
			c-0.6,0-1.2-0.1-1.8-0.4c-0.6-0.3-1.1-0.7-1.6-1.3v1.4h-1.2v-14.3L171.6,502.1L171.6,502.1z M171.6,512.8c0,0.3,0.1,0.6,0.2,0.9
			c0.1,0.3,0.3,0.5,0.4,0.7c0.2,0.2,0.4,0.4,0.6,0.6c0.3,0.2,0.6,0.4,0.9,0.5c0.3,0.1,0.7,0.2,1.1,0.2c0.5,0,0.9-0.1,1.4-0.3
			c0.4-0.2,0.8-0.4,1.1-0.8s0.5-0.8,0.7-1.4c0.2-0.6,0.3-1.3,0.3-2.1c0-0.8-0.1-1.5-0.3-2.1s-0.4-1-0.8-1.3c-0.3-0.3-0.7-0.6-1-0.7
			s-0.8-0.2-1.1-0.2c-0.4,0-0.8,0-1.1,0.1s-0.7,0.3-1,0.5c-0.5,0.3-0.8,0.8-1.1,1.3s-0.4,1.2-0.4,2v0.9
			C171.5,512.1,171.5,512.5,171.6,512.8z"/>
		<path class="st2" d="M188,515.5c-0.2,0.2-0.5,0.4-0.8,0.5s-0.6,0.3-1,0.4c-0.4,0.1-0.8,0.1-1.2,0.1c-1.1,0-1.9-0.3-2.6-0.8
			c-0.7-0.5-1-1.3-1-2.3c0-0.7,0.1-1.3,0.4-1.7c0.3-0.4,0.7-0.8,1.2-1c0.5-0.3,1-0.4,1.7-0.5c0.6-0.1,1.3-0.2,1.9-0.2l2-0.1v-0.3
			c0-1-0.2-1.8-0.6-2.2c-0.4-0.5-1.1-0.7-2.1-0.7c-0.5,0-0.9,0-1.3,0.1c-0.3,0.1-0.6,0.2-0.9,0.4s-0.4,0.3-0.5,0.5s-0.2,0.4-0.3,0.7
			l-1.1-0.2c0.4-1.7,1.7-2.5,4-2.5c0.7,0,1.3,0.1,1.8,0.3c0.5,0.2,0.9,0.4,1.2,0.8c0.3,0.3,0.5,0.7,0.6,1.2s0.2,1,0.2,1.6v6.8h-1.2
			v-1.5C188.4,515.1,188.2,515.3,188,515.5z M186.7,511c-0.8,0-1.4,0.1-1.9,0.2s-0.9,0.3-1.3,0.5c-0.3,0.2-0.6,0.5-0.7,0.8
			c-0.1,0.3-0.2,0.7-0.2,1.1c0,0.6,0.2,1.1,0.5,1.5c0.4,0.4,1,0.6,1.9,0.6c0.4,0,0.9-0.1,1.3-0.2c0.4-0.1,0.8-0.3,1.1-0.5
			c0.2-0.2,0.4-0.3,0.6-0.5s0.3-0.3,0.4-0.5c0.1-0.2,0.2-0.4,0.2-0.7c0-0.2,0.1-0.5,0.1-0.8V511H186.7z"/>
		<path class="st2" d="M193.8,502.1v14.3h-1.2v-14.3H193.8z"/>
	</g>
	<g class="st1">
		<path class="st2" d="M65.8,566.1c1,0,1.9,0.1,2.6,0.3c0.7,0.2,1.2,0.5,1.6,0.9c0.4,0.4,0.6,0.8,0.8,1.3c0.1,0.5,0.2,1,0.2,1.6
			s-0.1,1.1-0.2,1.7s-0.4,1-0.8,1.4c-0.4,0.4-0.9,0.7-1.6,1c-0.7,0.2-1.5,0.3-2.6,0.3h-3.4v5.8h-1.2v-14.3H65.8z M67.8,573.3
			c0.5-0.2,0.9-0.4,1.2-0.7s0.5-0.6,0.6-1s0.2-0.9,0.2-1.4s-0.1-1-0.2-1.4s-0.3-0.7-0.6-1s-0.7-0.5-1.2-0.6s-1.1-0.2-1.9-0.2h-3.4
			v6.4h3.4C66.6,573.5,67.3,573.5,67.8,573.3z"/>
		<path class="st2" d="M78.7,579.5c-0.2,0.2-0.5,0.4-0.8,0.5s-0.6,0.3-1,0.4s-0.8,0.1-1.2,0.1c-1.1,0-1.9-0.3-2.6-0.8s-1-1.3-1-2.3
			c0-0.7,0.1-1.3,0.4-1.7c0.3-0.4,0.7-0.8,1.2-1s1-0.4,1.7-0.5c0.6-0.1,1.3-0.2,1.9-0.2l2-0.1v-0.3c0-1-0.2-1.8-0.6-2.2
			c-0.4-0.5-1.1-0.7-2.1-0.7c-0.5,0-0.9,0-1.3,0.1c-0.3,0.1-0.6,0.2-0.9,0.4c-0.2,0.2-0.4,0.3-0.5,0.5c-0.1,0.2-0.2,0.4-0.3,0.7
			l-1.1-0.2c0.4-1.7,1.7-2.5,4-2.5c0.7,0,1.3,0.1,1.8,0.3s0.9,0.4,1.2,0.8c0.3,0.3,0.5,0.7,0.6,1.2s0.2,1,0.2,1.6v6.8h-1.2v-1.5
			C79.1,579.1,78.9,579.3,78.7,579.5z M77.4,575c-0.8,0-1.4,0.1-1.9,0.2c-0.5,0.1-0.9,0.3-1.3,0.5c-0.3,0.2-0.6,0.5-0.7,0.8
			s-0.2,0.7-0.2,1.1c0,0.6,0.2,1.1,0.5,1.5c0.4,0.4,1,0.6,1.9,0.6c0.4,0,0.9-0.1,1.3-0.2c0.4-0.1,0.8-0.3,1.1-0.5
			c0.2-0.2,0.4-0.3,0.6-0.5s0.3-0.3,0.4-0.5s0.2-0.4,0.2-0.7s0.1-0.5,0.1-0.8V575L77.4,575z"/>
		<path class="st2" d="M82.9,566.3v1.7h-1.3v-1.7H82.9z M84.5,570.1v10.3h-1.2v-10.3H84.5z M86.2,566.3v1.7h-1.3v-1.7H86.2z"/>
		<path class="st2" d="M89,579.2c0.5,0.3,1.3,0.5,2.3,0.5s1.7-0.2,2.1-0.6c0.4-0.4,0.6-0.8,0.6-1.4c0-0.2,0-0.5-0.1-0.7
			s-0.2-0.4-0.3-0.6c-0.2-0.2-0.4-0.3-0.7-0.4c-0.3-0.1-0.7-0.2-1.1-0.3l-1.3-0.2c-0.5-0.1-1-0.2-1.5-0.3c-0.4-0.1-0.8-0.3-1.1-0.5
			c-0.3-0.2-0.5-0.5-0.7-0.8s-0.2-0.7-0.2-1.2s0.1-0.9,0.3-1.2c0.2-0.4,0.5-0.7,0.8-0.9s0.8-0.4,1.2-0.6c0.5-0.1,1-0.2,1.5-0.2
			c0.7,0,1.3,0.1,1.8,0.2c0.5,0.1,0.9,0.3,1.2,0.6c0.3,0.2,0.5,0.5,0.7,0.8s0.3,0.7,0.4,1l-1.1,0.2c-0.1-0.3-0.2-0.6-0.4-0.8
			c-0.1-0.2-0.3-0.4-0.5-0.6c-0.2-0.2-0.5-0.3-0.8-0.3c-0.3-0.1-0.7-0.1-1.2-0.1s-1,0.1-1.3,0.2c-0.4,0.1-0.6,0.2-0.9,0.4
			s-0.4,0.4-0.5,0.6s-0.1,0.5-0.1,0.7s0,0.5,0.1,0.7s0.2,0.4,0.3,0.5s0.4,0.3,0.7,0.4c0.3,0.1,0.7,0.2,1.1,0.3l1.6,0.3
			c1.1,0.2,1.9,0.5,2.4,1s0.8,1.2,0.8,2.1c0,0.4-0.1,0.8-0.3,1.1c-0.2,0.4-0.4,0.7-0.7,0.9c-0.3,0.3-0.7,0.5-1.2,0.6
			c-0.5,0.2-1.1,0.2-1.7,0.2s-1.2-0.1-1.7-0.2c-0.5-0.1-1-0.3-1.4-0.6s-0.7-0.6-0.9-1s-0.4-0.9-0.4-1.5h1.1
			C88.1,578.3,88.4,578.9,89,579.2z"/>
		<path class="st2" d="M100,580.3c-0.6-0.3-1.1-0.6-1.5-1.1s-0.7-1-0.9-1.7c-0.2-0.7-0.3-1.4-0.3-2.2s0.1-1.6,0.4-2.3
			c0.2-0.7,0.6-1.3,1-1.7c0.4-0.5,0.9-0.8,1.5-1.1s1.3-0.4,2-0.4s1.4,0.1,2,0.4c0.6,0.3,1.1,0.6,1.5,1.1s0.7,1,1,1.7
			c0.2,0.7,0.3,1.4,0.3,2.2s-0.1,1.6-0.3,2.3c-0.2,0.7-0.6,1.3-1,1.8s-0.9,0.9-1.5,1.1s-1.3,0.4-2.1,0.4S100.6,580.6,100,580.3z
			 M103.8,579.3c0.5-0.2,0.8-0.5,1.1-0.9c0.3-0.4,0.5-0.9,0.6-1.4s0.2-1.1,0.2-1.8c0-0.6-0.1-1.2-0.2-1.7s-0.3-1-0.6-1.4
			c-0.3-0.4-0.7-0.7-1.1-1c-0.5-0.2-1-0.3-1.7-0.3c-0.6,0-1.2,0.1-1.7,0.3s-0.8,0.6-1.1,1c-0.3,0.4-0.5,0.9-0.6,1.4
			s-0.2,1.1-0.2,1.8s0.1,1.2,0.2,1.8s0.3,1,0.6,1.4c0.3,0.4,0.7,0.7,1.1,0.9c0.5,0.2,1,0.4,1.7,0.4
			C102.8,579.7,103.3,579.6,103.8,579.3z"/>
		<path class="st2" d="M111.1,579.2c0.5,0.3,1.3,0.5,2.3,0.5s1.7-0.2,2.1-0.6c0.4-0.4,0.6-0.8,0.6-1.4c0-0.2,0-0.5-0.1-0.7
			s-0.2-0.4-0.3-0.6c-0.2-0.2-0.4-0.3-0.7-0.4c-0.3-0.1-0.7-0.2-1.1-0.3l-1.3-0.2c-0.5-0.1-1-0.2-1.5-0.3c-0.4-0.1-0.8-0.3-1.1-0.5
			c-0.3-0.2-0.5-0.5-0.7-0.8s-0.2-0.7-0.2-1.2s0.1-0.9,0.3-1.2c0.2-0.4,0.5-0.7,0.8-0.9s0.8-0.4,1.2-0.6c0.5-0.1,1-0.2,1.5-0.2
			c0.7,0,1.3,0.1,1.8,0.2c0.5,0.1,0.9,0.3,1.2,0.6c0.3,0.2,0.5,0.5,0.7,0.8s0.3,0.7,0.4,1l-1.1,0.2c-0.1-0.3-0.2-0.6-0.4-0.8
			c-0.1-0.2-0.3-0.4-0.5-0.6c-0.2-0.2-0.5-0.3-0.8-0.3c-0.3-0.1-0.7-0.1-1.2-0.1s-1,0.1-1.3,0.2c-0.4,0.1-0.6,0.2-0.9,0.4
			s-0.4,0.4-0.5,0.6s-0.1,0.5-0.1,0.7s0,0.5,0.1,0.7s0.2,0.4,0.3,0.5s0.4,0.3,0.7,0.4c0.3,0.1,0.7,0.2,1.1,0.3l1.6,0.3
			c1.1,0.2,1.9,0.5,2.4,1s0.8,1.2,0.8,2.1c0,0.4-0.1,0.8-0.3,1.1c-0.2,0.4-0.4,0.7-0.7,0.9c-0.3,0.3-0.7,0.5-1.2,0.6
			c-0.5,0.2-1.1,0.2-1.7,0.2s-1.2-0.1-1.7-0.2c-0.5-0.1-1-0.3-1.4-0.6s-0.7-0.6-0.9-1s-0.4-0.9-0.4-1.5h1.1
			C110.2,578.3,110.6,578.9,111.1,579.2z"/>
		<path class="st2" d="M130.4,580.2c-0.6,0.3-1.3,0.5-2.1,0.5s-1.4-0.1-2-0.4c-0.6-0.3-1-0.7-1.4-1.2s-0.6-1.1-0.8-1.7
			s-0.3-1.3-0.3-2c0-1.8,0.4-3.1,1.2-4.1s2-1.5,3.4-1.5c0.6,0,1.1,0.1,1.7,0.4c0.6,0.2,1.1,0.7,1.6,1.4v-5.4h1.2v14.3h-1.2V579
			C131.4,579.4,130.9,579.9,130.4,580.2z M131.9,573.6c-0.1-0.3-0.1-0.6-0.2-0.9c-0.1-0.3-0.3-0.5-0.4-0.7c-0.2-0.2-0.4-0.4-0.6-0.6
			c-0.3-0.2-0.6-0.4-1-0.5c-0.3-0.1-0.7-0.2-1.1-0.2c-0.5,0-0.9,0.1-1.4,0.3c-0.4,0.2-0.8,0.4-1.1,0.8c-0.3,0.4-0.5,0.8-0.7,1.4
			c-0.2,0.6-0.3,1.3-0.3,2.1s0.1,1.5,0.3,2.1s0.4,1,0.8,1.4s0.6,0.6,1,0.7c0.4,0.1,0.8,0.2,1.1,0.2c0.4,0,0.8,0,1.1-0.1
			s0.7-0.3,1-0.5c0.5-0.3,0.8-0.8,1.1-1.3c0.3-0.5,0.4-1.2,0.4-2v-0.9C131.9,574.3,131.9,573.9,131.9,573.6z"/>
		<path class="st2" d="M143.2,579.9c-0.7,0.6-1.7,0.8-3,0.8c-1.5,0-2.6-0.5-3.5-1.4c-0.8-1-1.2-2.3-1.2-3.9c0-0.9,0.1-1.7,0.4-2.4
			c0.3-0.7,0.6-1.3,1-1.8c0.4-0.5,0.9-0.8,1.5-1.1c0.6-0.2,1.2-0.4,1.9-0.4c0.8,0,1.5,0.1,2,0.4s1,0.6,1.4,1.1
			c0.4,0.4,0.6,1,0.8,1.6s0.2,1.3,0.2,2v0.7h-7.9c0,0.6,0.1,1.1,0.2,1.7c0.1,0.5,0.4,1,0.7,1.3c0.3,0.4,0.7,0.7,1.1,0.9
			s0.9,0.3,1.5,0.3c0.5,0,1-0.1,1.3-0.2s0.7-0.2,0.9-0.4s0.4-0.4,0.6-0.7s0.3-0.5,0.3-0.8h1.1C144.3,578.6,143.9,579.3,143.2,579.9z
			 M143.2,573c-0.1-0.5-0.3-0.9-0.6-1.2s-0.6-0.6-1-0.8s-0.9-0.3-1.5-0.3c-1,0-1.8,0.3-2.4,0.9c-0.6,0.6-1,1.6-1.1,2.9h6.7
			C143.4,574,143.4,573.4,143.2,573z"/>
		<path class="st2" d="M148.3,566.1v14.3h-1.2v-14.3H148.3z"/>
	</g>
	<g class="st1">
		<path class="st2" d="M63.1,602.9c0.7,0.5,1.8,0.7,3.2,0.7c0.7,0,1.3-0.1,1.8-0.2c0.5-0.2,0.9-0.4,1.1-0.6c0.3-0.3,0.5-0.6,0.6-0.9
			s0.2-0.7,0.2-1.1c0-0.3,0-0.7-0.1-0.9c-0.1-0.3-0.2-0.6-0.4-0.8c-0.2-0.2-0.5-0.5-0.9-0.7c-0.4-0.2-0.9-0.3-1.5-0.4l-1.8-0.3
			c-0.7-0.1-1.3-0.3-1.9-0.5c-0.5-0.2-1-0.4-1.4-0.7s-0.7-0.7-0.9-1.1s-0.3-1-0.3-1.7s0.1-1.2,0.4-1.7s0.6-0.9,1.1-1.2
			s1-0.5,1.6-0.7c0.6-0.2,1.3-0.2,2-0.2c0.9,0,1.6,0.1,2.2,0.3s1.1,0.4,1.5,0.8s0.7,0.7,0.9,1.1c0.2,0.4,0.4,0.8,0.5,1.2l-1.1,0.3
			c-0.1-0.4-0.3-0.8-0.5-1.1s-0.4-0.6-0.7-0.8c-0.3-0.2-0.7-0.4-1.1-0.5c-0.5-0.1-1-0.2-1.7-0.2s-1.3,0.1-1.8,0.2
			c-0.5,0.1-0.9,0.3-1.2,0.6s-0.5,0.5-0.7,0.9c-0.1,0.3-0.2,0.7-0.2,1.1c0,0.4,0,0.7,0.1,1s0.3,0.5,0.5,0.8c0.2,0.2,0.5,0.4,0.9,0.5
			s0.9,0.3,1.4,0.4l2,0.4c0.7,0.1,1.3,0.3,1.9,0.5c0.5,0.2,1,0.5,1.3,0.8c0.3,0.3,0.6,0.7,0.8,1.2s0.3,1,0.3,1.6
			c0,0.5-0.1,1.1-0.3,1.5c-0.2,0.5-0.5,0.9-1,1.3c-0.4,0.4-0.9,0.6-1.6,0.9c-0.6,0.2-1.4,0.3-2.2,0.3c-0.8,0-1.5-0.1-2.2-0.2
			c-0.7-0.1-1.2-0.4-1.7-0.7s-0.9-0.8-1.2-1.3s-0.5-1.2-0.6-1.9h1.2C61.9,601.7,62.4,602.5,63.1,602.9z"/>
		<path class="st2" d="M75,594.1v6.5c0,1.1,0.2,1.9,0.5,2.3c0.3,0.5,0.9,0.7,1.8,0.7c0.4,0,0.8-0.1,1.2-0.2c0.4-0.2,0.8-0.4,1.2-0.7
			c0.4-0.3,0.7-0.7,0.9-1.1c0.2-0.4,0.3-0.9,0.3-1.5v-6H82v10.3h-1.2v-1.7c-1.1,1.3-2.3,2-3.7,2c-1.2,0-2-0.3-2.5-1
			s-0.8-1.6-0.8-2.8V594H75V594.1z"/>
		<path class="st2" d="M90.9,604.2c-0.6,0.3-1.3,0.5-2.1,0.5c-0.8,0-1.4-0.1-2-0.4c-0.6-0.3-1-0.7-1.4-1.2s-0.6-1.1-0.8-1.7
			s-0.3-1.3-0.3-2c0-1.8,0.4-3.1,1.2-4.1s2-1.5,3.4-1.5c0.6,0,1.1,0.1,1.7,0.4c0.6,0.2,1.1,0.7,1.6,1.4v-5.4h1.2v14.3h-1.2V603
			C92,603.4,91.5,603.9,90.9,604.2z M92.4,597.6c-0.1-0.3-0.1-0.6-0.2-0.9c-0.1-0.3-0.3-0.5-0.4-0.7c-0.2-0.2-0.4-0.4-0.6-0.6
			c-0.3-0.2-0.6-0.4-1-0.5c-0.3-0.1-0.7-0.2-1.1-0.2c-0.5,0-0.9,0.1-1.4,0.3c-0.4,0.2-0.8,0.4-1.1,0.8c-0.3,0.4-0.5,0.8-0.7,1.4
			c-0.2,0.6-0.3,1.3-0.3,2.1s0.1,1.5,0.3,2.1s0.4,1,0.8,1.4s0.6,0.6,1,0.7c0.4,0.1,0.8,0.2,1.1,0.2c0.4,0,0.8,0,1.1-0.1
			s0.7-0.3,1-0.5c0.5-0.3,0.8-0.8,1.1-1.3c0.3-0.5,0.4-1.2,0.4-2v-0.9C92.5,598.3,92.5,597.9,92.4,597.6z"/>
		<path class="st2" d="M112.5,597.3v5.5c-0.3,0.3-0.7,0.6-1.2,0.9c-0.4,0.2-0.9,0.4-1.3,0.6c-0.5,0.2-0.9,0.3-1.4,0.3
			c-0.5,0.1-0.9,0.1-1.4,0.1c-1,0-1.9-0.2-2.7-0.5c-0.8-0.3-1.5-0.8-2.1-1.4c-0.6-0.6-1-1.4-1.3-2.3c-0.3-0.9-0.5-2-0.5-3.2
			s0.2-2.3,0.5-3.3c0.3-0.9,0.8-1.7,1.3-2.4s1.2-1.1,2-1.4c0.8-0.3,1.6-0.5,2.5-0.5c1.5,0,2.7,0.3,3.5,1s1.4,1.6,1.7,2.9l-1.1,0.3
			c-0.1-0.5-0.3-0.9-0.5-1.3c-0.2-0.4-0.5-0.7-0.8-1s-0.7-0.5-1.2-0.6c-0.5-0.2-1-0.2-1.6-0.2c-0.8,0-1.6,0.2-2.2,0.5
			s-1.2,0.8-1.6,1.3c-0.4,0.6-0.8,1.3-1,2c-0.2,0.8-0.3,1.6-0.3,2.6c0,0.9,0.1,1.8,0.3,2.6c0.2,0.8,0.5,1.5,1,2c0.4,0.6,1,1,1.7,1.3
			s1.4,0.5,2.3,0.5c0.8,0,1.5-0.1,2.2-0.3s1.4-0.5,1.9-0.9v-4h-4.1v-1.1L112.5,597.3L112.5,597.3z"/>
		<path class="st2" d="M116.3,590.1v14.3h-1.2v-14.3H116.3z"/>
		<path class="st2" d="M121.6,604.3c-0.6-0.3-1.1-0.6-1.5-1.1s-0.7-1-0.9-1.7c-0.2-0.7-0.3-1.4-0.3-2.2s0.1-1.6,0.4-2.3
			c0.2-0.7,0.6-1.3,1-1.7c0.4-0.5,0.9-0.8,1.5-1.1s1.3-0.4,2-0.4s1.4,0.1,2,0.4c0.6,0.3,1.1,0.6,1.5,1.1s0.7,1,1,1.7
			c0.2,0.7,0.3,1.4,0.3,2.2s-0.1,1.6-0.3,2.3c-0.2,0.7-0.6,1.3-1,1.8s-0.9,0.9-1.5,1.1s-1.3,0.4-2.1,0.4S122.2,604.6,121.6,604.3z
			 M125.4,603.3c0.5-0.2,0.8-0.5,1.1-0.9c0.3-0.4,0.5-0.9,0.6-1.4s0.2-1.1,0.2-1.8c0-0.6-0.1-1.2-0.2-1.7s-0.3-1-0.6-1.4
			c-0.3-0.4-0.7-0.7-1.1-1c-0.5-0.2-1-0.3-1.7-0.3c-0.6,0-1.2,0.1-1.7,0.3s-0.8,0.6-1.1,1c-0.3,0.4-0.5,0.9-0.6,1.4
			s-0.2,1.1-0.2,1.8s0.1,1.2,0.2,1.8s0.3,1,0.6,1.4c0.3,0.4,0.7,0.7,1.1,0.9c0.5,0.2,1,0.4,1.7,0.4
			C124.4,603.7,124.9,603.6,125.4,603.3z"/>
		<path class="st2" d="M132.2,590.1v5.5c0.5-0.6,1-1,1.5-1.4c0.6-0.3,1.2-0.5,2-0.5c0.7,0,1.4,0.1,2,0.4s1,0.7,1.4,1.1
			c0.4,0.4,0.6,1,0.8,1.7c0.2,0.7,0.3,1.4,0.3,2.1c0,0.9-0.1,1.7-0.3,2.4s-0.5,1.3-0.9,1.8c-0.4,0.5-0.9,0.8-1.5,1.1
			c-0.6,0.3-1.2,0.4-1.9,0.4c-0.6,0-1.2-0.1-1.8-0.4s-1.1-0.7-1.6-1.3v1.4H131v-14.3H132.2z M132.2,600.8c0,0.3,0.1,0.6,0.2,0.9
			c0.1,0.3,0.3,0.5,0.4,0.7c0.2,0.2,0.4,0.4,0.6,0.6c0.3,0.2,0.6,0.4,0.9,0.5c0.3,0.1,0.7,0.2,1.1,0.2c0.5,0,0.9-0.1,1.4-0.3
			c0.4-0.2,0.8-0.4,1.1-0.8c0.3-0.4,0.5-0.8,0.7-1.4s0.3-1.3,0.3-2.1s-0.1-1.5-0.3-2.1s-0.4-1-0.8-1.3c-0.3-0.3-0.7-0.6-1-0.7
			c-0.4-0.1-0.8-0.2-1.1-0.2c-0.4,0-0.8,0-1.1,0.1s-0.7,0.3-1,0.5c-0.5,0.3-0.8,0.8-1.1,1.3c-0.3,0.5-0.4,1.2-0.4,2v0.9
			C132.2,600.1,132.2,600.5,132.2,600.8z"/>
		<path class="st2" d="M148.6,603.5c-0.2,0.2-0.5,0.4-0.8,0.5s-0.6,0.3-1,0.4s-0.8,0.1-1.2,0.1c-1.1,0-1.9-0.3-2.6-0.8
			c-0.7-0.5-1-1.3-1-2.3c0-0.7,0.1-1.3,0.4-1.7c0.3-0.4,0.7-0.8,1.2-1s1-0.4,1.7-0.5c0.6-0.1,1.3-0.2,1.9-0.2l2-0.1v-0.3
			c0-1-0.2-1.8-0.6-2.2c-0.4-0.5-1.1-0.7-2.1-0.7c-0.5,0-0.9,0-1.3,0.1c-0.3,0.1-0.6,0.2-0.9,0.4c-0.2,0.2-0.4,0.3-0.5,0.5
			s-0.2,0.4-0.3,0.7l-1.1-0.2c0.4-1.7,1.7-2.5,4-2.5c0.7,0,1.3,0.1,1.8,0.3s0.9,0.4,1.2,0.8c0.3,0.3,0.5,0.7,0.6,1.2s0.2,1,0.2,1.6
			v6.8H149v-1.5C149.1,603.1,148.9,603.3,148.6,603.5z M147.3,599c-0.8,0-1.4,0.1-1.9,0.2c-0.5,0.1-0.9,0.3-1.3,0.5
			c-0.3,0.2-0.6,0.5-0.7,0.8s-0.2,0.7-0.2,1.1c0,0.6,0.2,1.1,0.5,1.5c0.4,0.4,1,0.6,1.9,0.6c0.4,0,0.9-0.1,1.3-0.2
			c0.4-0.1,0.8-0.3,1.1-0.5c0.2-0.2,0.4-0.3,0.6-0.5s0.3-0.3,0.4-0.5c0.1-0.2,0.2-0.4,0.2-0.7s0.1-0.5,0.1-0.8V599L147.3,599z"/>
		<path class="st2" d="M154.4,590.1v14.3h-1.2v-14.3H154.4z"/>
	</g>
</g>
<g>
	<g>
		<g>
			<path class="st3" d="M515.1,878c46.2,20.7,97.3,32.2,151.2,32.2c204.2,0,369.7-165.5,369.7-369.7c0-84.8-28.6-163-76.6-225.3"/>
			<g>
				<path class="st4" d="M532.6,906.4c0.9-0.6,1.2-1.9,0.5-2.8l-17.2-25.3l30.2-4.8c1.1-0.2,1.8-1.2,1.7-2.3
					c-0.2-1.1-1.2-1.8-2.3-1.7l-33.3,5.3c-0.7,0.1-1.2,0.6-1.5,1.2c-0.3,0.6-0.2,1.4,0.2,1.9l18.9,27.9c0.2,0.3,0.5,0.6,0.9,0.7
					C531.3,906.8,532.1,906.8,532.6,906.4z"/>
			</g>
		</g>
	</g>
</g>
</svg>
