<?xml version="1.0" encoding="utf-8"?>
<!-- Generator: Adobe Illustrator 25.0.0, SVG Export Plug-In . SVG Version: 6.00 Build 0)  -->
<svg version="1.1" id="Capa_1" xmlns="http://www.w3.org/2000/svg" xmlns:xlink="http://www.w3.org/1999/xlink" x="0px" y="0px"
	 viewBox="0 0 1280 1338" style="enable-background:new 0 0 1280 1338;" xml:space="preserve">
<style type="text/css">
	.st0{fill:none;stroke:#FFFFFF;stroke-width:3;stroke-miterlimit:10;}
	.st1{fill:none;stroke:#FFFFFF;stroke-width:4;stroke-miterlimit:10;}
	.st2{fill:#FFFFFF;}
	.st3{opacity:0.5;fill:none;stroke:#FFFFFF;stroke-width:2;stroke-miterlimit:10;enable-background:new    ;}
	.st4{fill:none;stroke:#FF0000;stroke-width:4;stroke-miterlimit:10;}
	.st5{fill:#FF0000;}
	.st6{opacity:0.5;}
</style>
<g id="Capa_1_1_">
</g>
<g>
	<g>
		<line class="st0" x1="0.5" y1="539.8" x2="1285.4" y2="539.8"/>
	</g>
	<g>
		<g>
			<g>
				<path class="st1" d="M335.7,705.4C373,781,435.3,842,511.9,877.6"/>
				<g>
					<path class="st2" d="M330.9,738.4c1.1,0.1,2.1-0.7,2.2-1.8l3.1-30.4l26.3,15.6c1,0.6,2.2,0.3,2.7-0.7c0.6-0.9,0.2-2.2-0.7-2.7
						l-29-17.3c-0.6-0.3-1.3-0.4-1.9-0.1s-1,0.9-1.1,1.6l-3.4,33.6c0,0.4,0,0.8,0.2,1.1C329.6,737.9,330.2,738.3,330.9,738.4z"/>
				</g>
			</g>
		</g>
		<line class="st3" x1="3.2" y1="779.1" x2="1282.7" y2="779.1"/>
	</g>
	<g>
		<g>
			<g>
				<path class="st4" d="M515.1,877.3c46.2,20.7,97.3,32.2,151.2,32.2c204.2,0,369.7-165.5,369.7-369.7c0-84.8-28.6-163-76.6-225.3"
					/>
				<g>
					<path class="st5" d="M532.6,905.7c0.9-0.6,1.2-1.9,0.5-2.8l-17.2-25.3l30.2-4.8c1.1-0.2,1.8-1.2,1.7-2.3
						c-0.2-1.1-1.2-1.8-2.3-1.7l-33.3,5.3c-0.7,0.1-1.2,0.6-1.5,1.2c-0.3,0.6-0.2,1.4,0.2,1.9l18.9,27.9c0.2,0.3,0.5,0.6,0.9,0.7
						C531.3,906.1,532.1,906.1,532.6,905.7z"/>
				</g>
			</g>
		</g>
	</g>
</g>
<g>
	<path class="st2" d="M22.5,401.7v21.9h-1.9v-21.9H22.5z"/>
	<path class="st2" d="M28.9,407.8v2.6c0.9-1.1,1.8-1.9,2.7-2.3c1-0.5,2-0.7,3.1-0.7c1.8,0,3.1,0.5,4,1.5c0.9,1,1.3,2.4,1.3,4.3v10.5
		h-1.8v-10c0-1.7-0.3-2.8-0.9-3.6c-0.6-0.7-1.5-1.1-2.8-1.1c-0.6,0-1.3,0.1-1.9,0.4c-0.7,0.2-1.3,0.6-1.9,1.1
		c-0.6,0.5-1.1,1.1-1.4,1.6c-0.3,0.6-0.5,1.3-0.5,2.3v9.2h-1.8v-15.8H28.9z"/>
	<path class="st2" d="M53.6,423.3c-0.9,0.5-1.9,0.8-3.2,0.8c-1.2,0-2.2-0.2-3-0.7c-0.8-0.4-1.5-1.1-2.1-1.8c-0.6-0.8-1-1.6-1.2-2.6
		s-0.4-2-0.4-3.1c0-2.7,0.6-4.8,1.9-6.3s3-2.3,5.2-2.3c0.9,0,1.7,0.2,2.6,0.6c0.9,0.4,1.7,1.1,2.5,2.1v-8.2h1.8v21.9h-1.8v-2.4
		C55.2,422.1,54.5,422.8,53.6,423.3z M55.9,413.2c-0.1-0.5-0.2-1-0.4-1.4c-0.2-0.4-0.4-0.8-0.7-1.1c-0.3-0.3-0.6-0.6-1-0.9
		c-0.5-0.4-1-0.6-1.5-0.8c-0.5-0.2-1-0.2-1.6-0.2c-0.8,0-1.5,0.1-2.1,0.4c-0.6,0.3-1.2,0.7-1.6,1.2c-0.5,0.6-0.8,1.3-1.1,2.1
		s-0.4,1.9-0.4,3.2c0,1.3,0.1,2.4,0.4,3.2s0.7,1.6,1.1,2.1s1,0.9,1.6,1.1s1.2,0.3,1.8,0.3c0.6,0,1.2-0.1,1.7-0.2
		c0.5-0.1,1-0.4,1.5-0.8c0.7-0.5,1.3-1.2,1.7-2c0.4-0.8,0.6-1.8,0.6-3.1V415C56,414.3,56,413.7,55.9,413.2z"/>
	<path class="st2" d="M63.7,407.8v10c0,1.7,0.3,2.8,0.8,3.6c0.5,0.7,1.4,1.1,2.7,1.1c0.6,0,1.3-0.1,1.9-0.4c0.6-0.2,1.2-0.6,1.8-1.1
		c0.6-0.5,1-1.1,1.3-1.6c0.3-0.6,0.5-1.3,0.5-2.3v-9.2h1.8v15.8h-1.8V421c-1.7,2-3.6,3.1-5.7,3.1c-1.8,0-3.1-0.5-3.9-1.5
		c-0.8-1-1.2-2.4-1.2-4.3v-10.5H63.7z"/>
	<path class="st2" d="M81.2,421.8c0.8,0.5,2,0.8,3.5,0.8c1.5,0,2.6-0.3,3.2-0.9s0.9-1.3,0.9-2.1c0-0.4,0-0.7-0.1-1
		c-0.1-0.3-0.2-0.6-0.5-0.9c-0.2-0.3-0.6-0.5-1-0.7c-0.4-0.2-1-0.3-1.7-0.5l-1.9-0.3c-0.8-0.1-1.6-0.3-2.3-0.5
		c-0.7-0.2-1.2-0.5-1.7-0.8s-0.8-0.8-1-1.3c-0.2-0.5-0.4-1.1-0.4-1.9c0-0.7,0.2-1.3,0.5-1.9c0.3-0.6,0.7-1,1.3-1.4
		c0.5-0.4,1.2-0.7,1.9-0.9c0.7-0.2,1.5-0.3,2.3-0.3c1.1,0,2,0.1,2.7,0.3s1.3,0.5,1.8,0.9c0.5,0.4,0.8,0.8,1.1,1.3
		c0.3,0.5,0.5,1,0.6,1.6l-1.6,0.3c-0.2-0.5-0.4-0.9-0.6-1.2c-0.2-0.4-0.5-0.7-0.8-0.9c-0.3-0.2-0.7-0.4-1.2-0.5
		c-0.5-0.1-1.1-0.2-1.8-0.2c-0.8,0-1.5,0.1-2.1,0.2c-0.6,0.2-1,0.4-1.3,0.6c-0.3,0.3-0.6,0.6-0.7,0.9c-0.1,0.3-0.2,0.7-0.2,1.1
		s0,0.7,0.1,1c0.1,0.3,0.2,0.6,0.5,0.8c0.2,0.2,0.6,0.4,1,0.6c0.4,0.2,1,0.3,1.7,0.4l2.4,0.4c1.7,0.3,2.9,0.8,3.7,1.5
		c0.8,0.7,1.2,1.8,1.2,3.2c0,0.6-0.1,1.2-0.4,1.7c-0.3,0.6-0.6,1-1.1,1.4s-1.1,0.7-1.9,0.9c-0.8,0.2-1.6,0.4-2.6,0.4
		c-1,0-1.8-0.1-2.6-0.3s-1.5-0.5-2.1-0.9c-0.6-0.4-1.1-0.9-1.4-1.5c-0.4-0.6-0.6-1.4-0.7-2.2h1.7C79.9,420.4,80.4,421.3,81.2,421.8z
		"/>
	<path class="st2" d="M92.9,409.2v-1.5h2.5v-4.3h1.8v4.3h4.5v1.5h-4.5v10.3c0,0.8,0.2,1.4,0.5,2c0.3,0.5,0.9,0.8,1.7,0.8
		c0.5,0,1,0,1.3-0.1c0.4-0.1,0.7-0.2,1-0.3l0.4,1.4c-0.3,0.1-0.7,0.2-1.1,0.3c-0.4,0.1-1,0.2-1.7,0.2c-0.9,0-1.6-0.2-2.1-0.5
		s-0.9-0.7-1.1-1.2c-0.3-0.5-0.4-1.1-0.5-1.7s-0.1-1.3-0.1-2.1v-9.2H92.9z"/>
	<path class="st2" d="M106.3,407.8v2.6c0.6-0.9,1.4-1.6,2.2-2.1c0.8-0.5,1.7-0.7,2.6-0.7c0.2,0,0.4,0,0.6,0c0.2,0,0.4,0,0.6,0.1
		l-0.2,1.7c-0.4-0.1-0.7-0.1-1-0.1c-0.5,0-1.1,0.1-1.6,0.3c-0.6,0.2-1.1,0.5-1.6,1c-0.5,0.4-0.9,0.9-1.2,1.5
		c-0.3,0.6-0.5,1.3-0.5,2.1v9.5h-1.8v-15.8H106.3z"/>
	<path class="st2" d="M116.9,401.7v2.7h-2v-2.7H116.9z M116.8,407.8v15.8H115v-15.8H116.8z"/>
	<path class="st2" d="M130.2,422.3c-0.4,0.3-0.8,0.6-1.3,0.8c-0.5,0.2-1,0.4-1.5,0.6c-0.6,0.1-1.2,0.2-1.9,0.2c-1.7,0-3-0.4-4-1.2
		c-1-0.8-1.5-2-1.5-3.6c0-1.1,0.2-1.9,0.7-2.6s1-1.2,1.8-1.6c0.7-0.4,1.6-0.7,2.5-0.8c1-0.2,1.9-0.3,3-0.3l3.1-0.1v-0.5
		c0-1.6-0.3-2.7-0.9-3.4c-0.6-0.7-1.7-1.1-3.2-1.1c-0.8,0-1.4,0.1-1.9,0.2s-1,0.3-1.3,0.5c-0.3,0.2-0.6,0.5-0.8,0.8
		s-0.4,0.7-0.5,1.1l-1.6-0.2c0.6-2.6,2.6-3.9,6.2-3.9c1.1,0,2,0.1,2.8,0.4c0.8,0.3,1.4,0.6,1.8,1.1c0.5,0.5,0.8,1.1,1,1.8
		c0.2,0.7,0.3,1.6,0.3,2.5v10.4h-1.8v-2.2C130.9,421.6,130.6,421.9,130.2,422.3z M128.2,415.3c-1.2,0-2.2,0.1-3,0.3
		c-0.8,0.2-1.4,0.4-1.9,0.7c-0.5,0.3-0.8,0.7-1.1,1.2c-0.2,0.5-0.3,1-0.3,1.6c0,1,0.3,1.7,0.8,2.3c0.5,0.6,1.5,0.9,2.8,0.9
		c0.7,0,1.3-0.1,2-0.2c0.7-0.2,1.2-0.4,1.6-0.8c0.4-0.3,0.7-0.5,0.9-0.8c0.2-0.2,0.4-0.5,0.6-0.8c0.2-0.3,0.3-0.6,0.3-1
		c0.1-0.4,0.1-0.8,0.1-1.3v-2.3L128.2,415.3z"/>
	<path class="st2" d="M139.1,401.7v21.9h-1.8v-21.9H139.1z"/>
	<path class="st2" d="M145.4,401.7v2.7h-2v-2.7H145.4z M145.3,407.8v15.8h-1.8v-15.8H145.3z"/>
	<path class="st2" d="M158.3,409.3h-9.8v-1.5h11.9v1.5l-10,12.8h10.5l-0.3,1.5h-12.3V422L158.3,409.3z"/>
	<path class="st2" d="M174.2,422.7c-1.1,0.9-2.6,1.3-4.5,1.3c-2.3,0-4-0.7-5.3-2.2c-1.3-1.5-1.9-3.5-1.9-6c0-1.4,0.2-2.6,0.5-3.7
		c0.4-1.1,0.9-2,1.5-2.7c0.6-0.7,1.4-1.3,2.3-1.6c0.9-0.4,1.8-0.6,2.9-0.6c1.2,0,2.3,0.2,3.1,0.6c0.9,0.4,1.6,0.9,2.1,1.6
		c0.5,0.7,0.9,1.5,1.2,2.4c0.2,0.9,0.4,1.9,0.4,3v1.1h-12.1c0,0.9,0.1,1.7,0.3,2.5c0.2,0.8,0.6,1.5,1,2.1c0.4,0.6,1,1,1.7,1.4
		c0.7,0.3,1.5,0.5,2.3,0.5c0.8,0,1.5-0.1,2-0.2c0.6-0.2,1-0.4,1.4-0.7c0.4-0.3,0.7-0.6,0.9-1c0.2-0.4,0.4-0.8,0.5-1.3h1.7
		C175.9,420.8,175.2,421.9,174.2,422.7z M174.3,412.2c-0.2-0.7-0.5-1.3-0.9-1.9c-0.4-0.5-0.9-0.9-1.5-1.2c-0.6-0.3-1.4-0.4-2.3-0.4
		c-1.5,0-2.8,0.5-3.7,1.4c-0.9,1-1.5,2.4-1.7,4.4h10.3C174.6,413.7,174.5,412.9,174.3,412.2z"/>
	<path class="st2" d="M189.5,423.3c-0.9,0.5-1.9,0.8-3.2,0.8c-1.2,0-2.2-0.2-3-0.7c-0.8-0.4-1.5-1.1-2.1-1.8c-0.6-0.8-1-1.6-1.2-2.6
		s-0.4-2-0.4-3.1c0-2.7,0.6-4.8,1.9-6.3s3-2.3,5.2-2.3c0.9,0,1.7,0.2,2.6,0.6c0.9,0.4,1.7,1.1,2.5,2.1v-8.2h1.8v21.9h-1.8v-2.4
		C191.2,422.1,190.4,422.8,189.5,423.3z M191.8,413.2c-0.1-0.5-0.2-1-0.4-1.4c-0.2-0.4-0.4-0.8-0.7-1.1c-0.3-0.3-0.6-0.6-1-0.9
		c-0.5-0.4-1-0.6-1.5-0.8c-0.5-0.2-1-0.2-1.6-0.2c-0.8,0-1.5,0.1-2.1,0.4c-0.6,0.3-1.2,0.7-1.6,1.2c-0.5,0.6-0.8,1.3-1.1,2.1
		s-0.4,1.9-0.4,3.2c0,1.3,0.1,2.4,0.4,3.2s0.7,1.6,1.1,2.1s1,0.9,1.6,1.1s1.2,0.3,1.8,0.3c0.6,0,1.2-0.1,1.7-0.2
		c0.5-0.1,1-0.4,1.5-0.8c0.7-0.5,1.3-1.2,1.7-2c0.4-0.8,0.6-1.8,0.6-3.1V415C191.9,414.3,191.9,413.7,191.8,413.2z"/>
	<path class="st2" d="M31.5,459.3c-1.1,1-2.6,1.5-4.5,1.5c-1.1,0-2.2-0.2-3.1-0.6c-0.9-0.4-1.7-0.9-2.3-1.7
		c-0.6-0.7-1.1-1.6-1.4-2.6c-0.3-1-0.5-2.2-0.5-3.5s0.2-2.5,0.5-3.5c0.3-1,0.8-1.9,1.5-2.7s1.4-1.3,2.3-1.7c0.9-0.4,1.9-0.6,3.1-0.6
		c1.7,0,3.1,0.4,4.1,1.3c1,0.9,1.7,2.1,2,3.8l-1.7,0.4c-0.1-0.6-0.3-1.1-0.5-1.6c-0.2-0.5-0.5-0.9-0.9-1.3c-0.3-0.3-0.8-0.6-1.3-0.8
		c-0.5-0.2-1.1-0.3-1.9-0.3c-1,0-1.8,0.2-2.5,0.5c-0.7,0.3-1.2,0.8-1.7,1.4c-0.4,0.6-0.8,1.3-1,2.2c-0.2,0.8-0.3,1.7-0.3,2.7
		s0.1,1.9,0.3,2.7c0.2,0.8,0.5,1.6,0.9,2.2c0.4,0.6,1,1.1,1.7,1.4c0.7,0.3,1.5,0.5,2.5,0.5c1.5,0,2.6-0.4,3.4-1.1s1.2-1.7,1.4-3h1.8
		C33.3,456.9,32.6,458.3,31.5,459.3z"/>
	<path class="st2" d="M40.6,460.2c-0.9-0.4-1.7-0.9-2.3-1.7c-0.6-0.7-1.1-1.6-1.4-2.6c-0.3-1-0.5-2.2-0.5-3.4c0-1.3,0.2-2.5,0.5-3.5
		c0.4-1,0.9-1.9,1.5-2.7c0.6-0.7,1.4-1.3,2.3-1.7c0.9-0.4,1.9-0.6,3.1-0.6s2.2,0.2,3.1,0.6s1.7,0.9,2.3,1.7c0.6,0.7,1.1,1.6,1.5,2.6
		c0.3,1,0.5,2.2,0.5,3.4c0,1.3-0.2,2.5-0.5,3.5c-0.3,1-0.8,1.9-1.5,2.7c-0.6,0.7-1.4,1.3-2.4,1.7c-0.9,0.4-2,0.6-3.1,0.6
		C42.6,460.8,41.5,460.6,40.6,460.2z M46.3,458.7c0.7-0.4,1.3-0.8,1.7-1.5c0.4-0.6,0.8-1.3,1-2.2c0.2-0.8,0.3-1.7,0.3-2.7
		c0-0.9-0.1-1.8-0.3-2.6c-0.2-0.8-0.5-1.5-1-2.2s-1-1.1-1.7-1.5s-1.5-0.5-2.5-0.5c-1,0-1.8,0.2-2.5,0.5s-1.3,0.8-1.7,1.5
		c-0.4,0.6-0.8,1.3-1,2.2c-0.2,0.8-0.3,1.7-0.3,2.7c0,1,0.1,1.9,0.3,2.7c0.2,0.8,0.5,1.6,1,2.2c0.4,0.6,1,1.1,1.7,1.5
		s1.5,0.5,2.5,0.5C44.8,459.2,45.6,459.1,46.3,458.7z"/>
	<path class="st2" d="M56.7,444.5v10c0,1.7,0.3,2.8,0.8,3.6c0.5,0.7,1.4,1.1,2.7,1.1c0.6,0,1.3-0.1,1.9-0.4c0.6-0.2,1.2-0.6,1.8-1.1
		c0.6-0.5,1-1.1,1.3-1.6s0.5-1.3,0.5-2.3v-9.2h1.8v15.8h-1.8v-2.6c-1.7,2-3.6,3.1-5.7,3.1c-1.8,0-3.1-0.5-3.9-1.5
		c-0.8-1-1.2-2.4-1.2-4.3v-10.5H56.7z"/>
	<path class="st2" d="M73.6,444.5v2.6c0.9-1.1,1.8-1.9,2.7-2.3c1-0.5,2-0.7,3.1-0.7c1.8,0,3.1,0.5,4,1.5c0.9,1,1.3,2.4,1.3,4.3v10.5
		h-1.8v-10c0-1.7-0.3-2.8-0.9-3.6c-0.6-0.7-1.5-1.1-2.8-1.1c-0.6,0-1.3,0.1-1.9,0.4c-0.7,0.2-1.3,0.6-1.9,1.1
		c-0.6,0.5-1.1,1.1-1.4,1.6c-0.3,0.6-0.5,1.3-0.5,2.3v9.2h-1.8v-15.8H73.6z"/>
	<path class="st2" d="M87.3,446v-1.5h2.4v-4.3h1.8v4.3H96v1.5h-4.5v10.3c0,0.8,0.2,1.4,0.5,2c0.3,0.5,0.9,0.8,1.7,0.8
		c0.5,0,1,0,1.3-0.1s0.7-0.2,1-0.3l0.4,1.4c-0.3,0.1-0.7,0.2-1.1,0.3c-0.4,0.1-1,0.2-1.7,0.2c-0.9,0-1.6-0.2-2.1-0.5
		c-0.5-0.3-0.9-0.7-1.1-1.2c-0.3-0.5-0.4-1.1-0.5-1.7c-0.1-0.7-0.1-1.3-0.1-2.1V446H87.3z"/>
	<path class="st2" d="M100.7,444.5v2.6c0.6-0.9,1.4-1.6,2.2-2.1c0.8-0.5,1.7-0.7,2.6-0.7c0.2,0,0.4,0,0.6,0c0.2,0,0.4,0,0.6,0.1
		l-0.2,1.7c-0.4-0.1-0.7-0.1-1-0.1c-0.5,0-1.1,0.1-1.6,0.3c-0.6,0.2-1.1,0.5-1.6,1c-0.5,0.4-0.9,0.9-1.2,1.5
		c-0.3,0.6-0.5,1.3-0.5,2.1v9.5H99v-15.8H100.7z"/>
	<path class="st2" d="M111.3,438.4v2.7h-2v-2.7H111.3z M111.2,444.5v15.8h-1.8v-15.8H111.2z"/>
	<path class="st2" d="M126.7,459.5c-1.1,0.9-2.6,1.3-4.5,1.3c-2.3,0-4-0.7-5.3-2.2s-1.9-3.5-1.9-6c0-1.4,0.2-2.6,0.5-3.7
		c0.4-1.1,0.9-2,1.5-2.7c0.6-0.7,1.4-1.3,2.3-1.6c0.9-0.4,1.8-0.6,2.9-0.6c1.2,0,2.3,0.2,3.1,0.6c0.9,0.4,1.6,0.9,2.1,1.6
		c0.5,0.7,0.9,1.5,1.2,2.4c0.2,0.9,0.4,1.9,0.4,3v1.1h-12.1c0,0.9,0.1,1.7,0.3,2.5c0.2,0.8,0.6,1.5,1,2.1c0.4,0.6,1,1,1.7,1.4
		s1.4,0.5,2.3,0.5c0.8,0,1.5-0.1,2-0.2c0.6-0.2,1-0.4,1.4-0.7c0.4-0.3,0.7-0.6,0.9-1c0.2-0.4,0.4-0.8,0.5-1.3h1.7
		C128.5,457.5,127.8,458.6,126.7,459.5z M126.9,448.9c-0.2-0.7-0.5-1.3-0.9-1.9c-0.4-0.5-0.9-0.9-1.5-1.2c-0.6-0.3-1.4-0.4-2.3-0.4
		c-1.5,0-2.8,0.5-3.7,1.4s-1.5,2.4-1.7,4.4h10.3C127.1,450.5,127,449.7,126.9,448.9z"/>
	<path class="st2" d="M135.2,458.5c0.8,0.5,2,0.8,3.5,0.8c1.5,0,2.6-0.3,3.2-0.9s0.9-1.3,0.9-2.1c0-0.4,0-0.7-0.1-1
		c-0.1-0.3-0.2-0.6-0.5-0.9c-0.2-0.3-0.6-0.5-1-0.7c-0.4-0.2-1-0.3-1.7-0.5l-1.9-0.3c-0.8-0.1-1.6-0.3-2.3-0.5
		c-0.7-0.2-1.2-0.5-1.7-0.8s-0.8-0.8-1-1.3c-0.2-0.5-0.4-1.1-0.4-1.9c0-0.7,0.2-1.3,0.5-1.9c0.3-0.6,0.7-1,1.3-1.4
		c0.5-0.4,1.2-0.7,1.9-0.9c0.7-0.2,1.5-0.3,2.3-0.3c1.1,0,2,0.1,2.7,0.3s1.3,0.5,1.8,0.9c0.5,0.4,0.8,0.8,1.1,1.3
		c0.3,0.5,0.5,1,0.6,1.6l-1.6,0.3c-0.2-0.5-0.4-0.9-0.6-1.2c-0.2-0.4-0.5-0.7-0.8-0.9c-0.3-0.2-0.7-0.4-1.2-0.5
		c-0.5-0.1-1.1-0.2-1.8-0.2c-0.8,0-1.5,0.1-2.1,0.2c-0.6,0.2-1,0.4-1.3,0.6c-0.3,0.3-0.6,0.6-0.7,0.9c-0.1,0.3-0.2,0.7-0.2,1.1
		c0,0.4,0,0.7,0.1,1c0.1,0.3,0.2,0.6,0.5,0.8c0.2,0.2,0.6,0.4,1,0.6c0.4,0.2,1,0.3,1.7,0.4l2.4,0.4c1.7,0.3,2.9,0.8,3.7,1.5
		c0.8,0.7,1.2,1.8,1.2,3.2c0,0.6-0.1,1.2-0.4,1.7c-0.3,0.6-0.6,1-1.1,1.4s-1.1,0.7-1.9,0.9c-0.8,0.2-1.6,0.4-2.6,0.4
		c-1,0-1.8-0.1-2.6-0.3s-1.5-0.5-2.1-0.9c-0.6-0.4-1.1-0.9-1.4-1.5c-0.4-0.6-0.6-1.4-0.7-2.2h1.7C133.9,457.1,134.4,458,135.2,458.5
		z"/>
	<path class="st2" d="M159,460.2c-0.9-0.4-1.7-0.9-2.3-1.7c-0.6-0.7-1.1-1.6-1.4-2.6c-0.3-1-0.5-2.2-0.5-3.4c0-1.3,0.2-2.5,0.5-3.5
		c0.4-1,0.9-1.9,1.5-2.7c0.6-0.7,1.4-1.3,2.3-1.7c0.9-0.4,1.9-0.6,3.1-0.6s2.2,0.2,3.1,0.6s1.7,0.9,2.3,1.7c0.6,0.7,1.1,1.6,1.5,2.6
		c0.3,1,0.5,2.2,0.5,3.4c0,1.3-0.2,2.5-0.5,3.5c-0.3,1-0.8,1.9-1.5,2.7c-0.6,0.7-1.4,1.3-2.4,1.7c-0.9,0.4-2,0.6-3.1,0.6
		C161,460.8,159.9,460.6,159,460.2z M164.7,458.7c0.7-0.4,1.3-0.8,1.7-1.5c0.4-0.6,0.8-1.3,1-2.2c0.2-0.8,0.3-1.7,0.3-2.7
		c0-0.9-0.1-1.8-0.3-2.6c-0.2-0.8-0.5-1.5-1-2.2s-1-1.1-1.7-1.5s-1.5-0.5-2.5-0.5c-1,0-1.8,0.2-2.5,0.5s-1.3,0.8-1.7,1.5
		c-0.4,0.6-0.8,1.3-1,2.2c-0.2,0.8-0.3,1.7-0.3,2.7c0,1,0.1,1.9,0.3,2.7c0.2,0.8,0.5,1.6,1,2.2c0.4,0.6,1,1.1,1.7,1.5
		s1.5,0.5,2.5,0.5C163.2,459.2,164,459.1,164.7,458.7z"/>
	<path class="st2" d="M171.6,446v-1.5h2.4v-1.8c0-0.8,0.1-1.4,0.4-2s0.6-1,1-1.4c0.4-0.4,0.9-0.6,1.4-0.8c0.5-0.2,1.1-0.3,1.7-0.3
		c0.4,0,0.8,0,1.2,0.1c0.4,0.1,0.7,0.1,1.1,0.3l-0.4,1.5c-0.3-0.1-0.6-0.2-0.9-0.2c-0.3,0-0.6-0.1-0.9-0.1c-0.8,0-1.5,0.2-2,0.6
		c-0.5,0.4-0.8,1.2-0.8,2.3v1.9h4.2v1.5h-4.2v14.3h-1.8V446H171.6z"/>
	<path class="st2" d="M187.9,446v-1.5h2.5v-4.3h1.8v4.3h4.5v1.5h-4.5v10.3c0,0.8,0.2,1.4,0.5,2c0.3,0.5,0.9,0.8,1.7,0.8
		c0.5,0,1,0,1.3-0.1c0.4-0.1,0.7-0.2,1-0.3l0.4,1.4c-0.3,0.1-0.7,0.2-1.1,0.3c-0.4,0.1-1,0.2-1.7,0.2c-0.9,0-1.6-0.2-2.1-0.5
		s-0.9-0.7-1.1-1.2c-0.3-0.5-0.4-1.1-0.5-1.7s-0.1-1.3-0.1-2.1V446H187.9z"/>
	<path class="st2" d="M201.4,438.4v8.7c0.9-1.1,1.8-1.9,2.7-2.3c1-0.5,2-0.7,3.1-0.7c1.8,0,3.1,0.5,4,1.5c0.9,1,1.3,2.4,1.3,4.3
		v10.5h-1.8v-10c0-1.7-0.3-2.8-0.9-3.6c-0.6-0.7-1.5-1.1-2.8-1.1c-0.6,0-1.3,0.1-1.9,0.4c-0.7,0.2-1.3,0.6-1.9,1.1
		c-0.6,0.5-1.1,1.1-1.4,1.6c-0.3,0.6-0.5,1.3-0.5,2.3v9.2h-1.8v-21.9H201.4z"/>
	<path class="st2" d="M227.9,459.5c-1.1,0.9-2.6,1.3-4.5,1.3c-2.3,0-4-0.7-5.3-2.2s-1.9-3.5-1.9-6c0-1.4,0.2-2.6,0.5-3.7
		c0.4-1.1,0.9-2,1.5-2.7c0.6-0.7,1.4-1.3,2.3-1.6c0.9-0.4,1.8-0.6,2.9-0.6c1.2,0,2.3,0.2,3.1,0.6c0.9,0.4,1.6,0.9,2.1,1.6
		c0.5,0.7,0.9,1.5,1.2,2.4c0.2,0.9,0.4,1.9,0.4,3v1.1H218c0,0.9,0.1,1.7,0.3,2.5c0.2,0.8,0.6,1.5,1,2.1c0.4,0.6,1,1,1.7,1.4
		s1.4,0.5,2.3,0.5c0.8,0,1.5-0.1,2-0.2c0.6-0.2,1-0.4,1.4-0.7c0.4-0.3,0.7-0.6,0.9-1c0.2-0.4,0.4-0.8,0.5-1.3h1.7
		C229.6,457.5,229,458.6,227.9,459.5z M228,448.9c-0.2-0.7-0.5-1.3-0.9-1.9c-0.4-0.5-0.9-0.9-1.5-1.2c-0.6-0.3-1.4-0.4-2.3-0.4
		c-1.5,0-2.8,0.5-3.7,1.4s-1.5,2.4-1.7,4.4h10.3C228.3,450.5,228.2,449.7,228,448.9z"/>
	<path class="st2" d="M37.9,486.2v8.5c-0.5,0.5-1.1,0.9-1.8,1.3c-0.7,0.4-1.3,0.7-2.1,0.9s-1.4,0.4-2.2,0.5s-1.4,0.2-2.1,0.2
		c-1.6,0-2.9-0.2-4.2-0.8c-1.2-0.5-2.3-1.2-3.2-2.2c-0.9-1-1.5-2.2-2-3.6c-0.5-1.4-0.7-3-0.7-4.9c0-1.9,0.2-3.5,0.8-5
		c0.5-1.4,1.2-2.6,2.1-3.6c0.9-1,1.9-1.7,3.1-2.2c1.2-0.5,2.5-0.8,3.8-0.8c2.3,0,4.1,0.5,5.3,1.6c1.3,1.1,2.2,2.5,2.6,4.4l-1.7,0.4
		c-0.2-0.7-0.5-1.3-0.8-1.9c-0.3-0.6-0.7-1.1-1.2-1.5c-0.5-0.4-1.1-0.7-1.8-1c-0.7-0.2-1.5-0.4-2.5-0.4c-1.3,0-2.4,0.2-3.4,0.7
		c-1,0.5-1.8,1.2-2.4,2.1s-1.1,1.9-1.5,3.1c-0.3,1.2-0.5,2.5-0.5,4c0,1.4,0.2,2.8,0.5,4c0.3,1.2,0.8,2.2,1.5,3.1
		c0.7,0.9,1.5,1.6,2.5,2c1,0.5,2.2,0.7,3.6,0.7c1.2,0,2.3-0.2,3.4-0.5c1.1-0.3,2.1-0.8,3-1.5v-6.1h-6.2v-1.7H37.9z"/>
	<path class="st2" d="M43.9,475.2V497h-1.8v-21.9H43.9z"/>
	<path class="st2" d="M52,496.9c-0.9-0.4-1.7-0.9-2.3-1.7c-0.6-0.7-1.1-1.6-1.4-2.6c-0.3-1-0.5-2.2-0.5-3.4c0-1.3,0.2-2.5,0.5-3.5
		c0.4-1,0.9-1.9,1.5-2.7c0.6-0.7,1.4-1.3,2.3-1.7c0.9-0.4,1.9-0.6,3.1-0.6s2.2,0.2,3.1,0.6s1.7,0.9,2.3,1.7c0.6,0.7,1.1,1.6,1.5,2.6
		c0.3,1,0.5,2.2,0.5,3.4c0,1.3-0.2,2.5-0.5,3.5c-0.3,1-0.8,1.9-1.5,2.7c-0.6,0.7-1.4,1.3-2.4,1.7c-0.9,0.4-2,0.6-3.1,0.6
		C53.9,497.5,52.9,497.3,52,496.9z M57.7,495.4c0.7-0.4,1.3-0.8,1.7-1.5c0.4-0.6,0.8-1.3,1-2.2s0.3-1.7,0.3-2.7
		c0-0.9-0.1-1.8-0.3-2.6c-0.2-0.8-0.5-1.5-1-2.2s-1-1.1-1.7-1.5s-1.5-0.5-2.5-0.5c-1,0-1.8,0.2-2.5,0.5s-1.3,0.8-1.7,1.5
		c-0.4,0.6-0.8,1.3-1,2.2c-0.2,0.8-0.3,1.7-0.3,2.7c0,1,0.1,1.9,0.3,2.7s0.5,1.6,1,2.2c0.4,0.6,1,1.1,1.7,1.5s1.5,0.5,2.5,0.5
		C56.2,496,57,495.8,57.7,495.4z"/>
	<path class="st2" d="M68.2,475.2v8.5c0.7-0.9,1.5-1.6,2.4-2.1s1.9-0.8,3.1-0.8c1.1,0,2.1,0.2,3,0.6s1.6,1,2.1,1.7
		c0.6,0.7,1,1.6,1.3,2.6s0.4,2.1,0.4,3.2c0,1.3-0.2,2.5-0.5,3.6c-0.3,1.1-0.8,1.9-1.4,2.7c-0.6,0.7-1.4,1.3-2.2,1.7
		c-0.9,0.4-1.8,0.6-2.9,0.6c-1,0-1.9-0.2-2.8-0.6c-0.9-0.4-1.7-1.1-2.4-2.1v2.1h-1.8v-21.9H68.2z M68.2,491.6c0.1,0.5,0.2,1,0.4,1.4
		c0.2,0.4,0.4,0.8,0.7,1.1s0.6,0.6,1,0.9c0.5,0.4,0.9,0.6,1.4,0.8c0.5,0.2,1.1,0.2,1.7,0.2c0.8,0,1.4-0.1,2.1-0.4
		c0.6-0.3,1.2-0.7,1.6-1.2c0.5-0.6,0.8-1.3,1.1-2.2c0.3-0.9,0.4-2,0.4-3.2c0-1.3-0.1-2.4-0.4-3.2c-0.3-0.9-0.7-1.5-1.1-2.1
		c-0.5-0.5-1-0.9-1.6-1.1c-0.6-0.2-1.2-0.3-1.7-0.3c-0.6,0-1.2,0.1-1.7,0.2c-0.5,0.1-1,0.4-1.5,0.8c-0.7,0.5-1.3,1.2-1.7,2
		s-0.6,1.8-0.6,3.1v1.4C68.1,490.5,68.1,491.1,68.2,491.6z"/>
	<path class="st2" d="M93.3,495.8c-0.4,0.3-0.8,0.6-1.3,0.8s-1,0.4-1.5,0.6c-0.6,0.1-1.2,0.2-1.9,0.2c-1.7,0-3-0.4-4-1.2
		c-1-0.8-1.5-2-1.5-3.6c0-1.1,0.2-1.9,0.7-2.6s1-1.2,1.8-1.6c0.7-0.4,1.6-0.7,2.5-0.8c0.9-0.2,1.9-0.3,3-0.3l3.1-0.1v-0.5
		c0-1.6-0.3-2.7-0.9-3.4c-0.6-0.7-1.7-1.1-3.2-1.1c-0.8,0-1.4,0.1-1.9,0.2c-0.5,0.1-1,0.3-1.3,0.5c-0.3,0.2-0.6,0.5-0.8,0.8
		s-0.4,0.7-0.5,1.1l-1.6-0.2c0.6-2.6,2.6-3.9,6.2-3.9c1.1,0,2,0.1,2.8,0.4c0.8,0.3,1.4,0.6,1.8,1.1c0.5,0.5,0.8,1.1,1,1.8
		c0.2,0.7,0.3,1.6,0.3,2.5V497h-1.8v-2.2C94,495.1,93.7,495.4,93.3,495.8z M91.3,488.8c-1.2,0-2.2,0.1-3,0.3
		c-0.8,0.2-1.4,0.4-1.9,0.7s-0.8,0.7-1.1,1.2c-0.2,0.5-0.3,1-0.3,1.6c0,1,0.3,1.7,0.8,2.3c0.5,0.6,1.5,0.9,2.8,0.9
		c0.7,0,1.3-0.1,2-0.2c0.7-0.2,1.2-0.4,1.6-0.8c0.4-0.3,0.7-0.5,0.9-0.8c0.2-0.2,0.4-0.5,0.6-0.8c0.2-0.3,0.3-0.6,0.3-1
		c0.1-0.4,0.1-0.8,0.1-1.3v-2.3L91.3,488.8z"/>
	<path class="st2" d="M102.2,475.2V497h-1.8v-21.9H102.2z"/>
	<path class="st2" d="M115.8,475.2l12.2,18.9v-18.9h1.8V497h-2l-12.3-19v19h-1.8v-21.9H115.8z"/>
	<path class="st2" d="M138.3,496.9c-0.9-0.4-1.7-0.9-2.3-1.7c-0.6-0.7-1.1-1.6-1.4-2.6c-0.3-1-0.5-2.2-0.5-3.4
		c0-1.3,0.2-2.5,0.5-3.5c0.4-1,0.9-1.9,1.5-2.7c0.6-0.7,1.4-1.3,2.3-1.7c0.9-0.4,1.9-0.6,3.1-0.6s2.2,0.2,3.1,0.6s1.7,0.9,2.3,1.7
		c0.6,0.7,1.1,1.6,1.5,2.6c0.3,1,0.5,2.2,0.5,3.4c0,1.3-0.2,2.5-0.5,3.5c-0.3,1-0.8,1.9-1.5,2.7c-0.6,0.7-1.4,1.3-2.4,1.7
		c-0.9,0.4-2,0.6-3.1,0.6C140.2,497.5,139.2,497.3,138.3,496.9z M144,495.4c0.7-0.4,1.3-0.8,1.7-1.5c0.4-0.6,0.8-1.3,1-2.2
		s0.3-1.7,0.3-2.7c0-0.9-0.1-1.8-0.3-2.6c-0.2-0.8-0.5-1.5-1-2.2s-1-1.1-1.7-1.5s-1.5-0.5-2.5-0.5c-1,0-1.8,0.2-2.5,0.5
		s-1.3,0.8-1.7,1.5c-0.4,0.6-0.8,1.3-1,2.2c-0.2,0.8-0.3,1.7-0.3,2.7c0,1,0.1,1.9,0.3,2.7s0.5,1.6,1,2.2c0.4,0.6,1,1.1,1.7,1.5
		s1.5,0.5,2.5,0.5C142.5,496,143.3,495.8,144,495.4z"/>
	<path class="st2" d="M154.5,481.3v2.6c0.6-0.9,1.4-1.6,2.2-2.1c0.8-0.5,1.7-0.7,2.6-0.7c0.2,0,0.4,0,0.6,0c0.2,0,0.4,0,0.6,0.1
		l-0.2,1.7c-0.4-0.1-0.7-0.1-1-0.1c-0.5,0-1.1,0.1-1.6,0.3c-0.6,0.2-1.1,0.5-1.6,1c-0.5,0.4-0.9,0.9-1.2,1.5
		c-0.3,0.6-0.5,1.3-0.5,2.1v9.5h-1.8v-15.8H154.5z"/>
	<path class="st2" d="M162.2,482.7v-1.5h2.4v-4.3h1.8v4.3h4.5v1.5h-4.5V493c0,0.8,0.2,1.4,0.5,2c0.3,0.5,0.9,0.8,1.7,0.8
		c0.5,0,1,0,1.3-0.1s0.7-0.2,1-0.3l0.4,1.4c-0.3,0.1-0.7,0.2-1.1,0.3c-0.4,0.1-1,0.2-1.7,0.2c-0.9,0-1.6-0.2-2.1-0.5
		c-0.5-0.3-0.9-0.7-1.1-1.2c-0.3-0.5-0.4-1.1-0.5-1.7c-0.1-0.7-0.1-1.3-0.1-2.1v-9.2H162.2z"/>
	<path class="st2" d="M175.7,475.2v8.7c0.9-1.1,1.8-1.9,2.7-2.3c1-0.5,2-0.7,3.1-0.7c1.8,0,3.1,0.5,4,1.5c0.9,1,1.3,2.4,1.3,4.3V497
		H185v-10c0-1.7-0.3-2.8-0.9-3.6c-0.6-0.7-1.5-1.1-2.8-1.1c-0.6,0-1.3,0.1-1.9,0.4s-1.3,0.6-1.9,1.1c-0.6,0.5-1.1,1.1-1.4,1.6
		c-0.3,0.6-0.5,1.3-0.5,2.3v9.2h-1.8v-21.9H175.7z"/>
</g>
<g>
	<path class="st2" d="M30.7,596.1c-0.4,0.9-1,1.7-1.7,2.4c-0.7,0.7-1.6,1.2-2.6,1.6c-1,0.4-2.2,0.6-3.6,0.6c-1.4,0-2.7-0.2-3.9-0.7
		c-1.2-0.5-2.2-1.2-3-2.2s-1.5-2.2-2-3.6c-0.5-1.4-0.7-3.1-0.7-4.9c0-1.9,0.3-3.5,0.8-5c0.5-1.4,1.2-2.6,2.1-3.6s1.9-1.7,3-2.2
		c1.2-0.5,2.4-0.8,3.7-0.8c1.3,0,2.5,0.2,3.4,0.5s1.8,0.8,2.4,1.5c0.7,0.6,1.2,1.4,1.6,2.2s0.7,1.8,1,2.8l-1.8,0.4
		c-0.2-0.9-0.5-1.7-0.8-2.4c-0.3-0.7-0.8-1.3-1.3-1.8c-0.5-0.5-1.1-0.9-1.9-1.1c-0.7-0.3-1.6-0.4-2.7-0.4c-1.2,0-2.3,0.2-3.2,0.7
		c-0.9,0.5-1.7,1.2-2.4,2.1s-1.2,1.9-1.5,3.1s-0.5,2.5-0.5,4c0,1.4,0.2,2.8,0.5,4c0.3,1.2,0.8,2.2,1.5,3.1s1.4,1.6,2.4,2
		c1,0.5,2.1,0.7,3.3,0.7c1.2,0,2.2-0.1,3-0.4c0.8-0.3,1.5-0.7,2-1.2c0.5-0.5,0.9-1.2,1.2-1.9c0.3-0.7,0.5-1.5,0.7-2.3h1.8
		C31.4,594.2,31.2,595.2,30.7,596.1z"/>
	<path class="st2" d="M38.8,600.1c-0.9-0.4-1.7-0.9-2.3-1.7c-0.6-0.7-1.1-1.6-1.4-2.6c-0.3-1-0.5-2.2-0.5-3.4c0-1.3,0.2-2.5,0.5-3.5
		c0.4-1,0.9-1.9,1.5-2.7s1.4-1.3,2.3-1.7c0.9-0.4,1.9-0.6,3.1-0.6c1.1,0,2.2,0.2,3.1,0.6c0.9,0.4,1.7,0.9,2.3,1.7
		c0.6,0.7,1.1,1.6,1.5,2.6c0.3,1,0.5,2.2,0.5,3.4c0,1.3-0.2,2.5-0.5,3.5c-0.3,1-0.8,1.9-1.5,2.7s-1.4,1.3-2.4,1.7
		c-0.9,0.4-2,0.6-3.1,0.6C40.8,600.6,39.8,600.4,38.8,600.1z M44.6,598.6c0.7-0.4,1.3-0.8,1.7-1.5c0.4-0.6,0.8-1.3,1-2.2
		c0.2-0.8,0.3-1.7,0.3-2.7c0-0.9-0.1-1.8-0.3-2.6c-0.2-0.8-0.5-1.5-1-2.2s-1-1.1-1.7-1.5c-0.7-0.4-1.5-0.5-2.5-0.5
		c-1,0-1.8,0.2-2.5,0.5c-0.7,0.4-1.3,0.8-1.7,1.5s-0.8,1.3-1,2.2c-0.2,0.8-0.3,1.7-0.3,2.7c0,1,0.1,1.9,0.3,2.7
		c0.2,0.8,0.5,1.6,1,2.2c0.4,0.6,1,1.1,1.7,1.5c0.7,0.4,1.5,0.5,2.5,0.5C43,599.1,43.9,598.9,44.6,598.6z"/>
	<path class="st2" d="M55,584.4v10c0,1.7,0.3,2.8,0.8,3.6c0.5,0.7,1.4,1.1,2.7,1.1c0.6,0,1.3-0.1,1.9-0.4c0.6-0.2,1.2-0.6,1.8-1.1
		c0.6-0.5,1-1.1,1.3-1.6c0.3-0.6,0.5-1.3,0.5-2.3v-9.2h1.8v15.8h-1.8v-2.6c-1.7,2-3.6,3.1-5.7,3.1c-1.8,0-3.1-0.5-3.9-1.5
		s-1.2-2.4-1.2-4.3v-10.5H55z"/>
	<path class="st2" d="M71.8,584.4v2.6c0.9-1.1,1.8-1.9,2.7-2.3c1-0.5,2-0.7,3.1-0.7c1.8,0,3.1,0.5,4,1.5c0.9,1,1.3,2.4,1.3,4.3v10.5
		h-1.8v-10c0-1.7-0.3-2.8-0.9-3.6c-0.6-0.7-1.5-1.1-2.8-1.1c-0.6,0-1.3,0.1-1.9,0.4c-0.7,0.2-1.3,0.6-1.9,1.1
		c-0.6,0.5-1.1,1.1-1.4,1.6c-0.3,0.6-0.5,1.3-0.5,2.3v9.2H70v-15.8H71.8z"/>
	<path class="st2" d="M85.5,585.8v-1.5H88V580h1.8v4.3h4.5v1.5h-4.5v10.3c0,0.8,0.2,1.4,0.5,2s0.9,0.8,1.7,0.8c0.5,0,1,0,1.3-0.1
		c0.4-0.1,0.7-0.2,1-0.3l0.4,1.4c-0.3,0.1-0.7,0.2-1.1,0.3s-1,0.2-1.7,0.2c-0.9,0-1.6-0.2-2.1-0.5c-0.5-0.3-0.9-0.7-1.1-1.2
		c-0.3-0.5-0.4-1.1-0.5-1.7c-0.1-0.7-0.1-1.3-0.1-2.1v-9.2H85.5z"/>
	<path class="st2" d="M99,584.4v2.6c0.6-0.9,1.4-1.6,2.2-2.1c0.8-0.5,1.7-0.7,2.6-0.7c0.2,0,0.4,0,0.6,0c0.2,0,0.4,0,0.6,0.1
		l-0.2,1.7c-0.4-0.1-0.7-0.1-1-0.1c-0.5,0-1.1,0.1-1.6,0.3c-0.6,0.2-1.1,0.5-1.6,1c-0.5,0.4-0.9,0.9-1.2,1.5
		c-0.3,0.6-0.5,1.3-0.5,2.1v9.5h-1.8v-15.8H99z"/>
	<path class="st2" d="M109.5,578.3v2.7h-2v-2.7H109.5z M109.4,584.4v15.8h-1.8v-15.8H109.4z"/>
	<path class="st2" d="M125,599.4c-1.1,0.9-2.6,1.3-4.5,1.3c-2.3,0-4-0.7-5.3-2.2c-1.3-1.5-1.9-3.5-1.9-6c0-1.4,0.2-2.6,0.5-3.7
		c0.4-1.1,0.9-2,1.5-2.7c0.6-0.7,1.4-1.3,2.3-1.6c0.9-0.4,1.8-0.6,2.9-0.6c1.2,0,2.3,0.2,3.1,0.6c0.9,0.4,1.6,0.9,2.1,1.6
		c0.5,0.7,0.9,1.5,1.2,2.4c0.2,0.9,0.4,1.9,0.4,3v1.1h-12.1c0,0.9,0.1,1.7,0.3,2.5c0.2,0.8,0.6,1.5,1,2.1c0.4,0.6,1,1,1.7,1.4
		c0.7,0.3,1.4,0.5,2.3,0.5c0.8,0,1.5-0.1,2-0.2c0.6-0.2,1-0.4,1.4-0.7c0.4-0.3,0.7-0.6,0.9-1c0.2-0.4,0.4-0.8,0.5-1.3h1.7
		C126.7,597.4,126,598.5,125,599.4z M125.1,588.8c-0.2-0.7-0.5-1.3-0.9-1.9c-0.4-0.5-0.9-0.9-1.5-1.2c-0.6-0.3-1.4-0.4-2.3-0.4
		c-1.5,0-2.8,0.5-3.7,1.4c-0.9,1-1.5,2.4-1.7,4.4h10.3C125.4,590.3,125.3,589.5,125.1,588.8z"/>
	<path class="st2" d="M133.4,598.4c0.8,0.5,2,0.8,3.5,0.8c1.5,0,2.6-0.3,3.2-0.9c0.6-0.6,0.9-1.3,0.9-2.1c0-0.4,0-0.7-0.1-1
		s-0.2-0.6-0.5-0.9c-0.2-0.3-0.6-0.5-1-0.7c-0.4-0.2-1-0.3-1.7-0.5l-1.9-0.3c-0.8-0.1-1.6-0.3-2.3-0.5s-1.2-0.5-1.7-0.8
		c-0.5-0.3-0.8-0.8-1-1.3c-0.2-0.5-0.4-1.1-0.4-1.9c0-0.7,0.2-1.3,0.5-1.9c0.3-0.6,0.7-1,1.3-1.4s1.2-0.7,1.9-0.9
		c0.7-0.2,1.5-0.3,2.3-0.3c1.1,0,2,0.1,2.7,0.3c0.7,0.2,1.3,0.5,1.8,0.9c0.5,0.4,0.8,0.8,1.1,1.3c0.3,0.5,0.5,1,0.6,1.6l-1.6,0.3
		c-0.2-0.5-0.4-0.9-0.6-1.2s-0.5-0.7-0.8-0.9s-0.7-0.4-1.2-0.5c-0.5-0.1-1.1-0.2-1.8-0.2c-0.8,0-1.5,0.1-2.1,0.2
		c-0.6,0.2-1,0.4-1.3,0.6c-0.3,0.3-0.6,0.6-0.7,0.9s-0.2,0.7-0.2,1.1c0,0.4,0,0.7,0.1,1c0.1,0.3,0.2,0.6,0.5,0.8
		c0.2,0.2,0.6,0.4,1,0.6c0.4,0.2,1,0.3,1.7,0.4l2.4,0.4c1.7,0.3,2.9,0.8,3.7,1.5c0.8,0.7,1.2,1.8,1.2,3.2c0,0.6-0.1,1.2-0.4,1.7
		c-0.3,0.6-0.6,1-1.1,1.4s-1.1,0.7-1.9,0.9s-1.6,0.4-2.6,0.4c-1,0-1.8-0.1-2.6-0.3c-0.8-0.2-1.5-0.5-2.1-0.9
		c-0.6-0.4-1.1-0.9-1.4-1.5c-0.4-0.6-0.6-1.4-0.7-2.2h1.7C132.1,597,132.6,597.9,133.4,598.4z"/>
	<path class="st2" d="M157.3,600.1c-0.9-0.4-1.7-0.9-2.3-1.7c-0.6-0.7-1.1-1.6-1.4-2.6c-0.3-1-0.5-2.2-0.5-3.4
		c0-1.3,0.2-2.5,0.5-3.5c0.4-1,0.9-1.9,1.5-2.7s1.4-1.3,2.3-1.7c0.9-0.4,1.9-0.6,3.1-0.6c1.1,0,2.2,0.2,3.1,0.6
		c0.9,0.4,1.7,0.9,2.3,1.7c0.6,0.7,1.1,1.6,1.5,2.6c0.3,1,0.5,2.2,0.5,3.4c0,1.3-0.2,2.5-0.5,3.5c-0.3,1-0.8,1.9-1.5,2.7
		s-1.4,1.3-2.4,1.7c-0.9,0.4-2,0.6-3.1,0.6C159.2,600.6,158.2,600.4,157.3,600.1z M163,598.6c0.7-0.4,1.3-0.8,1.7-1.5
		c0.4-0.6,0.8-1.3,1-2.2c0.2-0.8,0.3-1.7,0.3-2.7c0-0.9-0.1-1.8-0.3-2.6c-0.2-0.8-0.5-1.5-1-2.2s-1-1.1-1.7-1.5
		c-0.7-0.4-1.5-0.5-2.5-0.5c-1,0-1.8,0.2-2.5,0.5c-0.7,0.4-1.3,0.8-1.7,1.5s-0.8,1.3-1,2.2c-0.2,0.8-0.3,1.7-0.3,2.7
		c0,1,0.1,1.9,0.3,2.7c0.2,0.8,0.5,1.6,1,2.2c0.4,0.6,1,1.1,1.7,1.5c0.7,0.4,1.5,0.5,2.5,0.5C161.4,599.1,162.3,598.9,163,598.6z"/>
	<path class="st2" d="M169.9,585.8v-1.5h2.4v-1.8c0-0.8,0.1-1.4,0.4-2s0.6-1,1-1.4c0.4-0.4,0.9-0.6,1.4-0.8c0.5-0.2,1.1-0.3,1.7-0.3
		c0.4,0,0.8,0,1.2,0.1c0.4,0.1,0.7,0.1,1.1,0.3l-0.4,1.5c-0.3-0.1-0.6-0.2-0.9-0.2c-0.3,0-0.6-0.1-0.9-0.1c-0.8,0-1.5,0.2-2,0.6
		c-0.5,0.4-0.8,1.2-0.8,2.3v1.9h4.2v1.5h-4.2v14.3h-1.8v-14.3H169.9z"/>
	<path class="st2" d="M12.1,622.6v-1.5h2.4v-4.3h1.8v4.3h4.5v1.5h-4.5v10.3c0,0.8,0.2,1.4,0.5,2s0.9,0.8,1.7,0.8c0.5,0,1,0,1.3-0.1
		c0.4-0.1,0.7-0.2,1-0.3l0.4,1.4c-0.3,0.1-0.7,0.2-1.1,0.3c-0.4,0.1-1,0.2-1.7,0.2c-0.9,0-1.6-0.2-2.1-0.5c-0.5-0.3-0.9-0.7-1.1-1.2
		c-0.3-0.5-0.4-1.1-0.5-1.7c-0.1-0.7-0.1-1.3-0.1-2.1v-9.2H12.1z"/>
	<path class="st2" d="M25.6,615v8.7c0.9-1.1,1.8-1.9,2.7-2.3c1-0.5,2-0.7,3.1-0.7c1.8,0,3.1,0.5,4,1.5c0.9,1,1.3,2.4,1.3,4.3v10.5
		h-1.8v-10c0-1.7-0.3-2.8-0.9-3.6c-0.6-0.7-1.5-1.1-2.8-1.1c-0.6,0-1.3,0.1-1.9,0.4c-0.7,0.2-1.3,0.6-1.9,1.1
		c-0.6,0.5-1.1,1.1-1.4,1.6s-0.5,1.3-0.5,2.3v9.2h-1.8V615H25.6z"/>
	<path class="st2" d="M52.1,636.1c-1.1,0.9-2.6,1.3-4.5,1.3c-2.3,0-4-0.7-5.3-2.2c-1.3-1.5-1.9-3.5-1.9-6c0-1.4,0.2-2.6,0.5-3.7
		c0.4-1.1,0.9-2,1.5-2.7c0.6-0.7,1.4-1.3,2.3-1.6c0.9-0.4,1.8-0.6,2.9-0.6c1.2,0,2.3,0.2,3.1,0.6c0.9,0.4,1.6,0.9,2.1,1.6
		c0.5,0.7,0.9,1.5,1.2,2.4c0.2,0.9,0.4,1.9,0.4,3v1.1H42.2c0,0.9,0.1,1.7,0.3,2.5c0.2,0.8,0.6,1.5,1,2.1c0.4,0.6,1,1,1.7,1.4
		c0.7,0.3,1.4,0.5,2.3,0.5c0.8,0,1.5-0.1,2-0.2c0.6-0.2,1-0.4,1.4-0.7c0.4-0.3,0.7-0.6,0.9-1c0.2-0.4,0.4-0.8,0.5-1.3H54
		C53.8,634.1,53.2,635.2,52.1,636.1z M52.2,625.6c-0.2-0.7-0.5-1.3-0.9-1.9c-0.4-0.5-0.9-0.9-1.5-1.2c-0.6-0.3-1.4-0.4-2.3-0.4
		c-1.5,0-2.8,0.5-3.7,1.4c-0.9,1-1.5,2.4-1.7,4.4h10.3C52.5,627.1,52.4,626.3,52.2,625.6z"/>
	<path class="st2" d="M82.6,626.1v8.5c-0.5,0.5-1.1,0.9-1.8,1.3c-0.7,0.4-1.3,0.7-2.1,0.9c-0.7,0.2-1.4,0.4-2.2,0.5
		c-0.7,0.1-1.4,0.2-2.1,0.2c-1.6,0-2.9-0.2-4.2-0.8c-1.2-0.5-2.3-1.2-3.2-2.2c-0.9-1-1.5-2.2-2-3.6c-0.5-1.4-0.7-3-0.7-4.9
		c0-1.9,0.2-3.5,0.8-5c0.5-1.4,1.2-2.6,2.1-3.6s1.9-1.7,3.1-2.2c1.2-0.5,2.5-0.8,3.8-0.8c2.3,0,4.1,0.5,5.3,1.6
		c1.3,1.1,2.2,2.5,2.6,4.4l-1.7,0.4c-0.2-0.7-0.5-1.3-0.8-1.9c-0.3-0.6-0.7-1.1-1.2-1.5s-1.1-0.7-1.8-1c-0.7-0.2-1.5-0.4-2.5-0.4
		c-1.3,0-2.4,0.2-3.4,0.7c-1,0.5-1.8,1.2-2.4,2.1s-1.1,1.9-1.5,3.1s-0.5,2.5-0.5,4c0,1.4,0.2,2.8,0.5,4c0.3,1.2,0.8,2.2,1.5,3.1
		c0.7,0.9,1.5,1.6,2.5,2c1,0.5,2.2,0.7,3.6,0.7c1.2,0,2.3-0.2,3.4-0.5c1.1-0.3,2.1-0.8,3-1.5v-6.1h-6.2v-1.7H82.6z"/>
	<path class="st2" d="M88.5,615v21.9h-1.8V615H88.5z"/>
	<path class="st2" d="M96.7,636.8c-0.9-0.4-1.7-0.9-2.3-1.7c-0.6-0.7-1.1-1.6-1.4-2.6c-0.3-1-0.5-2.2-0.5-3.4c0-1.3,0.2-2.5,0.5-3.5
		c0.4-1,0.9-1.9,1.5-2.7c0.6-0.7,1.4-1.3,2.3-1.7c0.9-0.4,1.9-0.6,3.1-0.6c1.1,0,2.2,0.2,3.1,0.6c0.9,0.4,1.7,0.9,2.3,1.7
		c0.6,0.7,1.1,1.6,1.5,2.6c0.3,1,0.5,2.2,0.5,3.4c0,1.3-0.2,2.5-0.5,3.5c-0.3,1-0.8,1.9-1.5,2.7s-1.4,1.3-2.4,1.7
		c-0.9,0.4-2,0.6-3.1,0.6C98.6,637.4,97.6,637.2,96.7,636.8z M102.4,635.3c0.7-0.4,1.3-0.8,1.7-1.5c0.4-0.6,0.8-1.3,1-2.2
		s0.3-1.7,0.3-2.7c0-0.9-0.1-1.8-0.3-2.6c-0.2-0.8-0.5-1.5-1-2.2s-1-1.1-1.7-1.5c-0.7-0.4-1.5-0.5-2.5-0.5c-1,0-1.8,0.2-2.5,0.5
		c-0.7,0.4-1.3,0.8-1.7,1.5s-0.8,1.3-1,2.2c-0.2,0.8-0.3,1.7-0.3,2.7c0,1,0.1,1.9,0.3,2.7c0.2,0.8,0.5,1.6,1,2.2
		c0.4,0.6,1,1.1,1.7,1.5c0.7,0.4,1.5,0.5,2.5,0.5C100.8,635.9,101.7,635.7,102.4,635.3z"/>
	<path class="st2" d="M112.8,615v8.5c0.7-0.9,1.5-1.6,2.4-2.1s1.9-0.8,3.1-0.8c1.1,0,2.1,0.2,3,0.6s1.6,1,2.1,1.7
		c0.6,0.7,1,1.6,1.3,2.6c0.3,1,0.4,2.1,0.4,3.2c0,1.3-0.2,2.5-0.5,3.6c-0.3,1.1-0.8,1.9-1.4,2.7c-0.6,0.7-1.4,1.3-2.2,1.7
		s-1.8,0.6-2.9,0.6c-1,0-1.9-0.2-2.8-0.6s-1.7-1.1-2.4-2.1v2.1h-1.8V615H112.8z M112.9,631.5c0.1,0.5,0.2,1,0.4,1.4
		c0.2,0.4,0.4,0.8,0.7,1.1c0.3,0.3,0.6,0.6,1,0.9c0.5,0.4,0.9,0.6,1.4,0.8c0.5,0.2,1.1,0.2,1.7,0.2c0.8,0,1.4-0.1,2.1-0.4
		c0.6-0.3,1.2-0.7,1.6-1.2s0.8-1.3,1.1-2.2c0.3-0.9,0.4-2,0.4-3.2c0-1.3-0.1-2.4-0.4-3.2c-0.3-0.9-0.7-1.5-1.1-2.1
		c-0.5-0.5-1-0.9-1.6-1.1c-0.6-0.2-1.2-0.3-1.7-0.3c-0.6,0-1.2,0.1-1.7,0.2c-0.5,0.1-1,0.4-1.5,0.8c-0.7,0.5-1.3,1.2-1.7,2
		c-0.4,0.8-0.6,1.8-0.6,3.1v1.4C112.8,630.3,112.8,630.9,112.9,631.5z"/>
	<path class="st2" d="M138,635.6c-0.4,0.3-0.8,0.6-1.3,0.8c-0.5,0.2-1,0.4-1.5,0.6c-0.6,0.1-1.2,0.2-1.9,0.2c-1.7,0-3-0.4-4-1.2
		c-1-0.8-1.5-2-1.5-3.6c0-1.1,0.2-1.9,0.7-2.6s1-1.2,1.8-1.6c0.7-0.4,1.6-0.7,2.5-0.8c0.9-0.2,1.9-0.3,3-0.3l3.1-0.1v-0.5
		c0-1.6-0.3-2.7-0.9-3.4c-0.6-0.7-1.7-1.1-3.2-1.1c-0.8,0-1.4,0.1-1.9,0.2c-0.5,0.1-1,0.3-1.3,0.5c-0.3,0.2-0.6,0.5-0.8,0.8
		s-0.4,0.7-0.5,1.1l-1.6-0.2c0.6-2.6,2.6-3.9,6.2-3.9c1.1,0,2,0.1,2.8,0.4c0.8,0.3,1.4,0.6,1.8,1.1c0.5,0.5,0.8,1.1,1,1.8
		c0.2,0.7,0.3,1.6,0.3,2.5v10.4H139v-2.2C138.7,635,138.4,635.3,138,635.6z M136,628.6c-1.2,0-2.2,0.1-3,0.3
		c-0.8,0.2-1.4,0.4-1.9,0.7c-0.5,0.3-0.8,0.7-1.1,1.2s-0.3,1-0.3,1.6c0,1,0.3,1.7,0.8,2.3c0.5,0.6,1.5,0.9,2.8,0.9
		c0.7,0,1.3-0.1,2-0.2c0.7-0.2,1.2-0.4,1.6-0.8c0.4-0.3,0.7-0.5,0.9-0.8c0.2-0.2,0.4-0.5,0.6-0.8c0.2-0.3,0.3-0.6,0.3-1
		c0.1-0.4,0.1-0.8,0.1-1.3v-2.3L136,628.6z"/>
	<path class="st2" d="M146.9,615v21.9h-1.8V615H146.9z"/>
	<path class="st2" d="M161.3,634.7c1.1,0.7,2.7,1.1,4.8,1.1c1.1,0,2-0.1,2.7-0.4c0.7-0.2,1.3-0.6,1.7-1c0.4-0.4,0.7-0.9,0.9-1.4
		s0.3-1.1,0.3-1.7c0-0.5-0.1-1-0.2-1.5c-0.1-0.5-0.3-0.9-0.6-1.3c-0.3-0.4-0.8-0.7-1.4-1c-0.6-0.3-1.4-0.5-2.3-0.7l-2.7-0.5
		c-1.1-0.2-2-0.4-2.8-0.7c-0.8-0.3-1.5-0.7-2.1-1.1c-0.6-0.5-1-1-1.3-1.7c-0.3-0.7-0.4-1.5-0.4-2.5s0.2-1.9,0.6-2.6s1-1.3,1.7-1.8
		c0.7-0.5,1.5-0.8,2.5-1.1c0.9-0.2,2-0.4,3-0.4c1.4,0,2.5,0.1,3.4,0.4c0.9,0.3,1.7,0.7,2.3,1.2c0.6,0.5,1.1,1,1.4,1.7
		s0.6,1.3,0.8,1.9l-1.7,0.5c-0.2-0.6-0.4-1.2-0.7-1.7c-0.3-0.5-0.6-0.9-1.1-1.3c-0.5-0.3-1-0.6-1.7-0.8c-0.7-0.2-1.5-0.3-2.5-0.3
		c-1.1,0-2.1,0.1-2.8,0.3c-0.8,0.2-1.4,0.5-1.8,0.9c-0.5,0.4-0.8,0.8-1,1.3s-0.3,1.1-0.3,1.7c0,0.6,0.1,1.1,0.2,1.6
		c0.1,0.4,0.4,0.8,0.7,1.2c0.3,0.3,0.8,0.6,1.4,0.8s1.3,0.4,2.2,0.6l3.1,0.6c1.1,0.2,2.1,0.5,2.9,0.8c0.8,0.3,1.5,0.7,2,1.2
		c0.5,0.5,0.9,1.1,1.2,1.8c0.3,0.7,0.4,1.5,0.4,2.4c0,0.8-0.2,1.6-0.5,2.4s-0.8,1.4-1.5,1.9c-0.6,0.6-1.4,1-2.4,1.3
		c-1,0.3-2.1,0.5-3.4,0.5c-1.2,0-2.3-0.1-3.3-0.3c-1-0.2-1.9-0.6-2.7-1.1s-1.4-1.1-1.9-1.9c-0.5-0.8-0.8-1.8-0.9-2.9h1.8
		C159.5,632.8,160.2,634,161.3,634.7z"/>
	<path class="st2" d="M181.5,636.8c-0.9-0.4-1.7-0.9-2.3-1.7c-0.6-0.7-1.1-1.6-1.4-2.6c-0.3-1-0.5-2.2-0.5-3.4
		c0-1.3,0.2-2.5,0.5-3.5c0.4-1,0.9-1.9,1.5-2.7c0.6-0.7,1.4-1.3,2.3-1.7c0.9-0.4,1.9-0.6,3.1-0.6c1.1,0,2.2,0.2,3.1,0.6
		c0.9,0.4,1.7,0.9,2.3,1.7c0.6,0.7,1.1,1.6,1.5,2.6c0.3,1,0.5,2.2,0.5,3.4c0,1.3-0.2,2.5-0.5,3.5c-0.3,1-0.8,1.9-1.5,2.7
		s-1.4,1.3-2.4,1.7c-0.9,0.4-2,0.6-3.1,0.6C183.4,637.4,182.4,637.2,181.5,636.8z M187.2,635.3c0.7-0.4,1.3-0.8,1.7-1.5
		c0.4-0.6,0.8-1.3,1-2.2s0.3-1.7,0.3-2.7c0-0.9-0.1-1.8-0.3-2.6c-0.2-0.8-0.5-1.5-1-2.2s-1-1.1-1.7-1.5c-0.7-0.4-1.5-0.5-2.5-0.5
		c-1,0-1.8,0.2-2.5,0.5c-0.7,0.4-1.3,0.8-1.7,1.5s-0.8,1.3-1,2.2c-0.2,0.8-0.3,1.7-0.3,2.7c0,1,0.1,1.9,0.3,2.7
		c0.2,0.8,0.5,1.6,1,2.2c0.4,0.6,1,1.1,1.7,1.5c0.7,0.4,1.5,0.5,2.5,0.5C185.7,635.9,186.5,635.7,187.2,635.3z"/>
	<path class="st2" d="M197.6,621.1v10c0,1.7,0.3,2.8,0.8,3.6c0.5,0.7,1.4,1.1,2.7,1.1c0.6,0,1.3-0.1,1.9-0.4
		c0.6-0.2,1.2-0.6,1.8-1.1c0.6-0.5,1-1.1,1.3-1.6c0.3-0.6,0.5-1.3,0.5-2.3v-9.2h1.8v15.8h-1.8v-2.6c-1.7,2-3.6,3.1-5.7,3.1
		c-1.8,0-3.1-0.5-3.9-1.5s-1.2-2.4-1.2-4.3v-10.5H197.6z"/>
	<path class="st2" d="M211.1,622.6v-1.5h2.4v-4.3h1.8v4.3h4.5v1.5h-4.5v10.3c0,0.8,0.2,1.4,0.5,2s0.9,0.8,1.7,0.8c0.5,0,1,0,1.3-0.1
		c0.4-0.1,0.7-0.2,1-0.3l0.4,1.4c-0.3,0.1-0.7,0.2-1.1,0.3c-0.4,0.1-1,0.2-1.7,0.2c-0.9,0-1.6-0.2-2.1-0.5c-0.5-0.3-0.9-0.7-1.1-1.2
		c-0.3-0.5-0.4-1.1-0.5-1.7c-0.1-0.7-0.1-1.3-0.1-2.1v-9.2H211.1z"/>
	<path class="st2" d="M224.5,615v8.7c0.9-1.1,1.8-1.9,2.7-2.3c1-0.5,2-0.7,3.1-0.7c1.8,0,3.1,0.5,4,1.5c0.9,1,1.3,2.4,1.3,4.3v10.5
		h-1.8v-10c0-1.7-0.3-2.8-0.9-3.6c-0.6-0.7-1.5-1.1-2.8-1.1c-0.6,0-1.3,0.1-1.9,0.4c-0.7,0.2-1.3,0.6-1.9,1.1
		c-0.6,0.5-1.1,1.1-1.4,1.6s-0.5,1.3-0.5,2.3v9.2h-1.8V615H224.5z"/>
</g>
<g class="st6">
	<path class="st2" d="M20.2,724.4v13.3c0,2.5,0.5,4.3,1.4,5.6c1,1.2,2.5,1.9,4.7,1.9c1.1,0,2.1-0.2,2.8-0.5s1.4-0.8,1.9-1.4
		c0.5-0.6,0.8-1.4,1-2.3c0.2-0.9,0.3-2,0.3-3.2v-13.3h1.9v13.3c0,1.6-0.2,3-0.5,4.1s-0.9,2.1-1.6,2.8c-0.7,0.7-1.5,1.3-2.5,1.6
		c-1,0.3-2.1,0.5-3.4,0.5c-1.3,0-2.4-0.2-3.4-0.5c-1-0.3-1.8-0.9-2.5-1.6c-0.7-0.7-1.2-1.7-1.6-2.9s-0.5-2.6-0.5-4.2v-13.2H20.2z"/>
	<path class="st2" d="M40.5,730.5v2.6c0.6-0.9,1.4-1.6,2.2-2.1s1.7-0.7,2.6-0.7c0.2,0,0.4,0,0.6,0c0.2,0,0.4,0,0.6,0.1l-0.2,1.7
		c-0.4-0.1-0.7-0.1-1-0.1c-0.5,0-1.1,0.1-1.6,0.3c-0.6,0.2-1.1,0.5-1.6,1c-0.5,0.4-0.9,0.9-1.2,1.5c-0.3,0.6-0.5,1.3-0.5,2.1v9.5
		h-1.8v-15.8H40.5z"/>
	<path class="st2" d="M50.9,724.4v8.5c0.7-0.9,1.5-1.6,2.4-2.1s1.9-0.8,3.1-0.8c1.1,0,2.1,0.2,3,0.6c0.9,0.4,1.6,1,2.1,1.7
		s1,1.6,1.3,2.6c0.3,1,0.4,2.1,0.4,3.2c0,1.3-0.2,2.5-0.5,3.6c-0.3,1.1-0.8,1.9-1.4,2.7c-0.6,0.7-1.4,1.3-2.2,1.7
		c-0.9,0.4-1.8,0.6-2.9,0.6c-1,0-1.9-0.2-2.8-0.6c-0.9-0.4-1.7-1.1-2.4-2.1v2.1h-1.8v-21.9H50.9z M50.9,740.8c0.1,0.5,0.2,1,0.4,1.4
		s0.4,0.8,0.7,1.1c0.3,0.3,0.6,0.6,1,0.9c0.5,0.4,0.9,0.6,1.4,0.8c0.5,0.2,1.1,0.2,1.7,0.2c0.8,0,1.5-0.1,2.1-0.4s1.2-0.7,1.6-1.2
		c0.5-0.6,0.8-1.3,1.1-2.2c0.3-0.9,0.4-2,0.4-3.2c0-1.3-0.1-2.4-0.4-3.2s-0.7-1.5-1.1-2.1c-0.5-0.5-1-0.9-1.6-1.1
		c-0.6-0.2-1.2-0.3-1.7-0.3c-0.6,0-1.2,0.1-1.7,0.2c-0.5,0.1-1,0.4-1.5,0.8c-0.7,0.5-1.3,1.2-1.7,2c-0.4,0.8-0.6,1.8-0.6,3.1v1.4
		C50.8,739.7,50.8,740.3,50.9,740.8z"/>
	<path class="st2" d="M76,745c-0.4,0.3-0.8,0.6-1.3,0.8c-0.5,0.2-1,0.4-1.5,0.6s-1.2,0.2-1.9,0.2c-1.7,0-3-0.4-4-1.2
		c-1-0.8-1.5-2-1.5-3.6c0-1.1,0.2-1.9,0.7-2.6s1-1.2,1.8-1.6c0.7-0.4,1.6-0.7,2.5-0.8c1-0.2,1.9-0.2,3-0.3l3.1-0.1V736
		c0-1.6-0.3-2.7-0.9-3.4c-0.6-0.7-1.7-1.1-3.2-1.1c-0.8,0-1.4,0.1-1.9,0.2c-0.5,0.1-1,0.3-1.3,0.5c-0.3,0.2-0.6,0.5-0.8,0.8
		s-0.4,0.7-0.5,1.1l-1.6-0.2c0.6-2.6,2.6-3.9,6.2-3.9c1.1,0,2,0.1,2.8,0.4c0.8,0.3,1.4,0.6,1.8,1.1c0.5,0.5,0.8,1.1,1,1.8
		c0.2,0.7,0.3,1.6,0.3,2.5v10.4H77V744C76.7,744.4,76.4,744.7,76,745z M74,738c-1.2,0-2.2,0.1-3,0.3c-0.8,0.2-1.4,0.4-1.9,0.7
		c-0.5,0.3-0.8,0.7-1.1,1.2c-0.2,0.5-0.3,1-0.3,1.6c0,1,0.3,1.7,0.8,2.3s1.5,0.9,2.8,0.9c0.7,0,1.3-0.1,2-0.2
		c0.7-0.2,1.2-0.4,1.6-0.8c0.4-0.3,0.7-0.5,0.9-0.8c0.2-0.2,0.4-0.5,0.6-0.8c0.2-0.3,0.3-0.6,0.3-1c0.1-0.4,0.1-0.8,0.1-1.3v-2.3
		L74,738z"/>
	<path class="st2" d="M84.8,730.5v2.6c0.9-1.1,1.8-1.9,2.7-2.3c1-0.5,2-0.7,3.1-0.7c1.8,0,3.1,0.5,4,1.5s1.3,2.4,1.3,4.3v10.5h-1.8
		v-10c0-1.7-0.3-2.8-0.9-3.6c-0.6-0.7-1.5-1.1-2.8-1.1c-0.6,0-1.3,0.1-1.9,0.4c-0.7,0.2-1.3,0.6-1.9,1.1c-0.6,0.5-1.1,1.1-1.4,1.6
		c-0.3,0.6-0.5,1.3-0.5,2.3v9.2H83v-15.8H84.8z"/>
	<path class="st2" d="M116.1,724.4l8.6,21.9h-2l-2.6-6.7h-10.3l-2.6,6.7h-2l8.7-21.9H116.1z M114.9,726.4l-4.4,11.4h8.9L114.9,726.4
		z"/>
	<path class="st2" d="M129,730.5v2.6c0.6-0.9,1.4-1.6,2.2-2.1c0.8-0.5,1.7-0.7,2.6-0.7c0.2,0,0.4,0,0.6,0c0.2,0,0.4,0,0.6,0.1
		l-0.2,1.7c-0.4-0.1-0.7-0.1-1-0.1c-0.5,0-1.1,0.1-1.6,0.3c-0.6,0.2-1.1,0.5-1.6,1c-0.5,0.4-0.9,0.9-1.2,1.5
		c-0.3,0.6-0.5,1.3-0.5,2.1v9.5h-1.8v-15.8H129z"/>
	<path class="st2" d="M147.7,745.5c-1.1,0.9-2.6,1.3-4.5,1.3c-2.3,0-4-0.7-5.3-2.2c-1.3-1.5-1.9-3.5-1.9-6c0-1.4,0.2-2.6,0.5-3.7
		c0.4-1.1,0.9-2,1.5-2.7c0.6-0.7,1.4-1.3,2.3-1.6c0.9-0.4,1.8-0.6,2.9-0.6c1.2,0,2.3,0.2,3.1,0.6s1.6,0.9,2.1,1.6s0.9,1.5,1.2,2.4
		s0.4,2,0.4,3v1.1h-12.1c0,0.9,0.1,1.7,0.3,2.5s0.6,1.5,1,2.1s1,1,1.7,1.4s1.4,0.5,2.3,0.5c0.8,0,1.5-0.1,2-0.2
		c0.6-0.2,1-0.4,1.4-0.7c0.4-0.3,0.7-0.6,0.9-1c0.2-0.4,0.4-0.8,0.5-1.3h1.7C149.5,743.5,148.8,744.6,147.7,745.5z M147.9,734.9
		c-0.2-0.7-0.5-1.3-0.9-1.9s-0.9-0.9-1.5-1.2c-0.6-0.3-1.4-0.4-2.3-0.4c-1.5,0-2.8,0.5-3.7,1.4c-0.9,1-1.5,2.4-1.7,4.4h10.3
		C148.1,736.4,148.1,735.6,147.9,734.9z"/>
	<path class="st2" d="M162.8,745c-0.4,0.3-0.8,0.6-1.3,0.8c-0.5,0.2-1,0.4-1.5,0.6s-1.2,0.2-1.9,0.2c-1.7,0-3-0.4-4-1.2
		c-1-0.8-1.5-2-1.5-3.6c0-1.1,0.2-1.9,0.7-2.6s1-1.2,1.8-1.6c0.7-0.4,1.6-0.7,2.5-0.8c1-0.2,1.9-0.2,3-0.3l3.1-0.1V736
		c0-1.6-0.3-2.7-0.9-3.4c-0.6-0.7-1.7-1.1-3.2-1.1c-0.8,0-1.4,0.1-1.9,0.2c-0.5,0.1-1,0.3-1.3,0.5c-0.3,0.2-0.6,0.5-0.8,0.8
		s-0.4,0.7-0.5,1.1l-1.6-0.2c0.6-2.6,2.6-3.9,6.2-3.9c1.1,0,2,0.1,2.8,0.4c0.8,0.3,1.4,0.6,1.8,1.1c0.5,0.5,0.8,1.1,1,1.8
		c0.2,0.7,0.3,1.6,0.3,2.5v10.4h-1.8V744C163.5,744.4,163.1,744.7,162.8,745z M160.8,738c-1.2,0-2.2,0.1-3,0.3
		c-0.8,0.2-1.4,0.4-1.9,0.7c-0.5,0.3-0.8,0.7-1.1,1.2c-0.2,0.5-0.3,1-0.3,1.6c0,1,0.3,1.7,0.8,2.3s1.5,0.9,2.8,0.9
		c0.7,0,1.3-0.1,2-0.2c0.7-0.2,1.2-0.4,1.6-0.8c0.4-0.3,0.7-0.5,0.9-0.8c0.2-0.2,0.4-0.5,0.6-0.8c0.2-0.3,0.3-0.6,0.3-1
		c0.1-0.4,0.1-0.8,0.1-1.3v-2.3L160.8,738z"/>
	<path class="st2" d="M172.3,744.5c0.8,0.5,2,0.8,3.5,0.8c1.5,0,2.6-0.3,3.2-0.9c0.6-0.6,0.9-1.3,0.9-2.1c0-0.4,0-0.7-0.1-1
		c-0.1-0.3-0.2-0.6-0.5-0.9c-0.2-0.3-0.6-0.5-1-0.7c-0.4-0.2-1-0.3-1.7-0.5l-1.9-0.3c-0.8-0.1-1.6-0.3-2.3-0.5
		c-0.7-0.2-1.2-0.5-1.7-0.8s-0.8-0.8-1-1.3c-0.2-0.5-0.4-1.1-0.4-1.9c0-0.7,0.2-1.3,0.5-1.9c0.3-0.6,0.7-1,1.3-1.4
		c0.5-0.4,1.2-0.7,1.9-0.9s1.5-0.3,2.3-0.3c1.1,0,2,0.1,2.7,0.3c0.7,0.2,1.3,0.5,1.8,0.9c0.5,0.4,0.8,0.8,1.1,1.3
		c0.3,0.5,0.5,1,0.6,1.6l-1.6,0.3c-0.2-0.5-0.4-0.9-0.6-1.2c-0.2-0.4-0.5-0.7-0.8-0.9c-0.3-0.2-0.7-0.4-1.2-0.5
		c-0.5-0.1-1.1-0.2-1.8-0.2c-0.8,0-1.5,0.1-2.1,0.2c-0.6,0.2-1,0.4-1.3,0.6c-0.3,0.3-0.6,0.6-0.7,0.9c-0.1,0.3-0.2,0.7-0.2,1.1
		s0,0.7,0.1,1c0.1,0.3,0.2,0.6,0.5,0.8c0.2,0.2,0.6,0.4,1,0.6c0.4,0.2,1,0.3,1.7,0.4l2.4,0.4c1.7,0.3,2.9,0.8,3.7,1.5
		c0.8,0.7,1.2,1.8,1.2,3.2c0,0.6-0.1,1.2-0.4,1.7s-0.6,1-1.1,1.4c-0.5,0.4-1.1,0.7-1.9,0.9c-0.8,0.2-1.6,0.4-2.6,0.4
		c-1,0-1.8-0.1-2.6-0.3s-1.5-0.5-2.1-0.9c-0.6-0.4-1.1-0.9-1.4-1.5s-0.6-1.4-0.7-2.2h1.7C170.9,743.1,171.5,744,172.3,744.5z"/>
</g>
<g class="st6">
	<path class="st2" d="M27,811.2c1.6,0,2.9,0.2,3.9,0.5c1,0.3,1.8,0.8,2.4,1.3c0.6,0.6,1,1.2,1.2,1.9s0.3,1.4,0.3,2.2
		c0,1.4-0.3,2.6-0.9,3.6c-0.6,1-1.6,1.7-3,2.2l4.7,10.1h-2.2l-4.4-9.7c-0.3,0-0.7,0.1-1.1,0.1c-0.4,0-0.8,0-1.2,0H22v9.6h-1.8v-21.9
		H27z M30,821.6c0.7-0.2,1.3-0.5,1.7-0.9s0.7-0.9,0.9-1.5c0.2-0.6,0.3-1.2,0.3-2c0-0.7-0.1-1.3-0.3-1.9c-0.2-0.5-0.5-1-1-1.4
		c-0.5-0.4-1.1-0.6-1.8-0.8s-1.7-0.3-2.9-0.3H22v9h5.3C28.3,821.9,29.2,821.8,30,821.6z"/>
	<path class="st2" d="M40.5,817.3v10c0,1.7,0.3,2.8,0.8,3.6s1.4,1.1,2.7,1.1c0.6,0,1.3-0.1,1.9-0.4c0.6-0.2,1.2-0.6,1.8-1.1
		c0.6-0.5,1-1.1,1.3-1.6c0.3-0.6,0.5-1.3,0.5-2.3v-9.2h1.8v15.8h-1.8v-2.6c-1.7,2-3.6,3.1-5.7,3.1c-1.8,0-3.1-0.5-3.9-1.5
		c-0.8-1-1.2-2.4-1.2-4.3v-10.5H40.5z"/>
	<path class="st2" d="M57.3,817.3v2.6c0.6-0.9,1.4-1.6,2.2-2.1c0.8-0.5,1.7-0.7,2.6-0.7c0.2,0,0.4,0,0.6,0s0.4,0,0.6,0.1l-0.2,1.7
		c-0.4-0.1-0.7-0.1-1-0.1c-0.5,0-1.1,0.1-1.6,0.3s-1.1,0.5-1.6,1c-0.5,0.4-0.9,0.9-1.2,1.5s-0.5,1.3-0.5,2.1v9.5h-1.8v-15.8H57.3z"
		/>
	<path class="st2" d="M74.6,831.8c-0.4,0.3-0.8,0.6-1.3,0.8c-0.5,0.2-1,0.4-1.5,0.6s-1.2,0.2-1.9,0.2c-1.7,0-3-0.4-4-1.2
		c-1-0.8-1.5-2-1.5-3.6c0-1.1,0.2-1.9,0.7-2.6s1-1.2,1.8-1.6c0.7-0.4,1.6-0.7,2.5-0.8c0.9-0.2,1.9-0.2,3-0.3l3.1-0.1v-0.5
		c0-1.6-0.3-2.7-0.9-3.4c-0.6-0.7-1.7-1.1-3.2-1.1c-0.8,0-1.4,0.1-1.9,0.2c-0.5,0.1-1,0.3-1.3,0.5s-0.6,0.5-0.8,0.8
		s-0.4,0.7-0.5,1.1l-1.6-0.2c0.6-2.6,2.6-3.9,6.2-3.9c1.1,0,2,0.1,2.8,0.4c0.8,0.3,1.4,0.6,1.8,1.1s0.8,1.1,1,1.8
		c0.2,0.7,0.3,1.6,0.3,2.5v10.4h-1.8v-2.2C75.3,831.2,75,831.5,74.6,831.8z M72.6,824.8c-1.2,0-2.2,0.1-3,0.3
		c-0.8,0.2-1.4,0.4-1.9,0.7c-0.5,0.3-0.8,0.7-1.1,1.2c-0.2,0.5-0.3,1-0.3,1.6c0,1,0.3,1.7,0.8,2.3s1.5,0.9,2.8,0.9
		c0.7,0,1.3-0.1,2-0.2c0.7-0.2,1.2-0.4,1.6-0.8c0.4-0.3,0.7-0.5,0.9-0.8c0.2-0.2,0.4-0.5,0.6-0.8c0.2-0.3,0.3-0.6,0.3-1
		c0.1-0.4,0.1-0.8,0.1-1.3v-2.3L72.6,824.8z"/>
	<path class="st2" d="M83.5,811.2v21.9h-1.8v-21.9H83.5z"/>
	<path class="st2" d="M103.8,811.2l8.6,21.9h-2l-2.6-6.7H97.5l-2.6,6.7h-2l8.7-21.9H103.8z M102.6,813.3l-4.4,11.4h8.9L102.6,813.3z
		"/>
	<path class="st2" d="M116.7,817.3v2.6c0.6-0.9,1.4-1.6,2.2-2.1c0.8-0.5,1.7-0.7,2.6-0.7c0.2,0,0.4,0,0.6,0s0.4,0,0.6,0.1l-0.2,1.7
		c-0.4-0.1-0.7-0.1-1-0.1c-0.5,0-1.1,0.1-1.6,0.3s-1.1,0.5-1.6,1c-0.5,0.4-0.9,0.9-1.2,1.5s-0.5,1.3-0.5,2.1v9.5h-1.8v-15.8H116.7z"
		/>
	<path class="st2" d="M135.5,832.3c-1.1,0.9-2.6,1.3-4.5,1.3c-2.3,0-4-0.7-5.3-2.2c-1.3-1.5-1.9-3.5-1.9-6c0-1.4,0.2-2.6,0.5-3.7
		c0.4-1.1,0.9-2,1.5-2.7c0.6-0.7,1.4-1.3,2.3-1.6s1.8-0.6,2.9-0.6c1.2,0,2.3,0.2,3.1,0.6s1.6,0.9,2.1,1.6c0.5,0.7,0.9,1.5,1.2,2.4
		s0.4,2,0.4,3v1.1h-12.1c0,0.9,0.1,1.7,0.3,2.5s0.6,1.5,1,2.1s1,1,1.7,1.4c0.7,0.3,1.4,0.5,2.3,0.5c0.8,0,1.5-0.1,2-0.2
		c0.6-0.2,1-0.4,1.4-0.7c0.4-0.3,0.7-0.6,0.9-1s0.4-0.8,0.5-1.3h1.7C137.2,830.3,136.6,831.4,135.5,832.3z M135.6,821.8
		c-0.2-0.7-0.5-1.3-0.9-1.9c-0.4-0.5-0.9-0.9-1.5-1.2c-0.6-0.3-1.4-0.4-2.3-0.4c-1.5,0-2.8,0.5-3.7,1.4c-0.9,1-1.5,2.4-1.7,4.4h10.3
		C135.9,823.3,135.8,822.5,135.6,821.8z"/>
	<path class="st2" d="M150.5,831.8c-0.4,0.3-0.8,0.6-1.3,0.8c-0.5,0.2-1,0.4-1.5,0.6s-1.2,0.2-1.9,0.2c-1.7,0-3-0.4-4-1.2
		c-1-0.8-1.5-2-1.5-3.6c0-1.1,0.2-1.9,0.7-2.6s1-1.2,1.8-1.6c0.7-0.4,1.6-0.7,2.5-0.8c0.9-0.2,1.9-0.2,3-0.3l3.1-0.1v-0.5
		c0-1.6-0.3-2.7-0.9-3.4c-0.6-0.7-1.7-1.1-3.2-1.1c-0.8,0-1.4,0.1-1.9,0.2c-0.5,0.1-1,0.3-1.3,0.5s-0.6,0.5-0.8,0.8
		s-0.4,0.7-0.5,1.1l-1.6-0.2c0.6-2.6,2.6-3.9,6.2-3.9c1.1,0,2,0.1,2.8,0.4s1.4,0.6,1.8,1.1s0.8,1.1,1,1.8c0.2,0.7,0.3,1.6,0.3,2.5
		v10.4h-1.8v-2.2C151.2,831.2,150.9,831.5,150.5,831.8z M148.5,824.8c-1.2,0-2.2,0.1-3,0.3c-0.8,0.2-1.4,0.4-1.9,0.7
		c-0.5,0.3-0.8,0.7-1.1,1.2c-0.2,0.5-0.3,1-0.3,1.6c0,1,0.3,1.7,0.8,2.3s1.5,0.9,2.8,0.9c0.7,0,1.3-0.1,2-0.2
		c0.7-0.2,1.2-0.4,1.6-0.8c0.4-0.3,0.7-0.5,0.9-0.8c0.2-0.2,0.4-0.5,0.6-0.8c0.2-0.3,0.3-0.6,0.3-1c0.1-0.4,0.1-0.8,0.1-1.3v-2.3
		L148.5,824.8z"/>
	<path class="st2" d="M160,831.3c0.8,0.5,2,0.8,3.5,0.8c1.5,0,2.6-0.3,3.2-0.9c0.6-0.6,0.9-1.3,0.9-2.1c0-0.4,0-0.7-0.1-1
		s-0.2-0.6-0.5-0.9c-0.2-0.3-0.6-0.5-1-0.7s-1-0.3-1.7-0.5l-1.9-0.3c-0.8-0.1-1.6-0.3-2.3-0.5s-1.2-0.5-1.7-0.8
		c-0.5-0.3-0.8-0.8-1-1.3s-0.4-1.1-0.4-1.9c0-0.7,0.2-1.3,0.5-1.9c0.3-0.6,0.7-1,1.3-1.4s1.2-0.7,1.9-0.9s1.5-0.3,2.3-0.3
		c1.1,0,2,0.1,2.7,0.3c0.7,0.2,1.3,0.5,1.8,0.9c0.5,0.4,0.8,0.8,1.1,1.3c0.3,0.5,0.5,1,0.6,1.6l-1.6,0.3c-0.2-0.5-0.4-0.9-0.6-1.2
		s-0.5-0.7-0.8-0.9c-0.3-0.2-0.7-0.4-1.2-0.5c-0.5-0.1-1.1-0.2-1.8-0.2c-0.8,0-1.5,0.1-2.1,0.2c-0.6,0.2-1,0.4-1.3,0.6
		c-0.3,0.3-0.6,0.6-0.7,0.9c-0.1,0.3-0.2,0.7-0.2,1.1s0,0.7,0.1,1s0.2,0.6,0.5,0.8c0.2,0.2,0.6,0.4,1,0.6c0.4,0.2,1,0.3,1.7,0.4
		l2.4,0.4c1.7,0.3,2.9,0.8,3.7,1.5c0.8,0.7,1.2,1.8,1.2,3.2c0,0.6-0.1,1.2-0.4,1.7c-0.3,0.6-0.6,1-1.1,1.4c-0.5,0.4-1.1,0.7-1.9,0.9
		c-0.8,0.2-1.6,0.4-2.6,0.4c-1,0-1.8-0.1-2.6-0.3c-0.8-0.2-1.5-0.5-2.1-0.9c-0.6-0.4-1.1-0.9-1.4-1.5c-0.4-0.6-0.6-1.4-0.7-2.2h1.7
		C158.7,829.9,159.2,830.8,160,831.3z"/>
</g>
</svg>
