<?xml version="1.0" encoding="utf-8"?>
<!-- Generator: Adobe Illustrator 21.0.0, SVG Export Plug-In . SVG Version: 6.00 Build 0)  -->
<svg version="1.1" id="Capa_1" xmlns="http://www.w3.org/2000/svg" xmlns:xlink="http://www.w3.org/1999/xlink" x="0px" y="0px"
	 viewBox="0 0 1280 1338" style="enable-background:new 0 0 1280 1338;" xml:space="preserve">
<style type="text/css">
	.st0{fill:none;stroke:#FFFFFF;stroke-miterlimit:10;}
	.st1{fill:none;stroke:#FF0000;stroke-width:4;stroke-miterlimit:10;}
	.st2{fill:#FF0000;}
	.st3{fill:#FFFFFF;}
</style>
<g id="Capa_1_1_">
</g>
<g>
	<line class="st0" x1="0.5" y1="540.5" x2="1285.4" y2="540.5"/>
</g>
<g>
	<g>
		<g>
			<path class="st1" d="M515.1,878c46.2,20.7,97.3,32.2,151.2,32.2c204.2,0,369.7-165.5,369.7-369.7c0-84.8-28.6-163-76.6-225.3"/>
			<g>
				<path class="st2" d="M532.6,906.4c0.9-0.6,1.2-1.9,0.5-2.8l-17.2-25.3l30.2-4.8c1.1-0.2,1.8-1.2,1.7-2.3
					c-0.2-1.1-1.2-1.8-2.3-1.7l-33.3,5.3c-0.7,0.1-1.2,0.6-1.5,1.2c-0.3,0.6-0.2,1.4,0.2,1.9l18.9,27.9c0.2,0.3,0.5,0.6,0.9,0.7
					C531.3,906.8,532.1,906.8,532.6,906.4z"/>
			</g>
		</g>
	</g>
</g>
<g>
	<path class="st3" d="M66.7,478.2c1,0,1.9,0.1,2.6,0.3c0.7,0.2,1.2,0.5,1.6,0.9c0.4,0.4,0.6,0.8,0.8,1.3c0.1,0.5,0.2,1,0.2,1.6
		c0,0.6-0.1,1.1-0.2,1.7c-0.2,0.5-0.4,1-0.8,1.4s-0.9,0.7-1.6,1c-0.7,0.2-1.5,0.4-2.6,0.4h-3.4v5.8h-1.2v-14.3H66.7z M68.7,485.4
		c0.5-0.2,0.9-0.4,1.2-0.7s0.5-0.6,0.6-1c0.1-0.4,0.2-0.9,0.2-1.4c0-0.5-0.1-1-0.2-1.4c-0.1-0.4-0.3-0.7-0.6-1
		c-0.3-0.3-0.7-0.5-1.2-0.6c-0.5-0.1-1.1-0.2-1.9-0.2h-3.4v6.4h3.4C67.5,485.7,68.2,485.6,68.7,485.4z"/>
	<path class="st3" d="M79.6,491.7c-0.2,0.2-0.5,0.4-0.8,0.5c-0.3,0.2-0.6,0.3-1,0.4s-0.8,0.1-1.2,0.1c-1.1,0-1.9-0.3-2.6-0.8
		c-0.7-0.5-1-1.3-1-2.3c0-0.7,0.1-1.3,0.4-1.7s0.7-0.8,1.2-1s1-0.4,1.7-0.5s1.3-0.2,1.9-0.2l2-0.1v-0.3c0-1-0.2-1.8-0.6-2.2
		s-1.1-0.7-2.1-0.7c-0.5,0-0.9,0-1.3,0.1c-0.3,0.1-0.6,0.2-0.9,0.4s-0.4,0.3-0.5,0.5s-0.2,0.4-0.3,0.7l-1.1-0.2
		c0.4-1.7,1.7-2.5,4-2.5c0.7,0,1.3,0.1,1.8,0.3c0.5,0.2,0.9,0.4,1.2,0.8c0.3,0.3,0.5,0.7,0.6,1.2c0.1,0.5,0.2,1,0.2,1.6v6.8h-1.2
		V491C80,491.3,79.8,491.5,79.6,491.7z M78.3,487.1c-0.8,0-1.4,0.1-1.9,0.2c-0.5,0.1-0.9,0.3-1.3,0.5c-0.3,0.2-0.6,0.5-0.7,0.8
		c-0.1,0.3-0.2,0.7-0.2,1.1c0,0.6,0.2,1.1,0.5,1.5c0.4,0.4,1,0.6,1.9,0.6c0.4,0,0.9,0,1.3-0.1c0.4-0.1,0.8-0.3,1.1-0.5
		c0.2-0.2,0.4-0.3,0.6-0.5s0.3-0.3,0.4-0.5c0.1-0.2,0.2-0.4,0.2-0.6c0-0.2,0.1-0.5,0.1-0.8V487L78.3,487.1z"/>
	<path class="st3" d="M87.8,478l-2.5,2.7h-1.2l2.2-2.7H87.8z M85.4,482.2v10.3h-1.2v-10.3H85.4z"/>
	<path class="st3" d="M89.9,491.3c0.5,0.3,1.3,0.5,2.3,0.5c1,0,1.7-0.2,2.1-0.6c0.4-0.4,0.6-0.8,0.6-1.4c0-0.2,0-0.5-0.1-0.7
		c-0.1-0.2-0.2-0.4-0.3-0.6c-0.2-0.2-0.4-0.3-0.7-0.4c-0.3-0.1-0.7-0.2-1.1-0.3l-1.3-0.2c-0.5-0.1-1-0.2-1.5-0.3
		c-0.4-0.1-0.8-0.3-1.1-0.5c-0.3-0.2-0.5-0.5-0.7-0.8c-0.2-0.3-0.2-0.7-0.2-1.2c0-0.5,0.1-0.9,0.3-1.2c0.2-0.4,0.5-0.7,0.8-0.9
		c0.3-0.2,0.8-0.4,1.2-0.6s1-0.2,1.5-0.2c0.7,0,1.3,0.1,1.8,0.2c0.5,0.1,0.9,0.3,1.2,0.6c0.3,0.2,0.5,0.5,0.7,0.8
		c0.2,0.3,0.3,0.7,0.4,1l-1.1,0.2c-0.1-0.3-0.2-0.6-0.4-0.8c-0.1-0.2-0.3-0.4-0.5-0.6s-0.5-0.3-0.8-0.4c-0.3-0.1-0.7-0.1-1.2-0.1
		c-0.5,0-1,0-1.3,0.1c-0.4,0.1-0.6,0.2-0.9,0.4s-0.4,0.4-0.5,0.6c-0.1,0.2-0.1,0.5-0.1,0.7s0,0.5,0.1,0.7c0.1,0.2,0.2,0.4,0.3,0.5
		c0.2,0.1,0.4,0.3,0.7,0.4c0.3,0.1,0.7,0.2,1.1,0.3l1.6,0.3c1.1,0.2,1.9,0.5,2.4,1c0.5,0.5,0.8,1.2,0.8,2.1c0,0.4-0.1,0.8-0.3,1.1
		c-0.2,0.4-0.4,0.7-0.7,0.9c-0.3,0.3-0.7,0.5-1.2,0.6s-1.1,0.2-1.7,0.2c-0.6,0-1.2-0.1-1.7-0.2s-1-0.3-1.4-0.6
		c-0.4-0.3-0.7-0.6-0.9-1c-0.2-0.4-0.4-0.9-0.4-1.5h1.1C89,490.4,89.3,491,89.9,491.3z"/>
	<path class="st3" d="M105.8,492c-0.7,0.6-1.7,0.8-3,0.8c-1.5,0-2.6-0.5-3.5-1.4s-1.2-2.3-1.2-3.9c0-0.9,0.1-1.7,0.4-2.4
		c0.2-0.7,0.6-1.3,1-1.8c0.4-0.5,0.9-0.8,1.5-1.1c0.6-0.2,1.2-0.4,1.9-0.4c0.8,0,1.5,0.1,2,0.4c0.6,0.3,1,0.6,1.4,1.1s0.6,1,0.8,1.6
		c0.2,0.6,0.2,1.3,0.2,2v0.7h-7.9c0,0.6,0.1,1.1,0.2,1.6c0.1,0.5,0.4,1,0.7,1.3c0.3,0.4,0.7,0.7,1.1,0.9c0.4,0.2,0.9,0.3,1.5,0.3
		c0.5,0,1,0,1.3-0.1s0.7-0.2,0.9-0.4c0.2-0.2,0.4-0.4,0.6-0.7c0.1-0.2,0.3-0.5,0.3-0.8h1.1C106.9,490.7,106.5,491.4,105.8,492z
		 M105.9,485.1c-0.1-0.5-0.3-0.9-0.6-1.2c-0.3-0.3-0.6-0.6-1-0.8c-0.4-0.2-0.9-0.3-1.5-0.3c-1,0-1.8,0.3-2.4,0.9
		c-0.6,0.6-1,1.6-1.1,2.9h6.7C106.1,486.1,106,485.6,105.9,485.1z"/>
	<path class="st3" d="M111.3,491.3c0.5,0.3,1.3,0.5,2.3,0.5c1,0,1.7-0.2,2.1-0.6c0.4-0.4,0.6-0.8,0.6-1.4c0-0.2,0-0.5-0.1-0.7
		c-0.1-0.2-0.2-0.4-0.3-0.6c-0.2-0.2-0.4-0.3-0.7-0.4c-0.3-0.1-0.7-0.2-1.1-0.3l-1.3-0.2c-0.5-0.1-1-0.2-1.5-0.3
		c-0.4-0.1-0.8-0.3-1.1-0.5c-0.3-0.2-0.5-0.5-0.7-0.8c-0.2-0.3-0.2-0.7-0.2-1.2c0-0.5,0.1-0.9,0.3-1.2c0.2-0.4,0.5-0.7,0.8-0.9
		c0.3-0.2,0.8-0.4,1.2-0.6s1-0.2,1.5-0.2c0.7,0,1.3,0.1,1.8,0.2c0.5,0.1,0.9,0.3,1.2,0.6c0.3,0.2,0.5,0.5,0.7,0.8
		c0.2,0.3,0.3,0.7,0.4,1l-1.1,0.2c-0.1-0.3-0.2-0.6-0.4-0.8c-0.1-0.2-0.3-0.4-0.5-0.6s-0.5-0.3-0.8-0.4c-0.3-0.1-0.7-0.1-1.2-0.1
		c-0.5,0-1,0-1.3,0.1c-0.4,0.1-0.6,0.2-0.9,0.4s-0.4,0.4-0.5,0.6c-0.1,0.2-0.1,0.5-0.1,0.7s0,0.5,0.1,0.7c0.1,0.2,0.2,0.4,0.3,0.5
		c0.2,0.1,0.4,0.3,0.7,0.4c0.3,0.1,0.7,0.2,1.1,0.3l1.6,0.3c1.1,0.2,1.9,0.5,2.4,1c0.5,0.5,0.8,1.2,0.8,2.1c0,0.4-0.1,0.8-0.3,1.1
		c-0.2,0.4-0.4,0.7-0.7,0.9c-0.3,0.3-0.7,0.5-1.2,0.6s-1.1,0.2-1.7,0.2c-0.6,0-1.2-0.1-1.7-0.2s-1-0.3-1.4-0.6
		c-0.4-0.3-0.7-0.6-0.9-1c-0.2-0.4-0.4-0.9-0.4-1.5h1.1C110.5,490.4,110.8,491,111.3,491.3z"/>
	<path class="st3" d="M125.8,478.2v1.7h-1.3v-1.7H125.8z M125.7,482.2v10.3h-1.2v-10.3H125.7z"/>
	<path class="st3" d="M129.7,482.2v1.7c0.6-0.7,1.2-1.2,1.8-1.5c0.6-0.3,1.3-0.5,2-0.5c1.2,0,2,0.3,2.6,1s0.8,1.6,0.8,2.8v6.9h-1.2
		V486c0-1.1-0.2-1.9-0.6-2.3c-0.4-0.5-1-0.7-1.8-0.7c-0.4,0-0.8,0.1-1.3,0.2s-0.9,0.4-1.2,0.7c-0.4,0.3-0.7,0.7-0.9,1.1
		c-0.2,0.4-0.3,0.9-0.3,1.5v6h-1.2v-10.3H129.7z"/>
	<path class="st3" d="M145.9,492.3c-0.6,0.3-1.3,0.5-2.1,0.5c-0.8,0-1.4-0.1-2-0.4c-0.6-0.3-1-0.7-1.4-1.2c-0.4-0.5-0.6-1.1-0.8-1.7
		c-0.2-0.6-0.3-1.3-0.3-2c0-1.8,0.4-3.1,1.2-4.1c0.8-1,2-1.5,3.4-1.5c0.6,0,1.1,0.1,1.7,0.4c0.6,0.2,1.1,0.7,1.6,1.4v-5.4h1.2v14.3
		h-1.2V491C146.9,491.5,146.4,492,145.9,492.3z M147.3,485.7c-0.1-0.3-0.1-0.6-0.2-0.9c-0.1-0.3-0.3-0.5-0.4-0.7
		c-0.2-0.2-0.4-0.4-0.6-0.6c-0.3-0.2-0.6-0.4-1-0.5c-0.3-0.1-0.7-0.2-1.1-0.2c-0.5,0-0.9,0.1-1.4,0.3c-0.4,0.2-0.8,0.4-1.1,0.8
		c-0.3,0.4-0.5,0.8-0.7,1.4c-0.2,0.6-0.3,1.3-0.3,2.1c0,0.8,0.1,1.5,0.3,2.1s0.4,1,0.8,1.4s0.6,0.6,1,0.7c0.4,0.1,0.8,0.2,1.1,0.2
		c0.4,0,0.8,0,1.1-0.1s0.7-0.3,1-0.5c0.5-0.3,0.8-0.8,1.1-1.3c0.3-0.5,0.4-1.2,0.4-2v-0.9C147.4,486.5,147.4,486.1,147.3,485.7z"/>
	<path class="st3" d="M152.4,482.2v6.5c0,1.1,0.2,1.9,0.5,2.3c0.3,0.5,0.9,0.7,1.8,0.7c0.4,0,0.8-0.1,1.2-0.2
		c0.4-0.2,0.8-0.4,1.2-0.7c0.4-0.3,0.7-0.7,0.9-1.1c0.2-0.4,0.3-0.9,0.3-1.5v-6h1.2v10.3h-1.2v-1.7c-1.1,1.3-2.3,2-3.7,2
		c-1.2,0-2-0.3-2.5-1s-0.8-1.6-0.8-2.8v-6.9H152.4z"/>
	<path class="st3" d="M163.9,491.3c0.5,0.3,1.3,0.5,2.3,0.5c1,0,1.7-0.2,2.1-0.6c0.4-0.4,0.6-0.8,0.6-1.4c0-0.2,0-0.5-0.1-0.7
		c-0.1-0.2-0.2-0.4-0.3-0.6c-0.2-0.2-0.4-0.3-0.7-0.4c-0.3-0.1-0.7-0.2-1.1-0.3l-1.3-0.2c-0.5-0.1-1-0.2-1.5-0.3
		c-0.4-0.1-0.8-0.3-1.1-0.5c-0.3-0.2-0.5-0.5-0.7-0.8c-0.2-0.3-0.2-0.7-0.2-1.2c0-0.5,0.1-0.9,0.3-1.2c0.2-0.4,0.5-0.7,0.8-0.9
		c0.3-0.2,0.8-0.4,1.2-0.6s1-0.2,1.5-0.2c0.7,0,1.3,0.1,1.8,0.2c0.5,0.1,0.9,0.3,1.2,0.6c0.3,0.2,0.5,0.5,0.7,0.8
		c0.2,0.3,0.3,0.7,0.4,1l-1.1,0.2c-0.1-0.3-0.2-0.6-0.4-0.8c-0.1-0.2-0.3-0.4-0.5-0.6s-0.5-0.3-0.8-0.4c-0.3-0.1-0.7-0.1-1.2-0.1
		c-0.5,0-1,0-1.3,0.1c-0.4,0.1-0.6,0.2-0.9,0.4s-0.4,0.4-0.5,0.6c-0.1,0.2-0.1,0.5-0.1,0.7s0,0.5,0.1,0.7c0.1,0.2,0.2,0.4,0.3,0.5
		c0.2,0.1,0.4,0.3,0.7,0.4c0.3,0.1,0.7,0.2,1.1,0.3l1.6,0.3c1.1,0.2,1.9,0.5,2.4,1c0.5,0.5,0.8,1.2,0.8,2.1c0,0.4-0.1,0.8-0.3,1.1
		c-0.2,0.4-0.4,0.7-0.7,0.9c-0.3,0.3-0.7,0.5-1.2,0.6s-1.1,0.2-1.7,0.2c-0.6,0-1.2-0.1-1.7-0.2s-1-0.3-1.4-0.6
		c-0.4-0.3-0.7-0.6-0.9-1c-0.2-0.4-0.4-0.9-0.4-1.5h1.1C163,490.4,163.4,491,163.9,491.3z"/>
	<path class="st3" d="M171.5,483.2v-1h1.6v-2.8h1.2v2.8h2.9v1h-2.9v6.7c0,0.5,0.1,0.9,0.3,1.3c0.2,0.4,0.6,0.5,1.1,0.5
		c0.3,0,0.6,0,0.9-0.1c0.2-0.1,0.5-0.1,0.6-0.2l0.2,0.9c-0.2,0.1-0.4,0.2-0.7,0.2c-0.3,0.1-0.7,0.1-1.1,0.1c-0.6,0-1-0.1-1.4-0.3
		s-0.6-0.5-0.8-0.8c-0.2-0.3-0.3-0.7-0.3-1.1s-0.1-0.9-0.1-1.3v-6H171.5z"/>
	<path class="st3" d="M180.3,482.2v1.7c0.4-0.6,0.9-1,1.4-1.4c0.5-0.3,1.1-0.5,1.7-0.5c0.1,0,0.3,0,0.4,0c0.1,0,0.3,0,0.4,0
		l-0.1,1.1c-0.2,0-0.5-0.1-0.7-0.1c-0.3,0-0.7,0.1-1.1,0.2c-0.4,0.1-0.7,0.3-1,0.6c-0.3,0.3-0.6,0.6-0.8,1c-0.2,0.4-0.3,0.8-0.3,1.4
		v6.2h-1.2v-10.3H180.3z"/>
	<path class="st3" d="M187.2,478.2v1.7h-1.3v-1.7H187.2z M187.1,482.2v10.3h-1.2v-10.3H187.1z"/>
	<path class="st3" d="M195.9,491.7c-0.2,0.2-0.5,0.4-0.8,0.5c-0.3,0.2-0.6,0.3-1,0.4s-0.8,0.1-1.2,0.1c-1.1,0-1.9-0.3-2.6-0.8
		c-0.7-0.5-1-1.3-1-2.3c0-0.7,0.1-1.3,0.4-1.7s0.7-0.8,1.2-1s1-0.4,1.7-0.5s1.3-0.2,1.9-0.2l2-0.1v-0.3c0-1-0.2-1.8-0.6-2.2
		s-1.1-0.7-2.1-0.7c-0.5,0-0.9,0-1.3,0.1c-0.3,0.1-0.6,0.2-0.9,0.4s-0.4,0.3-0.5,0.5s-0.2,0.4-0.3,0.7l-1.1-0.2
		c0.4-1.7,1.7-2.5,4-2.5c0.7,0,1.3,0.1,1.8,0.3c0.5,0.2,0.9,0.4,1.2,0.8c0.3,0.3,0.5,0.7,0.6,1.2c0.1,0.5,0.2,1,0.2,1.6v6.8h-1.2
		V491C196.3,491.3,196.1,491.5,195.9,491.7z M194.6,487.1c-0.8,0-1.4,0.1-1.9,0.2c-0.5,0.1-0.9,0.3-1.3,0.5
		c-0.3,0.2-0.6,0.5-0.7,0.8c-0.1,0.3-0.2,0.7-0.2,1.1c0,0.6,0.2,1.1,0.5,1.5c0.4,0.4,1,0.6,1.9,0.6c0.4,0,0.9,0,1.3-0.1
		c0.4-0.1,0.8-0.3,1.1-0.5c0.2-0.2,0.4-0.3,0.6-0.5s0.3-0.3,0.4-0.5c0.1-0.2,0.2-0.4,0.2-0.6c0-0.2,0.1-0.5,0.1-0.8V487L194.6,487.1
		z"/>
	<path class="st3" d="M201.7,478.2v14.3h-1.2v-14.3H201.7z"/>
	<path class="st3" d="M205.8,478.2v1.7h-1.3v-1.7H205.8z M205.8,482.2v10.3h-1.2v-10.3H205.8z"/>
	<path class="st3" d="M214.2,483.2h-6.4v-1h7.8v1l-6.5,8.3h6.9l-0.2,1h-8.1v-1L214.2,483.2z"/>
	<path class="st3" d="M223.8,491.7c-0.2,0.2-0.5,0.4-0.8,0.5c-0.3,0.2-0.6,0.3-1,0.4s-0.8,0.1-1.2,0.1c-1.1,0-1.9-0.3-2.6-0.8
		c-0.7-0.5-1-1.3-1-2.3c0-0.7,0.1-1.3,0.4-1.7s0.7-0.8,1.2-1s1-0.4,1.7-0.5s1.3-0.2,1.9-0.2l2-0.1v-0.3c0-1-0.2-1.8-0.6-2.2
		s-1.1-0.7-2.1-0.7c-0.5,0-0.9,0-1.3,0.1c-0.3,0.1-0.6,0.2-0.9,0.4s-0.4,0.3-0.5,0.5s-0.2,0.4-0.3,0.7l-1.1-0.2
		c0.4-1.7,1.7-2.5,4-2.5c0.7,0,1.3,0.1,1.8,0.3c0.5,0.2,0.9,0.4,1.2,0.8c0.3,0.3,0.5,0.7,0.6,1.2c0.1,0.5,0.2,1,0.2,1.6v6.8h-1.2
		V491C224.2,491.3,224,491.5,223.8,491.7z M222.5,487.1c-0.8,0-1.4,0.1-1.9,0.2c-0.5,0.1-0.9,0.3-1.3,0.5c-0.3,0.2-0.6,0.5-0.7,0.8
		c-0.1,0.3-0.2,0.7-0.2,1.1c0,0.6,0.2,1.1,0.5,1.5c0.4,0.4,1,0.6,1.9,0.6c0.4,0,0.9,0,1.3-0.1c0.4-0.1,0.8-0.3,1.1-0.5
		c0.2-0.2,0.4-0.3,0.6-0.5s0.3-0.3,0.4-0.5c0.1-0.2,0.2-0.4,0.2-0.6c0-0.2,0.1-0.5,0.1-0.8V487L222.5,487.1z"/>
	<path class="st3" d="M234.5,492.3c-0.6,0.3-1.3,0.5-2.1,0.5c-0.8,0-1.4-0.1-2-0.4c-0.6-0.3-1-0.7-1.4-1.2c-0.4-0.5-0.6-1.1-0.8-1.7
		c-0.2-0.6-0.3-1.3-0.3-2c0-1.8,0.4-3.1,1.2-4.1c0.8-1,2-1.5,3.4-1.5c0.6,0,1.1,0.1,1.7,0.4c0.6,0.2,1.1,0.7,1.6,1.4v-5.4h1.2v14.3
		H236V491C235.5,491.5,235,492,234.5,492.3z M236,485.7c-0.1-0.3-0.1-0.6-0.2-0.9c-0.1-0.3-0.3-0.5-0.4-0.7
		c-0.2-0.2-0.4-0.4-0.6-0.6c-0.3-0.2-0.6-0.4-1-0.5c-0.3-0.1-0.7-0.2-1.1-0.2c-0.5,0-0.9,0.1-1.4,0.3c-0.4,0.2-0.8,0.4-1.1,0.8
		c-0.3,0.4-0.5,0.8-0.7,1.4c-0.2,0.6-0.3,1.3-0.3,2.1c0,0.8,0.1,1.5,0.3,2.1s0.4,1,0.8,1.4s0.6,0.6,1,0.7c0.4,0.1,0.8,0.2,1.1,0.2
		c0.4,0,0.8,0,1.1-0.1s0.7-0.3,1-0.5c0.5-0.3,0.8-0.8,1.1-1.3c0.3-0.5,0.4-1.2,0.4-2v-0.9C236,486.5,236,486.1,236,485.7z"/>
	<path class="st3" d="M242.4,492.4c-0.6-0.3-1.1-0.6-1.5-1.1c-0.4-0.5-0.7-1-0.9-1.7c-0.2-0.7-0.3-1.4-0.3-2.2
		c0-0.8,0.1-1.6,0.4-2.3c0.2-0.7,0.6-1.3,1-1.7c0.4-0.5,0.9-0.9,1.5-1.1c0.6-0.3,1.3-0.4,2-0.4c0.7,0,1.4,0.1,2,0.4
		c0.6,0.3,1.1,0.6,1.5,1.1c0.4,0.5,0.7,1,1,1.7c0.2,0.7,0.3,1.4,0.3,2.2c0,0.8-0.1,1.6-0.3,2.3c-0.2,0.7-0.6,1.3-1,1.8
		c-0.4,0.5-0.9,0.9-1.5,1.1c-0.6,0.3-1.3,0.4-2.1,0.4S243,492.7,242.4,492.4z M246.1,491.5c0.5-0.2,0.8-0.6,1.1-1
		c0.3-0.4,0.5-0.9,0.6-1.4c0.1-0.5,0.2-1.1,0.2-1.8c0-0.6-0.1-1.2-0.2-1.7c-0.1-0.5-0.3-1-0.6-1.4c-0.3-0.4-0.7-0.7-1.1-1
		c-0.5-0.2-1-0.4-1.7-0.4c-0.6,0-1.2,0.1-1.7,0.4s-0.8,0.6-1.1,1c-0.3,0.4-0.5,0.9-0.6,1.4s-0.2,1.1-0.2,1.8s0.1,1.2,0.2,1.8
		c0.1,0.5,0.3,1,0.6,1.4c0.3,0.4,0.7,0.7,1.1,1s1,0.4,1.7,0.4C245.1,491.8,245.7,491.7,246.1,491.5z"/>
	<path class="st3" d="M253.4,491.3c0.5,0.3,1.3,0.5,2.3,0.5c1,0,1.7-0.2,2.1-0.6c0.4-0.4,0.6-0.8,0.6-1.4c0-0.2,0-0.5-0.1-0.7
		c-0.1-0.2-0.2-0.4-0.3-0.6c-0.2-0.2-0.4-0.3-0.7-0.4c-0.3-0.1-0.7-0.2-1.1-0.3l-1.3-0.2c-0.5-0.1-1-0.2-1.5-0.3
		c-0.4-0.1-0.8-0.3-1.1-0.5c-0.3-0.2-0.5-0.5-0.7-0.8c-0.2-0.3-0.2-0.7-0.2-1.2c0-0.5,0.1-0.9,0.3-1.2c0.2-0.4,0.5-0.7,0.8-0.9
		c0.3-0.2,0.8-0.4,1.2-0.6s1-0.2,1.5-0.2c0.7,0,1.3,0.1,1.8,0.2c0.5,0.1,0.9,0.3,1.2,0.6c0.3,0.2,0.5,0.5,0.7,0.8
		c0.2,0.3,0.3,0.7,0.4,1l-1.1,0.2c-0.1-0.3-0.2-0.6-0.4-0.8c-0.1-0.2-0.3-0.4-0.5-0.6s-0.5-0.3-0.8-0.4c-0.3-0.1-0.7-0.1-1.2-0.1
		c-0.5,0-1,0-1.3,0.1c-0.4,0.1-0.6,0.2-0.9,0.4s-0.4,0.4-0.5,0.6c-0.1,0.2-0.1,0.5-0.1,0.7s0,0.5,0.1,0.7c0.1,0.2,0.2,0.4,0.3,0.5
		c0.2,0.1,0.4,0.3,0.7,0.4c0.3,0.1,0.7,0.2,1.1,0.3l1.6,0.3c1.1,0.2,1.9,0.5,2.4,1c0.5,0.5,0.8,1.2,0.8,2.1c0,0.4-0.1,0.8-0.3,1.1
		c-0.2,0.4-0.4,0.7-0.7,0.9c-0.3,0.3-0.7,0.5-1.2,0.6s-1.1,0.2-1.7,0.2c-0.6,0-1.2-0.1-1.7-0.2s-1-0.3-1.4-0.6
		c-0.4-0.3-0.7-0.6-0.9-1c-0.2-0.4-0.4-0.9-0.4-1.5h1.1C252.6,490.4,252.9,491,253.4,491.3z"/>
	<path class="st3" d="M68.1,516.3c-0.6,0.3-1.3,0.5-2.1,0.5c-0.8,0-1.4-0.1-2-0.4c-0.6-0.3-1-0.7-1.4-1.2c-0.4-0.5-0.6-1.1-0.8-1.7
		c-0.2-0.6-0.3-1.3-0.3-2c0-1.8,0.4-3.1,1.2-4.1c0.8-1,2-1.5,3.4-1.5c0.6,0,1.1,0.1,1.7,0.4c0.6,0.2,1.1,0.7,1.6,1.4v-5.4h1.2v14.3
		h-1.2V515C69.1,515.5,68.6,516,68.1,516.3z M69.5,509.7c-0.1-0.3-0.1-0.6-0.2-0.9c-0.1-0.3-0.3-0.5-0.4-0.7
		c-0.2-0.2-0.4-0.4-0.6-0.6c-0.3-0.2-0.6-0.4-1-0.5c-0.3-0.1-0.7-0.2-1.1-0.2c-0.5,0-0.9,0.1-1.4,0.3c-0.4,0.2-0.8,0.4-1.1,0.8
		c-0.3,0.4-0.5,0.8-0.7,1.4c-0.2,0.6-0.3,1.3-0.3,2.1c0,0.8,0.1,1.5,0.3,2.1s0.4,1,0.8,1.4s0.6,0.6,1,0.7c0.4,0.1,0.8,0.2,1.1,0.2
		c0.4,0,0.8,0,1.1-0.1s0.7-0.3,1-0.5c0.5-0.3,0.8-0.8,1.1-1.3c0.3-0.5,0.4-1.2,0.4-2v-0.9C69.6,510.5,69.6,510.1,69.5,509.7z"/>
	<path class="st3" d="M80.8,516c-0.7,0.6-1.7,0.8-3,0.8c-1.5,0-2.6-0.5-3.5-1.4s-1.2-2.3-1.2-3.9c0-0.9,0.1-1.7,0.4-2.4
		c0.2-0.7,0.6-1.3,1-1.8c0.4-0.5,0.9-0.8,1.5-1.1c0.6-0.2,1.2-0.4,1.9-0.4c0.8,0,1.5,0.1,2,0.4c0.6,0.3,1,0.6,1.4,1.1s0.6,1,0.8,1.6
		c0.2,0.6,0.2,1.3,0.2,2v0.7h-7.9c0,0.6,0.1,1.1,0.2,1.6c0.1,0.5,0.4,1,0.7,1.3c0.3,0.4,0.7,0.7,1.1,0.9c0.4,0.2,0.9,0.3,1.5,0.3
		c0.5,0,1,0,1.3-0.1s0.7-0.2,0.9-0.4c0.2-0.2,0.4-0.4,0.6-0.7c0.1-0.2,0.3-0.5,0.3-0.8h1.1C82,514.7,81.5,515.4,80.8,516z
		 M80.9,509.1c-0.1-0.5-0.3-0.9-0.6-1.2c-0.3-0.3-0.6-0.6-1-0.8c-0.4-0.2-0.9-0.3-1.5-0.3c-1,0-1.8,0.3-2.4,0.9
		c-0.6,0.6-1,1.6-1.1,2.9h6.7C81.1,510.1,81,509.6,80.9,509.1z"/>
	<path class="st3" d="M85.9,502.2v14.3h-1.2v-14.3H85.9z"/>
	<path class="st3" d="M94.9,502.2l8,12.4v-12.4h1.2v14.3h-1.3l-8-12.4v12.4h-1.2v-14.3H94.9z"/>
	<path class="st3" d="M109.5,516.4c-0.6-0.3-1.1-0.6-1.5-1.1c-0.4-0.5-0.7-1-0.9-1.7c-0.2-0.7-0.3-1.4-0.3-2.2
		c0-0.8,0.1-1.6,0.4-2.3c0.2-0.7,0.6-1.3,1-1.7c0.4-0.5,0.9-0.9,1.5-1.1c0.6-0.3,1.3-0.4,2-0.4c0.7,0,1.4,0.1,2,0.4
		c0.6,0.3,1.1,0.6,1.5,1.1c0.4,0.5,0.7,1,1,1.7c0.2,0.7,0.3,1.4,0.3,2.2c0,0.8-0.1,1.6-0.3,2.3c-0.2,0.7-0.6,1.3-1,1.8
		c-0.4,0.5-0.9,0.9-1.5,1.1c-0.6,0.3-1.3,0.4-2.1,0.4S110.1,516.7,109.5,516.4z M113.3,515.5c0.5-0.2,0.8-0.6,1.1-1
		c0.3-0.4,0.5-0.9,0.6-1.4c0.1-0.5,0.2-1.1,0.2-1.8c0-0.6-0.1-1.2-0.2-1.7c-0.1-0.5-0.3-1-0.6-1.4c-0.3-0.4-0.7-0.7-1.1-1
		c-0.5-0.2-1-0.4-1.7-0.4c-0.6,0-1.2,0.1-1.7,0.4s-0.8,0.6-1.1,1c-0.3,0.4-0.5,0.9-0.6,1.4s-0.2,1.1-0.2,1.8s0.1,1.2,0.2,1.8
		c0.1,0.5,0.3,1,0.6,1.4c0.3,0.4,0.7,0.7,1.1,1s1,0.4,1.7,0.4C112.3,515.8,112.8,515.7,113.3,515.5z"/>
	<path class="st3" d="M120.1,506.2v1.7c0.4-0.6,0.9-1,1.4-1.4c0.5-0.3,1.1-0.5,1.7-0.5c0.1,0,0.3,0,0.4,0c0.1,0,0.3,0,0.4,0
		l-0.1,1.1c-0.2,0-0.5-0.1-0.7-0.1c-0.3,0-0.7,0.1-1.1,0.2c-0.4,0.1-0.7,0.3-1,0.6c-0.3,0.3-0.6,0.6-0.8,1c-0.2,0.4-0.3,0.8-0.3,1.4
		v6.2h-1.2v-10.3H120.1z"/>
	<path class="st3" d="M125.2,507.2v-1h1.6v-2.8h1.2v2.8h2.9v1h-2.9v6.7c0,0.5,0.1,0.9,0.3,1.3c0.2,0.4,0.6,0.5,1.1,0.5
		c0.3,0,0.6,0,0.9-0.1c0.2-0.1,0.5-0.1,0.6-0.2l0.2,0.9c-0.2,0.1-0.4,0.2-0.7,0.2c-0.3,0.1-0.7,0.1-1.1,0.1c-0.6,0-1-0.1-1.4-0.3
		s-0.6-0.5-0.8-0.8c-0.2-0.3-0.3-0.7-0.3-1.1s-0.1-0.9-0.1-1.3v-6H125.2z"/>
	<path class="st3" d="M139.7,516c-0.7,0.6-1.7,0.8-3,0.8c-1.5,0-2.6-0.5-3.5-1.4s-1.2-2.3-1.2-3.9c0-0.9,0.1-1.7,0.4-2.4
		c0.2-0.7,0.6-1.3,1-1.8c0.4-0.5,0.9-0.8,1.5-1.1c0.6-0.2,1.2-0.4,1.9-0.4c0.8,0,1.5,0.1,2,0.4c0.6,0.3,1,0.6,1.4,1.1s0.6,1,0.8,1.6
		c0.2,0.6,0.2,1.3,0.2,2v0.7h-7.9c0,0.6,0.1,1.1,0.2,1.6c0.1,0.5,0.4,1,0.7,1.3c0.3,0.4,0.7,0.7,1.1,0.9c0.4,0.2,0.9,0.3,1.5,0.3
		c0.5,0,1,0,1.3-0.1c0.4-0.1,0.7-0.2,0.9-0.4c0.2-0.2,0.4-0.4,0.6-0.7c0.1-0.2,0.3-0.5,0.3-0.8h1.1
		C140.8,514.7,140.4,515.4,139.7,516z M139.8,509.1c-0.1-0.5-0.3-0.9-0.6-1.2c-0.3-0.3-0.6-0.6-1-0.8c-0.4-0.2-0.9-0.3-1.5-0.3
		c-1,0-1.8,0.3-2.4,0.9c-0.6,0.6-1,1.6-1.1,2.9h6.7C140,510.1,139.9,509.6,139.8,509.1z"/>
	<path class="st3" d="M159.6,509.4v5.5c-0.3,0.3-0.7,0.6-1.2,0.9s-0.9,0.4-1.3,0.6s-0.9,0.3-1.4,0.3s-0.9,0.1-1.4,0.1
		c-1,0-1.9-0.2-2.7-0.5c-0.8-0.3-1.5-0.8-2.1-1.4s-1-1.4-1.3-2.3c-0.3-0.9-0.5-2-0.5-3.2c0-1.2,0.2-2.3,0.5-3.3
		c0.3-0.9,0.8-1.7,1.3-2.4c0.6-0.6,1.2-1.1,2-1.4c0.8-0.3,1.6-0.5,2.5-0.5c1.5,0,2.7,0.3,3.5,1c0.8,0.7,1.4,1.6,1.7,2.9l-1.1,0.3
		c-0.1-0.5-0.3-0.9-0.5-1.3c-0.2-0.4-0.5-0.7-0.8-1s-0.7-0.5-1.2-0.6c-0.5-0.2-1-0.2-1.6-0.2c-0.8,0-1.6,0.2-2.2,0.5
		c-0.6,0.3-1.2,0.8-1.6,1.3c-0.4,0.6-0.8,1.3-1,2c-0.2,0.8-0.3,1.6-0.3,2.6c0,0.9,0.1,1.8,0.3,2.6c0.2,0.8,0.5,1.5,1,2
		c0.4,0.6,1,1,1.7,1.3s1.4,0.5,2.3,0.5c0.8,0,1.5-0.1,2.2-0.3c0.7-0.2,1.4-0.5,1.9-1v-4h-4.1v-1.1H159.6z"/>
	<path class="st3" d="M163.5,502.2v14.3h-1.2v-14.3H163.5z"/>
	<path class="st3" d="M168.8,516.4c-0.6-0.3-1.1-0.6-1.5-1.1c-0.4-0.5-0.7-1-0.9-1.7c-0.2-0.7-0.3-1.4-0.3-2.2
		c0-0.8,0.1-1.6,0.4-2.3c0.2-0.7,0.6-1.3,1-1.7c0.4-0.5,0.9-0.9,1.5-1.1c0.6-0.3,1.3-0.4,2-0.4c0.7,0,1.4,0.1,2,0.4
		c0.6,0.3,1.1,0.6,1.5,1.1c0.4,0.5,0.7,1,1,1.7c0.2,0.7,0.3,1.4,0.3,2.2c0,0.8-0.1,1.6-0.3,2.3c-0.2,0.7-0.6,1.3-1,1.8
		c-0.4,0.5-0.9,0.9-1.5,1.1c-0.6,0.3-1.3,0.4-2.1,0.4S169.4,516.7,168.8,516.4z M172.5,515.5c0.5-0.2,0.8-0.6,1.1-1
		c0.3-0.4,0.5-0.9,0.6-1.4c0.1-0.5,0.2-1.1,0.2-1.8c0-0.6-0.1-1.2-0.2-1.7c-0.1-0.5-0.3-1-0.6-1.4c-0.3-0.4-0.7-0.7-1.1-1
		c-0.5-0.2-1-0.4-1.7-0.4c-0.6,0-1.2,0.1-1.7,0.4s-0.8,0.6-1.1,1c-0.3,0.4-0.5,0.9-0.6,1.4s-0.2,1.1-0.2,1.8s0.1,1.2,0.2,1.8
		c0.1,0.5,0.3,1,0.6,1.4c0.3,0.4,0.7,0.7,1.1,1s1,0.4,1.7,0.4C171.5,515.8,172.1,515.7,172.5,515.5z"/>
	<path class="st3" d="M179.4,502.2v5.5c0.5-0.6,1-1,1.5-1.4c0.6-0.3,1.2-0.5,2-0.5c0.7,0,1.4,0.1,2,0.4c0.6,0.3,1,0.7,1.4,1.1
		s0.6,1,0.8,1.7c0.2,0.7,0.3,1.4,0.3,2.1c0,0.9-0.1,1.7-0.3,2.4c-0.2,0.7-0.5,1.3-0.9,1.8c-0.4,0.5-0.9,0.8-1.5,1.1
		s-1.2,0.4-1.9,0.4c-0.6,0-1.2-0.1-1.8-0.4s-1.1-0.7-1.6-1.3v1.4h-1.2v-14.3H179.4z M179.4,512.9c0,0.3,0.1,0.6,0.2,0.9
		s0.3,0.5,0.4,0.7c0.2,0.2,0.4,0.4,0.6,0.6c0.3,0.2,0.6,0.4,0.9,0.5c0.3,0.1,0.7,0.2,1.1,0.2c0.5,0,0.9-0.1,1.4-0.3
		c0.4-0.2,0.8-0.4,1.1-0.8c0.3-0.4,0.5-0.8,0.7-1.4s0.3-1.3,0.3-2.1c0-0.8-0.1-1.5-0.3-2.1c-0.2-0.6-0.4-1-0.8-1.4
		c-0.3-0.3-0.7-0.6-1-0.7s-0.8-0.2-1.1-0.2c-0.4,0-0.8,0-1.1,0.1s-0.7,0.3-1,0.5c-0.5,0.3-0.8,0.8-1.1,1.3c-0.3,0.5-0.4,1.2-0.4,2
		v0.9C179.3,512.2,179.4,512.6,179.4,512.9z"/>
	<path class="st3" d="M195.8,515.7c-0.2,0.2-0.5,0.4-0.8,0.5c-0.3,0.2-0.6,0.3-1,0.4s-0.8,0.1-1.2,0.1c-1.1,0-1.9-0.3-2.6-0.8
		c-0.7-0.5-1-1.3-1-2.3c0-0.7,0.1-1.3,0.4-1.7s0.7-0.8,1.2-1s1-0.4,1.7-0.5s1.3-0.2,1.9-0.2l2-0.1v-0.3c0-1-0.2-1.8-0.6-2.2
		s-1.1-0.7-2.1-0.7c-0.5,0-0.9,0-1.3,0.1c-0.3,0.1-0.6,0.2-0.9,0.4s-0.4,0.3-0.5,0.5s-0.2,0.4-0.3,0.7l-1.1-0.2
		c0.4-1.7,1.7-2.5,4-2.5c0.7,0,1.3,0.1,1.8,0.3c0.5,0.2,0.9,0.4,1.2,0.8c0.3,0.3,0.5,0.7,0.6,1.2c0.1,0.5,0.2,1,0.2,1.6v6.8h-1.2
		V515C196.3,515.3,196.1,515.5,195.8,515.7z M194.5,511.1c-0.8,0-1.4,0.1-1.9,0.2c-0.5,0.1-0.9,0.3-1.3,0.5
		c-0.3,0.2-0.6,0.5-0.7,0.8c-0.1,0.3-0.2,0.7-0.2,1.1c0,0.6,0.2,1.1,0.5,1.5c0.4,0.4,1,0.6,1.9,0.6c0.4,0,0.9,0,1.3-0.1
		c0.4-0.1,0.8-0.3,1.1-0.5c0.2-0.2,0.4-0.3,0.6-0.5s0.3-0.3,0.4-0.5c0.1-0.2,0.2-0.4,0.2-0.6c0-0.2,0.1-0.5,0.1-0.8V511L194.5,511.1
		z"/>
	<path class="st3" d="M201.6,502.2v14.3h-1.2v-14.3H201.6z"/>
</g>
<g>
	<path class="st3" d="M66.7,567.1c1,0,1.9,0.1,2.6,0.3c0.7,0.2,1.2,0.5,1.6,0.9c0.4,0.4,0.6,0.8,0.8,1.3c0.1,0.5,0.2,1,0.2,1.6
		c0,0.6-0.1,1.1-0.2,1.7c-0.2,0.5-0.4,1-0.8,1.4s-0.9,0.7-1.6,1c-0.7,0.2-1.5,0.4-2.6,0.4h-3.4v5.8h-1.2v-14.3H66.7z M68.7,574.3
		c0.5-0.2,0.9-0.4,1.2-0.7s0.5-0.6,0.6-1c0.1-0.4,0.2-0.9,0.2-1.4c0-0.5-0.1-1-0.2-1.4c-0.1-0.4-0.3-0.7-0.6-1
		c-0.3-0.3-0.7-0.5-1.2-0.6c-0.5-0.1-1.1-0.2-1.9-0.2h-3.4v6.4h3.4C67.5,574.5,68.2,574.4,68.7,574.3z"/>
	<path class="st3" d="M79.6,580.5c-0.2,0.2-0.5,0.4-0.8,0.5c-0.3,0.2-0.6,0.3-1,0.4s-0.8,0.1-1.2,0.1c-1.1,0-1.9-0.3-2.6-0.8
		c-0.7-0.5-1-1.3-1-2.3c0-0.7,0.1-1.3,0.4-1.7s0.7-0.8,1.2-1s1-0.4,1.7-0.5s1.3-0.2,1.9-0.2l2-0.1v-0.3c0-1-0.2-1.8-0.6-2.2
		s-1.1-0.7-2.1-0.7c-0.5,0-0.9,0-1.3,0.1c-0.3,0.1-0.6,0.2-0.9,0.4s-0.4,0.3-0.5,0.5s-0.2,0.4-0.3,0.7l-1.1-0.2
		c0.4-1.7,1.7-2.5,4-2.5c0.7,0,1.3,0.1,1.8,0.3c0.5,0.2,0.9,0.4,1.2,0.8c0.3,0.3,0.5,0.7,0.6,1.2c0.1,0.5,0.2,1,0.2,1.6v6.8h-1.2
		v-1.5C80,580.1,79.8,580.3,79.6,580.5z M78.3,575.9c-0.8,0-1.4,0.1-1.9,0.2c-0.5,0.1-0.9,0.3-1.3,0.5c-0.3,0.2-0.6,0.5-0.7,0.8
		c-0.1,0.3-0.2,0.7-0.2,1.1c0,0.6,0.2,1.1,0.5,1.5c0.4,0.4,1,0.6,1.9,0.6c0.4,0,0.9,0,1.3-0.1c0.4-0.1,0.8-0.3,1.1-0.5
		c0.2-0.2,0.4-0.3,0.6-0.5s0.3-0.3,0.4-0.5c0.1-0.2,0.2-0.4,0.2-0.6c0-0.2,0.1-0.5,0.1-0.8v-1.5L78.3,575.9z"/>
	<path class="st3" d="M87.8,566.9l-2.5,2.7h-1.2l2.2-2.7H87.8z M85.4,571v10.3h-1.2V571H85.4z"/>
	<path class="st3" d="M89.9,580.2c0.5,0.3,1.3,0.5,2.3,0.5c1,0,1.7-0.2,2.1-0.6c0.4-0.4,0.6-0.8,0.6-1.4c0-0.2,0-0.5-0.1-0.7
		c-0.1-0.2-0.2-0.4-0.3-0.6c-0.2-0.2-0.4-0.3-0.7-0.4c-0.3-0.1-0.7-0.2-1.1-0.3l-1.3-0.2c-0.5-0.1-1-0.2-1.5-0.3
		c-0.4-0.1-0.8-0.3-1.1-0.5c-0.3-0.2-0.5-0.5-0.7-0.8c-0.2-0.3-0.2-0.7-0.2-1.2c0-0.5,0.1-0.9,0.3-1.2c0.2-0.4,0.5-0.7,0.8-0.9
		c0.3-0.2,0.8-0.4,1.2-0.6s1-0.2,1.5-0.2c0.7,0,1.3,0.1,1.8,0.2c0.5,0.1,0.9,0.3,1.2,0.6c0.3,0.2,0.5,0.5,0.7,0.8
		c0.2,0.3,0.3,0.7,0.4,1l-1.1,0.2c-0.1-0.3-0.2-0.6-0.4-0.8c-0.1-0.2-0.3-0.4-0.5-0.6s-0.5-0.3-0.8-0.4c-0.3-0.1-0.7-0.1-1.2-0.1
		c-0.5,0-1,0-1.3,0.1c-0.4,0.1-0.6,0.2-0.9,0.4s-0.4,0.4-0.5,0.6c-0.1,0.2-0.1,0.5-0.1,0.7s0,0.5,0.1,0.7c0.1,0.2,0.2,0.4,0.3,0.5
		c0.2,0.1,0.4,0.3,0.7,0.4c0.3,0.1,0.7,0.2,1.1,0.3l1.6,0.3c1.1,0.2,1.9,0.5,2.4,1c0.5,0.5,0.8,1.2,0.8,2.1c0,0.4-0.1,0.8-0.3,1.1
		c-0.2,0.4-0.4,0.7-0.7,0.9c-0.3,0.3-0.7,0.5-1.2,0.6s-1.1,0.2-1.7,0.2c-0.6,0-1.2-0.1-1.7-0.2s-1-0.3-1.4-0.6
		c-0.4-0.3-0.7-0.6-0.9-1c-0.2-0.4-0.4-0.9-0.4-1.5h1.1C89,579.3,89.3,579.8,89.9,580.2z"/>
	<path class="st3" d="M105.8,580.8c-0.7,0.6-1.7,0.8-3,0.8c-1.5,0-2.6-0.5-3.5-1.4s-1.2-2.3-1.2-3.9c0-0.9,0.1-1.7,0.4-2.4
		c0.2-0.7,0.6-1.3,1-1.8c0.4-0.5,0.9-0.8,1.5-1.1c0.6-0.2,1.2-0.4,1.9-0.4c0.8,0,1.5,0.1,2,0.4c0.6,0.3,1,0.6,1.4,1.1s0.6,1,0.8,1.6
		c0.2,0.6,0.2,1.3,0.2,2v0.7h-7.9c0,0.6,0.1,1.1,0.2,1.6c0.1,0.5,0.4,1,0.7,1.3c0.3,0.4,0.7,0.7,1.1,0.9c0.4,0.2,0.9,0.3,1.5,0.3
		c0.5,0,1,0,1.3-0.1s0.7-0.2,0.9-0.4c0.2-0.2,0.4-0.4,0.6-0.7c0.1-0.2,0.3-0.5,0.3-0.8h1.1C106.9,579.5,106.5,580.3,105.8,580.8z
		 M105.9,573.9c-0.1-0.5-0.3-0.9-0.6-1.2c-0.3-0.3-0.6-0.6-1-0.8c-0.4-0.2-0.9-0.3-1.5-0.3c-1,0-1.8,0.3-2.4,0.9
		c-0.6,0.6-1,1.6-1.1,2.9h6.7C106.1,574.9,106,574.4,105.9,573.9z"/>
	<path class="st3" d="M111.3,580.2c0.5,0.3,1.3,0.5,2.3,0.5c1,0,1.7-0.2,2.1-0.6c0.4-0.4,0.6-0.8,0.6-1.4c0-0.2,0-0.5-0.1-0.7
		c-0.1-0.2-0.2-0.4-0.3-0.6c-0.2-0.2-0.4-0.3-0.7-0.4c-0.3-0.1-0.7-0.2-1.1-0.3l-1.3-0.2c-0.5-0.1-1-0.2-1.5-0.3
		c-0.4-0.1-0.8-0.3-1.1-0.5c-0.3-0.2-0.5-0.5-0.7-0.8c-0.2-0.3-0.2-0.7-0.2-1.2c0-0.5,0.1-0.9,0.3-1.2c0.2-0.4,0.5-0.7,0.8-0.9
		c0.3-0.2,0.8-0.4,1.2-0.6s1-0.2,1.5-0.2c0.7,0,1.3,0.1,1.8,0.2c0.5,0.1,0.9,0.3,1.2,0.6c0.3,0.2,0.5,0.5,0.7,0.8
		c0.2,0.3,0.3,0.7,0.4,1l-1.1,0.2c-0.1-0.3-0.2-0.6-0.4-0.8c-0.1-0.2-0.3-0.4-0.5-0.6s-0.5-0.3-0.8-0.4c-0.3-0.1-0.7-0.1-1.2-0.1
		c-0.5,0-1,0-1.3,0.1c-0.4,0.1-0.6,0.2-0.9,0.4s-0.4,0.4-0.5,0.6c-0.1,0.2-0.1,0.5-0.1,0.7s0,0.5,0.1,0.7c0.1,0.2,0.2,0.4,0.3,0.5
		c0.2,0.1,0.4,0.3,0.7,0.4c0.3,0.1,0.7,0.2,1.1,0.3l1.6,0.3c1.1,0.2,1.9,0.5,2.4,1c0.5,0.5,0.8,1.2,0.8,2.1c0,0.4-0.1,0.8-0.3,1.1
		c-0.2,0.4-0.4,0.7-0.7,0.9c-0.3,0.3-0.7,0.5-1.2,0.6s-1.1,0.2-1.7,0.2c-0.6,0-1.2-0.1-1.7-0.2s-1-0.3-1.4-0.6
		c-0.4-0.3-0.7-0.6-0.9-1c-0.2-0.4-0.4-0.9-0.4-1.5h1.1C110.5,579.3,110.8,579.8,111.3,580.2z"/>
	<path class="st3" d="M68.1,605.2c-0.6,0.3-1.3,0.5-2.1,0.5c-0.8,0-1.4-0.1-2-0.4c-0.6-0.3-1-0.7-1.4-1.2c-0.4-0.5-0.6-1.1-0.8-1.7
		c-0.2-0.6-0.3-1.3-0.3-2c0-1.8,0.4-3.1,1.2-4.1c0.8-1,2-1.5,3.4-1.5c0.6,0,1.1,0.1,1.7,0.4c0.6,0.2,1.1,0.7,1.6,1.4v-5.4h1.2v14.3
		h-1.2v-1.5C69.1,604.4,68.6,604.8,68.1,605.2z M69.5,598.6c-0.1-0.3-0.1-0.6-0.2-0.9c-0.1-0.3-0.3-0.5-0.4-0.7
		c-0.2-0.2-0.4-0.4-0.6-0.6c-0.3-0.2-0.6-0.4-1-0.5c-0.3-0.1-0.7-0.2-1.1-0.2c-0.5,0-0.9,0.1-1.4,0.3c-0.4,0.2-0.8,0.4-1.1,0.8
		c-0.3,0.4-0.5,0.8-0.7,1.4c-0.2,0.6-0.3,1.3-0.3,2.1c0,0.8,0.1,1.5,0.3,2.1s0.4,1,0.8,1.4s0.6,0.6,1,0.7c0.4,0.1,0.8,0.2,1.1,0.2
		c0.4,0,0.8,0,1.1-0.1s0.7-0.3,1-0.5c0.5-0.3,0.8-0.8,1.1-1.3c0.3-0.5,0.4-1.2,0.4-2v-0.9C69.6,599.3,69.6,598.9,69.5,598.6z"/>
	<path class="st3" d="M80.8,604.8c-0.7,0.6-1.7,0.8-3,0.8c-1.5,0-2.6-0.5-3.5-1.4s-1.2-2.3-1.2-3.9c0-0.9,0.1-1.7,0.4-2.4
		c0.2-0.7,0.6-1.3,1-1.8c0.4-0.5,0.9-0.8,1.5-1.1c0.6-0.2,1.2-0.4,1.9-0.4c0.8,0,1.5,0.1,2,0.4c0.6,0.3,1,0.6,1.4,1.1s0.6,1,0.8,1.6
		c0.2,0.6,0.2,1.3,0.2,2v0.7h-7.9c0,0.6,0.1,1.1,0.2,1.6c0.1,0.5,0.4,1,0.7,1.3c0.3,0.4,0.7,0.7,1.1,0.9c0.4,0.2,0.9,0.3,1.5,0.3
		c0.5,0,1,0,1.3-0.1s0.7-0.2,0.9-0.4c0.2-0.2,0.4-0.4,0.6-0.7c0.1-0.2,0.3-0.5,0.3-0.8h1.1C82,603.5,81.5,604.3,80.8,604.8z
		 M80.9,597.9c-0.1-0.5-0.3-0.9-0.6-1.2c-0.3-0.3-0.6-0.6-1-0.8c-0.4-0.2-0.9-0.3-1.5-0.3c-1,0-1.8,0.3-2.4,0.9
		c-0.6,0.6-1,1.6-1.1,2.9h6.7C81.1,598.9,81,598.4,80.9,597.9z"/>
	<path class="st3" d="M85.9,591.1v14.3h-1.2v-14.3H85.9z"/>
	<path class="st3" d="M95.4,603.9c0.7,0.5,1.8,0.7,3.2,0.7c0.7,0,1.3-0.1,1.8-0.2c0.5-0.2,0.9-0.4,1.1-0.6c0.3-0.3,0.5-0.6,0.6-0.9
		s0.2-0.7,0.2-1.1c0-0.3,0-0.7-0.1-1c-0.1-0.3-0.2-0.6-0.4-0.8s-0.5-0.5-0.9-0.6c-0.4-0.2-0.9-0.3-1.5-0.4l-1.8-0.3
		c-0.7-0.1-1.3-0.3-1.9-0.5c-0.5-0.2-1-0.4-1.4-0.7c-0.4-0.3-0.7-0.7-0.9-1.1c-0.2-0.5-0.3-1-0.3-1.7s0.1-1.2,0.4-1.7
		c0.3-0.5,0.6-0.9,1.1-1.2s1-0.5,1.6-0.7s1.3-0.2,2-0.2c0.9,0,1.6,0.1,2.2,0.3s1.1,0.5,1.5,0.8c0.4,0.3,0.7,0.7,0.9,1.1
		s0.4,0.8,0.5,1.2l-1.1,0.3c-0.1-0.4-0.3-0.8-0.5-1.1s-0.4-0.6-0.7-0.8c-0.3-0.2-0.7-0.4-1.1-0.5c-0.5-0.1-1-0.2-1.7-0.2
		c-0.7,0-1.3,0.1-1.8,0.2c-0.5,0.1-0.9,0.3-1.2,0.6c-0.3,0.2-0.5,0.5-0.7,0.9c-0.1,0.3-0.2,0.7-0.2,1.1c0,0.4,0,0.7,0.1,1
		s0.3,0.5,0.5,0.8s0.5,0.4,0.9,0.5c0.4,0.1,0.9,0.3,1.4,0.4l2,0.4c0.7,0.1,1.3,0.3,1.9,0.5s1,0.5,1.3,0.8c0.3,0.3,0.6,0.7,0.8,1.2
		c0.2,0.5,0.3,1,0.3,1.6c0,0.5-0.1,1.1-0.3,1.6s-0.5,0.9-1,1.3c-0.4,0.4-0.9,0.6-1.6,0.9c-0.6,0.2-1.4,0.3-2.2,0.3
		c-0.8,0-1.5-0.1-2.2-0.2c-0.7-0.1-1.2-0.4-1.7-0.7c-0.5-0.3-0.9-0.8-1.2-1.3c-0.3-0.5-0.5-1.2-0.6-1.9H94
		C94.2,602.7,94.7,603.4,95.4,603.9z"/>
	<path class="st3" d="M107.2,595v6.5c0,1.1,0.2,1.9,0.5,2.3c0.3,0.5,0.9,0.7,1.8,0.7c0.4,0,0.8-0.1,1.2-0.2c0.4-0.2,0.8-0.4,1.2-0.7
		c0.4-0.3,0.7-0.7,0.9-1.1c0.2-0.4,0.3-0.9,0.3-1.5v-6h1.2v10.3h-1.2v-1.7c-1.1,1.3-2.3,2-3.7,2c-1.2,0-2-0.3-2.5-1
		s-0.8-1.6-0.8-2.8V595H107.2z"/>
	<path class="st3" d="M118.2,595v1.7c0.4-0.6,0.9-1,1.4-1.4c0.5-0.3,1.1-0.5,1.7-0.5c0.1,0,0.3,0,0.4,0c0.1,0,0.3,0,0.4,0L122,596
		c-0.2,0-0.5-0.1-0.7-0.1c-0.3,0-0.7,0.1-1.1,0.2c-0.4,0.1-0.7,0.3-1,0.6c-0.3,0.3-0.6,0.6-0.8,1c-0.2,0.4-0.3,0.8-0.3,1.4v6.2h-1.2
		V595H118.2z"/>
	<path class="st3" d="M139.9,598.3v5.5c-0.3,0.3-0.7,0.6-1.2,0.9s-0.9,0.4-1.3,0.6s-0.9,0.3-1.4,0.3s-0.9,0.1-1.4,0.1
		c-1,0-1.9-0.2-2.7-0.5c-0.8-0.3-1.5-0.8-2.1-1.4s-1-1.4-1.3-2.3c-0.3-0.9-0.5-2-0.5-3.2c0-1.2,0.2-2.3,0.5-3.3
		c0.3-0.9,0.8-1.7,1.3-2.4c0.6-0.6,1.2-1.1,2-1.4c0.8-0.3,1.6-0.5,2.5-0.5c1.5,0,2.7,0.3,3.5,1c0.8,0.7,1.4,1.6,1.7,2.9l-1.1,0.3
		c-0.1-0.5-0.3-0.9-0.5-1.3c-0.2-0.4-0.5-0.7-0.8-1s-0.7-0.5-1.2-0.6c-0.5-0.2-1-0.2-1.6-0.2c-0.8,0-1.6,0.2-2.2,0.5
		c-0.6,0.3-1.2,0.8-1.6,1.3c-0.4,0.6-0.8,1.3-1,2c-0.2,0.8-0.3,1.6-0.3,2.6c0,0.9,0.1,1.8,0.3,2.6c0.2,0.8,0.5,1.5,1,2
		c0.4,0.6,1,1,1.7,1.3s1.4,0.5,2.3,0.5c0.8,0,1.5-0.1,2.2-0.3c0.7-0.2,1.4-0.5,1.9-1v-4h-4.1v-1.1H139.9z"/>
	<path class="st3" d="M143.7,591.1v14.3h-1.2v-14.3H143.7z"/>
	<path class="st3" d="M149,605.3c-0.6-0.3-1.1-0.6-1.5-1.1c-0.4-0.5-0.7-1-0.9-1.7c-0.2-0.7-0.3-1.4-0.3-2.2c0-0.8,0.1-1.6,0.4-2.3
		c0.2-0.7,0.6-1.3,1-1.7c0.4-0.5,0.9-0.9,1.5-1.1c0.6-0.3,1.3-0.4,2-0.4c0.7,0,1.4,0.1,2,0.4c0.6,0.3,1.1,0.6,1.5,1.1
		c0.4,0.5,0.7,1,1,1.7c0.2,0.7,0.3,1.4,0.3,2.2c0,0.8-0.1,1.6-0.3,2.3c-0.2,0.7-0.6,1.3-1,1.8c-0.4,0.5-0.9,0.9-1.5,1.1
		c-0.6,0.3-1.3,0.4-2.1,0.4S149.6,605.5,149,605.3z M152.8,604.3c0.5-0.2,0.8-0.6,1.1-1c0.3-0.4,0.5-0.9,0.6-1.4
		c0.1-0.5,0.2-1.1,0.2-1.8c0-0.6-0.1-1.2-0.2-1.7c-0.1-0.5-0.3-1-0.6-1.4c-0.3-0.4-0.7-0.7-1.1-1c-0.5-0.2-1-0.4-1.7-0.4
		c-0.6,0-1.2,0.1-1.7,0.4s-0.8,0.6-1.1,1c-0.3,0.4-0.5,0.9-0.6,1.4s-0.2,1.1-0.2,1.8s0.1,1.2,0.2,1.8c0.1,0.5,0.3,1,0.6,1.4
		c0.3,0.4,0.7,0.7,1.1,1s1,0.4,1.7,0.4C151.8,604.7,152.3,604.5,152.8,604.3z"/>
	<path class="st3" d="M159.6,591.1v5.5c0.5-0.6,1-1,1.5-1.4c0.6-0.3,1.2-0.5,2-0.5c0.7,0,1.4,0.1,2,0.4c0.6,0.3,1,0.7,1.4,1.1
		s0.6,1,0.8,1.7c0.2,0.7,0.3,1.4,0.3,2.1c0,0.9-0.1,1.7-0.3,2.4c-0.2,0.7-0.5,1.3-0.9,1.8c-0.4,0.5-0.9,0.8-1.5,1.1
		s-1.2,0.4-1.9,0.4c-0.6,0-1.2-0.1-1.8-0.4s-1.1-0.7-1.6-1.3v1.4h-1.2v-14.3H159.6z M159.6,601.8c0,0.3,0.1,0.6,0.2,0.9
		s0.3,0.5,0.4,0.7c0.2,0.2,0.4,0.4,0.6,0.6c0.3,0.2,0.6,0.4,0.9,0.5c0.3,0.1,0.7,0.2,1.1,0.2c0.5,0,0.9-0.1,1.4-0.3
		c0.4-0.2,0.8-0.4,1.1-0.8c0.3-0.4,0.5-0.8,0.7-1.4s0.3-1.3,0.3-2.1c0-0.8-0.1-1.5-0.3-2.1c-0.2-0.6-0.4-1-0.8-1.4
		c-0.3-0.3-0.7-0.6-1-0.7s-0.8-0.2-1.1-0.2c-0.4,0-0.8,0-1.1,0.1s-0.7,0.3-1,0.5c-0.5,0.3-0.8,0.8-1.1,1.3c-0.3,0.5-0.4,1.2-0.4,2
		v0.9C159.6,601,159.6,601.4,159.6,601.8z"/>
	<path class="st3" d="M176,604.5c-0.2,0.2-0.5,0.4-0.8,0.5c-0.3,0.2-0.6,0.3-1,0.4s-0.8,0.1-1.2,0.1c-1.1,0-1.9-0.3-2.6-0.8
		c-0.7-0.5-1-1.3-1-2.3c0-0.7,0.1-1.3,0.4-1.7s0.7-0.8,1.2-1s1-0.4,1.7-0.5s1.3-0.2,1.9-0.2l2-0.1v-0.3c0-1-0.2-1.8-0.6-2.2
		s-1.1-0.7-2.1-0.7c-0.5,0-0.9,0-1.3,0.1c-0.3,0.1-0.6,0.2-0.9,0.4s-0.4,0.3-0.5,0.5s-0.2,0.4-0.3,0.7l-1.1-0.2
		c0.4-1.7,1.7-2.5,4-2.5c0.7,0,1.3,0.1,1.8,0.3c0.5,0.2,0.9,0.4,1.2,0.8c0.3,0.3,0.5,0.7,0.6,1.2c0.1,0.5,0.2,1,0.2,1.6v6.8h-1.2
		v-1.5C176.5,604.1,176.3,604.3,176,604.5z M174.7,599.9c-0.8,0-1.4,0.1-1.9,0.2c-0.5,0.1-0.9,0.3-1.3,0.5c-0.3,0.2-0.6,0.5-0.7,0.8
		c-0.1,0.3-0.2,0.7-0.2,1.1c0,0.6,0.2,1.1,0.5,1.5c0.4,0.4,1,0.6,1.9,0.6c0.4,0,0.9,0,1.3-0.1c0.4-0.1,0.8-0.3,1.1-0.5
		c0.2-0.2,0.4-0.3,0.6-0.5s0.3-0.3,0.4-0.5c0.1-0.2,0.2-0.4,0.2-0.6c0-0.2,0.1-0.5,0.1-0.8v-1.5L174.7,599.9z"/>
	<path class="st3" d="M181.8,591.1v14.3h-1.2v-14.3H181.8z"/>
</g>
</svg>
