<?xml version="1.0" encoding="utf-8"?>
<!-- Generator: Adobe Illustrator 21.0.0, SVG Export Plug-In . SVG Version: 6.00 Build 0)  -->
<svg version="1.1" id="Capa_1" xmlns="http://www.w3.org/2000/svg" xmlns:xlink="http://www.w3.org/1999/xlink" x="0px" y="0px"
	 viewBox="0 0 1280 1080" style="enable-background:new 0 0 1280 1080;" xml:space="preserve">
<style type="text/css">
	.st0{fill:none;}
	.st1{fill:none;stroke:#FFFFFF;stroke-width:4;stroke-miterlimit:10;}
	.st2{fill:#FFFFFF;}
	.st3{fill:none;stroke:#FF0000;stroke-width:4;stroke-miterlimit:10;}
	.st4{fill:#FF0000;}
	.st5{fill:none;stroke:#FFFFFF;stroke-width:2;stroke-miterlimit:10;}
	.st6{opacity:0.5;fill:none;stroke:#FFFFFF;stroke-width:2;stroke-miterlimit:10;enable-background:new    ;}
	.st7{enable-background:new    ;}
	.st8{opacity:0.5;enable-background:new    ;}
</style>
<g id="Capa_1_1_">
</g>
<rect id="SVGID_3_" class="st0" width="1285" height="1080"/>
<g>
	<g>
		<g>
			<path class="st1" d="M1103.6,140.6C1035.9,55,931.1,0,813.4,0C609.3,0,443.7,165.5,443.7,369.7c0,56.9,12.9,110.8,35.8,158.9"/>
			<g>
				<path class="st2" d="M1101.7,107.2c-1.1,0.1-1.9,1.1-1.8,2.2l3.1,30.4l-28.9-10c-1-0.4-2.2,0.2-2.5,1.2c-0.4,1,0.2,2.2,1.2,2.5
					l31.9,11c0.6,0.2,1.4,0.1,1.9-0.3s0.8-1.1,0.7-1.8l-3.5-33.6c0-0.4-0.2-0.7-0.4-1C1103,107.5,1102.4,107.2,1101.7,107.2z"/>
			</g>
		</g>
	</g>
	<g>
		<g>
			<path class="st3" d="M662.2,707.2c46.2,20.7,97.3,32.2,151.2,32.2c204.2,0,369.7-165.5,369.7-369.7c0-84.8-28.6-163-76.6-225.3"
				/>
			<g>
				<path class="st4" d="M679.7,735.6c0.9-0.6,1.2-1.9,0.5-2.8L663,707.5l30.2-4.8c1.1-0.2,1.8-1.2,1.7-2.3
					c-0.2-1.1-1.2-1.8-2.3-1.7l-33.3,5.3c-0.7,0.1-1.2,0.6-1.5,1.2c-0.3,0.6-0.2,1.4,0.2,1.9l18.9,27.9c0.2,0.3,0.5,0.6,0.9,0.7
					C678.4,736,679.2,736,679.7,735.6z"/>
			</g>
		</g>
	</g>
	<g>
		<g>
			<path class="st1" d="M481.7,533c37.3,75.6,99.6,136.6,176.2,172.2"/>
			<g>
				<path class="st2" d="M476.9,566c1.1,0.1,2.1-0.7,2.2-1.8l3.1-30.4l26.3,15.6c1,0.6,2.2,0.3,2.7-0.7c0.6-0.9,0.2-2.2-0.7-2.7
					l-29-17.3c-0.6-0.3-1.3-0.4-1.9-0.1s-1,0.9-1.1,1.6l-3.4,33.6c0,0.4,0,0.8,0.2,1.1C475.6,565.5,476.2,565.9,476.9,566z"/>
			</g>
		</g>
	</g>
	<line class="st5" x1="49.7" y1="369.7" x2="1251.7" y2="369.7"/>
	<line class="st6" x1="49.7" y1="606.7" x2="1251.7" y2="606.7"/>
	<g class="st7">
		<path class="st2" d="M55,322c0.9,0,1.7,0.1,2.3,0.2c0.6,0.2,1.1,0.4,1.4,0.7s0.5,0.6,0.7,1c0.1,0.4,0.2,0.8,0.2,1.2
			c0,0.5-0.1,0.8-0.2,1.3c-0.2,0.4-0.4,0.8-0.7,1.1c-0.4,0.3-0.8,0.5-1.4,0.8c-0.6,0.2-1.3,0.2-2.3,0.2h-3v4.5h-1.1v-11L55,322
			L55,322z M56.7,327.5c0.4-0.2,0.8-0.3,1.1-0.5c0.3-0.2,0.4-0.5,0.5-0.8s0.2-0.7,0.2-1.1s-0.1-0.8-0.2-1.1
			c-0.1-0.3-0.3-0.5-0.5-0.8c-0.3-0.2-0.6-0.4-1.1-0.5s-1-0.2-1.7-0.2h-3v4.9h3C55.7,327.7,56.3,327.7,56.7,327.5z"/>
		<path class="st2" d="M66.4,332.3c-0.2,0.2-0.4,0.3-0.7,0.4c-0.3,0.1-0.5,0.2-0.9,0.3c-0.4,0.1-0.7,0.1-1.1,0.1
			c-1,0-1.7-0.2-2.3-0.6s-0.9-1-0.9-1.8c0-0.5,0.1-1,0.4-1.3c0.3-0.3,0.6-0.6,1.1-0.8c0.4-0.2,0.9-0.3,1.5-0.4
			c0.5-0.1,1.2-0.2,1.7-0.2l1.8-0.1v-0.2c0-0.8-0.2-1.4-0.5-1.7c-0.4-0.4-1-0.5-1.9-0.5c-0.4,0-0.8,0-1.2,0.1
			c-0.3,0.1-0.5,0.2-0.8,0.3c-0.3,0.2-0.4,0.2-0.4,0.4c-0.1,0.2-0.2,0.3-0.3,0.5l-1-0.2c0.4-1.3,1.5-1.9,3.5-1.9
			c0.6,0,1.2,0.1,1.6,0.2c0.4,0.2,0.8,0.3,1.1,0.6c0.3,0.2,0.4,0.5,0.5,0.9c0.1,0.4,0.2,0.8,0.2,1.2v5.2h-1.1v-1.2
			C66.7,332,66.6,332.2,66.4,332.3z M65.2,328.8c-0.7,0-1.2,0.1-1.7,0.2c-0.4,0.1-0.8,0.2-1.2,0.4c-0.3,0.2-0.5,0.4-0.6,0.6
			s-0.2,0.5-0.2,0.8c0,0.5,0.2,0.8,0.4,1.2c0.4,0.3,0.9,0.5,1.7,0.5c0.4,0,0.8-0.1,1.2-0.2c0.4-0.1,0.7-0.2,1-0.4
			c0.2-0.2,0.4-0.2,0.5-0.4c0.2-0.2,0.3-0.2,0.4-0.4c0.1-0.2,0.2-0.3,0.2-0.5c0-0.2,0.1-0.4,0.1-0.6v-1.2H65.2z"/>
		<path class="st2" d="M70.1,322.2v1.3H69v-1.3H70.1z M71.5,325.1v7.9h-1.1v-7.9H71.5z M73,322.2v1.3h-1.2v-1.3H73z"/>
		<path class="st2" d="M75.5,332.1c0.4,0.2,1.2,0.4,2,0.4s1.5-0.2,1.9-0.5c0.4-0.3,0.5-0.6,0.5-1.1c0-0.2,0-0.4-0.1-0.5
			c-0.1-0.2-0.2-0.3-0.3-0.5c-0.2-0.2-0.4-0.2-0.6-0.3c-0.3-0.1-0.6-0.2-1-0.2l-1.2-0.2c-0.4-0.1-0.9-0.2-1.3-0.2
			c-0.4-0.1-0.7-0.2-1-0.4c-0.3-0.2-0.4-0.4-0.6-0.6c-0.2-0.2-0.2-0.5-0.2-0.9s0.1-0.7,0.3-0.9c0.2-0.3,0.4-0.5,0.7-0.7
			s0.7-0.3,1.1-0.5c0.4-0.1,0.9-0.2,1.3-0.2c0.6,0,1.2,0.1,1.6,0.2c0.4,0.1,0.8,0.2,1.1,0.5c0.3,0.2,0.4,0.4,0.6,0.6
			c0.2,0.2,0.3,0.5,0.4,0.8l-1,0.2c-0.1-0.2-0.2-0.5-0.4-0.6c-0.1-0.2-0.3-0.3-0.4-0.5c-0.2-0.2-0.4-0.2-0.7-0.2
			c-0.3-0.1-0.6-0.1-1.1-0.1c-0.4,0-0.9,0-1.2,0.2c-0.4,0.1-0.5,0.2-0.8,0.3c-0.2,0.2-0.4,0.3-0.4,0.5c-0.1,0.2-0.1,0.4-0.1,0.5
			c0,0.2,0,0.4,0.1,0.5c0.1,0.2,0.2,0.3,0.3,0.4s0.4,0.2,0.6,0.3c0.3,0.1,0.6,0.2,1,0.2l1.4,0.2c1,0.2,1.7,0.4,2.1,0.8
			c0.4,0.4,0.7,0.9,0.7,1.6c0,0.3-0.1,0.6-0.3,0.8c-0.2,0.3-0.4,0.5-0.6,0.7c-0.3,0.2-0.6,0.4-1.1,0.5c-0.4,0.1-1,0.2-1.5,0.2
			s-1.1-0.1-1.5-0.2c-0.4-0.1-0.9-0.2-1.2-0.5c-0.4-0.2-0.6-0.5-0.8-0.8c-0.2-0.3-0.4-0.7-0.4-1.2h1C74.7,331.4,75,331.8,75.5,332.1
			z"/>
		<path class="st2" d="M85.3,332.9c-0.5-0.2-1-0.5-1.3-0.8s-0.6-0.8-0.8-1.3c-0.2-0.5-0.3-1.1-0.3-1.7s0.1-1.2,0.4-1.8
			c0.2-0.5,0.5-1,0.9-1.3c0.4-0.4,0.8-0.6,1.3-0.8s1.2-0.3,1.8-0.3c0.6,0,1.2,0.1,1.8,0.3s1,0.5,1.3,0.8c0.4,0.4,0.6,0.8,0.9,1.3
			c0.2,0.5,0.3,1.1,0.3,1.7s-0.1,1.2-0.3,1.8c-0.2,0.5-0.5,1-0.9,1.4c-0.4,0.4-0.8,0.7-1.3,0.8c-0.5,0.2-1.2,0.3-1.9,0.3
			S85.8,333.1,85.3,332.9z M88.6,332.2c0.4-0.2,0.7-0.4,1-0.8c0.3-0.3,0.4-0.7,0.5-1.1s0.2-0.8,0.2-1.4c0-0.5-0.1-0.9-0.2-1.3
			s-0.3-0.8-0.5-1.1c-0.3-0.3-0.6-0.5-1-0.8c-0.4-0.2-0.9-0.2-1.5-0.2c-0.5,0-1.1,0.1-1.5,0.2c-0.4,0.2-0.7,0.5-1,0.8
			c-0.3,0.3-0.4,0.7-0.5,1.1c-0.1,0.4-0.2,0.8-0.2,1.4c0,0.5,0.1,0.9,0.2,1.4c0.1,0.5,0.3,0.8,0.5,1.1c0.3,0.3,0.6,0.5,1,0.8
			c0.4,0.2,0.9,0.3,1.5,0.3C87.7,332.5,88.2,332.4,88.6,332.2z"/>
		<path class="st2" d="M95.1,332.1c0.4,0.2,1.2,0.4,2,0.4s1.5-0.2,1.9-0.5c0.4-0.3,0.5-0.6,0.5-1.1c0-0.2,0-0.4-0.1-0.5
			c-0.1-0.2-0.2-0.3-0.3-0.5c-0.2-0.2-0.4-0.2-0.6-0.3c-0.3-0.1-0.6-0.2-1-0.2l-1.2-0.2c-0.4-0.1-0.9-0.2-1.3-0.2
			c-0.4-0.1-0.7-0.2-1-0.4c-0.3-0.2-0.4-0.4-0.6-0.6c-0.2-0.2-0.2-0.5-0.2-0.9s0.1-0.7,0.3-0.9c0.2-0.3,0.4-0.5,0.7-0.7
			s0.7-0.3,1.1-0.5c0.4-0.1,0.9-0.2,1.3-0.2c0.6,0,1.2,0.1,1.6,0.2c0.4,0.1,0.8,0.2,1.1,0.5c0.3,0.2,0.4,0.4,0.6,0.6
			c0.2,0.2,0.3,0.5,0.4,0.8l-1,0.2c-0.1-0.2-0.2-0.5-0.4-0.6c-0.1-0.2-0.3-0.3-0.4-0.5c-0.2-0.2-0.4-0.2-0.7-0.2
			c-0.3-0.1-0.6-0.1-1.1-0.1c-0.4,0-0.9,0-1.2,0.2c-0.4,0.1-0.5,0.2-0.8,0.3c-0.2,0.2-0.4,0.3-0.4,0.5c-0.1,0.2-0.1,0.4-0.1,0.5
			c0,0.2,0,0.4,0.1,0.5c0.1,0.2,0.2,0.3,0.3,0.4s0.4,0.2,0.6,0.3c0.3,0.1,0.6,0.2,1,0.2l1.4,0.2c1,0.2,1.7,0.4,2.1,0.8
			c0.4,0.4,0.7,0.9,0.7,1.6c0,0.3-0.1,0.6-0.3,0.8c-0.2,0.3-0.4,0.5-0.6,0.7c-0.3,0.2-0.6,0.4-1.1,0.5c-0.4,0.1-1,0.2-1.5,0.2
			s-1.1-0.1-1.5-0.2c-0.4-0.1-0.9-0.2-1.2-0.5c-0.4-0.2-0.6-0.5-0.8-0.8c-0.2-0.3-0.4-0.7-0.4-1.2h1
			C94.3,331.4,94.6,331.8,95.1,332.1z"/>
		<path class="st2" d="M107.8,322v1.3h-1.2V322H107.8z M107.7,325.1v7.9h-1.1v-7.9H107.7z"/>
		<path class="st2" d="M111.4,325.1v1.3c0.5-0.5,1.1-0.9,1.6-1.2c0.5-0.2,1.2-0.4,1.8-0.4c1.1,0,1.8,0.2,2.3,0.8
			c0.5,0.5,0.7,1.2,0.7,2.2v5.3h-1.1v-5c0-0.8-0.2-1.5-0.5-1.8c-0.4-0.3-0.9-0.5-1.6-0.5c-0.4,0-0.7,0.1-1.2,0.2
			c-0.4,0.2-0.8,0.3-1.1,0.5c-0.4,0.2-0.6,0.5-0.8,0.8s-0.3,0.7-0.3,1.2v4.6h-1.1v-7.9L111.4,325.1L111.4,325.1z"/>
		<path class="st2" d="M125.6,332.8c-0.5,0.2-1.2,0.4-1.9,0.4c-0.7,0-1.2-0.1-1.8-0.3s-0.9-0.5-1.2-0.9c-0.4-0.4-0.5-0.8-0.7-1.3
			c-0.2-0.5-0.3-1-0.3-1.5c0-1.4,0.4-2.4,1.1-3.1s1.8-1.2,3-1.2c0.5,0,1,0.1,1.5,0.3c0.5,0.2,1,0.5,1.4,1.1v-4.1h1.1v11h-1.1v-1.2
			C126.6,332.2,126.1,332.6,125.6,332.8z M126.9,327.8c-0.1-0.2-0.1-0.5-0.2-0.7c-0.1-0.2-0.3-0.4-0.4-0.5c-0.2-0.2-0.4-0.3-0.5-0.5
			c-0.3-0.2-0.5-0.3-0.9-0.4s-0.6-0.2-1-0.2c-0.4,0-0.8,0.1-1.2,0.2c-0.4,0.2-0.7,0.3-1,0.6s-0.4,0.6-0.6,1.1
			c-0.2,0.5-0.3,1-0.3,1.6c0,0.6,0.1,1.2,0.3,1.6s0.4,0.8,0.7,1.1c0.4,0.3,0.5,0.5,0.9,0.5c0.4,0.1,0.7,0.2,1,0.2c0.4,0,0.7,0,1-0.1
			s0.6-0.2,0.9-0.4c0.4-0.2,0.7-0.6,1-1s0.4-0.9,0.4-1.5v-0.7C127,328.4,127,328,126.9,327.8z"/>
		<path class="st2" d="M131.5,325.1v5c0,0.8,0.2,1.5,0.4,1.8c0.3,0.4,0.8,0.5,1.6,0.5c0.4,0,0.7-0.1,1.1-0.2
			c0.4-0.2,0.7-0.3,1.1-0.5c0.4-0.2,0.6-0.5,0.8-0.8c0.2-0.3,0.3-0.7,0.3-1.2v-4.6h1.1v7.9h-1.1v-1.3c-1,1-2,1.5-3.3,1.5
			c-1.1,0-1.8-0.2-2.2-0.8c-0.4-0.5-0.7-1.2-0.7-2.2V325L131.5,325.1L131.5,325.1z"/>
		<path class="st2" d="M141.6,332.1c0.4,0.2,1.2,0.4,2,0.4s1.5-0.2,1.9-0.5c0.4-0.3,0.5-0.6,0.5-1.1c0-0.2,0-0.4-0.1-0.5
			c-0.1-0.2-0.2-0.3-0.3-0.5c-0.2-0.2-0.4-0.2-0.6-0.3s-0.6-0.2-1-0.2l-1.2-0.2c-0.4-0.1-0.9-0.2-1.3-0.2c-0.4-0.1-0.7-0.2-1-0.4
			s-0.4-0.4-0.6-0.6c-0.2-0.2-0.2-0.5-0.2-0.9s0.1-0.7,0.3-0.9c0.2-0.3,0.4-0.5,0.7-0.7s0.7-0.3,1.1-0.5c0.4-0.1,0.9-0.2,1.3-0.2
			c0.6,0,1.2,0.1,1.6,0.2c0.4,0.1,0.8,0.2,1.1,0.5c0.3,0.2,0.4,0.4,0.6,0.6c0.2,0.2,0.3,0.5,0.4,0.8l-1,0.2
			c-0.1-0.2-0.2-0.5-0.4-0.6c-0.1-0.2-0.3-0.3-0.4-0.5c-0.2-0.2-0.4-0.2-0.7-0.2c-0.3-0.1-0.6-0.1-1.1-0.1c-0.4,0-0.9,0-1.2,0.2
			c-0.4,0.1-0.5,0.2-0.8,0.3c-0.2,0.2-0.4,0.3-0.4,0.5c-0.1,0.2-0.1,0.4-0.1,0.5c0,0.2,0,0.4,0.1,0.5c0.1,0.2,0.2,0.3,0.3,0.4
			c0.1,0.1,0.4,0.2,0.6,0.3s0.6,0.2,1,0.2l1.4,0.2c1,0.2,1.7,0.4,2.1,0.8c0.4,0.4,0.7,0.9,0.7,1.6c0,0.3-0.1,0.6-0.3,0.8
			c-0.2,0.3-0.4,0.5-0.6,0.7c-0.3,0.2-0.6,0.4-1.1,0.5c-0.4,0.1-1,0.2-1.5,0.2c-0.5,0-1.1-0.1-1.5-0.2c-0.4-0.1-0.9-0.2-1.2-0.5
			c-0.4-0.2-0.6-0.5-0.8-0.8c-0.2-0.3-0.4-0.7-0.4-1.2h1C140.8,331.4,141.1,331.8,141.6,332.1z"/>
		<path class="st2" d="M148.4,325.8V325h1.4v-2.2h1.1v2.2h2.6v0.8h-2.7v5.1c0,0.4,0.1,0.7,0.3,1s0.5,0.4,1,0.4c0.3,0,0.5,0,0.8-0.1
			c0.2-0.1,0.4-0.1,0.5-0.2l0.2,0.7c-0.2,0.1-0.4,0.2-0.6,0.2s-0.6,0.1-1,0.1c-0.5,0-0.9-0.1-1.2-0.2c-0.4-0.2-0.5-0.4-0.7-0.6
			s-0.3-0.5-0.3-0.8c0-0.3-0.1-0.7-0.1-1v-4.6L148.4,325.8L148.4,325.8z"/>
		<path class="st2" d="M156.2,325.1v1.3c0.4-0.5,0.8-0.8,1.2-1.1c0.4-0.2,1-0.4,1.5-0.4c0.1,0,0.3,0,0.4,0s0.3,0,0.4,0l-0.1,0.8
			c-0.2,0-0.4-0.1-0.6-0.1c-0.3,0-0.6,0.1-1,0.2c-0.4,0.1-0.6,0.2-0.9,0.5c-0.3,0.2-0.5,0.5-0.7,0.8c-0.2,0.3-0.3,0.6-0.3,1.1v4.8
			H155v-7.9L156.2,325.1L156.2,325.1z"/>
		<path class="st2" d="M162.2,322v1.3H161V322H162.2z M162.2,325.1v7.9h-1.1v-7.9H162.2z"/>
		<path class="st2" d="M170,332.3c-0.2,0.2-0.4,0.3-0.7,0.4c-0.3,0.1-0.5,0.2-0.9,0.3c-0.4,0.1-0.7,0.1-1.1,0.1
			c-1,0-1.7-0.2-2.3-0.6c-0.6-0.4-0.9-1-0.9-1.8c0-0.5,0.1-1,0.4-1.3c0.3-0.3,0.6-0.6,1.1-0.8c0.4-0.2,0.9-0.3,1.5-0.4
			c0.5-0.1,1.2-0.2,1.7-0.2l1.8-0.1v-0.2c0-0.8-0.2-1.4-0.5-1.7c-0.4-0.4-1-0.5-1.9-0.5c-0.4,0-0.8,0-1.2,0.1
			c-0.3,0.1-0.5,0.2-0.8,0.3c-0.3,0.2-0.4,0.2-0.4,0.4c-0.1,0.2-0.2,0.3-0.3,0.5l-1-0.2c0.4-1.3,1.5-1.9,3.5-1.9
			c0.6,0,1.2,0.1,1.6,0.2c0.4,0.2,0.8,0.3,1.1,0.6c0.3,0.2,0.4,0.5,0.5,0.9c0.1,0.4,0.2,0.8,0.2,1.2v5.2h-1.1v-1.2
			C170.3,332,170.1,332.2,170,332.3z M168.8,328.8c-0.7,0-1.2,0.1-1.7,0.2s-0.8,0.2-1.2,0.4c-0.3,0.2-0.5,0.4-0.6,0.6
			c-0.1,0.2-0.2,0.5-0.2,0.8c0,0.5,0.2,0.8,0.4,1.2c0.4,0.3,0.9,0.5,1.7,0.5c0.4,0,0.8-0.1,1.2-0.2c0.4-0.1,0.7-0.2,1-0.4
			c0.2-0.2,0.4-0.2,0.5-0.4c0.2-0.2,0.3-0.2,0.4-0.4c0.1-0.2,0.2-0.3,0.2-0.5c0-0.2,0.1-0.4,0.1-0.6v-1.2H168.8z"/>
		<path class="st2" d="M175,322v11h-1.1v-11H175z"/>
		<path class="st2" d="M178.7,322v1.3h-1.2V322H178.7z M178.6,325.1v7.9h-1.1v-7.9H178.6z"/>
		<path class="st2" d="M186.2,325.9h-5.7v-0.8h6.9v0.8l-5.8,6.4h6.1l-0.2,0.8h-7.2v-0.8L186.2,325.9z"/>
		<path class="st2" d="M194.6,332.3c-0.2,0.2-0.4,0.3-0.7,0.4c-0.3,0.1-0.5,0.2-0.9,0.3c-0.4,0.1-0.7,0.1-1.1,0.1
			c-1,0-1.7-0.2-2.3-0.6c-0.6-0.4-0.9-1-0.9-1.8c0-0.5,0.1-1,0.4-1.3c0.3-0.3,0.6-0.6,1.1-0.8c0.4-0.2,0.9-0.3,1.5-0.4
			c0.5-0.1,1.2-0.2,1.7-0.2l1.8-0.1v-0.2c0-0.8-0.2-1.4-0.5-1.7c-0.4-0.4-1-0.5-1.9-0.5c-0.4,0-0.8,0-1.2,0.1
			c-0.3,0.1-0.5,0.2-0.8,0.3c-0.3,0.2-0.4,0.2-0.4,0.4c-0.1,0.2-0.2,0.3-0.3,0.5l-1-0.2c0.4-1.3,1.5-1.9,3.5-1.9
			c0.6,0,1.2,0.1,1.6,0.2c0.4,0.2,0.8,0.3,1.1,0.6c0.3,0.2,0.4,0.5,0.5,0.9c0.1,0.4,0.2,0.8,0.2,1.2v5.2h-1.1v-1.2
			C195,332,194.8,332.2,194.6,332.3z M193.4,328.8c-0.7,0-1.2,0.1-1.7,0.2s-0.8,0.2-1.2,0.4c-0.3,0.2-0.5,0.4-0.6,0.6
			c-0.1,0.2-0.2,0.5-0.2,0.8c0,0.5,0.2,0.8,0.4,1.2c0.4,0.3,0.9,0.5,1.7,0.5c0.4,0,0.8-0.1,1.2-0.2c0.4-0.1,0.7-0.2,1-0.4
			c0.2-0.2,0.4-0.2,0.5-0.4c0.2-0.2,0.3-0.2,0.4-0.4c0.1-0.2,0.2-0.3,0.2-0.5c0-0.2,0.1-0.4,0.1-0.6v-1.2H193.4z"/>
		<path class="st2" d="M197.8,325.8V325h1.4v-2.2h1.1v2.2h2.6v0.8h-2.6v5.1c0,0.4,0.1,0.7,0.3,1c0.2,0.3,0.5,0.4,1,0.4
			c0.3,0,0.5,0,0.8-0.1c0.2-0.1,0.4-0.1,0.5-0.2l0.2,0.7c-0.2,0.1-0.4,0.2-0.6,0.2s-0.6,0.1-1,0.1c-0.5,0-0.9-0.1-1.2-0.2
			c-0.4-0.2-0.5-0.4-0.7-0.6c-0.2-0.2-0.3-0.5-0.3-0.8c0-0.3-0.1-0.7-0.1-1v-4.6L197.8,325.8L197.8,325.8z"/>
		<path class="st2" d="M205.9,332.1c0.4,0.2,1.2,0.4,2,0.4c0.9,0,1.5-0.2,1.9-0.5c0.4-0.3,0.5-0.6,0.5-1.1c0-0.2,0-0.4-0.1-0.5
			s-0.2-0.3-0.3-0.5c-0.2-0.2-0.4-0.2-0.6-0.3s-0.6-0.2-1-0.2l-1.2-0.2c-0.4-0.1-0.9-0.2-1.3-0.2c-0.4-0.1-0.7-0.2-1-0.4
			s-0.4-0.4-0.6-0.6c-0.2-0.2-0.2-0.5-0.2-0.9s0.1-0.7,0.3-0.9c0.2-0.3,0.4-0.5,0.7-0.7s0.7-0.3,1.1-0.5c0.4-0.1,0.9-0.2,1.3-0.2
			c0.6,0,1.2,0.1,1.6,0.2c0.4,0.1,0.8,0.2,1.1,0.5c0.3,0.2,0.4,0.4,0.6,0.6s0.3,0.5,0.4,0.8l-1,0.2c-0.1-0.2-0.2-0.5-0.4-0.6
			c-0.1-0.2-0.3-0.3-0.4-0.5c-0.2-0.2-0.4-0.2-0.7-0.2c-0.3-0.1-0.6-0.1-1.1-0.1s-0.9,0-1.2,0.2c-0.4,0.1-0.5,0.2-0.8,0.3
			c-0.2,0.2-0.4,0.3-0.4,0.5s-0.1,0.4-0.1,0.5c0,0.2,0,0.4,0.1,0.5s0.2,0.3,0.3,0.4s0.4,0.2,0.6,0.3s0.6,0.2,1,0.2l1.4,0.2
			c1,0.2,1.7,0.4,2.1,0.8c0.4,0.4,0.7,0.9,0.7,1.6c0,0.3-0.1,0.6-0.3,0.8c-0.2,0.3-0.4,0.5-0.6,0.7c-0.3,0.2-0.6,0.4-1.1,0.5
			c-0.4,0.1-1,0.2-1.5,0.2c-0.5,0-1.1-0.1-1.5-0.2c-0.4-0.1-0.9-0.2-1.2-0.5c-0.4-0.2-0.6-0.5-0.8-0.8c-0.2-0.3-0.4-0.7-0.4-1.2h1
			C205.1,331.4,205.5,331.8,205.9,332.1z"/>
	</g>
	<g class="st7">
		<path class="st2" d="M56.1,351.3c-0.5,0.2-1.2,0.4-1.9,0.4c-0.7,0-1.2-0.1-1.8-0.3c-0.5-0.2-0.9-0.5-1.2-0.9
			c-0.4-0.4-0.5-0.8-0.7-1.3c-0.2-0.5-0.3-1-0.3-1.5c0-1.4,0.4-2.4,1.1-3.1c0.7-0.8,1.8-1.2,3-1.2c0.5,0,1,0.1,1.5,0.3
			c0.5,0.2,1,0.5,1.4,1.1v-4.1h1.1v11h-1.1v-1.2C57.1,350.7,56.7,351,56.1,351.3z M57.5,346.2c-0.1-0.2-0.1-0.5-0.2-0.7
			c-0.1-0.2-0.3-0.4-0.4-0.5c-0.2-0.2-0.4-0.3-0.5-0.5c-0.3-0.2-0.5-0.3-0.9-0.4c-0.4-0.1-0.6-0.2-1-0.2c-0.4,0-0.8,0.1-1.2,0.2
			c-0.4,0.2-0.7,0.3-1,0.6s-0.4,0.6-0.6,1.1c-0.2,0.5-0.3,1-0.3,1.6s0.1,1.2,0.3,1.6c0.2,0.5,0.4,0.8,0.7,1.1s0.5,0.5,0.9,0.5
			c0.4,0.1,0.7,0.2,1,0.2c0.4,0,0.7,0,1-0.1s0.6-0.2,0.9-0.4c0.4-0.2,0.7-0.6,1-1s0.4-0.9,0.4-1.5v-0.7
			C57.5,346.8,57.5,346.4,57.5,346.2z"/>
		<path class="st2" d="M67.5,351c-0.6,0.5-1.5,0.6-2.7,0.6c-1.3,0-2.3-0.4-3.1-1.1c-0.7-0.8-1.1-1.8-1.1-3c0-0.7,0.1-1.3,0.4-1.8
			s0.5-1,0.9-1.4c0.4-0.4,0.8-0.6,1.3-0.8c0.5-0.2,1.1-0.3,1.7-0.3c0.7,0,1.3,0.1,1.8,0.3c0.5,0.2,0.9,0.5,1.2,0.8
			c0.4,0.3,0.5,0.8,0.7,1.2c0.2,0.5,0.2,1,0.2,1.5v0.5h-7c0,0.5,0.1,0.8,0.2,1.3c0.1,0.4,0.4,0.8,0.6,1c0.3,0.2,0.6,0.5,1,0.7
			c0.4,0.2,0.8,0.2,1.3,0.2c0.4,0,0.9,0,1.2-0.1c0.4-0.1,0.6-0.2,0.8-0.3s0.4-0.3,0.5-0.5c0.1-0.2,0.3-0.4,0.3-0.6h1
			C68.5,350,68.1,350.6,67.5,351z M67.5,345.7c-0.1-0.4-0.3-0.7-0.5-0.9c-0.3-0.2-0.5-0.5-0.9-0.6c-0.4-0.2-0.8-0.2-1.3-0.2
			c-0.9,0-1.6,0.2-2.1,0.7s-0.9,1.2-1,2.2h5.9C67.7,346.5,67.6,346.1,67.5,345.7z"/>
		<path class="st2" d="M72,340.4v11h-1.1v-11H72z"/>
		<path class="st2" d="M79.9,340.4L87,350v-9.5h1.1v11h-1.2l-7.1-9.5v9.5h-1.1v-11H79.9z"/>
		<path class="st2" d="M92.9,351.4c-0.5-0.2-1-0.5-1.3-0.8c-0.4-0.4-0.6-0.8-0.8-1.3c-0.2-0.5-0.3-1.1-0.3-1.7
			c0-0.6,0.1-1.2,0.4-1.8c0.2-0.5,0.5-1,0.9-1.3c0.4-0.4,0.8-0.6,1.3-0.8c0.5-0.2,1.2-0.3,1.8-0.3c0.6,0,1.2,0.1,1.8,0.3
			c0.5,0.2,1,0.5,1.3,0.8s0.6,0.8,0.9,1.3c0.2,0.5,0.3,1.1,0.3,1.7c0,0.6-0.1,1.2-0.3,1.8c-0.2,0.5-0.5,1-0.9,1.4s-0.8,0.7-1.3,0.8
			c-0.5,0.2-1.2,0.3-1.9,0.3C94,351.7,93.4,351.6,92.9,351.4z M96.2,350.6c0.4-0.2,0.7-0.4,1-0.8c0.3-0.3,0.4-0.7,0.5-1.1
			c0.1-0.4,0.2-0.8,0.2-1.4c0-0.5-0.1-0.9-0.2-1.3c-0.1-0.4-0.3-0.8-0.5-1.1c-0.3-0.3-0.6-0.5-1-0.8c-0.4-0.2-0.9-0.2-1.5-0.2
			c-0.5,0-1.1,0.1-1.5,0.2c-0.4,0.2-0.7,0.5-1,0.8c-0.3,0.3-0.4,0.7-0.5,1.1c-0.1,0.4-0.2,0.8-0.2,1.4c0,0.5,0.1,0.9,0.2,1.4
			c0.1,0.5,0.3,0.8,0.5,1.1c0.3,0.3,0.6,0.5,1,0.8c0.4,0.2,0.9,0.3,1.5,0.3C95.3,350.9,95.8,350.8,96.2,350.6z"/>
		<path class="st2" d="M102.2,343.5v1.3c0.4-0.5,0.8-0.8,1.2-1.1c0.4-0.2,1-0.4,1.5-0.4c0.1,0,0.3,0,0.4,0c0.1,0,0.3,0,0.4,0
			l-0.1,0.8c-0.2,0-0.4-0.1-0.6-0.1c-0.3,0-0.6,0.1-1,0.2c-0.4,0.1-0.6,0.2-0.9,0.5c-0.3,0.2-0.5,0.5-0.7,0.8s-0.3,0.6-0.3,1.1v4.8
			h-1v-7.9L102.2,343.5L102.2,343.5z"/>
		<path class="st2" d="M112.1,351.3c-0.5,0.2-1.2,0.4-1.9,0.4c-0.7,0-1.2-0.1-1.8-0.3c-0.5-0.2-0.9-0.5-1.2-0.9
			c-0.4-0.4-0.5-0.8-0.7-1.3c-0.2-0.5-0.3-1-0.3-1.5c0-1.4,0.4-2.4,1.1-3.1c0.7-0.8,1.8-1.2,3-1.2c0.5,0,1,0.1,1.5,0.3
			c0.5,0.2,1,0.5,1.4,1.1v-4.1h1.1v11h-1.1v-1.2C113,350.7,112.6,351,112.1,351.3z M113.4,346.2c-0.1-0.2-0.1-0.5-0.2-0.7
			s-0.3-0.4-0.4-0.5c-0.2-0.2-0.4-0.3-0.5-0.5c-0.3-0.2-0.5-0.3-0.9-0.4c-0.4-0.1-0.6-0.2-1-0.2c-0.4,0-0.8,0.1-1.2,0.2
			c-0.4,0.2-0.7,0.3-1,0.6c-0.3,0.3-0.4,0.6-0.6,1.1c-0.2,0.5-0.3,1-0.3,1.6s0.1,1.2,0.3,1.6c0.2,0.5,0.4,0.8,0.7,1.1
			s0.5,0.5,0.9,0.5s0.7,0.2,1,0.2c0.4,0,0.7,0,1-0.1c0.3-0.1,0.6-0.2,0.9-0.4c0.4-0.2,0.7-0.6,1-1c0.3-0.4,0.4-0.9,0.4-1.5v-0.7
			C113.5,346.8,113.4,346.4,113.4,346.2z"/>
		<path class="st2" d="M131.1,346v4.2c-0.3,0.2-0.6,0.5-1.1,0.7c-0.4,0.2-0.8,0.3-1.2,0.5c-0.4,0.2-0.8,0.2-1.2,0.2
			s-0.8,0.1-1.2,0.1c-0.9,0-1.7-0.2-2.4-0.4c-0.7-0.2-1.3-0.6-1.9-1.1c-0.5-0.5-0.9-1.1-1.2-1.8s-0.4-1.5-0.4-2.5
			c0-0.9,0.2-1.8,0.4-2.5c0.3-0.7,0.7-1.3,1.2-1.8c0.5-0.5,1.1-0.8,1.8-1.1c0.7-0.2,1.4-0.4,2.2-0.4c1.3,0,2.4,0.2,3.1,0.8
			c0.7,0.5,1.2,1.2,1.5,2.2l-1,0.2c-0.1-0.4-0.3-0.7-0.4-1c-0.2-0.3-0.4-0.5-0.7-0.8c-0.3-0.2-0.6-0.4-1.1-0.5
			c-0.4-0.2-0.9-0.2-1.4-0.2c-0.7,0-1.4,0.2-1.9,0.4c-0.5,0.2-1.1,0.6-1.4,1s-0.7,1-0.9,1.5c-0.2,0.6-0.3,1.2-0.3,2
			c0,0.7,0.1,1.4,0.3,2c0.2,0.6,0.4,1.2,0.9,1.5c0.4,0.5,0.9,0.8,1.5,1c0.6,0.2,1.2,0.4,2,0.4c0.7,0,1.3-0.1,1.9-0.2
			c0.6-0.2,1.2-0.4,1.7-0.8v-3.1h-3.6v-0.8L131.1,346L131.1,346z"/>
		<path class="st2" d="M134.6,340.4v11h-1.1v-11H134.6z"/>
		<path class="st2" d="M139.2,351.4c-0.5-0.2-1-0.5-1.3-0.8c-0.4-0.4-0.6-0.8-0.8-1.3c-0.2-0.5-0.3-1.1-0.3-1.7
			c0-0.6,0.1-1.2,0.4-1.8c0.2-0.5,0.5-1,0.9-1.3c0.4-0.4,0.8-0.6,1.3-0.8c0.5-0.2,1.2-0.3,1.8-0.3c0.6,0,1.2,0.1,1.8,0.3
			c0.5,0.2,1,0.5,1.3,0.8c0.4,0.4,0.6,0.8,0.9,1.3c0.2,0.5,0.3,1.1,0.3,1.7c0,0.6-0.1,1.2-0.3,1.8c-0.2,0.5-0.5,1-0.9,1.4
			c-0.4,0.4-0.8,0.7-1.3,0.8c-0.5,0.2-1.2,0.3-1.9,0.3C140.4,351.7,139.8,351.6,139.2,351.4z M142.5,350.6c0.4-0.2,0.7-0.4,1-0.8
			c0.3-0.3,0.4-0.7,0.5-1.1c0.1-0.4,0.2-0.8,0.2-1.4c0-0.5-0.1-0.9-0.2-1.3s-0.3-0.8-0.5-1.1c-0.3-0.3-0.6-0.5-1-0.8
			c-0.4-0.2-0.9-0.2-1.5-0.2c-0.5,0-1.1,0.1-1.5,0.2c-0.4,0.2-0.7,0.5-1,0.8s-0.4,0.7-0.5,1.1c-0.1,0.4-0.2,0.8-0.2,1.4
			c0,0.5,0.1,0.9,0.2,1.4c0.1,0.5,0.3,0.8,0.5,1.1s0.6,0.5,1,0.8c0.4,0.2,0.9,0.3,1.5,0.3C141.6,350.9,142.2,350.8,142.5,350.6z"/>
		<path class="st2" d="M148.6,340.4v4.2c0.4-0.5,0.9-0.8,1.3-1.1c0.5-0.2,1.1-0.4,1.8-0.4c0.6,0,1.2,0.1,1.8,0.3
			c0.5,0.2,0.9,0.5,1.2,0.8s0.5,0.8,0.7,1.3c0.2,0.5,0.3,1.1,0.3,1.6c0,0.7-0.1,1.3-0.3,1.8c-0.2,0.5-0.4,1-0.8,1.4
			c-0.4,0.4-0.8,0.6-1.3,0.8s-1.1,0.3-1.7,0.3c-0.5,0-1.1-0.1-1.6-0.3c-0.5-0.2-1-0.5-1.4-1v1.1h-1.1v-11L148.6,340.4L148.6,340.4z
			 M148.6,348.7c0,0.2,0.1,0.5,0.2,0.7c0.1,0.2,0.3,0.4,0.4,0.5c0.2,0.2,0.4,0.3,0.5,0.5c0.3,0.2,0.5,0.3,0.8,0.4
			c0.3,0.1,0.6,0.2,1,0.2c0.4,0,0.8-0.1,1.2-0.2c0.4-0.2,0.7-0.3,1-0.6s0.4-0.6,0.6-1.1c0.2-0.5,0.3-1,0.3-1.6
			c0-0.6-0.1-1.2-0.3-1.6c-0.2-0.5-0.4-0.8-0.7-1c-0.3-0.2-0.6-0.5-0.9-0.5c-0.3-0.1-0.7-0.2-1-0.2c-0.4,0-0.7,0-1,0.1
			s-0.6,0.2-0.9,0.4c-0.4,0.2-0.7,0.6-1,1s-0.4,0.9-0.4,1.5v0.7C148.5,348.1,148.5,348.4,148.6,348.7z"/>
		<path class="st2" d="M163.1,350.7c-0.2,0.2-0.4,0.3-0.7,0.4s-0.5,0.2-0.9,0.3c-0.4,0.1-0.7,0.1-1.1,0.1c-1,0-1.7-0.2-2.3-0.6
			c-0.6-0.4-0.9-1-0.9-1.8c0-0.5,0.1-1,0.4-1.3c0.3-0.3,0.6-0.6,1.1-0.8c0.4-0.2,0.9-0.3,1.5-0.4c0.5-0.1,1.2-0.2,1.7-0.2l1.8-0.1
			v-0.2c0-0.8-0.2-1.4-0.5-1.7c-0.4-0.4-1-0.5-1.9-0.5c-0.4,0-0.8,0-1.2,0.1c-0.3,0.1-0.5,0.2-0.8,0.3c-0.3,0.2-0.4,0.2-0.4,0.4
			c-0.1,0.2-0.2,0.3-0.3,0.5l-1-0.2c0.4-1.3,1.5-1.9,3.5-1.9c0.6,0,1.2,0.1,1.6,0.2s0.8,0.3,1.1,0.6c0.3,0.2,0.4,0.5,0.5,0.9
			c0.1,0.4,0.2,0.8,0.2,1.2v5.2h-1.1v-1.2C163.5,350.4,163.3,350.6,163.1,350.7z M162,347.3c-0.7,0-1.2,0.1-1.7,0.2
			c-0.4,0.1-0.8,0.2-1.2,0.4c-0.3,0.2-0.5,0.4-0.6,0.6c-0.1,0.2-0.2,0.5-0.2,0.8c0,0.5,0.2,0.8,0.4,1.2c0.4,0.3,0.9,0.5,1.7,0.5
			c0.4,0,0.8-0.1,1.2-0.2c0.4-0.1,0.7-0.2,1-0.4c0.2-0.2,0.4-0.2,0.5-0.4c0.2-0.2,0.3-0.2,0.4-0.4c0.1-0.2,0.2-0.3,0.2-0.5
			c0-0.2,0.1-0.4,0.1-0.6v-1.2H162z"/>
		<path class="st2" d="M168.3,340.4v11h-1.1v-11H168.3z"/>
	</g>
	<g class="st7">
		<path class="st2" d="M55,389.6c0.9,0,1.7,0.1,2.3,0.2c0.6,0.2,1.1,0.4,1.4,0.7s0.5,0.6,0.7,1c0.1,0.4,0.2,0.8,0.2,1.2
			c0,0.5-0.1,0.8-0.2,1.3s-0.4,0.8-0.7,1.1c-0.4,0.3-0.8,0.5-1.4,0.8c-0.6,0.2-1.3,0.2-2.3,0.2h-3v4.5h-1.1v-11H55z M56.7,395.1
			c0.4-0.2,0.8-0.3,1.1-0.5c0.3-0.2,0.4-0.5,0.5-0.8c0.1-0.3,0.2-0.7,0.2-1.1c0-0.4-0.1-0.8-0.2-1.1c-0.1-0.3-0.3-0.5-0.5-0.8
			c-0.3-0.2-0.6-0.4-1.1-0.5s-1-0.2-1.7-0.2h-3v4.9h3C55.7,395.3,56.3,395.3,56.7,395.1z"/>
		<path class="st2" d="M66.4,399.9c-0.2,0.2-0.4,0.3-0.7,0.4s-0.5,0.2-0.9,0.3c-0.4,0.1-0.7,0.1-1.1,0.1c-1,0-1.7-0.2-2.3-0.6
			s-0.9-1-0.9-1.8c0-0.5,0.1-1,0.4-1.3c0.3-0.3,0.6-0.6,1.1-0.8c0.4-0.2,0.9-0.3,1.5-0.4c0.5-0.1,1.2-0.2,1.7-0.2l1.8-0.1v-0.2
			c0-0.8-0.2-1.4-0.5-1.7c-0.4-0.4-1-0.5-1.9-0.5c-0.4,0-0.8,0-1.2,0.1c-0.3,0.1-0.5,0.2-0.8,0.3c-0.2,0.2-0.4,0.2-0.4,0.4
			c-0.1,0.2-0.2,0.3-0.3,0.5l-1-0.2c0.4-1.3,1.5-1.9,3.5-1.9c0.6,0,1.2,0.1,1.6,0.2c0.4,0.2,0.8,0.3,1.1,0.6
			c0.3,0.2,0.4,0.5,0.5,0.9c0.1,0.4,0.2,0.8,0.2,1.2v5.2h-1.1v-1.2C66.7,399.6,66.6,399.7,66.4,399.9z M65.2,396.4
			c-0.7,0-1.2,0.1-1.7,0.2c-0.4,0.1-0.8,0.2-1.2,0.4c-0.3,0.2-0.5,0.4-0.6,0.6c-0.1,0.2-0.2,0.5-0.2,0.8c0,0.5,0.2,0.8,0.4,1.2
			c0.4,0.3,0.9,0.5,1.7,0.5c0.4,0,0.8-0.1,1.2-0.2c0.4-0.1,0.7-0.2,1-0.4c0.2-0.2,0.4-0.2,0.5-0.4c0.2-0.2,0.3-0.2,0.4-0.4
			c0.1-0.2,0.2-0.3,0.2-0.5s0.1-0.4,0.1-0.6v-1.2L65.2,396.4z"/>
		<path class="st2" d="M70.1,389.8v1.3H69v-1.3H70.1z M71.5,392.7v7.9h-1.1v-7.9H71.5z M73,389.8v1.3h-1.2v-1.3H73z"/>
		<path class="st2" d="M75.5,399.7c0.4,0.2,1.2,0.4,2,0.4s1.5-0.2,1.9-0.5c0.4-0.3,0.5-0.6,0.5-1.1c0-0.2,0-0.4-0.1-0.5
			c-0.1-0.2-0.2-0.3-0.3-0.5c-0.2-0.2-0.4-0.2-0.6-0.3c-0.3-0.1-0.6-0.2-1-0.2l-1.2-0.2c-0.4-0.1-0.9-0.2-1.3-0.2
			c-0.4-0.1-0.7-0.2-1-0.4c-0.3-0.2-0.4-0.4-0.6-0.6c-0.2-0.2-0.2-0.5-0.2-0.9s0.1-0.7,0.3-0.9c0.2-0.3,0.4-0.5,0.7-0.7
			s0.7-0.3,1.1-0.5c0.4-0.1,0.9-0.2,1.3-0.2c0.6,0,1.2,0.1,1.6,0.2c0.4,0.1,0.8,0.2,1.1,0.5c0.3,0.2,0.4,0.4,0.6,0.6
			c0.2,0.2,0.3,0.5,0.4,0.8l-1,0.2c-0.1-0.2-0.2-0.5-0.4-0.6c-0.1-0.2-0.3-0.3-0.4-0.5c-0.2-0.2-0.4-0.2-0.7-0.2
			c-0.3-0.1-0.6-0.1-1.1-0.1c-0.4,0-0.9,0.1-1.2,0.2c-0.4,0.1-0.5,0.2-0.8,0.3c-0.3,0.2-0.4,0.3-0.4,0.5c-0.1,0.2-0.1,0.4-0.1,0.5
			s0,0.4,0.1,0.5c0.1,0.2,0.2,0.3,0.3,0.4c0.1,0.1,0.4,0.2,0.6,0.3c0.3,0.1,0.6,0.2,1,0.2l1.4,0.2c1,0.2,1.7,0.4,2.1,0.8
			s0.7,0.9,0.7,1.6c0,0.3-0.1,0.6-0.3,0.8c-0.2,0.3-0.4,0.5-0.6,0.7c-0.3,0.2-0.6,0.4-1.1,0.5c-0.4,0.2-1,0.2-1.5,0.2
			s-1.1-0.1-1.5-0.2c-0.4-0.1-0.9-0.2-1.2-0.5c-0.4-0.2-0.6-0.5-0.8-0.8c-0.2-0.3-0.4-0.7-0.4-1.2h1C74.7,399,75,399.4,75.5,399.7z"
			/>
		<path class="st2" d="M85.3,400.5c-0.5-0.2-1-0.5-1.3-0.8s-0.6-0.8-0.8-1.3c-0.2-0.5-0.3-1.1-0.3-1.7s0.1-1.2,0.4-1.8
			c0.2-0.5,0.5-1,0.9-1.3c0.4-0.4,0.8-0.6,1.3-0.8s1.2-0.3,1.8-0.3c0.6,0,1.2,0.1,1.8,0.3c0.5,0.2,1,0.5,1.3,0.8
			c0.4,0.4,0.6,0.8,0.9,1.3c0.2,0.5,0.3,1.1,0.3,1.7s-0.1,1.2-0.3,1.8c-0.2,0.5-0.5,1-0.9,1.4c-0.4,0.4-0.8,0.7-1.3,0.8
			s-1.2,0.3-1.9,0.3S85.8,400.7,85.3,400.5z M88.6,399.7c0.4-0.2,0.7-0.4,1-0.7c0.3-0.3,0.4-0.7,0.5-1.1s0.2-0.8,0.2-1.4
			c0-0.5-0.1-0.9-0.2-1.3s-0.3-0.8-0.5-1.1c-0.3-0.3-0.6-0.5-1-0.8c-0.4-0.2-0.9-0.2-1.5-0.2c-0.5,0-1.1,0.1-1.5,0.2
			c-0.4,0.2-0.7,0.5-1,0.8c-0.3,0.3-0.4,0.7-0.5,1.1c-0.1,0.4-0.2,0.8-0.2,1.4c0,0.5,0.1,0.9,0.2,1.4c0.1,0.5,0.3,0.8,0.5,1.1
			c0.3,0.3,0.6,0.5,1,0.7c0.4,0.2,0.9,0.3,1.5,0.3C87.7,400.1,88.2,400,88.6,399.7z"/>
		<path class="st2" d="M95.1,399.7c0.4,0.2,1.2,0.4,2,0.4s1.5-0.2,1.9-0.5c0.4-0.3,0.5-0.6,0.5-1.1c0-0.2,0-0.4-0.1-0.5
			c-0.1-0.2-0.2-0.3-0.3-0.5c-0.2-0.2-0.4-0.2-0.6-0.3c-0.3-0.1-0.6-0.2-1-0.2l-1.2-0.2c-0.4-0.1-0.9-0.2-1.3-0.2
			c-0.4-0.1-0.7-0.2-1-0.4c-0.3-0.2-0.4-0.4-0.6-0.6c-0.2-0.2-0.2-0.5-0.2-0.9s0.1-0.7,0.3-0.9c0.2-0.3,0.4-0.5,0.7-0.7
			s0.7-0.3,1.1-0.5c0.4-0.1,0.9-0.2,1.3-0.2c0.6,0,1.2,0.1,1.6,0.2c0.4,0.1,0.8,0.2,1.1,0.5c0.3,0.2,0.4,0.4,0.6,0.6
			c0.2,0.2,0.3,0.5,0.4,0.8l-1,0.2c-0.1-0.2-0.2-0.5-0.4-0.6c-0.1-0.2-0.3-0.3-0.4-0.5c-0.2-0.2-0.4-0.2-0.7-0.2
			c-0.3-0.1-0.6-0.1-1.1-0.1c-0.4,0-0.9,0.1-1.2,0.2c-0.4,0.1-0.5,0.2-0.8,0.3c-0.3,0.2-0.4,0.3-0.4,0.5c-0.1,0.2-0.1,0.4-0.1,0.5
			s0,0.4,0.1,0.5c0.1,0.2,0.2,0.3,0.3,0.4c0.1,0.1,0.4,0.2,0.6,0.3c0.3,0.1,0.6,0.2,1,0.2l1.4,0.2c1,0.2,1.7,0.4,2.1,0.8
			s0.7,0.9,0.7,1.6c0,0.3-0.1,0.6-0.3,0.8c-0.2,0.3-0.4,0.5-0.6,0.7c-0.3,0.2-0.6,0.4-1.1,0.5c-0.4,0.2-1,0.2-1.5,0.2
			s-1.1-0.1-1.5-0.2c-0.4-0.1-0.9-0.2-1.2-0.5c-0.4-0.2-0.6-0.5-0.8-0.8c-0.2-0.3-0.4-0.7-0.4-1.2h1C94.3,399,94.6,399.4,95.1,399.7
			z"/>
		<path class="st2" d="M112.2,400.4c-0.5,0.2-1.2,0.4-1.9,0.4s-1.2-0.1-1.8-0.3c-0.5-0.2-0.9-0.5-1.2-0.9s-0.5-0.8-0.7-1.3
			c-0.2-0.5-0.3-1-0.3-1.5c0-1.4,0.4-2.4,1.1-3.1c0.7-0.8,1.8-1.2,3-1.2c0.5,0,1,0.1,1.5,0.3c0.5,0.2,1,0.5,1.4,1.1v-4.1h1.1v11
			h-1.1v-1.2C113,399.8,112.6,400.2,112.2,400.4z M113.5,395.4c-0.1-0.2-0.1-0.5-0.2-0.7c-0.1-0.2-0.3-0.4-0.4-0.5
			c-0.2-0.2-0.4-0.3-0.5-0.5c-0.3-0.2-0.5-0.3-0.9-0.4c-0.3-0.1-0.6-0.2-1-0.2c-0.4,0-0.8,0.1-1.2,0.2c-0.4,0.2-0.7,0.3-1,0.6
			c-0.3,0.3-0.4,0.6-0.6,1.1c-0.2,0.5-0.3,1-0.3,1.6c0,0.6,0.1,1.2,0.3,1.6c0.2,0.5,0.4,0.8,0.7,1.1s0.5,0.5,0.9,0.5
			c0.4,0.1,0.7,0.2,1,0.2c0.4,0,0.7,0,1-0.1c0.3-0.1,0.6-0.2,0.9-0.4c0.4-0.2,0.7-0.6,1-1c0.3-0.4,0.4-0.9,0.4-1.5v-0.7
			C113.5,395.9,113.5,395.6,113.5,395.4z"/>
		<path class="st2" d="M123.5,400.2c-0.6,0.5-1.5,0.6-2.7,0.6c-1.3,0-2.3-0.4-3.1-1.1c-0.7-0.8-1.1-1.8-1.1-3c0-0.7,0.1-1.3,0.4-1.8
			c0.3-0.5,0.5-1,0.9-1.4c0.4-0.4,0.8-0.6,1.3-0.8c0.5-0.2,1.1-0.3,1.7-0.3c0.7,0,1.3,0.1,1.8,0.3c0.4,0.2,0.9,0.5,1.2,0.8
			c0.4,0.3,0.5,0.8,0.7,1.2c0.2,0.5,0.2,1,0.2,1.5v0.5h-7c0,0.5,0.1,0.8,0.2,1.3c0.1,0.4,0.4,0.8,0.6,1c0.3,0.3,0.6,0.5,1,0.7
			s0.8,0.2,1.3,0.2c0.4,0,0.9-0.1,1.2-0.2c0.3-0.1,0.6-0.2,0.8-0.3c0.2-0.2,0.4-0.3,0.5-0.5c0.2-0.2,0.3-0.4,0.3-0.6h1
			C124.5,399.2,124.1,399.7,123.5,400.2z M123.5,394.9c-0.1-0.4-0.3-0.7-0.5-0.9c-0.3-0.2-0.5-0.5-0.9-0.6c-0.4-0.2-0.8-0.2-1.3-0.2
			c-0.9,0-1.6,0.2-2.1,0.7s-0.9,1.2-1,2.2h5.9C123.7,395.7,123.7,395.2,123.5,394.9z"/>
		<path class="st2" d="M128,389.6v11h-1.1v-11H128z"/>
	</g>
	<g class="st7">
		<path class="st2" d="M52.6,417.9c0.6,0.4,1.6,0.5,2.8,0.5c0.6,0,1.2-0.1,1.6-0.2c0.4-0.2,0.8-0.3,1-0.5c0.3-0.2,0.4-0.5,0.5-0.7
			c0.1-0.2,0.2-0.5,0.2-0.8c0-0.2,0-0.5-0.1-0.7c-0.1-0.2-0.2-0.5-0.4-0.6c-0.2-0.2-0.4-0.4-0.8-0.5c-0.4-0.2-0.8-0.2-1.3-0.3
			l-1.6-0.2c-0.6-0.1-1.2-0.2-1.7-0.4c-0.4-0.2-0.9-0.3-1.2-0.5c-0.4-0.2-0.6-0.5-0.8-0.8s-0.3-0.8-0.3-1.3c0-0.5,0.1-0.9,0.4-1.3
			s0.5-0.7,1-0.9c0.4-0.2,0.9-0.4,1.4-0.5s1.2-0.2,1.8-0.2c0.8,0,1.4,0.1,1.9,0.2c0.5,0.2,1,0.3,1.3,0.6c0.4,0.3,0.6,0.5,0.8,0.8
			c0.2,0.3,0.4,0.6,0.4,0.9l-1,0.2c-0.1-0.3-0.3-0.6-0.4-0.8c-0.2-0.2-0.4-0.5-0.6-0.6c-0.3-0.2-0.6-0.3-1-0.4
			c-0.4-0.1-0.9-0.2-1.5-0.2c-0.6,0-1.2,0.1-1.6,0.2s-0.8,0.2-1.1,0.5s-0.4,0.4-0.6,0.7c-0.1,0.2-0.2,0.5-0.2,0.8
			c0,0.3,0,0.5,0.1,0.8c0.1,0.2,0.3,0.4,0.4,0.6c0.2,0.2,0.4,0.3,0.8,0.4c0.4,0.1,0.8,0.2,1.2,0.3l1.8,0.3c0.6,0.1,1.2,0.2,1.7,0.4
			c0.4,0.2,0.9,0.4,1.2,0.6c0.3,0.2,0.5,0.5,0.7,0.9c0.2,0.4,0.3,0.8,0.3,1.2c0,0.4-0.1,0.8-0.3,1.2c-0.2,0.4-0.4,0.7-0.9,1
			c-0.4,0.3-0.8,0.5-1.4,0.7c-0.5,0.2-1.2,0.2-1.9,0.2s-1.3-0.1-1.9-0.2c-0.6-0.1-1.1-0.3-1.5-0.5c-0.4-0.2-0.8-0.6-1.1-1
			c-0.3-0.4-0.4-0.9-0.5-1.5h1.1C51.5,417,52,417.6,52.6,417.9z"/>
		<path class="st2" d="M63.1,411.1v5c0,0.8,0.2,1.5,0.4,1.8c0.3,0.4,0.8,0.5,1.6,0.5c0.4,0,0.7-0.1,1.1-0.2c0.4-0.2,0.7-0.3,1.1-0.5
			s0.6-0.5,0.8-0.8c0.2-0.3,0.3-0.7,0.3-1.2v-4.6h1v7.9h-1.1v-1.3c-1,1-2,1.5-3.3,1.5c-1.1,0-1.8-0.2-2.2-0.8
			c-0.4-0.5-0.7-1.2-0.7-2.2V411L63.1,411.1L63.1,411.1z"/>
		<path class="st2" d="M77.2,418.9c-0.5,0.2-1.2,0.4-1.9,0.4c-0.7,0-1.2-0.1-1.8-0.3c-0.5-0.2-0.9-0.5-1.2-0.9
			c-0.4-0.4-0.5-0.8-0.7-1.3s-0.3-1-0.3-1.5c0-1.4,0.4-2.4,1.1-3.1s1.8-1.2,3-1.2c0.5,0,1,0.1,1.5,0.3c0.5,0.2,1,0.5,1.4,1.1v-4.1
			h1.1v11h-1.1V418C78.2,418.3,77.7,418.6,77.2,418.9z M78.5,413.8c-0.1-0.2-0.1-0.5-0.2-0.7c-0.1-0.2-0.3-0.4-0.4-0.5
			c-0.2-0.2-0.4-0.3-0.5-0.5c-0.3-0.2-0.5-0.3-0.9-0.4c-0.3-0.1-0.6-0.2-1-0.2c-0.4,0-0.8,0.1-1.2,0.2c-0.4,0.2-0.7,0.3-1,0.6
			c-0.3,0.3-0.4,0.6-0.6,1.1c-0.2,0.5-0.3,1-0.3,1.6s0.1,1.2,0.3,1.6c0.2,0.5,0.4,0.8,0.7,1.1c0.4,0.3,0.5,0.5,0.9,0.5
			c0.4,0.1,0.7,0.2,1,0.2c0.4,0,0.7,0,1-0.1c0.3-0.1,0.6-0.2,0.9-0.4c0.4-0.2,0.7-0.6,1-1c0.3-0.4,0.4-0.9,0.4-1.5v-0.7
			C78.6,414.3,78.6,414,78.5,413.8z"/>
		<path class="st2" d="M96.3,413.6v4.2c-0.3,0.2-0.6,0.5-1.1,0.7c-0.4,0.2-0.8,0.3-1.2,0.5c-0.4,0.2-0.8,0.2-1.2,0.2
			c-0.4,0.1-0.8,0.1-1.2,0.1c-0.9,0-1.7-0.2-2.4-0.4c-0.7-0.2-1.3-0.6-1.9-1.1c-0.5-0.5-0.9-1.1-1.2-1.8c-0.3-0.7-0.4-1.5-0.4-2.5
			c0-0.9,0.2-1.8,0.4-2.5c0.3-0.7,0.7-1.3,1.2-1.8c0.4-0.5,1.1-0.8,1.8-1.1c0.7-0.2,1.4-0.4,2.2-0.4c1.3,0,2.4,0.2,3.1,0.8
			c0.7,0.5,1.2,1.2,1.5,2.2l-1,0.2c-0.1-0.4-0.3-0.7-0.4-1c-0.2-0.3-0.4-0.5-0.7-0.8c-0.3-0.2-0.6-0.4-1.1-0.5
			c-0.4-0.2-0.9-0.2-1.4-0.2c-0.7,0-1.4,0.2-1.9,0.4s-1.1,0.6-1.4,1c-0.4,0.5-0.7,1-0.9,1.5c-0.2,0.6-0.3,1.2-0.3,2
			c0,0.7,0.1,1.4,0.3,2c0.2,0.6,0.4,1.2,0.9,1.5c0.4,0.5,0.9,0.8,1.5,1c0.6,0.2,1.2,0.4,2,0.4c0.7,0,1.3-0.1,1.9-0.2
			c0.6-0.2,1.2-0.4,1.7-0.7v-3.1h-3.6v-0.8L96.3,413.6L96.3,413.6z"/>
		<path class="st2" d="M99.7,408v11h-1.1v-11H99.7z"/>
		<path class="st2" d="M104.4,419c-0.5-0.2-1-0.5-1.3-0.8c-0.4-0.4-0.6-0.8-0.8-1.3c-0.2-0.5-0.3-1.1-0.3-1.7c0-0.6,0.1-1.2,0.4-1.8
			c0.2-0.5,0.5-1,0.9-1.3c0.4-0.4,0.8-0.6,1.3-0.8c0.5-0.2,1.2-0.3,1.8-0.3c0.6,0,1.2,0.1,1.8,0.3c0.5,0.2,1,0.5,1.3,0.8
			s0.6,0.8,0.9,1.3c0.2,0.5,0.3,1.1,0.3,1.7s-0.1,1.2-0.3,1.8c-0.2,0.5-0.5,1-0.9,1.4s-0.8,0.7-1.3,0.8c-0.5,0.2-1.2,0.3-1.9,0.3
			S104.9,419.2,104.4,419z M107.7,418.2c0.4-0.2,0.7-0.4,1-0.7c0.3-0.3,0.4-0.7,0.5-1.1c0.1-0.4,0.2-0.8,0.2-1.4
			c0-0.5-0.1-0.9-0.2-1.3c-0.1-0.4-0.3-0.8-0.5-1.1c-0.3-0.3-0.6-0.5-1-0.8c-0.4-0.2-0.9-0.2-1.5-0.2c-0.5,0-1.1,0.1-1.5,0.2
			c-0.4,0.2-0.7,0.5-1,0.8c-0.3,0.3-0.4,0.7-0.5,1.1c-0.1,0.4-0.2,0.8-0.2,1.4s0.1,0.9,0.2,1.4c0.1,0.5,0.3,0.8,0.5,1.1
			c0.3,0.3,0.6,0.5,1,0.7c0.4,0.2,0.9,0.3,1.5,0.3C106.8,418.5,107.3,418.4,107.7,418.2z"/>
		<path class="st2" d="M113.8,408v4.2c0.4-0.5,0.9-0.8,1.3-1.1c0.5-0.2,1.1-0.4,1.8-0.4c0.6,0,1.2,0.1,1.8,0.3
			c0.5,0.2,0.9,0.5,1.2,0.8s0.5,0.8,0.7,1.3c0.2,0.5,0.3,1.1,0.3,1.6c0,0.7-0.1,1.3-0.3,1.8c-0.2,0.5-0.4,1-0.8,1.4
			c-0.4,0.4-0.8,0.6-1.3,0.8c-0.5,0.2-1.1,0.3-1.7,0.3c-0.5,0-1.1-0.1-1.6-0.3c-0.5-0.2-1-0.5-1.4-1v1.1h-1.1v-11H113.8z
			 M113.8,416.3c0,0.2,0.1,0.5,0.2,0.7c0.1,0.2,0.3,0.4,0.4,0.5c0.2,0.2,0.4,0.3,0.5,0.5c0.3,0.2,0.5,0.3,0.8,0.4
			c0.3,0.1,0.6,0.2,1,0.2c0.4,0,0.8-0.1,1.2-0.2c0.4-0.2,0.7-0.3,1-0.6c0.3-0.3,0.4-0.6,0.6-1.1c0.2-0.5,0.3-1,0.3-1.6
			s-0.1-1.2-0.3-1.6c-0.2-0.5-0.4-0.8-0.7-1c-0.3-0.2-0.6-0.5-0.9-0.5c-0.4-0.1-0.7-0.2-1-0.2c-0.4,0-0.7,0-1,0.1
			c-0.3,0.1-0.6,0.2-0.9,0.4c-0.4,0.2-0.7,0.6-1,1s-0.4,0.9-0.4,1.5v0.7C113.8,415.7,113.8,416,113.8,416.3z"/>
		<path class="st2" d="M128.3,418.3c-0.2,0.2-0.4,0.3-0.7,0.4c-0.3,0.1-0.5,0.2-0.9,0.3c-0.4,0.1-0.7,0.1-1.1,0.1
			c-1,0-1.7-0.2-2.3-0.6c-0.6-0.4-0.9-1-0.9-1.8c0-0.5,0.1-1,0.4-1.3c0.3-0.3,0.6-0.6,1.1-0.8s0.9-0.3,1.5-0.4
			c0.5-0.1,1.2-0.2,1.7-0.2l1.8-0.1v-0.2c0-0.8-0.2-1.4-0.5-1.7c-0.4-0.4-1-0.5-1.9-0.5c-0.4,0-0.8,0-1.2,0.1
			c-0.3,0.1-0.5,0.2-0.8,0.3c-0.2,0.2-0.4,0.2-0.4,0.4c-0.1,0.2-0.2,0.3-0.3,0.5l-1-0.2c0.4-1.3,1.5-1.9,3.5-1.9
			c0.6,0,1.2,0.1,1.6,0.2c0.4,0.2,0.8,0.3,1.1,0.6c0.3,0.2,0.4,0.5,0.5,0.9c0.1,0.4,0.2,0.8,0.2,1.2v5.2h-1.1v-1.2
			C128.7,418,128.5,418.2,128.3,418.3z M127.1,414.9c-0.7,0-1.2,0.1-1.7,0.2c-0.4,0.1-0.8,0.2-1.2,0.4c-0.3,0.2-0.5,0.4-0.6,0.6
			s-0.2,0.5-0.2,0.8c0,0.5,0.2,0.8,0.4,1.2c0.4,0.3,0.9,0.5,1.7,0.5c0.4,0,0.8-0.1,1.2-0.2c0.4-0.1,0.7-0.2,1-0.4
			c0.2-0.2,0.4-0.2,0.5-0.4c0.2-0.2,0.3-0.2,0.4-0.4c0.1-0.2,0.2-0.3,0.2-0.5c0-0.2,0.1-0.4,0.1-0.6v-1.2L127.1,414.9z"/>
		<path class="st2" d="M133.4,408v11h-1.1v-11H133.4z"/>
	</g>
	<g class="st8">
		<path class="st2" d="M49.6,543.4v-1.1h12.8v1.1h-5.6v13.2h-1.4v-13.2H49.6z"/>
		<path class="st2" d="M69.7,556.1c-0.8,0.6-2,0.8-3.5,0.8c-1.7,0-3-0.5-4-1.4c-0.9-1-1.4-2.3-1.4-3.9c0-0.9,0.1-1.7,0.5-2.4
			s0.7-1.3,1.2-1.8c0.5-0.5,1-0.8,1.7-1.1c0.7-0.2,1.4-0.4,2.2-0.4c0.9,0,1.7,0.1,2.3,0.4c0.6,0.3,1.2,0.6,1.6,1.1
			c0.5,0.4,0.7,1,0.9,1.6s0.2,1.3,0.2,2v0.7h-9.1c0,0.6,0.1,1.1,0.2,1.7c0.1,0.5,0.5,1,0.8,1.3c0.3,0.4,0.8,0.7,1.3,0.9
			c0.5,0.2,1,0.3,1.7,0.3c0.6,0,1.2-0.1,1.5-0.2c0.3-0.1,0.8-0.2,1-0.4c0.2-0.2,0.5-0.4,0.7-0.7c0.2-0.3,0.3-0.5,0.3-0.8h1.3
			C70.9,554.8,70.5,555.5,69.7,556.1z M69.8,549.2c-0.1-0.5-0.3-0.9-0.7-1.2c-0.3-0.3-0.7-0.6-1.2-0.8c-0.5-0.2-1-0.3-1.7-0.3
			c-1.2,0-2.1,0.3-2.8,0.9c-0.7,0.6-1.2,1.6-1.3,2.9h7.7C70,550.2,69.9,549.6,69.8,549.2z"/>
		<path class="st2" d="M75.5,546.3v1.7c0.5-0.6,1-1,1.6-1.4c0.6-0.3,1.3-0.5,2-0.5c0.1,0,0.3,0,0.5,0c0.1,0,0.3,0,0.5,0.1l-0.1,1.1
			c-0.2,0-0.6-0.1-0.8-0.1c-0.3,0-0.8,0.1-1.3,0.2c-0.5,0.1-0.8,0.3-1.2,0.7c-0.3,0.3-0.7,0.6-0.9,1c-0.2,0.4-0.3,0.8-0.3,1.4v6.2
			h-1.4v-10.3h1.5V546.3z"/>
		<path class="st2" d="M83.3,546.3v1.7c0.5-0.6,1-1,1.6-1.4c0.6-0.3,1.3-0.5,2-0.5c0.1,0,0.3,0,0.5,0c0.1,0,0.3,0,0.5,0.1l-0.1,1.1
			c-0.2,0-0.6-0.1-0.8-0.1c-0.3,0-0.8,0.1-1.3,0.2c-0.5,0.1-0.8,0.3-1.2,0.7c-0.3,0.3-0.7,0.6-0.9,1s-0.3,0.8-0.3,1.4v6.2h-1.4
			v-10.3h1.5V546.3z"/>
		<path class="st2" d="M91.2,542.3v1.7h-1.5v-1.7H91.2z M91.1,546.3v10.3h-1.4v-10.3H91.1z"/>
		<path class="st2" d="M93.2,547.2v-1H95v-2.8h1.4v2.8h3.3v1h-3.3v6.7c0,0.5,0.1,0.9,0.3,1.3c0.2,0.4,0.7,0.5,1.3,0.5
			c0.3,0,0.7,0,1-0.1c0.2-0.1,0.6-0.1,0.7-0.2l0.2,0.9c-0.2,0.1-0.5,0.2-0.8,0.2s-0.8,0.1-1.3,0.1c-0.7,0-1.2-0.1-1.6-0.3
			c-0.3-0.2-0.7-0.5-0.9-0.8c-0.2-0.3-0.3-0.7-0.3-1.1c0-0.4-0.1-0.9-0.1-1.3v-6L93.2,547.2L93.2,547.2z"/>
		<path class="st2" d="M104.4,556.5c-0.7-0.3-1.3-0.6-1.7-1.1c-0.5-0.5-0.8-1-1-1.7c-0.2-0.7-0.3-1.4-0.3-2.2s0.1-1.6,0.5-2.3
			c0.2-0.7,0.7-1.3,1.2-1.7c0.5-0.5,1-0.8,1.7-1.1s1.5-0.4,2.3-0.4c0.8,0,1.6,0.1,2.3,0.4c0.7,0.3,1.3,0.6,1.7,1.1
			c0.5,0.5,0.8,1,1.2,1.7c0.2,0.7,0.3,1.4,0.3,2.2s-0.1,1.6-0.3,2.3c-0.2,0.7-0.7,1.3-1.2,1.8c-0.5,0.5-1,0.9-1.7,1.1
			s-1.5,0.4-2.4,0.4C105.9,557,105.1,556.8,104.4,556.5z M108.6,555.5c0.6-0.2,0.9-0.5,1.3-0.9c0.3-0.4,0.6-0.9,0.7-1.4
			c0.1-0.5,0.2-1.1,0.2-1.8c0-0.6-0.1-1.2-0.2-1.7c-0.1-0.5-0.3-1-0.7-1.4c-0.3-0.4-0.8-0.7-1.3-1c-0.6-0.2-1.2-0.3-2-0.3
			c-0.7,0-1.4,0.1-2,0.3c-0.6,0.2-0.9,0.6-1.3,1c-0.3,0.4-0.6,0.9-0.7,1.4c-0.1,0.5-0.2,1.1-0.2,1.8s0.1,1.2,0.2,1.8
			c0.1,0.6,0.3,1,0.7,1.4c0.3,0.4,0.8,0.7,1.3,0.9c0.6,0.2,1.2,0.4,2,0.4C107.5,555.9,108.2,555.8,108.6,555.5z"/>
		<path class="st2" d="M116.6,546.3v1.7c0.5-0.6,1-1,1.6-1.4c0.6-0.3,1.3-0.5,2-0.5c0.1,0,0.3,0,0.5,0c0.1,0,0.3,0,0.5,0.1l-0.1,1.1
			c-0.2,0-0.6-0.1-0.8-0.1c-0.3,0-0.8,0.1-1.3,0.2c-0.5,0.1-0.8,0.3-1.2,0.7c-0.3,0.3-0.7,0.6-0.9,1c-0.2,0.4-0.3,0.8-0.3,1.4v6.2
			h-1.4v-10.3h1.5V546.3z"/>
		<path class="st2" d="M124.5,542.3v1.7H123v-1.7H124.5z M124.4,546.3v10.3H123v-10.3H124.4z"/>
		<path class="st2" d="M129.6,555.4c0.6,0.3,1.5,0.5,2.7,0.5c1.2,0,2-0.2,2.4-0.6c0.5-0.4,0.7-0.8,0.7-1.4c0-0.2,0-0.5-0.1-0.7
			s-0.2-0.4-0.3-0.6c-0.2-0.2-0.5-0.3-0.8-0.4c-0.3-0.1-0.8-0.2-1.3-0.3l-1.5-0.2c-0.6-0.1-1.2-0.2-1.7-0.3
			c-0.5-0.1-0.9-0.3-1.3-0.5c-0.3-0.2-0.6-0.5-0.8-0.8s-0.2-0.7-0.2-1.2s0.1-0.9,0.3-1.2c0.2-0.4,0.6-0.7,0.9-0.9
			c0.3-0.2,0.9-0.4,1.4-0.6c0.6-0.1,1.2-0.2,1.7-0.2c0.8,0,1.5,0.1,2.1,0.2c0.6,0.1,1,0.3,1.4,0.6c0.3,0.2,0.6,0.5,0.8,0.8
			s0.3,0.7,0.5,1l-1.3,0.2c-0.1-0.3-0.2-0.6-0.5-0.8c-0.1-0.2-0.3-0.4-0.6-0.6c-0.2-0.2-0.6-0.3-0.9-0.3c-0.3-0.1-0.8-0.1-1.4-0.1
			c-0.6,0-1.2,0.1-1.5,0.2c-0.5,0.1-0.7,0.2-1,0.4c-0.3,0.2-0.5,0.4-0.6,0.6c-0.1,0.2-0.1,0.5-0.1,0.7s0,0.5,0.1,0.7
			c0.1,0.2,0.2,0.4,0.3,0.5s0.5,0.3,0.8,0.4c0.3,0.1,0.8,0.2,1.3,0.3l1.8,0.3c1.3,0.2,2.2,0.5,2.8,1s0.9,1.2,0.9,2.1
			c0,0.4-0.1,0.8-0.3,1.1c-0.2,0.4-0.5,0.7-0.8,0.9c-0.3,0.3-0.8,0.5-1.4,0.6c-0.6,0.2-1.3,0.2-2,0.2c-0.7,0-1.4-0.1-2-0.2
			c-0.6-0.1-1.2-0.3-1.6-0.6c-0.5-0.3-0.8-0.6-1-1c-0.2-0.4-0.5-0.9-0.5-1.5h1.3C128.6,554.5,128.9,555.1,129.6,555.4z"/>
	</g>
	<g class="st8">
		<path class="st2" d="M52.3,570.3v1.7c0.5-0.6,1-1,1.6-1.4c0.6-0.3,1.3-0.5,2-0.5c0.1,0,0.3,0,0.5,0c0.1,0,0.3,0,0.5,0.1l-0.1,1.1
			c-0.2,0-0.6-0.1-0.8-0.1c-0.3,0-0.8,0.1-1.3,0.2c-0.5,0.1-0.8,0.3-1.2,0.7c-0.3,0.3-0.7,0.6-0.9,1c-0.2,0.4-0.3,0.8-0.3,1.4v6.2
			h-1.3v-10.3h1.4V570.3z"/>
		<path class="st2" d="M60,570.3v6.5c0,1.1,0.2,1.9,0.6,2.3c0.3,0.5,1,0.7,2.1,0.7c0.5,0,0.9-0.1,1.4-0.2c0.5-0.2,0.9-0.4,1.4-0.7
			s0.8-0.7,1-1.1c0.2-0.4,0.3-0.9,0.3-1.5v-6h1.4v10.3h-1.4v-1.7c-1.3,1.3-2.7,2-4.3,2c-1.4,0-2.3-0.3-2.9-1
			c-0.6-0.7-0.9-1.6-0.9-2.8v-6.9H60V570.3z"/>
		<path class="st2" d="M72.6,570.3v1.7c0.5-0.6,1-1,1.6-1.4c0.6-0.3,1.3-0.5,2-0.5c0.1,0,0.3,0,0.5,0c0.1,0,0.3,0,0.5,0.1l-0.1,1.1
			c-0.2,0-0.6-0.1-0.8-0.1c-0.3,0-0.8,0.1-1.3,0.2c-0.5,0.1-0.8,0.3-1.2,0.7c-0.3,0.3-0.7,0.6-0.9,1s-0.3,0.8-0.3,1.4v6.2h-1.4
			v-10.3h1.5V570.3z"/>
		<path class="st2" d="M85.7,579.7c-0.2,0.2-0.6,0.4-0.9,0.5s-0.7,0.3-1.2,0.4s-0.9,0.1-1.4,0.1c-1.3,0-2.2-0.3-3-0.8
			c-0.8-0.5-1.2-1.3-1.2-2.3c0-0.7,0.1-1.3,0.5-1.7s0.8-0.8,1.4-1c0.6-0.2,1.2-0.4,2-0.5c0.7-0.1,1.5-0.2,2.2-0.2l2.3-0.1v-0.3
			c0-1-0.2-1.8-0.7-2.2c-0.5-0.5-1.3-0.7-2.4-0.7c-0.6,0-1,0-1.5,0.1c-0.3,0.1-0.7,0.2-1,0.4c-0.2,0.2-0.5,0.3-0.6,0.5
			s-0.2,0.4-0.3,0.7l-1.3-0.2c0.5-1.7,2-2.5,4.6-2.5c0.8,0,1.5,0.1,2.1,0.3c0.6,0.2,1,0.4,1.4,0.8c0.3,0.3,0.6,0.7,0.7,1.2
			c0.1,0.5,0.2,1,0.2,1.6v6.8h-1.4v-1.5C86.2,579.3,85.9,579.5,85.7,579.7z M84.2,575.2c-0.9,0-1.6,0.1-2.2,0.2
			c-0.6,0.1-1,0.3-1.5,0.5c-0.3,0.2-0.7,0.5-0.8,0.8c-0.1,0.3-0.2,0.7-0.2,1.1c0,0.6,0.2,1.1,0.6,1.5c0.5,0.4,1.2,0.6,2.2,0.6
			c0.5,0,1-0.1,1.5-0.2c0.5-0.1,0.9-0.3,1.3-0.5c0.2-0.2,0.5-0.3,0.7-0.5c0.2-0.2,0.3-0.3,0.5-0.5s0.2-0.4,0.2-0.7s0.1-0.5,0.1-0.8
			v-1.5L84.2,575.2z"/>
		<path class="st2" d="M92.3,566.3v14.3h-1.4v-14.3H92.3z"/>
		<path class="st2" d="M97.4,579.4c0.6,0.3,1.5,0.5,2.7,0.5s2-0.2,2.4-0.6c0.5-0.4,0.7-0.8,0.7-1.4c0-0.2,0-0.5-0.1-0.7
			c-0.1-0.2-0.2-0.4-0.3-0.6c-0.2-0.2-0.5-0.3-0.8-0.4c-0.3-0.1-0.8-0.2-1.3-0.3l-1.5-0.2c-0.6-0.1-1.2-0.2-1.7-0.3
			c-0.5-0.1-0.9-0.3-1.3-0.5c-0.3-0.2-0.6-0.5-0.8-0.8c-0.2-0.3-0.2-0.7-0.2-1.2s0.1-0.9,0.3-1.2c0.2-0.4,0.6-0.7,0.9-0.9
			s0.9-0.4,1.4-0.6c0.6-0.1,1.2-0.2,1.7-0.2c0.8,0,1.5,0.1,2.1,0.2c0.6,0.1,1,0.3,1.4,0.6c0.3,0.2,0.6,0.5,0.8,0.8
			c0.2,0.3,0.3,0.7,0.5,1l-1.3,0.2c-0.1-0.3-0.2-0.6-0.5-0.8c-0.1-0.2-0.3-0.4-0.6-0.6c-0.2-0.2-0.6-0.3-0.9-0.3
			c-0.3-0.1-0.8-0.1-1.4-0.1c-0.6,0-1.2,0.1-1.5,0.2c-0.5,0.1-0.7,0.2-1,0.4c-0.3,0.2-0.5,0.4-0.6,0.6c-0.1,0.2-0.1,0.5-0.1,0.7
			s0,0.5,0.1,0.7c0.1,0.2,0.2,0.4,0.3,0.5s0.5,0.3,0.8,0.4c0.3,0.1,0.8,0.2,1.3,0.3l1.8,0.3c1.3,0.2,2.2,0.5,2.8,1s0.9,1.2,0.9,2.1
			c0,0.4-0.1,0.8-0.3,1.1c-0.2,0.4-0.5,0.7-0.8,0.9c-0.3,0.3-0.8,0.5-1.4,0.6c-0.6,0.2-1.3,0.2-2,0.2s-1.4-0.1-2-0.2
			c-0.6-0.1-1.2-0.3-1.6-0.6c-0.5-0.3-0.8-0.6-1-1c-0.2-0.4-0.5-0.9-0.5-1.5h1.3C96.5,578.5,96.9,579.1,97.4,579.4z"/>
	</g>
	<g class="st8">
		<path class="st2" d="M49.6,632.4v-1.1h12.8v1.1h-5.6v13.2h-1.4v-13.2H49.6z"/>
		<path class="st2" d="M69.7,645.1c-0.8,0.6-2,0.8-3.5,0.8c-1.7,0-3-0.5-4-1.4c-0.9-1-1.4-2.3-1.4-3.9c0-0.9,0.1-1.7,0.5-2.4
			s0.7-1.3,1.2-1.8c0.5-0.5,1-0.8,1.7-1.1c0.7-0.2,1.4-0.4,2.2-0.4c0.9,0,1.7,0.1,2.3,0.4c0.6,0.3,1.2,0.6,1.6,1.1
			c0.5,0.4,0.7,1,0.9,1.6s0.2,1.3,0.2,2v0.7h-9.1c0,0.6,0.1,1.1,0.2,1.7c0.1,0.5,0.5,1,0.8,1.3c0.3,0.4,0.8,0.7,1.3,0.9
			c0.5,0.2,1,0.3,1.7,0.3c0.6,0,1.2-0.1,1.5-0.2c0.3-0.1,0.8-0.2,1-0.4c0.2-0.2,0.5-0.4,0.7-0.7c0.2-0.3,0.3-0.5,0.3-0.8h1.3
			C70.9,643.8,70.5,644.5,69.7,645.1z M69.8,638.2c-0.1-0.5-0.3-0.9-0.7-1.2c-0.3-0.3-0.7-0.6-1.2-0.8c-0.5-0.2-1-0.3-1.7-0.3
			c-1.2,0-2.1,0.3-2.8,0.9c-0.7,0.6-1.2,1.6-1.3,2.9h7.7C70,639.2,69.9,638.6,69.8,638.2z"/>
		<path class="st2" d="M75.5,635.3v1.7c0.5-0.6,1-1,1.6-1.4c0.6-0.3,1.3-0.5,2-0.5c0.1,0,0.3,0,0.5,0c0.1,0,0.3,0,0.5,0.1l-0.1,1.1
			c-0.2,0-0.6-0.1-0.8-0.1c-0.3,0-0.8,0.1-1.3,0.2c-0.5,0.1-0.8,0.3-1.2,0.7c-0.3,0.3-0.7,0.6-0.9,1c-0.2,0.4-0.3,0.8-0.3,1.4v6.2
			h-1.4v-10.3h1.5V635.3z"/>
		<path class="st2" d="M83.3,635.3v1.7c0.5-0.6,1-1,1.6-1.4c0.6-0.3,1.3-0.5,2-0.5c0.1,0,0.3,0,0.5,0c0.1,0,0.3,0,0.5,0.1l-0.1,1.1
			c-0.2,0-0.6-0.1-0.8-0.1c-0.3,0-0.8,0.1-1.3,0.2c-0.5,0.1-0.8,0.3-1.2,0.7c-0.3,0.3-0.7,0.6-0.9,1s-0.3,0.8-0.3,1.4v6.2h-1.4
			v-10.3h1.5V635.3z"/>
		<path class="st2" d="M91.2,631.3v1.7h-1.5v-1.7H91.2z M91.1,635.3v10.3h-1.4v-10.3H91.1z"/>
		<path class="st2" d="M93.2,636.2v-1H95v-2.8h1.4v2.8h3.3v1h-3.3v6.7c0,0.5,0.1,0.9,0.3,1.3c0.2,0.4,0.7,0.5,1.3,0.5
			c0.3,0,0.7,0,1-0.1c0.2-0.1,0.6-0.1,0.7-0.2l0.2,0.9c-0.2,0.1-0.5,0.2-0.8,0.2s-0.8,0.1-1.3,0.1c-0.7,0-1.2-0.1-1.6-0.3
			c-0.3-0.2-0.7-0.5-0.9-0.8c-0.2-0.3-0.3-0.7-0.3-1.1c0-0.4-0.1-0.9-0.1-1.3v-6L93.2,636.2L93.2,636.2z"/>
		<path class="st2" d="M104.4,645.5c-0.7-0.3-1.3-0.6-1.7-1.1c-0.5-0.5-0.8-1-1-1.7c-0.2-0.7-0.3-1.4-0.3-2.2s0.1-1.6,0.5-2.3
			c0.2-0.7,0.7-1.3,1.2-1.7c0.5-0.5,1-0.8,1.7-1.1s1.5-0.4,2.3-0.4c0.8,0,1.6,0.1,2.3,0.4c0.7,0.3,1.3,0.6,1.7,1.1
			c0.5,0.5,0.8,1,1.2,1.7c0.2,0.7,0.3,1.4,0.3,2.2s-0.1,1.6-0.3,2.3c-0.2,0.7-0.7,1.3-1.2,1.8c-0.5,0.5-1,0.9-1.7,1.1
			s-1.5,0.4-2.4,0.4C105.9,646,105.1,645.8,104.4,645.5z M108.6,644.5c0.6-0.2,0.9-0.5,1.3-0.9c0.3-0.4,0.6-0.9,0.7-1.4
			c0.1-0.5,0.2-1.1,0.2-1.8c0-0.6-0.1-1.2-0.2-1.7c-0.1-0.5-0.3-1-0.7-1.4c-0.3-0.4-0.8-0.7-1.3-1c-0.6-0.2-1.2-0.3-2-0.3
			c-0.7,0-1.4,0.1-2,0.3c-0.6,0.2-0.9,0.6-1.3,1c-0.3,0.4-0.6,0.9-0.7,1.4c-0.1,0.5-0.2,1.1-0.2,1.8s0.1,1.2,0.2,1.8
			c0.1,0.6,0.3,1,0.7,1.4c0.3,0.4,0.8,0.7,1.3,0.9c0.6,0.2,1.2,0.4,2,0.4C107.5,644.9,108.2,644.8,108.6,644.5z"/>
		<path class="st2" d="M116.6,635.3v1.7c0.5-0.6,1-1,1.6-1.4c0.6-0.3,1.3-0.5,2-0.5c0.1,0,0.3,0,0.5,0c0.1,0,0.3,0,0.5,0.1l-0.1,1.1
			c-0.2,0-0.6-0.1-0.8-0.1c-0.3,0-0.8,0.1-1.3,0.2c-0.5,0.1-0.8,0.3-1.2,0.7c-0.3,0.3-0.7,0.6-0.9,1c-0.2,0.4-0.3,0.8-0.3,1.4v6.2
			h-1.4v-10.3h1.5V635.3z"/>
		<path class="st2" d="M124.5,631.3v1.7H123v-1.7H124.5z M124.4,635.3v10.3H123v-10.3H124.4z"/>
		<path class="st2" d="M129.6,644.4c0.6,0.3,1.5,0.5,2.7,0.5c1.2,0,2-0.2,2.4-0.6c0.5-0.4,0.7-0.8,0.7-1.4c0-0.2,0-0.5-0.1-0.7
			s-0.2-0.4-0.3-0.6c-0.2-0.2-0.5-0.3-0.8-0.4c-0.3-0.1-0.8-0.2-1.3-0.3l-1.5-0.2c-0.6-0.1-1.2-0.2-1.7-0.3
			c-0.5-0.1-0.9-0.3-1.3-0.5c-0.3-0.2-0.6-0.5-0.8-0.8s-0.2-0.7-0.2-1.2s0.1-0.9,0.3-1.2c0.2-0.4,0.6-0.7,0.9-0.9
			c0.3-0.2,0.9-0.4,1.4-0.6c0.6-0.1,1.2-0.2,1.7-0.2c0.8,0,1.5,0.1,2.1,0.2c0.6,0.1,1,0.3,1.4,0.6c0.3,0.2,0.6,0.5,0.8,0.8
			s0.3,0.7,0.5,1l-1.3,0.2c-0.1-0.3-0.2-0.6-0.5-0.8c-0.1-0.2-0.3-0.4-0.6-0.6c-0.2-0.2-0.6-0.3-0.9-0.3c-0.3-0.1-0.8-0.1-1.4-0.1
			c-0.6,0-1.2,0.1-1.5,0.2c-0.5,0.1-0.7,0.2-1,0.4c-0.3,0.2-0.5,0.4-0.6,0.6c-0.1,0.2-0.1,0.5-0.1,0.7s0,0.5,0.1,0.7
			c0.1,0.2,0.2,0.4,0.3,0.5s0.5,0.3,0.8,0.4c0.3,0.1,0.8,0.2,1.3,0.3l1.8,0.3c1.3,0.2,2.2,0.5,2.8,1s0.9,1.2,0.9,2.1
			c0,0.4-0.1,0.8-0.3,1.1c-0.2,0.4-0.5,0.7-0.8,0.9c-0.3,0.3-0.8,0.5-1.4,0.6c-0.6,0.2-1.3,0.2-2,0.2c-0.7,0-1.4-0.1-2-0.2
			c-0.6-0.1-1.2-0.3-1.6-0.6c-0.5-0.3-0.8-0.6-1-1c-0.2-0.4-0.5-0.9-0.5-1.5h1.3C128.6,643.5,128.9,644.1,129.6,644.4z"/>
	</g>
	<g class="st8">
		<path class="st2" d="M52.2,659.3v6.5c0,1.1,0.2,1.9,0.6,2.3c0.3,0.5,1,0.7,2.1,0.7c0.5,0,0.9-0.1,1.4-0.2c0.5-0.2,0.9-0.4,1.4-0.7
			c0.5-0.3,0.8-0.7,1-1.1c0.2-0.4,0.3-0.9,0.3-1.5v-6h1.4v10.3H59v-1.7c-1.3,1.3-2.7,2-4.3,2c-1.4,0-2.3-0.3-2.9-1
			c-0.6-0.7-0.9-1.6-0.9-2.8v-6.9h1.3V659.3z"/>
		<path class="st2" d="M64.8,659.3v1.7c0.5-0.6,1-1,1.6-1.4c0.6-0.3,1.3-0.5,2-0.5c0.1,0,0.3,0,0.5,0c0.1,0,0.3,0,0.5,0.1l-0.1,1.1
			c-0.2,0-0.6-0.1-0.8-0.1c-0.3,0-0.8,0.1-1.3,0.2c-0.5,0.1-0.8,0.3-1.2,0.7c-0.3,0.3-0.7,0.6-0.9,1s-0.3,0.8-0.3,1.4v6.2h-1.4
			v-10.3h1.5V659.3z"/>
		<path class="st2" d="M72.6,655.3v5.5c0.6-0.6,1.2-1,1.7-1.4c0.7-0.3,1.4-0.5,2.3-0.5c0.8,0,1.6,0.1,2.3,0.4s1.2,0.7,1.6,1.1
			c0.5,0.4,0.7,1,0.9,1.7c0.2,0.7,0.3,1.4,0.3,2.1c0,0.9-0.1,1.7-0.3,2.4s-0.6,1.3-1,1.8c-0.5,0.5-1,0.8-1.7,1.1s-1.4,0.4-2.2,0.4
			c-0.7,0-1.4-0.1-2.1-0.4s-1.3-0.7-1.8-1.3v1.4h-1.4v-14.3H72.6z M72.7,666c0,0.3,0.1,0.6,0.2,0.9c0.1,0.3,0.3,0.5,0.5,0.7
			c0.2,0.2,0.5,0.4,0.7,0.6c0.3,0.2,0.7,0.4,1,0.5s0.8,0.2,1.3,0.2c0.6,0,1-0.1,1.6-0.3c0.5-0.2,0.9-0.4,1.3-0.8
			c0.3-0.4,0.6-0.8,0.8-1.4c0.2-0.6,0.3-1.3,0.3-2.1s-0.1-1.5-0.3-2.1c-0.2-0.6-0.5-1-0.9-1.3c-0.3-0.3-0.8-0.6-1.2-0.7
			c-0.5-0.1-0.9-0.2-1.3-0.2c-0.5,0-0.9,0-1.3,0.1s-0.8,0.3-1.2,0.5c-0.6,0.3-0.9,0.8-1.3,1.3s-0.5,1.2-0.5,2v0.9
			C72.6,665.3,72.6,665.7,72.7,666z"/>
		<path class="st2" d="M91.6,668.7c-0.2,0.2-0.6,0.4-0.9,0.5s-0.7,0.3-1.2,0.4c-0.5,0.1-0.9,0.1-1.4,0.1c-1.3,0-2.2-0.3-3-0.8
			s-1.2-1.3-1.2-2.3c0-0.7,0.1-1.3,0.5-1.7s0.8-0.8,1.4-1s1.2-0.4,2-0.5c0.7-0.1,1.5-0.2,2.2-0.2l2.3-0.1v-0.3c0-1-0.2-1.8-0.7-2.2
			c-0.5-0.5-1.3-0.7-2.4-0.7c-0.6,0-1,0-1.5,0.1c-0.3,0.1-0.7,0.2-1,0.4c-0.2,0.2-0.5,0.3-0.6,0.5c-0.1,0.2-0.2,0.4-0.3,0.7
			l-1.3-0.2c0.5-1.7,2-2.5,4.6-2.5c0.8,0,1.5,0.1,2.1,0.3c0.6,0.2,1,0.4,1.4,0.8c0.3,0.3,0.6,0.7,0.7,1.2c0.1,0.5,0.2,1,0.2,1.6v6.8
			H92v-1.5C92,668.3,91.8,668.5,91.6,668.7z M90.1,664.2c-0.9,0-1.6,0.1-2.2,0.2c-0.6,0.1-1,0.3-1.5,0.5c-0.3,0.2-0.7,0.5-0.8,0.8
			c-0.1,0.3-0.2,0.7-0.2,1.1c0,0.6,0.2,1.1,0.6,1.5c0.5,0.4,1.2,0.6,2.2,0.6c0.5,0,1-0.1,1.5-0.2c0.5-0.1,0.9-0.3,1.3-0.5
			c0.2-0.2,0.5-0.3,0.7-0.5c0.2-0.2,0.3-0.3,0.5-0.5s0.2-0.4,0.2-0.7s0.1-0.5,0.1-0.8v-1.5L90.1,664.2z"/>
		<path class="st2" d="M98.1,659.3v1.7c0.7-0.7,1.4-1.2,2.1-1.5c0.7-0.3,1.5-0.5,2.3-0.5c1.4,0,2.3,0.3,3,1s0.9,1.6,0.9,2.8v6.9
			h-1.4v-6.5c0-1.1-0.2-1.9-0.7-2.3c-0.5-0.5-1.2-0.7-2.1-0.7c-0.5,0-0.9,0.1-1.5,0.2c-0.5,0.2-1,0.4-1.4,0.7
			c-0.5,0.3-0.8,0.7-1,1.1c-0.2,0.4-0.3,0.9-0.3,1.5v6h-1.4v-10.3h1.5V659.3z"/>
		<path class="st2" d="M111.5,668.4c0.6,0.3,1.5,0.5,2.7,0.5c1.2,0,2-0.2,2.4-0.6c0.5-0.4,0.7-0.8,0.7-1.4c0-0.2,0-0.5-0.1-0.7
			c-0.1-0.2-0.2-0.4-0.3-0.6c-0.2-0.2-0.5-0.3-0.8-0.4c-0.3-0.1-0.8-0.2-1.3-0.3l-1.5-0.2c-0.6-0.1-1.2-0.2-1.7-0.3
			c-0.5-0.1-0.9-0.3-1.3-0.5c-0.3-0.2-0.6-0.5-0.8-0.8s-0.2-0.7-0.2-1.2s0.1-0.9,0.3-1.2c0.2-0.4,0.6-0.7,0.9-0.9s0.9-0.4,1.4-0.6
			c0.6-0.1,1.2-0.2,1.7-0.2c0.8,0,1.5,0.1,2.1,0.2c0.6,0.1,1,0.3,1.4,0.6c0.3,0.2,0.6,0.5,0.8,0.8s0.3,0.7,0.5,1l-1.3,0.2
			c-0.1-0.3-0.2-0.6-0.5-0.8c-0.1-0.2-0.3-0.4-0.6-0.6c-0.2-0.2-0.6-0.3-0.9-0.3c-0.3-0.1-0.8-0.1-1.4-0.1c-0.6,0-1.2,0.1-1.5,0.2
			c-0.5,0.1-0.7,0.2-1,0.4s-0.5,0.4-0.6,0.6c-0.1,0.2-0.1,0.5-0.1,0.7s0,0.5,0.1,0.7c0.1,0.2,0.2,0.4,0.3,0.5s0.5,0.3,0.8,0.4
			c0.3,0.1,0.8,0.2,1.3,0.3l1.8,0.3c1.3,0.2,2.2,0.5,2.8,1c0.6,0.5,0.9,1.2,0.9,2.1c0,0.4-0.1,0.8-0.3,1.1c-0.2,0.4-0.5,0.7-0.8,0.9
			c-0.3,0.3-0.8,0.5-1.4,0.6c-0.6,0.2-1.3,0.2-2,0.2s-1.4-0.1-2-0.2c-0.6-0.1-1.2-0.3-1.6-0.6c-0.5-0.3-0.8-0.6-1-1
			c-0.2-0.4-0.5-0.9-0.5-1.5h1.3C110.6,667.5,110.9,668.1,111.5,668.4z"/>
	</g>
</g>
</svg>
