<?xml version="1.0" encoding="utf-8"?>
<!-- Generator: Adobe Illustrator 21.0.0, SVG Export Plug-In . SVG Version: 6.00 Build 0)  -->
<svg version="1.1" id="Capa_1" xmlns="http://www.w3.org/2000/svg" xmlns:xlink="http://www.w3.org/1999/xlink" x="0px" y="0px"
	 viewBox="0 0 1280 1080" style="enable-background:new 0 0 1280 1080;" xml:space="preserve">
<style type="text/css">
	.st0{fill:none;}
	.st1{fill:none;stroke:#FFFFFF;stroke-width:4;stroke-miterlimit:10;}
	.st2{fill:#FFFFFF;}
	.st3{fill:none;stroke:#FFFFFF;stroke-width:2;stroke-miterlimit:10;}
	.st4{enable-background:new    ;}
</style>
<g id="Capa_1_1_">
</g>
<rect id="SVGID_3_" class="st0" width="1285" height="1080"/>
<g>
	<g>
		<path class="st1" d="M942.9,140.6C875.2,55,770.4,0,652.7,0C448.6,0,283,165.5,283,369.7c0,56.9,12.9,110.8,35.8,158.9"/>
		<g>
			<path class="st2" d="M941,107.2c-1.1,0.1-1.9,1.1-1.8,2.2l3.1,30.4l-28.9-10c-1-0.4-2.2,0.2-2.5,1.2c-0.4,1,0.2,2.2,1.2,2.5
				l31.9,11c0.6,0.2,1.4,0.1,1.9-0.3s0.8-1.1,0.7-1.8l-3.5-33.6c0-0.4-0.2-0.7-0.4-1C942.3,107.5,941.7,107.2,941,107.2z"/>
		</g>
	</g>
</g>
<line class="st3" x1="48" y1="369.7" x2="1091" y2="369.7"/>
<rect x="47.6" y="307.3" class="st0" width="405.4" height="93"/>
<g class="st4">
	<path class="st2" d="M53.8,307.3c1,0,1.9,0.1,2.6,0.3c0.7,0.2,1.2,0.5,1.6,0.9c0.4,0.4,0.6,0.8,0.8,1.3c0.1,0.5,0.2,1,0.2,1.6
		s-0.1,1.1-0.2,1.7c-0.2,0.5-0.4,1-0.8,1.4c-0.4,0.4-0.9,0.7-1.6,1c-0.7,0.2-1.5,0.3-2.6,0.3h-3.4v5.8h-1.2v-14.3L53.8,307.3
		L53.8,307.3z M55.8,314.5c0.5-0.2,0.9-0.4,1.2-0.7s0.5-0.6,0.6-1s0.2-0.9,0.2-1.4s-0.1-1-0.2-1.4c-0.1-0.4-0.3-0.7-0.6-1
		s-0.7-0.5-1.2-0.6s-1.1-0.2-1.9-0.2h-3.4v6.4h3.4C54.6,314.7,55.3,314.7,55.8,314.5z"/>
	<path class="st2" d="M66.7,320.7c-0.2,0.2-0.5,0.4-0.8,0.5s-0.6,0.3-1,0.4s-0.8,0.1-1.2,0.1c-1.1,0-1.9-0.3-2.6-0.8
		c-0.7-0.5-1-1.3-1-2.3c0-0.7,0.1-1.3,0.4-1.7c0.3-0.4,0.7-0.8,1.2-1c0.5-0.3,1-0.4,1.7-0.5c0.6-0.1,1.3-0.2,1.9-0.2l2-0.1v-0.3
		c0-1-0.2-1.8-0.6-2.2c-0.4-0.5-1.1-0.7-2.1-0.7c-0.5,0-0.9,0-1.3,0.1c-0.3,0.1-0.6,0.2-0.9,0.4s-0.4,0.3-0.5,0.5s-0.2,0.4-0.3,0.7
		l-1.1-0.2c0.4-1.7,1.7-2.5,4-2.5c0.7,0,1.3,0.1,1.8,0.3c0.5,0.2,0.9,0.4,1.2,0.8c0.3,0.3,0.5,0.7,0.6,1.2s0.2,1,0.2,1.6v6.8h-1.2
		v-1.5C67.1,320.3,66.9,320.5,66.7,320.7z M65.4,316.2c-0.8,0-1.4,0.1-1.9,0.2s-0.9,0.3-1.3,0.5c-0.3,0.2-0.6,0.5-0.7,0.8
		c-0.1,0.3-0.2,0.7-0.2,1.1c0,0.6,0.2,1.1,0.5,1.5c0.4,0.4,1,0.6,1.9,0.6c0.4,0,0.9-0.1,1.3-0.2s0.8-0.3,1.1-0.5
		c0.2-0.2,0.4-0.3,0.6-0.5s0.3-0.3,0.4-0.5s0.2-0.4,0.2-0.7c0-0.2,0.1-0.5,0.1-0.8v-1.5H65.4z"/>
	<path class="st2" d="M70.9,307.5v1.7h-1.3v-1.7H70.9z M72.5,311.3v10.3h-1.2v-10.3H72.5z M74.2,307.5v1.7h-1.3v-1.7H74.2z"/>
	<path class="st2" d="M77,320.4c0.5,0.3,1.3,0.5,2.3,0.5s1.7-0.2,2.1-0.6s0.6-0.8,0.6-1.4c0-0.2,0-0.5-0.1-0.7s-0.2-0.4-0.3-0.6
		c-0.2-0.2-0.4-0.3-0.7-0.4c-0.3-0.1-0.7-0.2-1.1-0.3l-1.3-0.2c-0.5-0.1-1-0.2-1.5-0.3c-0.4-0.1-0.8-0.3-1.1-0.5
		c-0.3-0.2-0.5-0.5-0.7-0.8s-0.2-0.7-0.2-1.2s0.1-0.9,0.3-1.2c0.2-0.4,0.5-0.7,0.8-0.9c0.3-0.2,0.8-0.4,1.2-0.6
		c0.5-0.1,1-0.2,1.5-0.2c0.7,0,1.3,0.1,1.8,0.2s0.9,0.3,1.2,0.6c0.3,0.2,0.5,0.5,0.7,0.8s0.3,0.7,0.4,1l-1.1,0.2
		c-0.1-0.3-0.2-0.6-0.4-0.8c-0.1-0.2-0.3-0.4-0.5-0.6s-0.5-0.3-0.8-0.3c-0.3-0.1-0.7-0.1-1.2-0.1s-1,0-1.3,0.2
		c-0.4,0.1-0.6,0.2-0.9,0.4c-0.2,0.2-0.4,0.4-0.5,0.6s-0.1,0.5-0.1,0.7s0,0.5,0.1,0.7s0.2,0.4,0.3,0.5s0.4,0.3,0.7,0.4
		c0.3,0.1,0.7,0.2,1.1,0.3l1.6,0.3c1.1,0.2,1.9,0.5,2.4,1s0.8,1.2,0.8,2.1c0,0.4-0.1,0.8-0.3,1.1c-0.2,0.4-0.4,0.7-0.7,0.9
		c-0.3,0.3-0.7,0.5-1.2,0.6s-1.1,0.2-1.7,0.2s-1.2-0.1-1.7-0.2s-1-0.3-1.4-0.6c-0.4-0.3-0.7-0.6-0.9-1s-0.4-0.9-0.4-1.5h1.1
		C76.1,319.5,76.4,320.1,77,320.4z"/>
	<path class="st2" d="M88,321.5c-0.6-0.3-1.1-0.6-1.5-1.1s-0.7-1-0.9-1.7c-0.2-0.7-0.3-1.4-0.3-2.2c0-0.8,0.1-1.6,0.4-2.3
		c0.2-0.7,0.6-1.3,1-1.7c0.4-0.5,0.9-0.8,1.5-1.1c0.6-0.3,1.3-0.4,2-0.4s1.4,0.1,2,0.4s1.1,0.6,1.5,1.1s0.7,1,1,1.7
		c0.2,0.7,0.3,1.4,0.3,2.2c0,0.8-0.1,1.6-0.3,2.3c-0.2,0.7-0.6,1.3-1,1.8s-0.9,0.9-1.5,1.1c-0.6,0.3-1.3,0.4-2.1,0.4
		S88.6,321.8,88,321.5z M91.8,320.5c0.5-0.2,0.8-0.5,1.1-1c0.3-0.4,0.5-0.9,0.6-1.4s0.2-1.1,0.2-1.8c0-0.6-0.1-1.2-0.2-1.7
		s-0.3-1-0.6-1.4c-0.3-0.4-0.7-0.7-1.1-1c-0.5-0.2-1-0.3-1.7-0.3c-0.6,0-1.2,0.1-1.7,0.3s-0.8,0.6-1.1,1c-0.3,0.4-0.5,0.9-0.6,1.4
		s-0.2,1.1-0.2,1.8s0.1,1.2,0.2,1.8s0.3,1,0.6,1.4c0.3,0.4,0.7,0.7,1.1,1s1,0.4,1.7,0.4C90.8,320.9,91.3,320.8,91.8,320.5z"/>
	<path class="st2" d="M99.1,320.4c0.5,0.3,1.3,0.5,2.3,0.5s1.7-0.2,2.1-0.6s0.6-0.8,0.6-1.4c0-0.2,0-0.5-0.1-0.7s-0.2-0.4-0.3-0.6
		c-0.2-0.2-0.4-0.3-0.7-0.4c-0.3-0.1-0.7-0.2-1.1-0.3l-1.3-0.2c-0.5-0.1-1-0.2-1.5-0.3c-0.4-0.1-0.8-0.3-1.1-0.5
		c-0.3-0.2-0.5-0.5-0.7-0.8s-0.2-0.7-0.2-1.2s0.1-0.9,0.3-1.2c0.2-0.4,0.5-0.7,0.8-0.9c0.3-0.2,0.8-0.4,1.2-0.6
		c0.5-0.1,1-0.2,1.5-0.2c0.7,0,1.3,0.1,1.8,0.2s0.9,0.3,1.2,0.6c0.3,0.2,0.5,0.5,0.7,0.8s0.3,0.7,0.4,1l-1.1,0.2
		c-0.1-0.3-0.2-0.6-0.4-0.8c-0.1-0.2-0.3-0.4-0.5-0.6s-0.5-0.3-0.8-0.3c-0.3-0.1-0.7-0.1-1.2-0.1s-1,0-1.3,0.2
		c-0.4,0.1-0.6,0.2-0.9,0.4c-0.2,0.2-0.4,0.4-0.5,0.6s-0.1,0.5-0.1,0.7s0,0.5,0.1,0.7s0.2,0.4,0.3,0.5s0.4,0.3,0.7,0.4
		c0.3,0.1,0.7,0.2,1.1,0.3l1.6,0.3c1.1,0.2,1.9,0.5,2.4,1s0.8,1.2,0.8,2.1c0,0.4-0.1,0.8-0.3,1.1c-0.2,0.4-0.4,0.7-0.7,0.9
		c-0.3,0.3-0.7,0.5-1.2,0.6s-1.1,0.2-1.7,0.2s-1.2-0.1-1.7-0.2s-1-0.3-1.4-0.6c-0.4-0.3-0.7-0.6-0.9-1s-0.4-0.9-0.4-1.5H98
		C98.2,319.5,98.6,320.1,99.1,320.4z"/>
	<path class="st2" d="M113.5,307.3v1.7h-1.3v-1.7H113.5z M113.4,311.3v10.3h-1.2v-10.3H113.4z"/>
	<path class="st2" d="M117.5,311.3v1.7c0.6-0.7,1.2-1.2,1.8-1.5c0.6-0.3,1.3-0.5,2-0.5c1.2,0,2,0.3,2.6,1s0.8,1.6,0.8,2.8v6.9h-1.2
		v-6.5c0-1.1-0.2-1.9-0.6-2.3s-1-0.7-1.8-0.7c-0.4,0-0.8,0.1-1.3,0.2c-0.4,0.2-0.9,0.4-1.2,0.7c-0.4,0.3-0.7,0.7-0.9,1.1
		c-0.2,0.4-0.3,0.9-0.3,1.5v6h-1.2v-10.3h1.3V311.3z"/>
	<path class="st2" d="M133.6,321.4c-0.6,0.3-1.3,0.5-2.1,0.5s-1.4-0.1-2-0.4s-1-0.7-1.4-1.2c-0.4-0.5-0.6-1.1-0.8-1.7
		s-0.3-1.3-0.3-2c0-1.8,0.4-3.1,1.2-4.1c0.8-1,2-1.5,3.4-1.5c0.6,0,1.1,0.1,1.7,0.4c0.6,0.2,1.1,0.7,1.6,1.4v-5.4h1.2v14.3h-1.2
		v-1.5C134.7,320.6,134.2,321.1,133.6,321.4z M135.1,314.8c-0.1-0.3-0.1-0.6-0.2-0.9c-0.1-0.3-0.3-0.5-0.4-0.7
		c-0.2-0.2-0.4-0.4-0.6-0.6c-0.3-0.2-0.6-0.4-1-0.5s-0.7-0.2-1.1-0.2c-0.5,0-0.9,0.1-1.4,0.3s-0.8,0.4-1.1,0.8s-0.5,0.8-0.7,1.4
		s-0.3,1.3-0.3,2.1c0,0.8,0.1,1.5,0.3,2.1s0.4,1,0.8,1.4s0.6,0.6,1,0.7s0.8,0.2,1.1,0.2c0.4,0,0.8,0,1.1-0.1s0.7-0.3,1-0.5
		c0.5-0.3,0.8-0.8,1.1-1.3s0.4-1.2,0.4-2v-0.9C135.2,315.6,135.2,315.1,135.1,314.8z"/>
	<path class="st2" d="M140.2,311.3v6.5c0,1.1,0.2,1.9,0.5,2.3c0.3,0.5,0.9,0.7,1.8,0.7c0.4,0,0.8-0.1,1.2-0.2
		c0.4-0.2,0.8-0.4,1.2-0.7c0.4-0.3,0.7-0.7,0.9-1.1s0.3-0.9,0.3-1.5v-6h1.2v10.3h-1.2v-1.7c-1.1,1.3-2.3,2-3.7,2c-1.2,0-2-0.3-2.5-1
		c-0.5-0.6-0.8-1.6-0.8-2.8v-6.9h1.1V311.3z"/>
	<path class="st2" d="M151.7,320.4c0.5,0.3,1.3,0.5,2.3,0.5s1.7-0.2,2.1-0.6c0.4-0.4,0.6-0.8,0.6-1.4c0-0.2,0-0.5-0.1-0.7
		s-0.2-0.4-0.3-0.6c-0.2-0.2-0.4-0.3-0.7-0.4s-0.7-0.2-1.1-0.3l-1.3-0.2c-0.5-0.1-1-0.2-1.5-0.3c-0.4-0.1-0.8-0.3-1.1-0.5
		s-0.5-0.5-0.7-0.8s-0.2-0.7-0.2-1.2s0.1-0.9,0.3-1.2c0.2-0.4,0.5-0.7,0.8-0.9c0.3-0.2,0.8-0.4,1.2-0.6c0.5-0.1,1-0.2,1.5-0.2
		c0.7,0,1.3,0.1,1.8,0.2s0.9,0.3,1.2,0.6c0.3,0.2,0.5,0.5,0.7,0.8s0.3,0.7,0.4,1l-1.1,0.2c-0.1-0.3-0.2-0.6-0.4-0.8
		c-0.1-0.2-0.3-0.4-0.5-0.6s-0.5-0.3-0.8-0.3c-0.3-0.1-0.7-0.1-1.2-0.1s-1,0-1.3,0.2c-0.4,0.1-0.6,0.2-0.9,0.4
		c-0.2,0.2-0.4,0.4-0.5,0.6s-0.1,0.5-0.1,0.7s0,0.5,0.1,0.7s0.2,0.4,0.3,0.5s0.4,0.3,0.7,0.4s0.7,0.2,1.1,0.3l1.6,0.3
		c1.1,0.2,1.9,0.5,2.4,1s0.8,1.2,0.8,2.1c0,0.4-0.1,0.8-0.3,1.1c-0.2,0.4-0.4,0.7-0.7,0.9c-0.3,0.3-0.7,0.5-1.2,0.6
		s-1.1,0.2-1.7,0.2c-0.6,0-1.2-0.1-1.7-0.2s-1-0.3-1.4-0.6c-0.4-0.3-0.7-0.6-0.9-1s-0.4-0.9-0.4-1.5h1.1
		C150.8,319.5,151.1,320.1,151.7,320.4z"/>
	<path class="st2" d="M159.3,312.2v-1h1.6v-2.8h1.2v2.8h2.9v1h-3v6.7c0,0.5,0.1,0.9,0.3,1.3s0.6,0.5,1.1,0.5c0.3,0,0.6,0,0.9-0.1
		c0.2-0.1,0.5-0.1,0.6-0.2l0.2,0.9c-0.2,0.1-0.4,0.2-0.7,0.2s-0.7,0.1-1.1,0.1c-0.6,0-1-0.1-1.4-0.3s-0.6-0.5-0.8-0.8
		s-0.3-0.7-0.3-1.1s-0.1-0.9-0.1-1.3v-6L159.3,312.2L159.3,312.2z"/>
	<path class="st2" d="M168.1,311.3v1.7c0.4-0.6,0.9-1,1.4-1.4c0.5-0.3,1.1-0.5,1.7-0.5c0.1,0,0.3,0,0.4,0s0.3,0,0.4,0l-0.1,1.1
		c-0.2,0-0.5-0.1-0.7-0.1c-0.3,0-0.7,0.1-1.1,0.2c-0.4,0.1-0.7,0.3-1,0.7c-0.3,0.3-0.6,0.6-0.8,1s-0.3,0.8-0.3,1.4v6.2h-1.2v-10.3
		L168.1,311.3L168.1,311.3z"/>
	<path class="st2" d="M174.9,307.3v1.7h-1.3v-1.7H174.9z M174.9,311.3v10.3h-1.2v-10.3H174.9z"/>
	<path class="st2" d="M183.7,320.7c-0.2,0.2-0.5,0.4-0.8,0.5s-0.6,0.3-1,0.4s-0.8,0.1-1.2,0.1c-1.1,0-1.9-0.3-2.6-0.8
		c-0.7-0.5-1-1.3-1-2.3c0-0.7,0.1-1.3,0.4-1.7c0.3-0.4,0.7-0.8,1.2-1c0.5-0.3,1-0.4,1.7-0.5c0.6-0.1,1.3-0.2,1.9-0.2l2-0.1v-0.3
		c0-1-0.2-1.8-0.6-2.2c-0.4-0.5-1.1-0.7-2.1-0.7c-0.5,0-0.9,0-1.3,0.1c-0.3,0.1-0.6,0.2-0.9,0.4s-0.4,0.3-0.5,0.5s-0.2,0.4-0.3,0.7
		l-1.1-0.2c0.4-1.7,1.7-2.5,4-2.5c0.7,0,1.3,0.1,1.8,0.3c0.5,0.2,0.9,0.4,1.2,0.8c0.3,0.3,0.5,0.7,0.6,1.2s0.2,1,0.2,1.6v6.8h-1.2
		v-1.5C184.1,320.3,183.9,320.5,183.7,320.7z M182.4,316.2c-0.8,0-1.4,0.1-1.9,0.2s-0.9,0.3-1.3,0.5c-0.3,0.2-0.6,0.5-0.7,0.8
		c-0.1,0.3-0.2,0.7-0.2,1.1c0,0.6,0.2,1.1,0.5,1.5c0.4,0.4,1,0.6,1.9,0.6c0.4,0,0.9-0.1,1.3-0.2c0.4-0.1,0.8-0.3,1.1-0.5
		c0.2-0.2,0.4-0.3,0.6-0.5s0.3-0.3,0.4-0.5c0.1-0.2,0.2-0.4,0.2-0.7c0-0.2,0.1-0.5,0.1-0.8v-1.5H182.4z"/>
	<path class="st2" d="M189.4,307.3v14.3h-1.2v-14.3H189.4z"/>
	<path class="st2" d="M193.6,307.3v1.7h-1.3v-1.7H193.6z M193.5,311.3v10.3h-1.2v-10.3H193.5z"/>
	<path class="st2" d="M202,312.3h-6.4v-1h7.8v1l-6.5,8.3h6.9l-0.2,1h-8.1v-1L202,312.3z"/>
	<path class="st2" d="M211.5,320.7c-0.2,0.2-0.5,0.4-0.8,0.5s-0.6,0.3-1,0.4s-0.8,0.1-1.2,0.1c-1.1,0-1.9-0.3-2.6-0.8
		c-0.7-0.5-1-1.3-1-2.3c0-0.7,0.1-1.3,0.4-1.7c0.3-0.4,0.7-0.8,1.2-1c0.5-0.3,1-0.4,1.7-0.5c0.6-0.1,1.3-0.2,1.9-0.2l2-0.1v-0.3
		c0-1-0.2-1.8-0.6-2.2c-0.4-0.5-1.1-0.7-2.1-0.7c-0.5,0-0.9,0-1.3,0.1c-0.3,0.1-0.6,0.2-0.9,0.4s-0.4,0.3-0.5,0.5s-0.2,0.4-0.3,0.7
		l-1.1-0.2c0.4-1.7,1.7-2.5,4-2.5c0.7,0,1.3,0.1,1.8,0.3c0.5,0.2,0.9,0.4,1.2,0.8c0.3,0.3,0.5,0.7,0.6,1.2s0.2,1,0.2,1.6v6.8h-1.2
		v-1.5C212,320.3,211.8,320.5,211.5,320.7z M210.2,316.2c-0.8,0-1.4,0.1-1.9,0.2s-0.9,0.3-1.3,0.5c-0.3,0.2-0.6,0.5-0.7,0.8
		c-0.1,0.3-0.2,0.7-0.2,1.1c0,0.6,0.2,1.1,0.5,1.5c0.4,0.4,1,0.6,1.9,0.6c0.4,0,0.9-0.1,1.3-0.2c0.4-0.1,0.8-0.3,1.1-0.5
		c0.2-0.2,0.4-0.3,0.6-0.5s0.3-0.3,0.4-0.5c0.1-0.2,0.2-0.4,0.2-0.7c0-0.2,0.1-0.5,0.1-0.8v-1.5H210.2z"/>
	<path class="st2" d="M215.1,312.2v-1h1.6v-2.8h1.2v2.8h2.9v1h-2.9v6.7c0,0.5,0.1,0.9,0.3,1.3s0.6,0.5,1.1,0.5c0.3,0,0.6,0,0.9-0.1
		c0.2-0.1,0.5-0.1,0.6-0.2l0.2,0.9c-0.2,0.1-0.4,0.2-0.7,0.2s-0.7,0.1-1.1,0.1c-0.6,0-1-0.1-1.4-0.3s-0.6-0.5-0.8-0.8
		s-0.3-0.7-0.3-1.1s-0.1-0.9-0.1-1.3v-6L215.1,312.2L215.1,312.2z"/>
	<path class="st2" d="M224.3,320.4c0.5,0.3,1.3,0.5,2.3,0.5s1.7-0.2,2.1-0.6c0.4-0.4,0.6-0.8,0.6-1.4c0-0.2,0-0.5-0.1-0.7
		s-0.2-0.4-0.3-0.6c-0.2-0.2-0.4-0.3-0.7-0.4s-0.7-0.2-1.1-0.3l-1.3-0.2c-0.5-0.1-1-0.2-1.5-0.3c-0.4-0.1-0.8-0.3-1.1-0.5
		s-0.5-0.5-0.7-0.8s-0.2-0.7-0.2-1.2s0.1-0.9,0.3-1.2c0.2-0.4,0.5-0.7,0.8-0.9c0.3-0.2,0.8-0.4,1.2-0.6c0.5-0.1,1-0.2,1.5-0.2
		c0.7,0,1.3,0.1,1.8,0.2s0.9,0.3,1.2,0.6c0.3,0.2,0.5,0.5,0.7,0.8s0.3,0.7,0.4,1l-1.1,0.2c-0.1-0.3-0.2-0.6-0.4-0.8
		c-0.1-0.2-0.3-0.4-0.5-0.6s-0.5-0.3-0.8-0.3c-0.3-0.1-0.7-0.1-1.2-0.1s-1,0-1.3,0.2c-0.4,0.1-0.6,0.2-0.9,0.4
		c-0.2,0.2-0.4,0.4-0.5,0.6s-0.1,0.5-0.1,0.7s0,0.5,0.1,0.7s0.2,0.4,0.3,0.5s0.4,0.3,0.7,0.4s0.7,0.2,1.1,0.3l1.6,0.3
		c1.1,0.2,1.9,0.5,2.4,1s0.8,1.2,0.8,2.1c0,0.4-0.1,0.8-0.3,1.1c-0.2,0.4-0.4,0.7-0.7,0.9c-0.3,0.3-0.7,0.5-1.2,0.6
		s-1.1,0.2-1.7,0.2c-0.6,0-1.2-0.1-1.7-0.2s-1-0.3-1.4-0.6c-0.4-0.3-0.7-0.6-0.9-1s-0.4-0.9-0.4-1.5h1.1
		C223.4,319.5,223.8,320.1,224.3,320.4z"/>
</g>
<g class="st4">
	<path class="st2" d="M55.1,345.4c-0.6,0.3-1.3,0.5-2.1,0.5s-1.4-0.1-2-0.4s-1-0.7-1.4-1.2s-0.6-1.1-0.8-1.7s-0.3-1.3-0.3-2
		c0-1.8,0.4-3.1,1.2-4.1s2-1.5,3.4-1.5c0.6,0,1.1,0.1,1.7,0.4c0.6,0.2,1.1,0.7,1.6,1.4v-5.4h1.2v14.3h-1.2v-1.5
		C56.2,344.6,55.7,345.1,55.1,345.4z M56.6,338.8c-0.1-0.3-0.1-0.6-0.2-0.9c-0.1-0.3-0.3-0.5-0.4-0.7c-0.2-0.2-0.4-0.4-0.6-0.6
		c-0.3-0.2-0.6-0.4-1-0.5s-0.7-0.2-1.1-0.2c-0.5,0-0.9,0.1-1.4,0.3s-0.8,0.4-1.1,0.8s-0.5,0.8-0.7,1.4s-0.3,1.3-0.3,2.1
		c0,0.8,0.1,1.5,0.3,2.1s0.4,1,0.8,1.4s0.6,0.6,1,0.7s0.8,0.2,1.1,0.2c0.4,0,0.8,0,1.1-0.1s0.7-0.3,1-0.5c0.5-0.3,0.8-0.8,1.1-1.3
		s0.4-1.2,0.4-2v-0.9C56.7,339.6,56.7,339.1,56.6,338.8z"/>
	<path class="st2" d="M67.9,345.1c-0.7,0.6-1.7,0.8-3,0.8c-1.5,0-2.6-0.5-3.5-1.4c-0.8-1-1.2-2.3-1.2-3.9c0-0.9,0.1-1.7,0.4-2.4
		s0.6-1.3,1-1.8s0.9-0.8,1.5-1.1c0.6-0.2,1.2-0.4,1.9-0.4c0.8,0,1.5,0.1,2,0.4c0.6,0.3,1,0.6,1.4,1.1c0.4,0.4,0.6,1,0.8,1.6
		c0.2,0.6,0.2,1.3,0.2,2v0.7h-7.9c0,0.6,0.1,1.1,0.2,1.7c0.1,0.5,0.4,1,0.7,1.3s0.7,0.7,1.1,0.9c0.4,0.2,0.9,0.3,1.5,0.3
		c0.5,0,1,0,1.3-0.1c0.4-0.1,0.7-0.2,0.9-0.4c0.2-0.2,0.4-0.4,0.6-0.6c0.1-0.2,0.3-0.5,0.3-0.8h1.1
		C69.1,343.8,68.6,344.5,67.9,345.1z M68,338.2c-0.1-0.5-0.3-0.9-0.6-1.2c-0.3-0.3-0.6-0.6-1-0.8c-0.4-0.2-0.9-0.3-1.5-0.3
		c-1,0-1.8,0.3-2.4,0.9s-1,1.6-1.1,2.9h6.7C68.2,339.2,68.1,338.6,68,338.2z"/>
	<path class="st2" d="M73,331.3v14.3h-1.2v-14.3H73z"/>
	<path class="st2" d="M82,331.3l8,12.4v-12.4h1.2v14.3h-1.3l-8-12.4v12.4h-1.2v-14.3H82z"/>
	<path class="st2" d="M96.6,345.5c-0.6-0.3-1.1-0.6-1.5-1.1s-0.7-1-0.9-1.7c-0.2-0.7-0.3-1.4-0.3-2.2c0-0.8,0.1-1.6,0.4-2.3
		c0.2-0.7,0.6-1.3,1-1.7c0.4-0.5,0.9-0.8,1.5-1.1c0.6-0.3,1.3-0.4,2-0.4s1.4,0.1,2,0.4s1.1,0.6,1.5,1.1s0.7,1,1,1.7
		c0.2,0.7,0.3,1.4,0.3,2.2c0,0.8-0.1,1.6-0.3,2.3c-0.2,0.7-0.6,1.3-1,1.8s-0.9,0.9-1.5,1.1c-0.6,0.3-1.3,0.4-2.1,0.4
		S97.2,345.8,96.6,345.5z M100.4,344.5c0.5-0.2,0.8-0.5,1.1-1c0.3-0.4,0.5-0.9,0.6-1.4s0.2-1.1,0.2-1.8c0-0.6-0.1-1.2-0.2-1.7
		s-0.3-1-0.6-1.4c-0.3-0.4-0.7-0.7-1.1-1c-0.5-0.2-1-0.3-1.7-0.3c-0.6,0-1.2,0.1-1.7,0.3s-0.8,0.6-1.1,1c-0.3,0.4-0.5,0.9-0.6,1.4
		s-0.2,1.1-0.2,1.8s0.1,1.2,0.2,1.8s0.3,1,0.6,1.4c0.3,0.4,0.7,0.7,1.1,1s1,0.4,1.7,0.4C99.4,344.9,99.9,344.8,100.4,344.5z"/>
	<path class="st2" d="M107.2,335.3v1.7c0.4-0.6,0.9-1,1.4-1.4c0.5-0.3,1.1-0.5,1.7-0.5c0.1,0,0.3,0,0.4,0s0.3,0,0.4,0l-0.1,1.1
		c-0.2,0-0.5-0.1-0.7-0.1c-0.3,0-0.7,0.1-1.1,0.2s-0.7,0.3-1,0.7c-0.3,0.3-0.6,0.6-0.8,1c-0.2,0.4-0.3,0.8-0.3,1.4v6.2H106v-10.3
		L107.2,335.3L107.2,335.3z"/>
	<path class="st2" d="M118.3,345.4c-0.6,0.3-1.3,0.5-2.1,0.5c-0.8,0-1.4-0.1-2-0.4s-1-0.7-1.4-1.2s-0.6-1.1-0.8-1.7s-0.3-1.3-0.3-2
		c0-1.8,0.4-3.1,1.2-4.1c0.8-1,2-1.5,3.4-1.5c0.6,0,1.1,0.1,1.7,0.4c0.6,0.2,1.1,0.7,1.6,1.4v-5.4h1.2v14.3h-1.2v-1.5
		C119.4,344.6,118.9,345.1,118.3,345.4z M119.8,338.8c-0.1-0.3-0.1-0.6-0.2-0.9s-0.3-0.5-0.4-0.7c-0.2-0.2-0.4-0.4-0.6-0.6
		c-0.3-0.2-0.6-0.4-1-0.5s-0.7-0.2-1.1-0.2c-0.5,0-0.9,0.1-1.4,0.3c-0.4,0.2-0.8,0.4-1.1,0.8c-0.3,0.4-0.5,0.8-0.7,1.4
		s-0.3,1.3-0.3,2.1c0,0.8,0.1,1.5,0.3,2.1s0.4,1,0.8,1.4s0.6,0.6,1,0.7s0.8,0.2,1.1,0.2c0.4,0,0.8,0,1.1-0.1c0.3-0.1,0.7-0.3,1-0.5
		c0.5-0.3,0.8-0.8,1.1-1.3c0.3-0.5,0.4-1.2,0.4-2v-0.9C119.9,339.6,119.8,339.1,119.8,338.8z"/>
	<path class="st2" d="M139.8,338.5v5.5c-0.3,0.3-0.7,0.6-1.2,0.9c-0.4,0.2-0.9,0.4-1.3,0.6s-0.9,0.3-1.4,0.3s-0.9,0.1-1.4,0.1
		c-1,0-1.9-0.2-2.7-0.5s-1.5-0.8-2.1-1.4s-1-1.4-1.3-2.3s-0.5-2-0.5-3.2s0.2-2.3,0.5-3.3c0.3-0.9,0.8-1.7,1.3-2.4
		c0.6-0.6,1.2-1.1,2-1.4s1.6-0.5,2.5-0.5c1.5,0,2.7,0.3,3.5,1s1.4,1.6,1.7,2.9l-1.1,0.3c-0.1-0.5-0.3-0.9-0.5-1.3s-0.5-0.7-0.8-1
		s-0.7-0.5-1.2-0.6c-0.5-0.2-1-0.2-1.6-0.2c-0.8,0-1.6,0.2-2.2,0.5c-0.6,0.3-1.2,0.8-1.6,1.3s-0.8,1.3-1,2c-0.2,0.8-0.3,1.6-0.3,2.6
		c0,0.9,0.1,1.8,0.3,2.6s0.5,1.5,1,2c0.4,0.6,1,1,1.7,1.3s1.4,0.5,2.3,0.5c0.8,0,1.5-0.1,2.2-0.3c0.7-0.2,1.4-0.5,1.9-1v-4h-4.1
		v-1.1h5.4V338.5z"/>
	<path class="st2" d="M143.7,331.3v14.3h-1.2v-14.3H143.7z"/>
	<path class="st2" d="M149,345.5c-0.6-0.3-1.1-0.6-1.5-1.1s-0.7-1-0.9-1.7s-0.3-1.4-0.3-2.2c0-0.8,0.1-1.6,0.4-2.3
		c0.2-0.7,0.6-1.3,1-1.7c0.4-0.5,0.9-0.8,1.5-1.1c0.6-0.3,1.3-0.4,2-0.4s1.4,0.1,2,0.4s1.1,0.6,1.5,1.1s0.7,1,1,1.7
		c0.2,0.7,0.3,1.4,0.3,2.2c0,0.8-0.1,1.6-0.3,2.3c-0.2,0.7-0.6,1.3-1,1.8s-0.9,0.9-1.5,1.1c-0.6,0.3-1.3,0.4-2.1,0.4
		S149.6,345.8,149,345.5z M152.7,344.5c0.5-0.2,0.8-0.5,1.1-1c0.3-0.4,0.5-0.9,0.6-1.4s0.2-1.1,0.2-1.8c0-0.6-0.1-1.2-0.2-1.7
		c-0.1-0.5-0.3-1-0.6-1.4s-0.7-0.7-1.1-1c-0.5-0.2-1-0.3-1.7-0.3c-0.6,0-1.2,0.1-1.7,0.3s-0.8,0.6-1.1,1s-0.5,0.9-0.6,1.4
		s-0.2,1.1-0.2,1.8s0.1,1.2,0.2,1.8s0.3,1,0.6,1.4s0.7,0.7,1.1,1s1,0.4,1.7,0.4C151.7,344.9,152.3,344.8,152.7,344.5z"/>
	<path class="st2" d="M159.6,331.3v5.5c0.5-0.6,1-1,1.5-1.4c0.6-0.3,1.2-0.5,2-0.5c0.7,0,1.4,0.1,2,0.4s1,0.6,1.4,1.1s0.6,1,0.8,1.7
		s0.3,1.4,0.3,2.1c0,0.9-0.1,1.7-0.3,2.4c-0.2,0.7-0.5,1.3-0.9,1.8s-0.9,0.8-1.5,1.1c-0.6,0.3-1.2,0.4-1.9,0.4
		c-0.6,0-1.2-0.1-1.8-0.4s-1.1-0.7-1.6-1.3v1.4h-1.2v-14.3L159.6,331.3L159.6,331.3z M159.6,342c0,0.3,0.1,0.6,0.2,0.9
		s0.3,0.5,0.4,0.7c0.2,0.2,0.4,0.4,0.6,0.6c0.3,0.2,0.6,0.4,0.9,0.5c0.3,0.1,0.7,0.2,1.1,0.2c0.5,0,0.9-0.1,1.4-0.3
		c0.4-0.2,0.8-0.4,1.1-0.8s0.5-0.8,0.7-1.4s0.3-1.3,0.3-2.1c0-0.8-0.1-1.5-0.3-2.1s-0.4-1-0.8-1.3c-0.3-0.3-0.7-0.6-1-0.7
		s-0.8-0.2-1.1-0.2c-0.4,0-0.8,0-1.1,0.1s-0.7,0.3-1,0.5c-0.5,0.3-0.8,0.8-1.1,1.3s-0.4,1.2-0.4,2v0.9
		C159.5,341.3,159.5,341.7,159.6,342z"/>
	<path class="st2" d="M176,344.7c-0.2,0.2-0.5,0.4-0.8,0.5s-0.6,0.3-1,0.4s-0.8,0.1-1.2,0.1c-1.1,0-1.9-0.3-2.6-0.8
		c-0.7-0.5-1-1.3-1-2.3c0-0.7,0.1-1.3,0.4-1.7c0.3-0.4,0.7-0.8,1.2-1c0.5-0.3,1-0.4,1.7-0.5c0.6-0.1,1.3-0.2,1.9-0.2l2-0.1v-0.3
		c0-1-0.2-1.8-0.6-2.2c-0.4-0.5-1.1-0.7-2.1-0.7c-0.5,0-0.9,0-1.3,0.1c-0.3,0.1-0.6,0.2-0.9,0.4s-0.4,0.3-0.5,0.5s-0.2,0.4-0.3,0.7
		l-1.1-0.2c0.4-1.7,1.7-2.5,4-2.5c0.7,0,1.3,0.1,1.8,0.3c0.5,0.2,0.9,0.4,1.2,0.8c0.3,0.3,0.5,0.7,0.6,1.2s0.2,1,0.2,1.6v6.8h-1.2
		v-1.5C176.4,344.3,176.2,344.5,176,344.7z M174.7,340.2c-0.8,0-1.4,0.1-1.9,0.2s-0.9,0.3-1.3,0.5c-0.3,0.2-0.6,0.5-0.7,0.8
		c-0.1,0.3-0.2,0.7-0.2,1.1c0,0.6,0.2,1.1,0.5,1.5c0.4,0.4,1,0.6,1.9,0.6c0.4,0,0.9-0.1,1.3-0.2c0.4-0.1,0.8-0.3,1.1-0.5
		c0.2-0.2,0.4-0.3,0.6-0.5s0.3-0.3,0.4-0.5c0.1-0.2,0.2-0.4,0.2-0.7c0-0.2,0.1-0.5,0.1-0.8v-1.5H174.7z"/>
	<path class="st2" d="M181.8,331.3v14.3h-1.2v-14.3H181.8z"/>
</g>
<rect x="47.6" y="395.3" class="st0" width="405.4" height="93"/>
<g class="st4">
	<path class="st2" d="M53.8,395.3c1,0,1.9,0.1,2.6,0.3c0.7,0.2,1.2,0.5,1.6,0.9c0.4,0.4,0.6,0.8,0.8,1.3c0.1,0.5,0.2,1,0.2,1.6
		s-0.1,1.1-0.2,1.7s-0.4,1-0.8,1.4s-0.9,0.7-1.6,1c-0.7,0.2-1.5,0.3-2.6,0.3h-3.4v5.8h-1.2v-14.3H53.8z M55.8,402.5
		c0.5-0.2,0.9-0.4,1.2-0.7s0.5-0.6,0.6-1s0.2-0.9,0.2-1.4s-0.1-1-0.2-1.4c-0.1-0.4-0.3-0.7-0.6-1s-0.7-0.5-1.2-0.6s-1.1-0.2-1.9-0.2
		h-3.4v6.4h3.4C54.6,402.7,55.3,402.7,55.8,402.5z"/>
	<path class="st2" d="M66.7,408.7c-0.2,0.2-0.5,0.4-0.8,0.5s-0.6,0.3-1,0.4s-0.8,0.1-1.2,0.1c-1.1,0-1.9-0.3-2.6-0.8
		c-0.7-0.5-1-1.3-1-2.3c0-0.7,0.1-1.3,0.4-1.7c0.3-0.4,0.7-0.8,1.2-1s1-0.4,1.7-0.5c0.6-0.1,1.3-0.2,1.9-0.2l2-0.1v-0.3
		c0-1-0.2-1.8-0.6-2.2c-0.4-0.5-1.1-0.7-2.1-0.7c-0.5,0-0.9,0-1.3,0.1c-0.3,0.1-0.6,0.2-0.9,0.4c-0.2,0.2-0.4,0.3-0.5,0.5
		s-0.2,0.4-0.3,0.7l-1.1-0.2c0.4-1.7,1.7-2.5,4-2.5c0.7,0,1.3,0.1,1.8,0.3s0.9,0.4,1.2,0.8c0.3,0.3,0.5,0.7,0.6,1.2s0.2,1,0.2,1.6
		v6.8h-1.2v-1.5C67.1,408.3,66.9,408.5,66.7,408.7z M65.4,404.2c-0.8,0-1.4,0.1-1.9,0.2c-0.5,0.1-0.9,0.3-1.3,0.5
		c-0.3,0.2-0.6,0.5-0.7,0.8s-0.2,0.7-0.2,1.1c0,0.6,0.2,1.1,0.5,1.5c0.4,0.4,1,0.6,1.9,0.6c0.4,0,0.9-0.1,1.3-0.2
		c0.4-0.1,0.8-0.3,1.1-0.5c0.2-0.2,0.4-0.3,0.6-0.5s0.3-0.3,0.4-0.5s0.2-0.4,0.2-0.7s0.1-0.5,0.1-0.8v-1.5L65.4,404.2z"/>
	<path class="st2" d="M70.9,395.5v1.7h-1.3v-1.7H70.9z M72.5,399.3v10.3h-1.2v-10.3H72.5z M74.2,395.5v1.7h-1.3v-1.7H74.2z"/>
	<path class="st2" d="M77,408.4c0.5,0.3,1.3,0.5,2.3,0.5s1.7-0.2,2.1-0.6c0.4-0.4,0.6-0.8,0.6-1.4c0-0.2,0-0.5-0.1-0.7
		s-0.2-0.4-0.3-0.6c-0.2-0.2-0.4-0.3-0.7-0.4c-0.3-0.1-0.7-0.2-1.1-0.3l-1.3-0.2c-0.5-0.1-1-0.2-1.5-0.3c-0.4-0.1-0.8-0.3-1.1-0.5
		c-0.3-0.2-0.5-0.5-0.7-0.8s-0.2-0.7-0.2-1.2s0.1-0.9,0.3-1.2c0.2-0.4,0.5-0.7,0.8-0.9s0.8-0.4,1.2-0.6c0.5-0.1,1-0.2,1.5-0.2
		c0.7,0,1.3,0.1,1.8,0.2c0.5,0.1,0.9,0.3,1.2,0.6c0.3,0.2,0.5,0.5,0.7,0.8s0.3,0.7,0.4,1l-1.1,0.2c-0.1-0.3-0.2-0.6-0.4-0.8
		c-0.1-0.2-0.3-0.4-0.5-0.6c-0.2-0.2-0.5-0.3-0.8-0.3c-0.3-0.1-0.7-0.1-1.2-0.1s-1,0.1-1.3,0.2c-0.4,0.1-0.6,0.2-0.9,0.4
		s-0.4,0.4-0.5,0.6s-0.1,0.5-0.1,0.7s0,0.5,0.1,0.7s0.2,0.4,0.3,0.5s0.4,0.3,0.7,0.4c0.3,0.1,0.7,0.2,1.1,0.3l1.6,0.3
		c1.1,0.2,1.9,0.5,2.4,1s0.8,1.2,0.8,2.1c0,0.4-0.1,0.8-0.3,1.1c-0.2,0.4-0.4,0.7-0.7,0.9c-0.3,0.3-0.7,0.5-1.2,0.6
		c-0.5,0.2-1.1,0.2-1.7,0.2s-1.2-0.1-1.7-0.2c-0.5-0.1-1-0.3-1.4-0.6s-0.7-0.6-0.9-1s-0.4-0.9-0.4-1.5h1.1
		C76.1,407.5,76.4,408.1,77,408.4z"/>
	<path class="st2" d="M88,409.5c-0.6-0.3-1.1-0.6-1.5-1.1s-0.7-1-0.9-1.7c-0.2-0.7-0.3-1.4-0.3-2.2s0.1-1.6,0.4-2.3
		c0.2-0.7,0.6-1.3,1-1.7c0.4-0.5,0.9-0.8,1.5-1.1s1.3-0.4,2-0.4s1.4,0.1,2,0.4c0.6,0.3,1.1,0.6,1.5,1.1s0.7,1,1,1.7
		c0.2,0.7,0.3,1.4,0.3,2.2s-0.1,1.6-0.3,2.3c-0.2,0.7-0.6,1.3-1,1.8s-0.9,0.9-1.5,1.1s-1.3,0.4-2.1,0.4S88.6,409.8,88,409.5z
		 M91.8,408.5c0.5-0.2,0.8-0.5,1.1-0.9c0.3-0.4,0.5-0.9,0.6-1.4s0.2-1.1,0.2-1.8c0-0.6-0.1-1.2-0.2-1.7s-0.3-1-0.6-1.4
		c-0.3-0.4-0.7-0.7-1.1-1c-0.5-0.2-1-0.3-1.7-0.3c-0.6,0-1.2,0.1-1.7,0.3s-0.8,0.6-1.1,1c-0.3,0.4-0.5,0.9-0.6,1.4s-0.2,1.1-0.2,1.8
		s0.1,1.2,0.2,1.8s0.3,1,0.6,1.4c0.3,0.4,0.7,0.7,1.1,0.9c0.5,0.2,1,0.4,1.7,0.4C90.8,408.9,91.3,408.8,91.8,408.5z"/>
	<path class="st2" d="M99.1,408.4c0.5,0.3,1.3,0.5,2.3,0.5s1.7-0.2,2.1-0.6c0.4-0.4,0.6-0.8,0.6-1.4c0-0.2,0-0.5-0.1-0.7
		s-0.2-0.4-0.3-0.6c-0.2-0.2-0.4-0.3-0.7-0.4c-0.3-0.1-0.7-0.2-1.1-0.3l-1.3-0.2c-0.5-0.1-1-0.2-1.5-0.3c-0.4-0.1-0.8-0.3-1.1-0.5
		c-0.3-0.2-0.5-0.5-0.7-0.8s-0.2-0.7-0.2-1.2s0.1-0.9,0.3-1.2c0.2-0.4,0.5-0.7,0.8-0.9s0.8-0.4,1.2-0.6c0.5-0.1,1-0.2,1.5-0.2
		c0.7,0,1.3,0.1,1.8,0.2c0.5,0.1,0.9,0.3,1.2,0.6c0.3,0.2,0.5,0.5,0.7,0.8s0.3,0.7,0.4,1l-1.1,0.2c-0.1-0.3-0.2-0.6-0.4-0.8
		c-0.1-0.2-0.3-0.4-0.5-0.6c-0.2-0.2-0.5-0.3-0.8-0.3c-0.3-0.1-0.7-0.1-1.2-0.1s-1,0.1-1.3,0.2c-0.4,0.1-0.6,0.2-0.9,0.4
		s-0.4,0.4-0.5,0.6s-0.1,0.5-0.1,0.7s0,0.5,0.1,0.7s0.2,0.4,0.3,0.5s0.4,0.3,0.7,0.4c0.3,0.1,0.7,0.2,1.1,0.3l1.6,0.3
		c1.1,0.2,1.9,0.5,2.4,1s0.8,1.2,0.8,2.1c0,0.4-0.1,0.8-0.3,1.1c-0.2,0.4-0.4,0.7-0.7,0.9c-0.3,0.3-0.7,0.5-1.2,0.6
		c-0.5,0.2-1.1,0.2-1.7,0.2s-1.2-0.1-1.7-0.2c-0.5-0.1-1-0.3-1.4-0.6s-0.7-0.6-0.9-1s-0.4-0.9-0.4-1.5H98
		C98.2,407.5,98.6,408.1,99.1,408.4z"/>
	<path class="st2" d="M118.4,409.4c-0.6,0.3-1.3,0.5-2.1,0.5c-0.8,0-1.4-0.1-2-0.4c-0.6-0.3-1-0.7-1.4-1.2s-0.6-1.1-0.8-1.7
		s-0.3-1.3-0.3-2c0-1.8,0.4-3.1,1.2-4.1s2-1.5,3.4-1.5c0.6,0,1.1,0.1,1.7,0.4c0.6,0.2,1.1,0.7,1.6,1.4v-5.4h1.2v14.3h-1.2v-1.5
		C119.4,408.6,118.9,409.1,118.4,409.4z M119.9,402.8c-0.1-0.3-0.1-0.6-0.2-0.9c-0.1-0.3-0.3-0.5-0.4-0.7c-0.2-0.2-0.4-0.4-0.6-0.6
		c-0.3-0.2-0.6-0.4-1-0.5c-0.3-0.1-0.7-0.2-1.1-0.2c-0.5,0-0.9,0.1-1.4,0.3c-0.4,0.2-0.8,0.4-1.1,0.8c-0.3,0.4-0.5,0.8-0.7,1.4
		c-0.2,0.6-0.3,1.3-0.3,2.1s0.1,1.5,0.3,2.1s0.4,1,0.8,1.4s0.6,0.6,1,0.7c0.4,0.1,0.8,0.2,1.1,0.2c0.4,0,0.8,0,1.1-0.1
		s0.7-0.3,1-0.5c0.5-0.3,0.8-0.8,1.1-1.3c0.3-0.5,0.4-1.2,0.4-2v-0.9C119.9,403.5,119.9,403.1,119.9,402.8z"/>
	<path class="st2" d="M131.2,409.1c-0.7,0.6-1.7,0.8-3,0.8c-1.5,0-2.6-0.5-3.5-1.4c-0.8-1-1.2-2.3-1.2-3.9c0-0.9,0.1-1.7,0.4-2.4
		s0.6-1.3,1-1.8s0.9-0.8,1.5-1.1c0.6-0.2,1.2-0.4,1.9-0.4c0.8,0,1.5,0.1,2,0.4s1,0.6,1.4,1.1c0.4,0.4,0.6,1,0.8,1.6s0.2,1.3,0.2,2
		v0.7h-7.9c0,0.6,0.1,1.1,0.2,1.7c0.1,0.5,0.4,1,0.7,1.3c0.3,0.4,0.7,0.7,1.1,0.9s0.9,0.3,1.5,0.3c0.5,0,1-0.1,1.3-0.2
		s0.7-0.2,0.9-0.4s0.4-0.4,0.6-0.7s0.3-0.5,0.3-0.8h1.1C132.3,407.8,131.9,408.5,131.2,409.1z M131.2,402.2
		c-0.1-0.5-0.3-0.9-0.6-1.2s-0.6-0.6-1-0.8s-0.9-0.3-1.5-0.3c-1,0-1.8,0.3-2.4,0.9s-1,1.6-1.1,2.9h6.7
		C131.4,403.2,131.4,402.6,131.2,402.2z"/>
	<path class="st2" d="M136.3,395.3v14.3h-1.2v-14.3H136.3z"/>
</g>
<g class="st4">
	<path class="st2" d="M51.1,432.1c0.7,0.5,1.8,0.7,3.2,0.7c0.7,0,1.3-0.1,1.8-0.2c0.5-0.2,0.9-0.4,1.1-0.6c0.3-0.3,0.5-0.6,0.6-0.9
		s0.2-0.7,0.2-1.1c0-0.3,0-0.7-0.1-0.9c-0.1-0.3-0.2-0.6-0.4-0.8s-0.5-0.5-0.9-0.7s-0.9-0.3-1.5-0.4l-1.8-0.3
		c-0.7-0.1-1.3-0.3-1.9-0.5c-0.5-0.2-1-0.4-1.4-0.7s-0.7-0.7-0.9-1.1s-0.3-1-0.3-1.7s0.1-1.2,0.4-1.7s0.6-0.9,1.1-1.2s1-0.5,1.6-0.7
		s1.3-0.2,2-0.2c0.9,0,1.6,0.1,2.2,0.3s1.1,0.4,1.5,0.8s0.7,0.7,0.9,1.1c0.2,0.4,0.4,0.8,0.5,1.2l-1.1,0.3c-0.1-0.4-0.3-0.8-0.5-1.1
		s-0.4-0.6-0.7-0.8s-0.7-0.4-1.1-0.5c-0.5-0.1-1-0.2-1.7-0.2s-1.3,0.1-1.8,0.2c-0.5,0.1-0.9,0.3-1.2,0.6s-0.5,0.5-0.7,0.9
		c-0.1,0.3-0.2,0.7-0.2,1.1c0,0.4,0,0.7,0.1,1s0.3,0.5,0.5,0.8c0.2,0.2,0.5,0.4,0.9,0.5s0.9,0.3,1.4,0.4l2,0.4
		c0.7,0.1,1.3,0.3,1.9,0.5c0.5,0.2,1,0.5,1.3,0.8s0.6,0.7,0.8,1.2s0.3,1,0.3,1.6c0,0.5-0.1,1.1-0.3,1.5c-0.2,0.5-0.5,0.9-1,1.3
		c-0.4,0.4-0.9,0.6-1.6,0.9c-0.6,0.2-1.4,0.3-2.2,0.3s-1.5-0.1-2.2-0.2c-0.7-0.1-1.2-0.4-1.7-0.7s-0.9-0.8-1.2-1.3s-0.5-1.2-0.6-1.9
		h1.2C49.9,430.9,50.4,431.7,51.1,432.1z"/>
	<path class="st2" d="M63,423.3v6.5c0,1.1,0.2,1.9,0.5,2.3c0.3,0.5,0.9,0.7,1.8,0.7c0.4,0,0.8-0.1,1.2-0.2c0.4-0.2,0.8-0.4,1.2-0.7
		c0.4-0.3,0.7-0.7,0.9-1.1c0.2-0.4,0.3-0.9,0.3-1.5v-6H70v10.3h-1.2v-1.7c-1.1,1.3-2.3,2-3.7,2c-1.2,0-2-0.3-2.5-1s-0.8-1.6-0.8-2.8
		v-6.9H63V423.3z"/>
	<path class="st2" d="M78.9,433.4c-0.6,0.3-1.3,0.5-2.1,0.5c-0.8,0-1.4-0.1-2-0.4c-0.6-0.3-1-0.7-1.4-1.2s-0.6-1.1-0.8-1.7
		s-0.3-1.3-0.3-2c0-1.8,0.4-3.1,1.2-4.1s2-1.5,3.4-1.5c0.6,0,1.1,0.1,1.7,0.4c0.6,0.2,1.1,0.7,1.6,1.4v-5.4h1.2v14.3h-1.2v-1.5
		C80,432.6,79.5,433.1,78.9,433.4z M80.4,426.8c-0.1-0.3-0.1-0.6-0.2-0.9c-0.1-0.3-0.3-0.5-0.4-0.7c-0.2-0.2-0.4-0.4-0.6-0.6
		c-0.3-0.2-0.6-0.4-1-0.5c-0.3-0.1-0.7-0.2-1.1-0.2c-0.5,0-0.9,0.1-1.4,0.3c-0.4,0.2-0.8,0.4-1.1,0.8c-0.3,0.4-0.5,0.8-0.7,1.4
		c-0.2,0.6-0.3,1.3-0.3,2.1s0.1,1.5,0.3,2.1s0.4,1,0.8,1.4s0.6,0.6,1,0.7c0.4,0.1,0.8,0.2,1.1,0.2c0.4,0,0.8,0,1.1-0.1
		s0.7-0.3,1-0.5c0.5-0.3,0.8-0.8,1.1-1.3c0.3-0.5,0.4-1.2,0.4-2v-0.9C80.5,427.5,80.5,427.1,80.4,426.8z"/>
	<path class="st2" d="M100.5,426.5v5.5c-0.3,0.3-0.7,0.6-1.2,0.9c-0.4,0.2-0.9,0.4-1.3,0.6c-0.5,0.2-0.9,0.3-1.4,0.3
		c-0.5,0.1-0.9,0.1-1.4,0.1c-1,0-1.9-0.2-2.7-0.5c-0.8-0.3-1.5-0.8-2.1-1.4c-0.6-0.6-1-1.4-1.3-2.3c-0.3-0.9-0.5-2-0.5-3.2
		s0.2-2.3,0.5-3.3c0.3-0.9,0.8-1.7,1.3-2.4s1.2-1.1,2-1.4c0.8-0.3,1.6-0.5,2.5-0.5c1.5,0,2.7,0.3,3.5,1s1.4,1.6,1.7,2.9l-1.1,0.3
		c-0.1-0.5-0.3-0.9-0.5-1.3c-0.2-0.4-0.5-0.7-0.8-1s-0.7-0.5-1.2-0.6c-0.5-0.2-1-0.2-1.6-0.2c-0.8,0-1.6,0.2-2.2,0.5
		s-1.2,0.8-1.6,1.3c-0.4,0.6-0.8,1.3-1,2c-0.2,0.8-0.3,1.6-0.3,2.6c0,0.9,0.1,1.8,0.3,2.6c0.2,0.8,0.5,1.5,1,2c0.4,0.6,1,1,1.7,1.3
		s1.4,0.5,2.3,0.5c0.8,0,1.5-0.1,2.2-0.3s1.4-0.5,1.9-0.9v-4h-4.1v-1.1L100.5,426.5L100.5,426.5z"/>
	<path class="st2" d="M104.3,419.3v14.3h-1.2v-14.3H104.3z"/>
	<path class="st2" d="M109.6,433.5c-0.6-0.3-1.1-0.6-1.5-1.1s-0.7-1-0.9-1.7c-0.2-0.7-0.3-1.4-0.3-2.2s0.1-1.6,0.4-2.3
		c0.2-0.7,0.6-1.3,1-1.7c0.4-0.5,0.9-0.8,1.5-1.1s1.3-0.4,2-0.4s1.4,0.1,2,0.4c0.6,0.3,1.1,0.6,1.5,1.1s0.7,1,1,1.7
		c0.2,0.7,0.3,1.4,0.3,2.2s-0.1,1.6-0.3,2.3c-0.2,0.7-0.6,1.3-1,1.8s-0.9,0.9-1.5,1.1s-1.3,0.4-2.1,0.4S110.2,433.8,109.6,433.5z
		 M113.4,432.5c0.5-0.2,0.8-0.5,1.1-0.9c0.3-0.4,0.5-0.9,0.6-1.4s0.2-1.1,0.2-1.8c0-0.6-0.1-1.2-0.2-1.7s-0.3-1-0.6-1.4
		c-0.3-0.4-0.7-0.7-1.1-1c-0.5-0.2-1-0.3-1.7-0.3c-0.6,0-1.2,0.1-1.7,0.3s-0.8,0.6-1.1,1c-0.3,0.4-0.5,0.9-0.6,1.4s-0.2,1.1-0.2,1.8
		s0.1,1.2,0.2,1.8s0.3,1,0.6,1.4c0.3,0.4,0.7,0.7,1.1,0.9c0.5,0.2,1,0.4,1.7,0.4C112.4,432.9,112.9,432.8,113.4,432.5z"/>
	<path class="st2" d="M120.2,419.3v5.5c0.5-0.6,1-1,1.5-1.4c0.6-0.3,1.2-0.5,2-0.5c0.7,0,1.4,0.1,2,0.4s1,0.7,1.4,1.1s0.6,1,0.8,1.7
		s0.3,1.4,0.3,2.1c0,0.9-0.1,1.7-0.3,2.4s-0.5,1.3-0.9,1.8s-0.9,0.8-1.5,1.1s-1.2,0.4-1.9,0.4c-0.6,0-1.2-0.1-1.8-0.4
		s-1.1-0.7-1.6-1.3v1.4H119v-14.3H120.2z M120.2,430c0,0.3,0.1,0.6,0.2,0.9c0.1,0.3,0.3,0.5,0.4,0.7c0.2,0.2,0.4,0.4,0.6,0.6
		c0.3,0.2,0.6,0.4,0.9,0.5s0.7,0.2,1.1,0.2c0.5,0,0.9-0.1,1.4-0.3c0.4-0.2,0.8-0.4,1.1-0.8c0.3-0.4,0.5-0.8,0.7-1.4s0.3-1.3,0.3-2.1
		s-0.1-1.5-0.3-2.1s-0.4-1-0.8-1.3c-0.3-0.3-0.7-0.6-1-0.7c-0.4-0.1-0.8-0.2-1.1-0.2c-0.4,0-0.8,0-1.1,0.1s-0.7,0.3-1,0.5
		c-0.5,0.3-0.8,0.8-1.1,1.3s-0.4,1.2-0.4,2v0.9C120.2,429.3,120.2,429.7,120.2,430z"/>
	<path class="st2" d="M136.6,432.7c-0.2,0.2-0.5,0.4-0.8,0.5s-0.6,0.3-1,0.4s-0.8,0.1-1.2,0.1c-1.1,0-1.9-0.3-2.6-0.8
		c-0.7-0.5-1-1.3-1-2.3c0-0.7,0.1-1.3,0.4-1.7c0.3-0.4,0.7-0.8,1.2-1s1-0.4,1.7-0.5c0.6-0.1,1.3-0.2,1.9-0.2l2-0.1v-0.3
		c0-1-0.2-1.8-0.6-2.2c-0.4-0.5-1.1-0.7-2.1-0.7c-0.5,0-0.9,0-1.3,0.1c-0.3,0.1-0.6,0.2-0.9,0.4c-0.2,0.2-0.4,0.3-0.5,0.5
		s-0.2,0.4-0.3,0.7l-1.1-0.2c0.4-1.7,1.7-2.5,4-2.5c0.7,0,1.3,0.1,1.8,0.3s0.9,0.4,1.2,0.8c0.3,0.3,0.5,0.7,0.6,1.2s0.2,1,0.2,1.6
		v6.8H137v-1.5C137.1,432.3,136.9,432.5,136.6,432.7z M135.3,428.2c-0.8,0-1.4,0.1-1.9,0.2c-0.5,0.1-0.9,0.3-1.3,0.5
		c-0.3,0.2-0.6,0.5-0.7,0.8s-0.2,0.7-0.2,1.1c0,0.6,0.2,1.1,0.5,1.5c0.4,0.4,1,0.6,1.9,0.6c0.4,0,0.9-0.1,1.3-0.2
		c0.4-0.1,0.8-0.3,1.1-0.5c0.2-0.2,0.4-0.3,0.6-0.5s0.3-0.3,0.4-0.5c0.1-0.2,0.2-0.4,0.2-0.7s0.1-0.5,0.1-0.8v-1.5L135.3,428.2z"/>
	<path class="st2" d="M142.4,419.3v14.3h-1.2v-14.3H142.4z"/>
</g>
</svg>
