<?xml version="1.0" encoding="utf-8"?>
<!-- Generator: Adobe Illustrator 25.0.0, SVG Export Plug-In . SVG Version: 6.00 Build 0)  -->
<svg version="1.1" id="Capa_1" xmlns="http://www.w3.org/2000/svg" xmlns:xlink="http://www.w3.org/1999/xlink" x="0px" y="0px"
	 viewBox="0 0 1280 1338" style="enable-background:new 0 0 1280 1338;" xml:space="preserve">
<style type="text/css">
	.st0{fill:none;stroke:#FFFFFF;stroke-width:3;stroke-miterlimit:10;}
	.st1{fill:none;stroke:#FFFFFF;stroke-width:4;stroke-miterlimit:10;}
	.st2{fill:#FFFFFF;}
	.st3{opacity:0.5;fill:none;stroke:#FFFFFF;stroke-width:2;stroke-miterlimit:10;enable-background:new    ;}
	.st4{fill:none;stroke:#FF0000;stroke-width:4;stroke-miterlimit:10;}
	.st5{fill:#FF0000;}
	.st6{opacity:0.5;}
</style>
<g id="Capa_1_1_">
</g>
<g>
	<g>
		<line class="st0" x1="0.5" y1="539.8" x2="1285.4" y2="539.8"/>
	</g>
	<g>
		<g>
			<g>
				<path class="st1" d="M335.7,705.4C373,781,435.3,842,511.9,877.6"/>
				<g>
					<path class="st2" d="M330.9,738.4c1.1,0.1,2.1-0.7,2.2-1.8l3.1-30.4l26.3,15.6c1,0.6,2.2,0.3,2.7-0.7c0.6-0.9,0.2-2.2-0.7-2.7
						l-29-17.3c-0.6-0.3-1.3-0.4-1.9-0.1s-1,0.9-1.1,1.6l-3.4,33.6c0,0.4,0,0.8,0.2,1.1C329.6,737.9,330.2,738.3,330.9,738.4z"/>
				</g>
			</g>
		</g>
		<line class="st3" x1="3.2" y1="779.1" x2="1282.7" y2="779.1"/>
	</g>
	<g>
		<g>
			<g>
				<path class="st4" d="M515.1,877.3c46.2,20.7,97.3,32.2,151.2,32.2c204.2,0,369.7-165.5,369.7-369.7c0-84.8-28.6-163-76.6-225.3"
					/>
				<g>
					<path class="st5" d="M532.6,905.7c0.9-0.6,1.2-1.9,0.5-2.8l-17.2-25.3l30.2-4.8c1.1-0.2,1.8-1.2,1.7-2.3
						c-0.2-1.1-1.2-1.8-2.3-1.7l-33.3,5.3c-0.7,0.1-1.2,0.6-1.5,1.2c-0.3,0.6-0.2,1.4,0.2,1.9l18.9,27.9c0.2,0.3,0.5,0.6,0.9,0.7
						C531.3,906.1,532.1,906.1,532.6,905.7z"/>
				</g>
			</g>
		</g>
	</g>
</g>
<g>
	<g>
		<path class="st2" d="M27.6,439c1.6,0,2.9,0.2,3.9,0.5c1,0.3,1.8,0.8,2.4,1.4c0.6,0.6,1,1.2,1.2,2s0.3,1.6,0.3,2.4
			c0,0.9-0.1,1.8-0.4,2.6c-0.2,0.8-0.6,1.5-1.2,2.1c-0.6,0.6-1.4,1.1-2.4,1.5c-1,0.4-2.3,0.5-3.9,0.5h-5.1v8.9h-1.8V439H27.6z
			 M30.6,450c0.8-0.2,1.4-0.6,1.8-1c0.4-0.4,0.8-0.9,0.9-1.6c0.2-0.6,0.2-1.3,0.2-2.1c0-0.8-0.1-1.5-0.3-2.1c-0.2-0.6-0.5-1.1-1-1.5
			c-0.5-0.4-1.1-0.7-1.9-0.9c-0.8-0.2-1.8-0.3-2.9-0.3h-5.1v9.8h5.2C28.8,450.4,29.8,450.2,30.6,450z"/>
		<path class="st2" d="M47.3,459.6c-0.4,0.3-0.8,0.6-1.3,0.8c-0.5,0.2-1,0.4-1.5,0.6c-0.6,0.1-1.2,0.2-1.9,0.2c-1.7,0-3-0.4-4-1.2
			c-1-0.8-1.5-2-1.5-3.6c0-1.1,0.2-1.9,0.7-2.6s1-1.2,1.8-1.6c0.7-0.4,1.6-0.7,2.5-0.8c1-0.2,1.9-0.3,3-0.3l3.1-0.1v-0.5
			c0-1.6-0.3-2.7-0.9-3.4c-0.6-0.7-1.7-1.1-3.2-1.1c-0.8,0-1.4,0.1-1.9,0.2s-1,0.3-1.3,0.5c-0.3,0.2-0.6,0.5-0.8,0.8
			s-0.4,0.7-0.5,1.1l-1.6-0.2c0.6-2.6,2.6-3.9,6.2-3.9c1.1,0,2,0.1,2.8,0.4c0.8,0.3,1.4,0.6,1.8,1.1c0.5,0.5,0.8,1.1,1,1.8
			c0.2,0.7,0.3,1.6,0.3,2.5v10.4h-1.8v-2.2C48,458.9,47.7,459.2,47.3,459.6z M45.3,452.6c-1.2,0-2.2,0.1-3,0.3
			c-0.8,0.2-1.4,0.4-1.9,0.7c-0.5,0.3-0.8,0.7-1.1,1.2c-0.2,0.5-0.3,1-0.3,1.6c0,1,0.3,1.7,0.8,2.3c0.5,0.6,1.5,0.9,2.8,0.9
			c0.7,0,1.3-0.1,2-0.2c0.7-0.2,1.2-0.4,1.6-0.8c0.4-0.3,0.7-0.5,0.9-0.8c0.2-0.2,0.4-0.5,0.6-0.8c0.2-0.3,0.3-0.6,0.3-1
			c0.1-0.4,0.1-0.8,0.1-1.3v-2.3L45.3,452.6z"/>
		<path class="st2" d="M59.9,438.7l-3.9,4.1h-1.9l3.4-4.1H59.9z M56.1,445.1v15.8h-1.8v-15.8H56.1z"/>
		<path class="st2" d="M63,459.1c0.8,0.5,2,0.8,3.5,0.8c1.5,0,2.6-0.3,3.2-0.9s0.9-1.3,0.9-2.1c0-0.4,0-0.7-0.1-1
			c-0.1-0.3-0.2-0.6-0.5-0.9c-0.2-0.3-0.6-0.5-1-0.7c-0.4-0.2-1-0.3-1.7-0.5l-1.9-0.3c-0.8-0.1-1.6-0.3-2.3-0.5
			c-0.7-0.2-1.2-0.5-1.7-0.8s-0.8-0.8-1-1.3c-0.2-0.5-0.4-1.1-0.4-1.9c0-0.7,0.2-1.3,0.5-1.9c0.3-0.6,0.7-1,1.3-1.4
			c0.5-0.4,1.2-0.7,1.9-0.9c0.7-0.2,1.5-0.3,2.3-0.3c1.1,0,2,0.1,2.7,0.3s1.3,0.5,1.8,0.9c0.5,0.4,0.8,0.8,1.1,1.3
			c0.3,0.5,0.5,1,0.6,1.6l-1.6,0.3c-0.2-0.5-0.4-0.9-0.6-1.2c-0.2-0.4-0.5-0.7-0.8-0.9c-0.3-0.2-0.7-0.4-1.2-0.5
			c-0.5-0.1-1.1-0.2-1.8-0.2c-0.8,0-1.5,0.1-2.1,0.2c-0.6,0.2-1,0.4-1.3,0.6c-0.3,0.3-0.6,0.6-0.7,0.9c-0.1,0.3-0.2,0.7-0.2,1.1
			s0,0.7,0.1,1c0.1,0.3,0.2,0.6,0.5,0.8c0.2,0.2,0.6,0.4,1,0.6c0.4,0.2,1,0.3,1.7,0.4l2.4,0.4c1.7,0.3,2.9,0.8,3.7,1.5
			c0.8,0.7,1.2,1.8,1.2,3.2c0,0.6-0.1,1.2-0.4,1.7c-0.3,0.6-0.6,1-1.1,1.4s-1.1,0.7-1.9,0.9c-0.8,0.2-1.6,0.4-2.6,0.4
			c-1,0-1.8-0.1-2.6-0.3s-1.5-0.5-2.1-0.9c-0.6-0.4-1.1-0.9-1.4-1.5c-0.4-0.6-0.6-1.4-0.7-2.2h1.7C61.7,457.7,62.2,458.5,63,459.1z"
			/>
		<path class="st2" d="M87.5,460c-1.1,0.9-2.6,1.3-4.5,1.3c-2.3,0-4-0.7-5.3-2.2c-1.3-1.5-1.9-3.5-1.9-6c0-1.4,0.2-2.6,0.5-3.7
			c0.4-1.1,0.9-2,1.5-2.7c0.6-0.7,1.4-1.3,2.3-1.6c0.9-0.4,1.8-0.6,2.9-0.6c1.2,0,2.3,0.2,3.1,0.6c0.9,0.4,1.6,0.9,2.1,1.6
			c0.5,0.7,0.9,1.5,1.2,2.4c0.2,0.9,0.4,1.9,0.4,3v1.1H77.6c0,0.9,0.1,1.7,0.3,2.5c0.2,0.8,0.6,1.5,1,2.1c0.4,0.6,1,1,1.7,1.4
			c0.7,0.3,1.5,0.5,2.3,0.5c0.8,0,1.5-0.1,2-0.2c0.6-0.2,1-0.4,1.4-0.7c0.4-0.3,0.7-0.6,0.9-1c0.2-0.4,0.4-0.8,0.5-1.3h1.7
			C89.2,458.1,88.5,459.2,87.5,460z M87.6,449.5c-0.2-0.7-0.5-1.3-0.9-1.9c-0.4-0.5-0.9-0.9-1.5-1.2c-0.6-0.3-1.4-0.4-2.3-0.4
			c-1.5,0-2.8,0.5-3.7,1.4c-0.9,1-1.5,2.4-1.7,4.4h10.3C87.9,451,87.8,450.2,87.6,449.5z"/>
		<path class="st2" d="M95.9,459.1c0.8,0.5,2,0.8,3.5,0.8c1.5,0,2.6-0.3,3.2-0.9c0.6-0.6,1-1.3,1-2.1c0-0.4,0-0.7-0.1-1
			c-0.1-0.3-0.2-0.6-0.5-0.9c-0.2-0.3-0.6-0.5-1-0.7c-0.4-0.2-1-0.3-1.7-0.5l-1.9-0.3c-0.8-0.1-1.6-0.3-2.3-0.5
			c-0.7-0.2-1.2-0.5-1.7-0.8c-0.5-0.3-0.8-0.8-1-1.3c-0.2-0.5-0.4-1.1-0.4-1.9c0-0.7,0.2-1.3,0.5-1.9s0.7-1,1.3-1.4
			c0.5-0.4,1.2-0.7,1.9-0.9c0.7-0.2,1.5-0.3,2.3-0.3c1.1,0,2,0.1,2.7,0.3c0.7,0.2,1.3,0.5,1.8,0.9c0.5,0.4,0.8,0.8,1.1,1.3
			c0.3,0.5,0.5,1,0.6,1.6l-1.6,0.3c-0.2-0.5-0.4-0.9-0.6-1.2c-0.2-0.4-0.5-0.7-0.8-0.9c-0.3-0.2-0.7-0.4-1.2-0.5
			c-0.5-0.1-1.1-0.2-1.8-0.2c-0.8,0-1.5,0.1-2.1,0.2c-0.6,0.2-1,0.4-1.3,0.6c-0.3,0.3-0.6,0.6-0.7,0.9c-0.1,0.3-0.2,0.7-0.2,1.1
			s0,0.7,0.1,1c0.1,0.3,0.2,0.6,0.5,0.8s0.6,0.4,1,0.6c0.4,0.2,1,0.3,1.7,0.4l2.4,0.4c1.7,0.3,2.9,0.8,3.7,1.5
			c0.8,0.7,1.2,1.8,1.2,3.2c0,0.6-0.1,1.2-0.4,1.7c-0.3,0.6-0.6,1-1.1,1.4s-1.1,0.7-1.9,0.9c-0.8,0.2-1.6,0.4-2.6,0.4
			c-1,0-1.8-0.1-2.6-0.3c-0.8-0.2-1.5-0.5-2.1-0.9c-0.6-0.4-1.1-0.9-1.4-1.5c-0.4-0.6-0.6-1.4-0.7-2.2h1.7
			C94.6,457.7,95.1,458.5,95.9,459.1z"/>
		<path class="st2" d="M118,439v2.7h-2V439H118z M117.9,445.1v15.8h-1.8v-15.8H117.9z"/>
		<path class="st2" d="M124,445.1v2.6c0.9-1.1,1.8-1.9,2.7-2.3c1-0.5,2-0.7,3.1-0.7c1.8,0,3.1,0.5,4,1.5c0.9,1,1.3,2.4,1.3,4.3v10.5
			h-1.8v-10c0-1.7-0.3-2.8-0.9-3.6c-0.6-0.7-1.5-1.1-2.8-1.1c-0.6,0-1.3,0.1-1.9,0.4s-1.3,0.6-1.9,1.1c-0.6,0.5-1.1,1.1-1.4,1.6
			c-0.3,0.6-0.5,1.3-0.5,2.3v9.2h-1.8v-15.8H124z"/>
		<path class="st2" d="M148.7,460.6c-0.9,0.5-1.9,0.8-3.2,0.8c-1.2,0-2.2-0.2-3-0.7c-0.8-0.4-1.5-1.1-2.1-1.8
			c-0.6-0.8-1-1.6-1.2-2.6c-0.3-1-0.4-2-0.4-3.1c0-2.7,0.6-4.8,1.9-6.3c1.3-1.5,3-2.3,5.2-2.3c0.9,0,1.7,0.2,2.6,0.6
			c0.9,0.4,1.7,1.1,2.5,2.1V439h1.8v21.9h-1.8v-2.4C150.4,459.4,149.6,460,148.7,460.6z M151,450.5c-0.1-0.5-0.2-1-0.4-1.4
			c-0.2-0.4-0.4-0.8-0.7-1.1c-0.3-0.3-0.6-0.6-1-0.9c-0.5-0.4-1-0.6-1.5-0.8c-0.5-0.2-1-0.2-1.6-0.2c-0.8,0-1.4,0.1-2.1,0.4
			c-0.6,0.3-1.2,0.7-1.6,1.2c-0.5,0.6-0.8,1.3-1.1,2.1c-0.3,0.9-0.4,1.9-0.4,3.2c0,1.3,0.1,2.4,0.4,3.2s0.7,1.6,1.1,2.1
			c0.5,0.5,1,0.9,1.6,1.1c0.6,0.2,1.2,0.3,1.8,0.3c0.6,0,1.2-0.1,1.7-0.2c0.5-0.1,1-0.4,1.5-0.8c0.7-0.5,1.3-1.2,1.7-2
			c0.4-0.8,0.6-1.8,0.6-3.1v-1.4C151.1,451.6,151.1,451,151,450.5z"/>
		<path class="st2" d="M158.8,445.1v10c0,1.7,0.3,2.8,0.8,3.6c0.5,0.7,1.4,1.1,2.7,1.1c0.6,0,1.3-0.1,1.9-0.4
			c0.6-0.2,1.2-0.6,1.8-1.1c0.6-0.5,1-1.1,1.3-1.6c0.3-0.6,0.5-1.3,0.5-2.3v-9.2h1.8v15.8h-1.8v-2.6c-1.7,2-3.6,3.1-5.7,3.1
			c-1.8,0-3.1-0.5-3.9-1.5c-0.8-1-1.2-2.4-1.2-4.3v-10.5H158.8z"/>
		<path class="st2" d="M176.4,459.1c0.8,0.5,2,0.8,3.5,0.8c1.5,0,2.6-0.3,3.2-0.9s0.9-1.3,0.9-2.1c0-0.4,0-0.7-0.1-1
			c-0.1-0.3-0.2-0.6-0.5-0.9c-0.2-0.3-0.6-0.5-1-0.7c-0.4-0.2-1-0.3-1.7-0.5l-1.9-0.3c-0.8-0.1-1.6-0.3-2.3-0.5
			c-0.7-0.2-1.2-0.5-1.7-0.8s-0.8-0.8-1-1.3c-0.2-0.5-0.4-1.1-0.4-1.9c0-0.7,0.2-1.3,0.5-1.9c0.3-0.6,0.7-1,1.3-1.4
			c0.5-0.4,1.2-0.7,1.9-0.9c0.7-0.2,1.5-0.3,2.3-0.3c1.1,0,2,0.1,2.7,0.3s1.3,0.5,1.8,0.9c0.5,0.4,0.8,0.8,1.1,1.3
			c0.3,0.5,0.5,1,0.6,1.6l-1.6,0.3c-0.2-0.5-0.4-0.9-0.6-1.2c-0.2-0.4-0.5-0.7-0.8-0.9c-0.3-0.2-0.7-0.4-1.2-0.5
			c-0.5-0.1-1.1-0.2-1.8-0.2c-0.8,0-1.5,0.1-2.1,0.2c-0.6,0.2-1,0.4-1.3,0.6c-0.3,0.3-0.6,0.6-0.7,0.9c-0.1,0.3-0.2,0.7-0.2,1.1
			s0,0.7,0.1,1c0.1,0.3,0.2,0.6,0.5,0.8c0.2,0.2,0.6,0.4,1,0.6c0.4,0.2,1,0.3,1.7,0.4l2.4,0.4c1.7,0.3,2.9,0.8,3.7,1.5
			c0.8,0.7,1.2,1.8,1.2,3.2c0,0.6-0.1,1.2-0.4,1.7c-0.3,0.6-0.6,1-1.1,1.4s-1.1,0.7-1.9,0.9c-0.8,0.2-1.6,0.4-2.6,0.4
			c-1,0-1.8-0.1-2.6-0.3s-1.5-0.5-2.1-0.9c-0.6-0.4-1.1-0.9-1.4-1.5c-0.4-0.6-0.6-1.4-0.7-2.2h1.7
			C175,457.7,175.6,458.5,176.4,459.1z"/>
		<path class="st2" d="M188,446.5v-1.5h2.5v-4.3h1.8v4.3h4.5v1.5h-4.5v10.3c0,0.8,0.2,1.4,0.5,2c0.3,0.5,0.9,0.8,1.7,0.8
			c0.5,0,1,0,1.3-0.1c0.4-0.1,0.7-0.2,1-0.3l0.4,1.4c-0.3,0.1-0.7,0.2-1.1,0.3c-0.4,0.1-1,0.2-1.7,0.2c-0.9,0-1.6-0.2-2.1-0.5
			s-0.9-0.7-1.1-1.2c-0.3-0.5-0.4-1.1-0.5-1.7s-0.1-1.3-0.1-2.1v-9.2H188z"/>
		<path class="st2" d="M201.5,445.1v2.6c0.6-0.9,1.4-1.6,2.2-2.1c0.8-0.5,1.7-0.7,2.6-0.7c0.2,0,0.4,0,0.6,0c0.2,0,0.4,0,0.6,0.1
			l-0.2,1.7c-0.4-0.1-0.7-0.1-1-0.1c-0.5,0-1.1,0.1-1.6,0.3c-0.6,0.2-1.1,0.5-1.6,1c-0.5,0.4-0.9,0.9-1.2,1.5
			c-0.3,0.6-0.5,1.3-0.5,2.1v9.5h-1.8v-15.8H201.5z"/>
		<path class="st2" d="M212,439v2.7h-2V439H212z M211.9,445.1v15.8h-1.8v-15.8H211.9z"/>
		<path class="st2" d="M225.4,459.6c-0.4,0.3-0.8,0.6-1.3,0.8c-0.5,0.2-1,0.4-1.5,0.6c-0.6,0.1-1.2,0.2-1.9,0.2c-1.7,0-3-0.4-4-1.2
			c-1-0.8-1.5-2-1.5-3.6c0-1.1,0.2-1.9,0.7-2.6s1-1.2,1.8-1.6c0.7-0.4,1.6-0.7,2.5-0.8c1-0.2,1.9-0.3,3-0.3l3.1-0.1v-0.5
			c0-1.6-0.3-2.7-0.9-3.4c-0.6-0.7-1.7-1.1-3.2-1.1c-0.8,0-1.4,0.1-1.9,0.2s-1,0.3-1.3,0.5c-0.3,0.2-0.6,0.5-0.8,0.8
			s-0.4,0.7-0.5,1.1l-1.6-0.2c0.6-2.6,2.6-3.9,6.2-3.9c1.1,0,2,0.1,2.8,0.4c0.8,0.3,1.4,0.6,1.8,1.1c0.5,0.5,0.8,1.1,1,1.8
			c0.2,0.7,0.3,1.6,0.3,2.5v10.4h-1.8v-2.2C226,458.9,225.7,459.2,225.4,459.6z M223.4,452.6c-1.2,0-2.2,0.1-3,0.3
			c-0.8,0.2-1.4,0.4-1.9,0.7c-0.5,0.3-0.8,0.7-1.1,1.2c-0.2,0.5-0.3,1-0.3,1.6c0,1,0.3,1.7,0.8,2.3c0.5,0.6,1.5,0.9,2.8,0.9
			c0.7,0,1.3-0.1,2-0.2c0.7-0.2,1.2-0.4,1.6-0.8c0.4-0.3,0.7-0.5,0.9-0.8c0.2-0.2,0.4-0.5,0.6-0.8c0.2-0.3,0.3-0.6,0.3-1
			c0.1-0.4,0.1-0.8,0.1-1.3v-2.3L223.4,452.6z"/>
		<path class="st2" d="M234.2,439v21.9h-1.8V439H234.2z"/>
		<path class="st2" d="M240.6,439v2.7h-2V439H240.6z M240.5,445.1v15.8h-1.8v-15.8H240.5z"/>
		<path class="st2" d="M253.4,446.6h-9.8v-1.5h11.9v1.5l-10,12.8H256l-0.3,1.5h-12.3v-1.5L253.4,446.6z"/>
		<path class="st2" d="M268,459.6c-0.4,0.3-0.8,0.6-1.3,0.8s-1,0.4-1.5,0.6c-0.6,0.1-1.2,0.2-1.9,0.2c-1.7,0-3-0.4-4-1.2
			c-1-0.8-1.5-2-1.5-3.6c0-1.1,0.2-1.9,0.7-2.6s1-1.2,1.8-1.6c0.7-0.4,1.6-0.7,2.5-0.8c0.9-0.2,1.9-0.3,3-0.3l3.1-0.1v-0.5
			c0-1.6-0.3-2.7-0.9-3.4c-0.6-0.7-1.7-1.1-3.2-1.1c-0.8,0-1.4,0.1-1.9,0.2c-0.5,0.1-1,0.3-1.3,0.5c-0.3,0.2-0.6,0.5-0.8,0.8
			s-0.4,0.7-0.5,1.1l-1.6-0.2c0.6-2.6,2.6-3.9,6.2-3.9c1.1,0,2,0.1,2.8,0.4c0.8,0.3,1.4,0.6,1.8,1.1c0.5,0.5,0.8,1.1,1,1.8
			c0.2,0.7,0.3,1.6,0.3,2.5v10.4H269v-2.2C268.7,458.9,268.4,459.2,268,459.6z M266,452.6c-1.2,0-2.2,0.1-3,0.3
			c-0.8,0.2-1.4,0.4-1.9,0.7s-0.8,0.7-1.1,1.2c-0.2,0.5-0.3,1-0.3,1.6c0,1,0.3,1.7,0.8,2.3c0.5,0.6,1.5,0.9,2.8,0.9
			c0.7,0,1.3-0.1,2-0.2c0.7-0.2,1.2-0.4,1.6-0.8c0.4-0.3,0.7-0.5,0.9-0.8c0.2-0.2,0.4-0.5,0.6-0.8c0.2-0.3,0.3-0.6,0.3-1
			c0.1-0.4,0.1-0.8,0.1-1.3v-2.3L266,452.6z"/>
		<path class="st2" d="M284.4,460.6c-0.9,0.5-1.9,0.8-3.2,0.8c-1.2,0-2.2-0.2-3-0.7c-0.8-0.4-1.5-1.1-2.1-1.8
			c-0.6-0.8-1-1.6-1.2-2.6s-0.4-2-0.4-3.1c0-2.7,0.6-4.8,1.9-6.3s3-2.3,5.2-2.3c0.9,0,1.7,0.2,2.6,0.6c0.9,0.4,1.7,1.1,2.5,2.1V439
			h1.8v21.9h-1.8v-2.4C286.1,459.4,285.3,460,284.4,460.6z M286.7,450.5c-0.1-0.5-0.2-1-0.4-1.4c-0.2-0.4-0.4-0.8-0.7-1.1
			c-0.3-0.3-0.6-0.6-1-0.9c-0.5-0.4-1-0.6-1.5-0.8c-0.5-0.2-1-0.2-1.6-0.2c-0.8,0-1.5,0.1-2.1,0.4c-0.6,0.3-1.2,0.7-1.6,1.2
			c-0.5,0.6-0.8,1.3-1.1,2.1s-0.4,1.9-0.4,3.2c0,1.3,0.1,2.4,0.4,3.2s0.7,1.6,1.1,2.1s1,0.9,1.6,1.1s1.2,0.3,1.8,0.3
			c0.6,0,1.2-0.1,1.7-0.2c0.5-0.1,1-0.4,1.5-0.8c0.7-0.5,1.3-1.2,1.7-2c0.4-0.8,0.6-1.8,0.6-3.1v-1.4
			C286.8,451.6,286.8,451,286.7,450.5z"/>
		<path class="st2" d="M296.5,460.7c-0.9-0.4-1.7-0.9-2.3-1.7c-0.6-0.7-1.1-1.6-1.4-2.6c-0.3-1-0.5-2.2-0.5-3.4
			c0-1.3,0.2-2.5,0.5-3.5c0.4-1,0.9-1.9,1.5-2.7c0.6-0.7,1.4-1.3,2.3-1.7c0.9-0.4,1.9-0.6,3.1-0.6s2.2,0.2,3.1,0.6s1.7,0.9,2.3,1.7
			c0.6,0.7,1.1,1.6,1.5,2.6c0.3,1,0.5,2.2,0.5,3.4c0,1.3-0.2,2.5-0.5,3.5c-0.3,1-0.8,1.9-1.5,2.7c-0.6,0.7-1.4,1.3-2.4,1.7
			c-0.9,0.4-2,0.6-3.1,0.6C298.5,461.3,297.4,461.1,296.5,460.7z M302.2,459.3c0.7-0.4,1.3-0.8,1.7-1.5c0.4-0.6,0.8-1.3,1-2.2
			s0.3-1.7,0.3-2.7c0-0.9-0.1-1.8-0.3-2.6c-0.2-0.8-0.5-1.5-1-2.2s-1-1.1-1.7-1.5s-1.5-0.5-2.5-0.5c-1,0-1.8,0.2-2.5,0.5
			s-1.3,0.8-1.7,1.5c-0.4,0.6-0.8,1.3-1,2.2c-0.2,0.8-0.3,1.7-0.3,2.7c0,1,0.1,1.9,0.3,2.7s0.5,1.6,1,2.2c0.4,0.6,1,1.1,1.7,1.5
			s1.5,0.5,2.5,0.5C300.7,459.8,301.6,459.6,302.2,459.3z"/>
		<path class="st2" d="M313.5,459.1c0.8,0.5,2,0.8,3.5,0.8c1.5,0,2.6-0.3,3.2-0.9c0.6-0.6,1-1.3,1-2.1c0-0.4,0-0.7-0.1-1
			c-0.1-0.3-0.2-0.6-0.5-0.9c-0.2-0.3-0.6-0.5-1-0.7c-0.4-0.2-1-0.3-1.7-0.5l-1.9-0.3c-0.8-0.1-1.6-0.3-2.3-0.5
			c-0.7-0.2-1.2-0.5-1.7-0.8c-0.5-0.3-0.8-0.8-1-1.3c-0.2-0.5-0.4-1.1-0.4-1.9c0-0.7,0.2-1.3,0.5-1.9s0.7-1,1.3-1.4
			c0.5-0.4,1.2-0.7,1.9-0.9c0.7-0.2,1.5-0.3,2.3-0.3c1.1,0,2,0.1,2.7,0.3c0.7,0.2,1.3,0.5,1.8,0.9c0.5,0.4,0.8,0.8,1.1,1.3
			c0.3,0.5,0.5,1,0.6,1.6l-1.6,0.3c-0.2-0.5-0.4-0.9-0.6-1.2c-0.2-0.4-0.5-0.7-0.8-0.9c-0.3-0.2-0.7-0.4-1.2-0.5
			c-0.5-0.1-1.1-0.2-1.8-0.2c-0.8,0-1.5,0.1-2.1,0.2c-0.6,0.2-1,0.4-1.3,0.6c-0.3,0.3-0.6,0.6-0.7,0.9c-0.1,0.3-0.2,0.7-0.2,1.1
			s0,0.7,0.1,1c0.1,0.3,0.2,0.6,0.5,0.8s0.6,0.4,1,0.6c0.4,0.2,1,0.3,1.7,0.4l2.4,0.4c1.7,0.3,2.9,0.8,3.7,1.5
			c0.8,0.7,1.2,1.8,1.2,3.2c0,0.6-0.1,1.2-0.4,1.7c-0.3,0.6-0.6,1-1.1,1.4s-1.1,0.7-1.9,0.9c-0.8,0.2-1.6,0.4-2.6,0.4
			c-1,0-1.8-0.1-2.6-0.3c-0.8-0.2-1.5-0.5-2.1-0.9c-0.6-0.4-1.1-0.9-1.4-1.5c-0.4-0.6-0.6-1.4-0.7-2.2h1.7
			C312.1,457.7,312.6,458.5,313.5,459.1z"/>
		<path class="st2" d="M29.6,497.3c-0.9,0.5-1.9,0.8-3.2,0.8c-1.2,0-2.2-0.2-3-0.7c-0.8-0.4-1.5-1.1-2.1-1.8c-0.6-0.8-1-1.6-1.2-2.6
			c-0.3-1-0.4-2-0.4-3.1c0-2.7,0.6-4.8,1.9-6.3c1.3-1.5,3-2.3,5.2-2.3c0.9,0,1.7,0.2,2.6,0.6c0.9,0.4,1.7,1.1,2.5,2.1v-8.2h1.8v21.9
			h-1.8v-2.4C31.3,496.1,30.5,496.8,29.6,497.3z M31.9,487.2c-0.1-0.5-0.2-1-0.4-1.4c-0.2-0.4-0.4-0.8-0.7-1.1
			c-0.3-0.3-0.6-0.6-1-0.9c-0.5-0.4-1-0.6-1.5-0.8c-0.5-0.2-1-0.2-1.6-0.2c-0.8,0-1.4,0.1-2.1,0.4c-0.6,0.3-1.2,0.7-1.6,1.2
			c-0.5,0.6-0.8,1.3-1.1,2.1c-0.3,0.9-0.4,1.9-0.4,3.2c0,1.3,0.1,2.4,0.4,3.2s0.7,1.6,1.1,2.1c0.5,0.5,1,0.9,1.6,1.1
			c0.6,0.2,1.2,0.3,1.8,0.3c0.6,0,1.2-0.1,1.7-0.2c0.5-0.1,1-0.4,1.5-0.8c0.7-0.5,1.3-1.2,1.7-2c0.4-0.8,0.6-1.8,0.6-3.1v-1.4
			C32,488.3,32,487.7,31.9,487.2z"/>
		<path class="st2" d="M49.2,496.8c-1.1,0.9-2.6,1.3-4.5,1.3c-2.3,0-4-0.7-5.3-2.2c-1.3-1.5-1.9-3.5-1.9-6c0-1.4,0.2-2.6,0.5-3.7
			c0.4-1.1,0.9-2,1.5-2.7c0.6-0.7,1.4-1.3,2.3-1.6c0.9-0.4,1.8-0.6,2.9-0.6c1.2,0,2.3,0.2,3.1,0.6c0.9,0.4,1.6,0.9,2.1,1.6
			c0.5,0.7,0.9,1.5,1.2,2.4c0.2,0.9,0.4,1.9,0.4,3v1.1H39.3c0,0.9,0.1,1.7,0.3,2.5c0.2,0.8,0.6,1.5,1,2.1c0.4,0.6,1,1,1.7,1.4
			c0.7,0.3,1.5,0.5,2.3,0.5c0.8,0,1.5-0.1,2-0.2c0.6-0.2,1-0.4,1.4-0.7c0.4-0.3,0.7-0.6,0.9-1c0.2-0.4,0.4-0.8,0.5-1.3h1.7
			C50.9,494.8,50.3,495.9,49.2,496.8z M49.3,486.2c-0.2-0.7-0.5-1.3-0.9-1.9c-0.4-0.5-0.9-0.9-1.5-1.2c-0.6-0.3-1.4-0.4-2.3-0.4
			c-1.5,0-2.8,0.5-3.7,1.4c-0.9,1-1.5,2.4-1.7,4.4h10.3C49.6,487.7,49.5,487,49.3,486.2z"/>
		<path class="st2" d="M57,475.7v21.9h-1.8v-21.9H57z"/>
		<path class="st2" d="M70.7,475.7l12.2,18.9v-18.9h1.8v21.9h-2l-12.3-19v19h-1.8v-21.9H70.7z"/>
		<path class="st2" d="M93.1,497.5c-0.9-0.4-1.7-0.9-2.3-1.7c-0.6-0.7-1.1-1.6-1.4-2.6c-0.3-1-0.5-2.2-0.5-3.4
			c0-1.3,0.2-2.5,0.5-3.5c0.4-1,0.9-1.9,1.5-2.7c0.6-0.7,1.4-1.3,2.3-1.7c0.9-0.4,1.9-0.6,3.1-0.6s2.2,0.2,3.1,0.6s1.7,0.9,2.3,1.7
			c0.6,0.7,1.1,1.6,1.5,2.6c0.3,1,0.5,2.2,0.5,3.4c0,1.3-0.2,2.5-0.5,3.5c-0.3,1-0.8,1.9-1.5,2.7c-0.6,0.7-1.4,1.3-2.4,1.7
			c-0.9,0.4-2,0.6-3.1,0.6C95.1,498.1,94,497.9,93.1,497.5z M98.8,496c0.7-0.4,1.3-0.8,1.7-1.5c0.4-0.6,0.8-1.3,1-2.2
			c0.2-0.8,0.3-1.7,0.3-2.7c0-0.9-0.1-1.8-0.3-2.6c-0.2-0.8-0.5-1.5-1-2.2s-1-1.1-1.7-1.5s-1.5-0.5-2.5-0.5c-1,0-1.8,0.2-2.5,0.5
			s-1.3,0.8-1.7,1.5c-0.4,0.6-0.8,1.3-1,2.2c-0.2,0.8-0.3,1.7-0.3,2.7c0,1,0.1,1.9,0.3,2.7c0.2,0.8,0.5,1.6,1,2.2
			c0.4,0.6,1,1.1,1.7,1.5s1.5,0.5,2.5,0.5C97.3,496.5,98.2,496.4,98.8,496z"/>
		<path class="st2" d="M109.3,481.8v2.6c0.6-0.9,1.4-1.6,2.2-2.1c0.8-0.5,1.7-0.7,2.6-0.7c0.2,0,0.4,0,0.6,0c0.2,0,0.4,0,0.6,0.1
			l-0.2,1.7c-0.4-0.1-0.7-0.1-1-0.1c-0.5,0-1.1,0.1-1.6,0.3c-0.6,0.2-1.1,0.5-1.6,1c-0.5,0.4-0.9,0.9-1.2,1.5
			c-0.3,0.6-0.5,1.3-0.5,2.1v9.5h-1.8v-15.8H109.3z"/>
		<path class="st2" d="M117.1,483.3v-1.5h2.5v-4.3h1.8v4.3h4.5v1.5h-4.5v10.3c0,0.8,0.2,1.4,0.5,2c0.3,0.5,0.9,0.8,1.7,0.8
			c0.5,0,1,0,1.3-0.1c0.4-0.1,0.7-0.2,1-0.3l0.4,1.4c-0.3,0.1-0.7,0.2-1.1,0.3c-0.4,0.1-1,0.2-1.7,0.2c-0.9,0-1.6-0.2-2.1-0.5
			s-0.9-0.7-1.1-1.2c-0.3-0.5-0.4-1.1-0.5-1.7s-0.1-1.3-0.1-2.1v-9.2H117.1z"/>
		<path class="st2" d="M139.3,496.8c-1.1,0.9-2.6,1.3-4.5,1.3c-2.3,0-4-0.7-5.3-2.2c-1.3-1.5-1.9-3.5-1.9-6c0-1.4,0.2-2.6,0.5-3.7
			c0.4-1.1,0.9-2,1.5-2.7c0.6-0.7,1.4-1.3,2.3-1.6c0.9-0.4,1.8-0.6,2.9-0.6c1.2,0,2.3,0.2,3.1,0.6c0.9,0.4,1.6,0.9,2.1,1.6
			c0.5,0.7,0.9,1.5,1.2,2.4c0.2,0.9,0.4,1.9,0.4,3v1.1h-12.1c0,0.9,0.1,1.7,0.3,2.5c0.2,0.8,0.6,1.5,1,2.1c0.4,0.6,1,1,1.7,1.4
			c0.7,0.3,1.5,0.5,2.3,0.5c0.8,0,1.5-0.1,2-0.2c0.6-0.2,1-0.4,1.4-0.7c0.4-0.3,0.7-0.6,0.9-1c0.2-0.4,0.4-0.8,0.5-1.3h1.7
			C141,494.8,140.4,495.9,139.3,496.8z M139.4,486.2c-0.2-0.7-0.5-1.3-0.9-1.9c-0.4-0.5-0.9-0.9-1.5-1.2c-0.6-0.3-1.4-0.4-2.3-0.4
			c-1.5,0-2.8,0.5-3.7,1.4c-0.9,1-1.5,2.4-1.7,4.4h10.3C139.7,487.7,139.6,487,139.4,486.2z"/>
		<path class="st2" d="M169.9,486.8v8.5c-0.5,0.5-1.1,0.9-1.8,1.3c-0.7,0.4-1.3,0.7-2.1,0.9s-1.4,0.4-2.2,0.5s-1.4,0.2-2.1,0.2
			c-1.6,0-2.9-0.2-4.2-0.8c-1.2-0.5-2.3-1.2-3.2-2.2c-0.9-1-1.5-2.2-2-3.6c-0.5-1.4-0.7-3-0.7-4.9c0-1.9,0.2-3.5,0.8-5
			c0.5-1.4,1.2-2.6,2.1-3.6c0.9-1,1.9-1.7,3.1-2.2c1.2-0.5,2.5-0.8,3.8-0.8c2.3,0,4.1,0.5,5.3,1.6c1.3,1.1,2.2,2.5,2.6,4.4l-1.7,0.4
			c-0.2-0.7-0.5-1.3-0.8-1.9c-0.3-0.6-0.7-1.1-1.2-1.5c-0.5-0.4-1.1-0.7-1.8-1c-0.7-0.2-1.5-0.4-2.5-0.4c-1.3,0-2.4,0.2-3.4,0.7
			c-1,0.5-1.8,1.2-2.4,2.1s-1.1,1.9-1.5,3.1c-0.3,1.2-0.5,2.5-0.5,4c0,1.4,0.2,2.8,0.5,4c0.3,1.2,0.8,2.2,1.5,3.1s1.5,1.6,2.5,2
			c1,0.5,2.2,0.7,3.6,0.7c1.2,0,2.3-0.2,3.4-0.5c1.1-0.3,2.1-0.8,3-1.5v-6.1h-6.2v-1.7H169.9z"/>
		<path class="st2" d="M175.8,475.7v21.9H174v-21.9H175.8z"/>
		<path class="st2" d="M183.9,497.5c-0.9-0.4-1.7-0.9-2.3-1.7c-0.6-0.7-1.1-1.6-1.4-2.6c-0.3-1-0.5-2.2-0.5-3.4
			c0-1.3,0.2-2.5,0.5-3.5c0.4-1,0.9-1.9,1.5-2.7c0.6-0.7,1.4-1.3,2.3-1.7c0.9-0.4,2-0.6,3.1-0.6c1.1,0,2.2,0.2,3.1,0.6
			c0.9,0.4,1.7,0.9,2.3,1.7c0.6,0.7,1.1,1.6,1.5,2.6c0.3,1,0.5,2.2,0.5,3.4c0,1.3-0.2,2.5-0.5,3.5c-0.3,1-0.8,1.9-1.5,2.7
			c-0.6,0.7-1.4,1.3-2.4,1.7c-0.9,0.4-2,0.6-3.1,0.6S184.8,497.9,183.9,497.5z M189.6,496c0.7-0.4,1.3-0.8,1.7-1.5
			c0.4-0.6,0.8-1.3,1-2.2c0.2-0.8,0.3-1.7,0.3-2.7c0-0.9-0.1-1.8-0.3-2.6c-0.2-0.8-0.5-1.5-1-2.2s-1-1.1-1.7-1.5
			c-0.7-0.4-1.5-0.5-2.5-0.5c-1,0-1.8,0.2-2.5,0.5c-0.7,0.4-1.3,0.8-1.7,1.5c-0.4,0.6-0.8,1.3-1,2.2c-0.2,0.8-0.3,1.7-0.3,2.7
			c0,1,0.1,1.9,0.3,2.7c0.2,0.8,0.5,1.6,1,2.2c0.4,0.6,1,1.1,1.7,1.5c0.7,0.4,1.5,0.5,2.5,0.5C188.1,496.5,188.9,496.4,189.6,496z"
			/>
		<path class="st2" d="M200.1,475.7v8.5c0.7-0.9,1.5-1.6,2.4-2.1s1.9-0.8,3.1-0.8c1.1,0,2.1,0.2,3,0.6s1.6,1,2.1,1.7
			c0.6,0.7,1,1.6,1.3,2.6s0.4,2.1,0.4,3.2c0,1.3-0.2,2.5-0.5,3.6c-0.3,1.1-0.8,1.9-1.4,2.7c-0.6,0.7-1.4,1.3-2.2,1.7
			c-0.9,0.4-1.8,0.6-2.9,0.6c-1,0-1.9-0.2-2.8-0.6c-0.9-0.4-1.7-1.1-2.4-2.1v2.1h-1.8v-21.9H200.1z M200.1,492.1
			c0.1,0.5,0.2,1,0.4,1.4c0.2,0.4,0.4,0.8,0.7,1.1s0.6,0.6,1,0.9c0.5,0.4,0.9,0.6,1.4,0.8c0.5,0.2,1.1,0.2,1.7,0.2
			c0.8,0,1.4-0.1,2.1-0.4c0.6-0.3,1.2-0.7,1.6-1.2c0.5-0.6,0.8-1.3,1.1-2.2c0.3-0.9,0.4-2,0.4-3.2c0-1.3-0.1-2.4-0.4-3.2
			c-0.3-0.9-0.7-1.5-1.1-2.1c-0.5-0.5-1-0.9-1.6-1.1c-0.6-0.2-1.2-0.3-1.7-0.3c-0.6,0-1.2,0.1-1.7,0.2c-0.5,0.1-1,0.4-1.5,0.8
			c-0.7,0.5-1.3,1.2-1.7,2c-0.4,0.8-0.6,1.8-0.6,3.1v1.4C200,491,200,491.6,200.1,492.1z"/>
		<path class="st2" d="M225.2,496.3c-0.4,0.3-0.8,0.6-1.3,0.8s-1,0.4-1.5,0.6c-0.6,0.1-1.2,0.2-1.9,0.2c-1.7,0-3-0.4-4-1.2
			c-1-0.8-1.5-2-1.5-3.6c0-1.1,0.2-1.9,0.7-2.6s1-1.2,1.8-1.6c0.7-0.4,1.6-0.7,2.5-0.8c0.9-0.2,1.9-0.2,3-0.3l3.1-0.1v-0.5
			c0-1.6-0.3-2.7-0.9-3.4c-0.6-0.7-1.7-1.1-3.2-1.1c-0.8,0-1.4,0.1-1.9,0.2c-0.5,0.1-1,0.3-1.3,0.5c-0.3,0.2-0.6,0.5-0.8,0.8
			s-0.4,0.7-0.5,1.1l-1.6-0.2c0.6-2.6,2.6-3.9,6.2-3.9c1.1,0,2,0.1,2.8,0.4c0.8,0.3,1.4,0.6,1.8,1.1c0.5,0.5,0.8,1.1,1,1.8
			c0.2,0.7,0.3,1.6,0.3,2.5v10.4h-1.8v-2.2C225.9,495.7,225.6,496,225.2,496.3z M223.3,489.3c-1.2,0-2.2,0.1-3,0.3
			c-0.8,0.2-1.4,0.4-1.9,0.7s-0.8,0.7-1.1,1.2c-0.2,0.5-0.3,1-0.3,1.6c0,1,0.3,1.7,0.8,2.3c0.5,0.6,1.5,0.9,2.8,0.9
			c0.7,0,1.3-0.1,2-0.2c0.7-0.2,1.2-0.4,1.6-0.8c0.4-0.3,0.7-0.5,0.9-0.8c0.2-0.2,0.4-0.5,0.6-0.8c0.2-0.3,0.3-0.6,0.3-1
			c0.1-0.4,0.1-0.8,0.1-1.3v-2.3L223.3,489.3z"/>
		<path class="st2" d="M234.1,475.7v21.9h-1.8v-21.9H234.1z"/>
	</g>
	<g>
		<path class="st2" d="M21.1,578.3c1.6,0,2.9,0.2,3.9,0.5c1,0.3,1.8,0.8,2.4,1.4c0.6,0.6,1,1.2,1.2,2s0.3,1.6,0.3,2.4
			c0,0.9-0.1,1.8-0.4,2.6c-0.2,0.8-0.6,1.5-1.2,2.1c-0.6,0.6-1.4,1.1-2.4,1.5c-1,0.4-2.3,0.5-3.9,0.5h-5.1v8.9h-1.8v-21.9H21.1z
			 M24.1,589.3c0.8-0.2,1.4-0.6,1.8-1s0.8-0.9,0.9-1.6c0.2-0.6,0.2-1.3,0.2-2.1c0-0.8-0.1-1.5-0.3-2.1c-0.2-0.6-0.5-1.1-1-1.5
			c-0.5-0.4-1.1-0.7-1.9-0.9s-1.8-0.3-2.9-0.3h-5.1v9.8h5.2C22.3,589.7,23.3,589.6,24.1,589.3z"/>
		<path class="st2" d="M40.8,598.9c-0.4,0.3-0.8,0.6-1.3,0.8c-0.5,0.2-1,0.4-1.5,0.6c-0.6,0.1-1.2,0.2-1.9,0.2c-1.7,0-3-0.4-4-1.2
			c-1-0.8-1.5-2-1.5-3.6c0-1.1,0.2-1.9,0.7-2.6s1-1.2,1.8-1.6c0.7-0.4,1.6-0.7,2.5-0.8c0.9-0.2,1.9-0.2,3-0.3l3.1-0.1v-0.5
			c0-1.6-0.3-2.7-0.9-3.4c-0.6-0.7-1.7-1.1-3.2-1.1c-0.8,0-1.4,0.1-1.9,0.2c-0.5,0.1-1,0.3-1.3,0.5c-0.3,0.2-0.6,0.5-0.8,0.8
			s-0.4,0.7-0.5,1.1l-1.6-0.2c0.6-2.6,2.6-3.9,6.2-3.9c1.1,0,2,0.1,2.8,0.4c0.8,0.3,1.4,0.6,1.8,1.1c0.5,0.5,0.8,1.1,1,1.8
			c0.2,0.7,0.3,1.6,0.3,2.5v10.4h-1.8v-2.2C41.4,598.2,41.1,598.6,40.8,598.9z M38.8,591.9c-1.2,0-2.2,0.1-3,0.3
			c-0.8,0.2-1.4,0.4-1.9,0.7c-0.5,0.3-0.8,0.7-1.1,1.2s-0.3,1-0.3,1.6c0,1,0.3,1.7,0.8,2.3c0.5,0.6,1.5,0.9,2.8,0.9
			c0.7,0,1.3-0.1,2-0.2c0.7-0.2,1.2-0.4,1.6-0.8c0.4-0.3,0.7-0.5,0.9-0.8c0.2-0.2,0.4-0.5,0.6-0.8c0.2-0.3,0.3-0.6,0.3-1
			c0.1-0.4,0.1-0.8,0.1-1.3v-2.3L38.8,591.9z"/>
		<path class="st2" d="M53.4,578l-3.9,4.1h-1.9L51,578H53.4z M49.6,584.4v15.8h-1.8v-15.8H49.6z"/>
		<path class="st2" d="M56.5,598.4c0.8,0.5,2,0.8,3.5,0.8c1.5,0,2.6-0.3,3.2-0.9c0.6-0.6,0.9-1.3,0.9-2.1c0-0.4,0-0.7-0.1-1
			s-0.2-0.6-0.5-0.9c-0.2-0.3-0.6-0.5-1-0.7c-0.4-0.2-1-0.3-1.7-0.5l-1.9-0.3c-0.8-0.1-1.6-0.3-2.3-0.5s-1.2-0.5-1.7-0.8
			c-0.5-0.3-0.8-0.8-1-1.3c-0.2-0.5-0.4-1.1-0.4-1.9c0-0.7,0.2-1.3,0.5-1.9c0.3-0.6,0.7-1,1.3-1.4s1.2-0.7,1.9-0.9
			c0.7-0.2,1.5-0.3,2.3-0.3c1.1,0,2,0.1,2.7,0.3c0.7,0.2,1.3,0.5,1.8,0.9c0.5,0.4,0.8,0.8,1.1,1.3c0.3,0.5,0.5,1,0.6,1.6l-1.6,0.3
			c-0.2-0.5-0.4-0.9-0.6-1.2s-0.5-0.7-0.8-0.9s-0.7-0.4-1.2-0.5c-0.5-0.1-1.1-0.2-1.8-0.2c-0.8,0-1.5,0.1-2.1,0.2
			c-0.6,0.2-1,0.4-1.3,0.6c-0.3,0.3-0.6,0.6-0.7,0.9s-0.2,0.7-0.2,1.1c0,0.4,0,0.7,0.1,1c0.1,0.3,0.2,0.6,0.5,0.8
			c0.2,0.2,0.6,0.4,1,0.6c0.4,0.2,1,0.3,1.7,0.4l2.4,0.4c1.7,0.3,2.9,0.8,3.7,1.5c0.8,0.7,1.2,1.8,1.2,3.2c0,0.6-0.1,1.2-0.4,1.7
			c-0.3,0.6-0.6,1-1.1,1.4s-1.1,0.7-1.9,0.9s-1.6,0.4-2.6,0.4c-1,0-1.8-0.1-2.6-0.3c-0.8-0.2-1.5-0.5-2.1-0.9
			c-0.6-0.4-1.1-0.9-1.4-1.5c-0.4-0.6-0.6-1.4-0.7-2.2h1.7C55.2,597,55.7,597.9,56.5,598.4z"/>
		<path class="st2" d="M80.9,599.4c-1.1,0.9-2.6,1.3-4.5,1.3c-2.3,0-4-0.7-5.3-2.2s-1.9-3.5-1.9-6c0-1.4,0.2-2.6,0.5-3.7
			c0.4-1.1,0.9-2,1.5-2.7c0.6-0.7,1.4-1.3,2.3-1.6c0.9-0.4,1.8-0.6,2.9-0.6c1.2,0,2.3,0.2,3.1,0.6c0.9,0.4,1.6,0.9,2.1,1.6
			c0.5,0.7,0.9,1.5,1.2,2.4c0.2,0.9,0.4,1.9,0.4,3v1.1H71c0,0.9,0.1,1.7,0.3,2.5c0.2,0.8,0.6,1.5,1,2.1c0.4,0.6,1,1,1.7,1.4
			c0.7,0.3,1.4,0.5,2.3,0.5c0.8,0,1.5-0.1,2-0.2c0.6-0.2,1-0.4,1.4-0.7c0.4-0.3,0.7-0.6,0.9-1c0.2-0.4,0.4-0.8,0.5-1.3h1.7
			C82.6,597.4,82,598.5,80.9,599.4z M81.1,588.8c-0.2-0.7-0.5-1.3-0.9-1.9c-0.4-0.5-0.9-0.9-1.5-1.2c-0.6-0.3-1.4-0.4-2.3-0.4
			c-1.5,0-2.8,0.5-3.7,1.4c-0.9,1-1.5,2.4-1.7,4.4h10.3C81.3,590.3,81.2,589.5,81.1,588.8z"/>
		<path class="st2" d="M89.4,598.4c0.8,0.5,2,0.8,3.5,0.8c1.5,0,2.6-0.3,3.2-0.9c0.6-0.6,0.9-1.3,0.9-2.1c0-0.4,0-0.7-0.1-1
			s-0.2-0.6-0.5-0.9c-0.2-0.3-0.6-0.5-1-0.7c-0.4-0.2-1-0.3-1.7-0.5l-1.9-0.3c-0.8-0.1-1.6-0.3-2.3-0.5s-1.2-0.5-1.7-0.8
			c-0.5-0.3-0.8-0.8-1-1.3c-0.2-0.5-0.4-1.1-0.4-1.9c0-0.7,0.2-1.3,0.5-1.9c0.3-0.6,0.7-1,1.3-1.4s1.2-0.7,1.9-0.9
			c0.7-0.2,1.5-0.3,2.3-0.3c1.1,0,2,0.1,2.7,0.3c0.7,0.2,1.3,0.5,1.8,0.9c0.5,0.4,0.8,0.8,1.1,1.3c0.3,0.5,0.5,1,0.6,1.6l-1.6,0.3
			c-0.2-0.5-0.4-0.9-0.6-1.2s-0.5-0.7-0.8-0.9s-0.7-0.4-1.2-0.5c-0.5-0.1-1.1-0.2-1.8-0.2c-0.8,0-1.5,0.1-2.1,0.2
			c-0.6,0.2-1,0.4-1.3,0.6c-0.3,0.3-0.6,0.6-0.7,0.9s-0.2,0.7-0.2,1.1c0,0.4,0,0.7,0.1,1c0.1,0.3,0.2,0.6,0.5,0.8
			c0.2,0.2,0.6,0.4,1,0.6c0.4,0.2,1,0.3,1.7,0.4l2.4,0.4c1.7,0.3,2.9,0.8,3.7,1.5c0.8,0.7,1.2,1.8,1.2,3.2c0,0.6-0.1,1.2-0.4,1.7
			c-0.3,0.6-0.6,1-1.1,1.4s-1.1,0.7-1.9,0.9s-1.6,0.4-2.6,0.4c-1,0-1.8-0.1-2.6-0.3c-0.8-0.2-1.5-0.5-2.1-0.9
			c-0.6-0.4-1.1-0.9-1.4-1.5c-0.4-0.6-0.6-1.4-0.7-2.2h1.7C88,597,88.6,597.9,89.4,598.4z"/>
		<path class="st2" d="M118.9,599.9c-0.9,0.5-1.9,0.8-3.2,0.8c-1.2,0-2.2-0.2-3-0.7s-1.5-1.1-2.1-1.8s-1-1.6-1.2-2.6
			c-0.3-1-0.4-2-0.4-3.1c0-2.7,0.6-4.8,1.9-6.3s3-2.3,5.2-2.3c0.9,0,1.7,0.2,2.6,0.6c0.9,0.4,1.7,1.1,2.5,2.1v-8.2h1.8v21.9h-1.8
			v-2.4C120.5,598.7,119.8,599.4,118.9,599.9z M121.2,589.8c-0.1-0.5-0.2-1-0.4-1.4c-0.2-0.4-0.4-0.8-0.7-1.1
			c-0.3-0.3-0.6-0.6-1-0.9c-0.5-0.4-1-0.6-1.5-0.8c-0.5-0.2-1-0.2-1.6-0.2c-0.8,0-1.4,0.1-2.1,0.4c-0.6,0.3-1.2,0.7-1.6,1.2
			s-0.8,1.3-1.1,2.1c-0.3,0.9-0.4,1.9-0.4,3.2c0,1.3,0.1,2.4,0.4,3.2s0.7,1.6,1.1,2.1c0.5,0.5,1,0.9,1.6,1.1
			c0.6,0.2,1.2,0.3,1.8,0.3c0.6,0,1.2-0.1,1.7-0.2c0.5-0.1,1-0.4,1.5-0.8c0.7-0.5,1.3-1.2,1.7-2c0.4-0.8,0.6-1.8,0.6-3.1v-1.4
			C121.3,590.9,121.2,590.3,121.2,589.8z"/>
		<path class="st2" d="M138.5,599.4c-1.1,0.9-2.6,1.3-4.5,1.3c-2.3,0-4-0.7-5.3-2.2s-1.9-3.5-1.9-6c0-1.4,0.2-2.6,0.5-3.7
			c0.4-1.1,0.9-2,1.5-2.7c0.6-0.7,1.4-1.3,2.3-1.6c0.9-0.4,1.8-0.6,2.9-0.6c1.2,0,2.3,0.2,3.1,0.6c0.9,0.4,1.6,0.9,2.1,1.6
			c0.5,0.7,0.9,1.5,1.2,2.4c0.2,0.9,0.4,1.9,0.4,3v1.1h-12.1c0,0.9,0.1,1.7,0.3,2.5c0.2,0.8,0.6,1.5,1,2.1c0.4,0.6,1,1,1.7,1.4
			c0.7,0.3,1.4,0.5,2.3,0.5c0.8,0,1.5-0.1,2-0.2c0.6-0.2,1-0.4,1.4-0.7c0.4-0.3,0.7-0.6,0.9-1c0.2-0.4,0.4-0.8,0.5-1.3h1.7
			C140.2,597.4,139.5,598.5,138.5,599.4z M138.6,588.8c-0.2-0.7-0.5-1.3-0.9-1.9c-0.4-0.5-0.9-0.9-1.5-1.2c-0.6-0.3-1.4-0.4-2.3-0.4
			c-1.5,0-2.8,0.5-3.7,1.4c-0.9,1-1.5,2.4-1.7,4.4h10.3C138.9,590.3,138.8,589.5,138.6,588.8z"/>
		<path class="st2" d="M146.3,578.3v21.9h-1.8v-21.9H146.3z"/>
		<path class="st2" d="M16.9,634.7c1.1,0.7,2.7,1.1,4.8,1.1c1.1,0,2-0.1,2.7-0.4c0.7-0.2,1.3-0.6,1.7-1c0.4-0.4,0.7-0.9,0.9-1.4
			s0.3-1.1,0.3-1.7c0-0.5-0.1-1-0.2-1.5c-0.1-0.5-0.3-0.9-0.6-1.3c-0.3-0.4-0.8-0.7-1.4-1c-0.6-0.3-1.4-0.5-2.3-0.7l-2.7-0.5
			c-1.1-0.2-2-0.4-2.8-0.7c-0.8-0.3-1.5-0.7-2.1-1.1c-0.6-0.5-1-1-1.3-1.7c-0.3-0.7-0.4-1.5-0.4-2.5s0.2-1.9,0.6-2.6s1-1.3,1.7-1.8
			c0.7-0.5,1.5-0.8,2.5-1.1s2-0.4,3-0.4c1.4,0,2.5,0.1,3.4,0.4c0.9,0.3,1.7,0.7,2.3,1.2c0.6,0.5,1.1,1,1.4,1.7s0.6,1.3,0.8,1.9
			l-1.7,0.5c-0.2-0.6-0.4-1.2-0.7-1.7c-0.3-0.5-0.6-0.9-1.1-1.3c-0.5-0.3-1-0.6-1.7-0.8c-0.7-0.2-1.5-0.3-2.5-0.3
			c-1.1,0-2.1,0.1-2.8,0.3c-0.8,0.2-1.4,0.5-1.8,0.9c-0.5,0.4-0.8,0.8-1,1.3s-0.3,1.1-0.3,1.7c0,0.6,0.1,1.1,0.2,1.6
			c0.1,0.4,0.4,0.8,0.7,1.2c0.3,0.3,0.8,0.6,1.4,0.8s1.3,0.4,2.2,0.6L23,625c1.1,0.2,2.1,0.5,2.9,0.8c0.8,0.3,1.5,0.7,2,1.2
			c0.5,0.5,0.9,1.1,1.2,1.8c0.3,0.7,0.4,1.5,0.4,2.4c0,0.8-0.2,1.6-0.5,2.4s-0.8,1.4-1.5,1.9s-1.4,1-2.4,1.3c-1,0.3-2.1,0.5-3.4,0.5
			c-1.2,0-2.3-0.1-3.3-0.3c-1-0.2-1.9-0.6-2.7-1.1s-1.4-1.1-1.9-1.9c-0.5-0.8-0.8-1.8-0.9-2.9h1.8C15.1,632.8,15.8,634,16.9,634.7z"
			/>
		<path class="st2" d="M35.1,621.1v10c0,1.7,0.3,2.8,0.8,3.6c0.5,0.7,1.4,1.1,2.7,1.1c0.6,0,1.3-0.1,1.9-0.4
			c0.6-0.2,1.2-0.6,1.8-1.1c0.6-0.5,1-1.1,1.3-1.6c0.3-0.6,0.5-1.3,0.5-2.3v-9.2h1.8v15.8H44v-2.6c-1.7,2-3.6,3.1-5.7,3.1
			c-1.8,0-3.1-0.5-3.9-1.5s-1.2-2.4-1.2-4.3v-10.5H35.1z"/>
		<path class="st2" d="M51.9,621.1v2.6c0.6-0.9,1.4-1.6,2.2-2.1c0.8-0.5,1.7-0.7,2.6-0.7c0.2,0,0.4,0,0.6,0c0.2,0,0.4,0,0.6,0.1
			l-0.2,1.7c-0.4-0.1-0.7-0.1-1-0.1c-0.5,0-1.1,0.1-1.6,0.3c-0.6,0.2-1.1,0.5-1.6,1c-0.5,0.4-0.9,0.9-1.2,1.5
			c-0.3,0.6-0.5,1.3-0.5,2.1v9.5h-1.8v-15.8H51.9z"/>
		<path class="st2" d="M85,626.1v8.5c-0.5,0.5-1.1,0.9-1.8,1.3c-0.7,0.4-1.3,0.7-2.1,0.9c-0.7,0.2-1.4,0.4-2.2,0.5
			c-0.7,0.1-1.4,0.2-2.1,0.2c-1.6,0-2.9-0.2-4.2-0.8c-1.2-0.5-2.3-1.2-3.2-2.2c-0.9-1-1.5-2.2-2-3.6c-0.5-1.4-0.7-3-0.7-4.9
			c0-1.9,0.2-3.5,0.8-5c0.5-1.4,1.2-2.6,2.1-3.6s1.9-1.7,3.1-2.2c1.2-0.5,2.5-0.8,3.8-0.8c2.3,0,4.1,0.5,5.3,1.6
			c1.3,1.1,2.2,2.5,2.6,4.4l-1.7,0.4c-0.2-0.7-0.5-1.3-0.8-1.9c-0.3-0.6-0.7-1.1-1.2-1.5s-1.1-0.7-1.8-1c-0.7-0.2-1.5-0.4-2.5-0.4
			c-1.3,0-2.4,0.2-3.4,0.7c-1,0.5-1.8,1.2-2.4,2.1s-1.1,1.9-1.5,3.1c-0.3,1.2-0.5,2.5-0.5,4c0,1.4,0.2,2.8,0.5,4
			c0.3,1.2,0.8,2.2,1.5,3.1c0.7,0.9,1.5,1.6,2.5,2c1,0.5,2.2,0.7,3.6,0.7c1.2,0,2.3-0.2,3.4-0.5c1.1-0.3,2.1-0.8,3-1.5v-6.1H77v-1.7
			H85z"/>
		<path class="st2" d="M90.9,615v21.9h-1.8V615H90.9z"/>
		<path class="st2" d="M99,636.8c-0.9-0.4-1.7-0.9-2.3-1.7c-0.6-0.7-1.1-1.6-1.4-2.6c-0.3-1-0.5-2.2-0.5-3.4c0-1.3,0.2-2.5,0.5-3.5
			c0.4-1,0.9-1.9,1.5-2.7c0.6-0.7,1.4-1.3,2.3-1.7c0.9-0.4,1.9-0.6,3.1-0.6c1.1,0,2.2,0.2,3.1,0.6c0.9,0.4,1.7,0.9,2.3,1.7
			c0.6,0.7,1.1,1.6,1.5,2.6c0.3,1,0.5,2.2,0.5,3.4c0,1.3-0.2,2.5-0.5,3.5c-0.3,1-0.8,1.9-1.5,2.7s-1.4,1.3-2.4,1.7
			c-0.9,0.4-2,0.6-3.1,0.6C101,637.4,100,637.2,99,636.8z M104.8,635.3c0.7-0.4,1.3-0.8,1.7-1.5c0.4-0.6,0.8-1.3,1-2.2
			s0.3-1.7,0.3-2.7c0-0.9-0.1-1.8-0.3-2.6c-0.2-0.8-0.5-1.5-1-2.2s-1-1.1-1.7-1.5c-0.7-0.4-1.5-0.5-2.5-0.5c-1,0-1.8,0.2-2.5,0.5
			c-0.7,0.4-1.3,0.8-1.7,1.5s-0.8,1.3-1,2.2c-0.2,0.8-0.3,1.7-0.3,2.7c0,1,0.1,1.9,0.3,2.7c0.2,0.8,0.5,1.6,1,2.2
			c0.4,0.6,1,1.1,1.7,1.5c0.7,0.4,1.5,0.5,2.5,0.5C103.2,635.9,104.1,635.7,104.8,635.3z"/>
		<path class="st2" d="M115.2,615v8.5c0.7-0.9,1.5-1.6,2.4-2.1s1.9-0.8,3.1-0.8c1.1,0,2.1,0.2,3,0.6s1.6,1,2.1,1.7
			c0.6,0.7,1,1.6,1.3,2.6c0.3,1,0.4,2.1,0.4,3.2c0,1.3-0.2,2.5-0.5,3.6c-0.3,1.1-0.8,1.9-1.4,2.7c-0.6,0.7-1.4,1.3-2.2,1.7
			s-1.8,0.6-2.9,0.6c-1,0-1.9-0.2-2.8-0.6s-1.7-1.1-2.4-2.1v2.1h-1.8V615H115.2z M115.3,631.5c0.1,0.5,0.2,1,0.4,1.4
			c0.2,0.4,0.4,0.8,0.7,1.1c0.3,0.3,0.6,0.6,1,0.9c0.5,0.4,0.9,0.6,1.4,0.8c0.5,0.2,1.1,0.2,1.7,0.2c0.8,0,1.4-0.1,2.1-0.4
			c0.6-0.3,1.2-0.7,1.6-1.2s0.8-1.3,1.1-2.2c0.3-0.9,0.4-2,0.4-3.2c0-1.3-0.1-2.4-0.4-3.2c-0.3-0.9-0.7-1.5-1.1-2.1
			c-0.5-0.5-1-0.9-1.6-1.1c-0.6-0.2-1.2-0.3-1.7-0.3c-0.6,0-1.2,0.1-1.7,0.2c-0.5,0.1-1,0.4-1.5,0.8c-0.7,0.5-1.3,1.2-1.7,2
			c-0.4,0.8-0.6,1.8-0.6,3.1v1.4C115.2,630.3,115.2,630.9,115.3,631.5z"/>
		<path class="st2" d="M140.4,635.6c-0.4,0.3-0.8,0.6-1.3,0.8c-0.5,0.2-1,0.4-1.5,0.6c-0.6,0.1-1.2,0.2-1.9,0.2c-1.7,0-3-0.4-4-1.2
			c-1-0.8-1.5-2-1.5-3.6c0-1.1,0.2-1.9,0.7-2.6s1-1.2,1.8-1.6c0.7-0.4,1.6-0.7,2.5-0.8c0.9-0.2,1.9-0.3,3-0.3l3.1-0.1v-0.5
			c0-1.6-0.3-2.7-0.9-3.4c-0.6-0.7-1.7-1.1-3.2-1.1c-0.8,0-1.4,0.1-1.9,0.2c-0.5,0.1-1,0.3-1.3,0.5c-0.3,0.2-0.6,0.5-0.8,0.8
			s-0.4,0.7-0.5,1.1l-1.6-0.2c0.6-2.6,2.6-3.9,6.2-3.9c1.1,0,2,0.1,2.8,0.4c0.8,0.3,1.4,0.6,1.8,1.1c0.5,0.5,0.8,1.1,1,1.8
			c0.2,0.7,0.3,1.6,0.3,2.5v10.4h-1.8v-2.2C141.1,635,140.8,635.3,140.4,635.6z M138.4,628.6c-1.2,0-2.2,0.1-3,0.3
			c-0.8,0.2-1.4,0.4-1.9,0.7c-0.5,0.3-0.8,0.7-1.1,1.2s-0.3,1-0.3,1.6c0,1,0.3,1.7,0.8,2.3c0.5,0.6,1.5,0.9,2.8,0.9
			c0.7,0,1.3-0.1,2-0.2c0.7-0.2,1.2-0.4,1.6-0.8c0.4-0.3,0.7-0.5,0.9-0.8c0.2-0.2,0.4-0.5,0.6-0.8c0.2-0.3,0.3-0.6,0.3-1
			c0.1-0.4,0.1-0.8,0.1-1.3v-2.3L138.4,628.6z"/>
		<path class="st2" d="M149.2,615v21.9h-1.8V615H149.2z"/>
	</g>
	<g class="st6">
		<path class="st2" d="M16.4,726.1v-1.7h17v1.7h-7.6v20.2H24v-20.2H16.4z"/>
		<path class="st2" d="M43.1,745.5c-1.1,0.9-2.6,1.3-4.5,1.3c-2.3,0-4-0.7-5.3-2.2c-1.3-1.5-1.9-3.5-1.9-6c0-1.4,0.2-2.6,0.5-3.7
			c0.4-1.1,0.9-2,1.5-2.7c0.6-0.7,1.4-1.3,2.3-1.6c0.9-0.4,1.8-0.6,2.9-0.6c1.2,0,2.3,0.2,3.1,0.6s1.6,0.9,2.1,1.6
			c0.5,0.7,0.9,1.5,1.2,2.4s0.4,2,0.4,3v1.1H33.2c0,0.9,0.1,1.7,0.3,2.5s0.6,1.5,1,2.1s1,1,1.7,1.4c0.7,0.3,1.5,0.5,2.3,0.5
			c0.8,0,1.5-0.1,2-0.2c0.6-0.2,1-0.4,1.4-0.7c0.4-0.3,0.7-0.6,0.9-1c0.2-0.4,0.4-0.8,0.5-1.3H45C44.8,743.5,44.1,744.6,43.1,745.5z
			 M43.2,734.9c-0.2-0.7-0.5-1.3-0.9-1.9c-0.4-0.5-0.9-0.9-1.5-1.2c-0.6-0.3-1.4-0.4-2.3-0.4c-1.5,0-2.8,0.5-3.7,1.4
			c-0.9,1-1.5,2.4-1.7,4.4h10.3C43.5,736.4,43.4,735.6,43.2,734.9z"/>
		<path class="st2" d="M50.8,730.5v2.6c0.6-0.9,1.4-1.6,2.2-2.1c0.8-0.5,1.7-0.7,2.6-0.7c0.2,0,0.4,0,0.6,0c0.2,0,0.4,0,0.6,0.1
			l-0.2,1.7c-0.4-0.1-0.7-0.1-1-0.1c-0.5,0-1.1,0.1-1.6,0.3c-0.6,0.2-1.1,0.5-1.6,1c-0.5,0.4-0.9,0.9-1.2,1.5
			c-0.3,0.6-0.5,1.3-0.5,2.1v9.5H49v-15.8H50.8z"/>
		<path class="st2" d="M61.1,730.5v2.6c0.6-0.9,1.4-1.6,2.2-2.1c0.8-0.5,1.7-0.7,2.6-0.7c0.2,0,0.4,0,0.6,0c0.2,0,0.4,0,0.6,0.1
			l-0.2,1.7c-0.4-0.1-0.7-0.1-1-0.1c-0.5,0-1.1,0.1-1.6,0.3c-0.6,0.2-1.1,0.5-1.6,1c-0.5,0.4-0.9,0.9-1.2,1.5
			c-0.3,0.6-0.5,1.3-0.5,2.1v9.5h-1.8v-15.8H61.1z"/>
		<path class="st2" d="M71.6,724.4v2.7h-2v-2.7H71.6z M71.5,730.5v15.8h-1.8v-15.8H71.5z"/>
		<path class="st2" d="M74.3,732v-1.5h2.5v-4.3h1.8v4.3H83v1.5h-4.5v10.3c0,0.8,0.2,1.4,0.5,2c0.3,0.5,0.9,0.8,1.7,0.8
			c0.5,0,1,0,1.3-0.1c0.4-0.1,0.7-0.2,1-0.3l0.4,1.4c-0.3,0.1-0.7,0.2-1.1,0.3c-0.4,0.1-1,0.2-1.7,0.2c-0.9,0-1.6-0.2-2.1-0.5
			c-0.5-0.3-0.9-0.7-1.1-1.2s-0.4-1.1-0.5-1.7s-0.1-1.3-0.1-2.1V732H74.3z"/>
		<path class="st2" d="M89.1,746.2c-0.9-0.4-1.7-0.9-2.3-1.7s-1.1-1.6-1.4-2.6s-0.5-2.2-0.5-3.4c0-1.3,0.2-2.5,0.5-3.5
			c0.4-1,0.9-1.9,1.5-2.7c0.6-0.7,1.4-1.3,2.3-1.7s2-0.6,3.1-0.6c1.1,0,2.2,0.2,3.1,0.6c0.9,0.4,1.7,0.9,2.3,1.7
			c0.6,0.7,1.1,1.6,1.5,2.6c0.3,1,0.5,2.2,0.5,3.4c0,1.3-0.2,2.5-0.5,3.5c-0.3,1-0.8,1.9-1.5,2.7c-0.6,0.7-1.4,1.3-2.4,1.7
			c-0.9,0.4-2,0.6-3.1,0.6S90,746.6,89.1,746.2z M94.8,744.7c0.7-0.4,1.3-0.8,1.7-1.5c0.4-0.6,0.8-1.3,1-2.2s0.3-1.7,0.3-2.7
			c0-0.9-0.1-1.8-0.3-2.6c-0.2-0.8-0.5-1.5-1-2.2s-1-1.1-1.7-1.5c-0.7-0.4-1.5-0.5-2.5-0.5c-1,0-1.8,0.2-2.5,0.5
			c-0.7,0.4-1.3,0.8-1.7,1.5c-0.4,0.6-0.8,1.3-1,2.2c-0.2,0.8-0.3,1.7-0.3,2.7c0,1,0.1,1.9,0.3,2.7c0.2,0.8,0.5,1.6,1,2.2
			c0.4,0.6,1,1.1,1.7,1.5c0.7,0.4,1.5,0.5,2.5,0.5C93.3,745.2,94.1,745,94.8,744.7z"/>
		<path class="st2" d="M105.3,730.5v2.6c0.6-0.9,1.4-1.6,2.2-2.1s1.7-0.7,2.6-0.7c0.2,0,0.4,0,0.6,0c0.2,0,0.4,0,0.6,0.1l-0.2,1.7
			c-0.4-0.1-0.7-0.1-1-0.1c-0.5,0-1.1,0.1-1.6,0.3c-0.6,0.2-1.1,0.5-1.6,1c-0.5,0.4-0.9,0.9-1.2,1.5c-0.3,0.6-0.5,1.3-0.5,2.1v9.5
			h-1.8v-15.8H105.3z"/>
		<path class="st2" d="M115.8,724.4v2.7h-2v-2.7H115.8z M115.7,730.5v15.8h-1.8v-15.8H115.7z"/>
		<path class="st2" d="M123.8,746.2c-0.9-0.4-1.7-0.9-2.3-1.7c-0.6-0.7-1.1-1.6-1.4-2.6s-0.5-2.2-0.5-3.4c0-1.3,0.2-2.5,0.5-3.5
			c0.4-1,0.9-1.9,1.5-2.7c0.6-0.7,1.4-1.3,2.3-1.7c0.9-0.4,1.9-0.6,3.1-0.6s2.2,0.2,3.1,0.6s1.7,0.9,2.3,1.7
			c0.6,0.7,1.1,1.6,1.5,2.6c0.3,1,0.5,2.2,0.5,3.4c0,1.3-0.2,2.5-0.5,3.5c-0.3,1-0.8,1.9-1.5,2.7c-0.6,0.7-1.4,1.3-2.4,1.7
			c-0.9,0.4-2,0.6-3.1,0.6C125.8,746.8,124.8,746.6,123.8,746.2z M129.6,744.7c0.7-0.4,1.3-0.8,1.7-1.5c0.4-0.6,0.8-1.3,1-2.2
			s0.3-1.7,0.3-2.7c0-0.9-0.1-1.8-0.3-2.6c-0.2-0.8-0.5-1.5-1-2.2s-1-1.1-1.7-1.5s-1.5-0.5-2.5-0.5c-1,0-1.8,0.2-2.5,0.5
			s-1.3,0.8-1.7,1.5c-0.4,0.6-0.8,1.3-1,2.2c-0.2,0.8-0.3,1.7-0.3,2.7c0,1,0.1,1.9,0.3,2.7s0.5,1.6,1,2.2c0.4,0.6,1,1.1,1.7,1.5
			s1.5,0.5,2.5,0.5C128,745.2,128.9,745,129.6,744.7z"/>
		<path class="st2" d="M140.8,744.5c0.8,0.5,2,0.8,3.5,0.8c1.5,0,2.6-0.3,3.2-0.9c0.6-0.6,0.9-1.3,0.9-2.1c0-0.4,0-0.7-0.1-1
			c-0.1-0.3-0.2-0.6-0.5-0.9c-0.2-0.3-0.6-0.5-1-0.7c-0.4-0.2-1-0.3-1.7-0.5l-1.9-0.3c-0.8-0.1-1.6-0.3-2.3-0.5
			c-0.7-0.2-1.2-0.5-1.7-0.8s-0.8-0.8-1-1.3c-0.2-0.5-0.4-1.1-0.4-1.9c0-0.7,0.2-1.3,0.5-1.9c0.3-0.6,0.7-1,1.3-1.4
			c0.5-0.4,1.2-0.7,1.9-0.9s1.5-0.3,2.3-0.3c1.1,0,2,0.1,2.7,0.3c0.7,0.2,1.3,0.5,1.8,0.9c0.5,0.4,0.8,0.8,1.1,1.3
			c0.3,0.5,0.5,1,0.6,1.6l-1.6,0.3c-0.2-0.5-0.4-0.9-0.6-1.2c-0.2-0.4-0.5-0.7-0.8-0.9c-0.3-0.2-0.7-0.4-1.2-0.5
			c-0.5-0.1-1.1-0.2-1.8-0.2c-0.8,0-1.5,0.1-2.1,0.2c-0.6,0.2-1,0.4-1.3,0.6c-0.3,0.3-0.6,0.6-0.7,0.9c-0.1,0.3-0.2,0.7-0.2,1.1
			s0,0.7,0.1,1c0.1,0.3,0.2,0.6,0.5,0.8c0.2,0.2,0.6,0.4,1,0.6c0.4,0.2,1,0.3,1.7,0.4l2.4,0.4c1.7,0.3,2.9,0.8,3.7,1.5
			c0.8,0.7,1.2,1.8,1.2,3.2c0,0.6-0.1,1.2-0.4,1.7s-0.6,1-1.1,1.4c-0.5,0.4-1.1,0.7-1.9,0.9c-0.8,0.2-1.6,0.4-2.6,0.4
			c-1,0-1.8-0.1-2.6-0.3s-1.5-0.5-2.1-0.9c-0.6-0.4-1.1-0.9-1.4-1.5s-0.6-1.4-0.7-2.2h1.7C139.4,743.1,139.9,744,140.8,744.5z"/>
		<path class="st2" d="M162.6,730.5v10c0,1.7,0.3,2.8,0.8,3.6s1.4,1.1,2.7,1.1c0.6,0,1.3-0.1,1.9-0.4s1.2-0.6,1.8-1.1
			c0.6-0.5,1-1.1,1.3-1.6s0.5-1.3,0.5-2.3v-9.2h1.8v15.8h-1.8v-2.6c-1.7,2-3.6,3.1-5.7,3.1c-1.8,0-3.1-0.5-3.9-1.5
			c-0.8-1-1.2-2.4-1.2-4.3v-10.5H162.6z"/>
		<path class="st2" d="M179.4,730.5v2.6c0.6-0.9,1.4-1.6,2.2-2.1c0.8-0.5,1.7-0.7,2.6-0.7c0.2,0,0.4,0,0.6,0c0.2,0,0.4,0,0.6,0.1
			l-0.2,1.7c-0.4-0.1-0.7-0.1-1-0.1c-0.5,0-1.1,0.1-1.6,0.3c-0.6,0.2-1.1,0.5-1.6,1c-0.5,0.4-0.9,0.9-1.2,1.5
			c-0.3,0.6-0.5,1.3-0.5,2.1v9.5h-1.8v-15.8H179.4z"/>
		<path class="st2" d="M189.7,724.4v8.5c0.7-0.9,1.5-1.6,2.4-2.1s1.9-0.8,3.1-0.8c1.1,0,2.1,0.2,3,0.6c0.9,0.4,1.6,1,2.1,1.7
			s1,1.6,1.3,2.6c0.3,1,0.4,2.1,0.4,3.2c0,1.3-0.2,2.5-0.5,3.6c-0.3,1.1-0.8,1.9-1.4,2.7c-0.6,0.7-1.4,1.3-2.2,1.7
			c-0.9,0.4-1.8,0.6-2.9,0.6c-1,0-1.9-0.2-2.8-0.6c-0.9-0.4-1.7-1.1-2.4-2.1v2.1h-1.8v-21.9H189.7z M189.7,740.8
			c0.1,0.5,0.2,1,0.4,1.4s0.4,0.8,0.7,1.1c0.3,0.3,0.6,0.6,1,0.9c0.5,0.4,0.9,0.6,1.4,0.8c0.5,0.2,1.1,0.2,1.7,0.2
			c0.8,0,1.5-0.1,2.1-0.4s1.2-0.7,1.6-1.2c0.5-0.6,0.8-1.3,1.1-2.2c0.3-0.9,0.4-2,0.4-3.2c0-1.3-0.1-2.4-0.4-3.2s-0.7-1.5-1.1-2.1
			c-0.5-0.5-1-0.9-1.6-1.1c-0.6-0.2-1.2-0.3-1.7-0.3c-0.6,0-1.2,0.1-1.7,0.2c-0.5,0.1-1,0.4-1.5,0.8c-0.7,0.5-1.3,1.2-1.7,2
			c-0.4,0.8-0.6,1.8-0.6,3.1v1.4C189.6,739.7,189.7,740.3,189.7,740.8z"/>
		<path class="st2" d="M214.9,745c-0.4,0.3-0.8,0.6-1.3,0.8c-0.5,0.2-1,0.4-1.5,0.6s-1.2,0.2-1.9,0.2c-1.7,0-3-0.4-4-1.2
			c-1-0.8-1.5-2-1.5-3.6c0-1.1,0.2-1.9,0.7-2.6s1-1.2,1.8-1.6c0.7-0.4,1.6-0.7,2.5-0.8c1-0.2,1.9-0.2,3-0.3l3.1-0.1V736
			c0-1.6-0.3-2.7-0.9-3.4c-0.6-0.7-1.7-1.1-3.2-1.1c-0.8,0-1.4,0.1-1.9,0.2c-0.5,0.1-1,0.3-1.3,0.5c-0.3,0.2-0.6,0.5-0.8,0.8
			s-0.4,0.7-0.5,1.1l-1.6-0.2c0.6-2.6,2.6-3.9,6.2-3.9c1.1,0,2,0.1,2.8,0.4c0.8,0.3,1.4,0.6,1.8,1.1c0.5,0.5,0.8,1.1,1,1.8
			c0.2,0.7,0.3,1.6,0.3,2.5v10.4h-1.8V744C215.5,744.4,215.2,744.7,214.9,745z M212.9,738c-1.2,0-2.2,0.1-3,0.3
			c-0.8,0.2-1.4,0.4-1.9,0.7c-0.5,0.3-0.8,0.7-1.1,1.2c-0.2,0.5-0.3,1-0.3,1.6c0,1,0.3,1.7,0.8,2.3s1.5,0.9,2.8,0.9
			c0.7,0,1.3-0.1,2-0.2c0.7-0.2,1.2-0.4,1.6-0.8c0.4-0.3,0.7-0.5,0.9-0.8c0.2-0.2,0.4-0.5,0.6-0.8c0.2-0.3,0.3-0.6,0.3-1
			c0.1-0.4,0.1-0.8,0.1-1.3v-2.3L212.9,738z"/>
		<path class="st2" d="M223.6,730.5v2.6c0.9-1.1,1.8-1.9,2.7-2.3c1-0.5,2-0.7,3.1-0.7c1.8,0,3.1,0.5,4,1.5s1.3,2.4,1.3,4.3v10.5H233
			v-10c0-1.7-0.3-2.8-0.9-3.6c-0.6-0.7-1.5-1.1-2.8-1.1c-0.6,0-1.3,0.1-1.9,0.4c-0.7,0.2-1.3,0.6-1.9,1.1c-0.6,0.5-1.1,1.1-1.4,1.6
			c-0.3,0.6-0.5,1.3-0.5,2.3v9.2h-1.8v-15.8H223.6z"/>
		<path class="st2" d="M242.7,746.2c-0.9-0.4-1.7-0.9-2.3-1.7s-1.1-1.6-1.4-2.6s-0.5-2.2-0.5-3.4c0-1.3,0.2-2.5,0.5-3.5
			c0.4-1,0.9-1.9,1.5-2.7c0.6-0.7,1.4-1.3,2.3-1.7s2-0.6,3.1-0.6c1.1,0,2.2,0.2,3.1,0.6c0.9,0.4,1.7,0.9,2.3,1.7
			c0.6,0.7,1.1,1.6,1.5,2.6c0.3,1,0.5,2.2,0.5,3.4c0,1.3-0.2,2.5-0.5,3.5c-0.3,1-0.8,1.9-1.5,2.7c-0.6,0.7-1.4,1.3-2.4,1.7
			c-0.9,0.4-2,0.6-3.1,0.6S243.6,746.6,242.7,746.2z M248.4,744.7c0.7-0.4,1.3-0.8,1.7-1.5c0.4-0.6,0.8-1.3,1-2.2s0.3-1.7,0.3-2.7
			c0-0.9-0.1-1.8-0.3-2.6c-0.2-0.8-0.5-1.5-1-2.2s-1-1.1-1.7-1.5c-0.7-0.4-1.5-0.5-2.5-0.5c-1,0-1.8,0.2-2.5,0.5
			c-0.7,0.4-1.3,0.8-1.7,1.5c-0.4,0.6-0.8,1.3-1,2.2c-0.2,0.8-0.3,1.7-0.3,2.7c0,1,0.1,1.9,0.3,2.7c0.2,0.8,0.5,1.6,1,2.2
			c0.4,0.6,1,1.1,1.7,1.5c0.7,0.4,1.5,0.5,2.5,0.5C246.8,745.2,247.7,745,248.4,744.7z"/>
		<path class="st2" d="M259.6,744.5c0.8,0.5,2,0.8,3.5,0.8c1.5,0,2.6-0.3,3.2-0.9c0.6-0.6,0.9-1.3,0.9-2.1c0-0.4,0-0.7-0.1-1
			c-0.1-0.3-0.2-0.6-0.5-0.9c-0.2-0.3-0.6-0.5-1-0.7c-0.4-0.2-1-0.3-1.7-0.5l-1.9-0.3c-0.8-0.1-1.6-0.3-2.3-0.5
			c-0.7-0.2-1.2-0.5-1.7-0.8s-0.8-0.8-1-1.3c-0.2-0.5-0.4-1.1-0.4-1.9c0-0.7,0.2-1.3,0.5-1.9c0.3-0.6,0.7-1,1.3-1.4
			c0.5-0.4,1.2-0.7,1.9-0.9s1.5-0.3,2.3-0.3c1.1,0,2,0.1,2.7,0.3c0.7,0.2,1.3,0.5,1.8,0.9c0.5,0.4,0.8,0.8,1.1,1.3
			c0.3,0.5,0.5,1,0.6,1.6l-1.6,0.3c-0.2-0.5-0.4-0.9-0.6-1.2c-0.2-0.4-0.5-0.7-0.8-0.9c-0.3-0.2-0.7-0.4-1.2-0.5
			c-0.5-0.1-1.1-0.2-1.8-0.2c-0.8,0-1.5,0.1-2.1,0.2c-0.6,0.2-1,0.4-1.3,0.6c-0.3,0.3-0.6,0.6-0.7,0.9c-0.1,0.3-0.2,0.7-0.2,1.1
			s0,0.7,0.1,1c0.1,0.3,0.2,0.6,0.5,0.8c0.2,0.2,0.6,0.4,1,0.6c0.4,0.2,1,0.3,1.7,0.4l2.4,0.4c1.7,0.3,2.9,0.8,3.7,1.5
			c0.8,0.7,1.2,1.8,1.2,3.2c0,0.6-0.1,1.2-0.4,1.7s-0.6,1-1.1,1.4c-0.5,0.4-1.1,0.7-1.9,0.9c-0.8,0.2-1.6,0.4-2.6,0.4
			c-1,0-1.8-0.1-2.6-0.3s-1.5-0.5-2.1-0.9c-0.6-0.4-1.1-0.9-1.4-1.5s-0.6-1.4-0.7-2.2h1.7C258.3,743.1,258.8,744,259.6,744.5z"/>
	</g>
	<g class="st6">
		<path class="st2" d="M18.1,812.9v-1.7h17v1.7h-7.6v20.2h-1.9v-20.2H18.1z"/>
		<path class="st2" d="M44.7,832.3c-1.1,0.9-2.6,1.3-4.5,1.3c-2.3,0-4-0.7-5.3-2.2c-1.3-1.5-1.9-3.5-1.9-6c0-1.4,0.2-2.6,0.5-3.7
			c0.4-1.1,0.9-2,1.5-2.7c0.6-0.7,1.4-1.3,2.3-1.6s1.8-0.6,2.9-0.6c1.2,0,2.3,0.2,3.1,0.6s1.6,0.9,2.1,1.6c0.5,0.7,0.9,1.5,1.2,2.4
			s0.4,2,0.4,3v1.1H34.8c0,0.9,0.1,1.7,0.3,2.5s0.6,1.5,1,2.1s1,1,1.7,1.4c0.7,0.3,1.4,0.5,2.3,0.5c0.8,0,1.5-0.1,2-0.2
			c0.6-0.2,1-0.4,1.4-0.7c0.4-0.3,0.7-0.6,0.9-1s0.4-0.8,0.5-1.3h1.7C46.5,830.3,45.8,831.4,44.7,832.3z M44.9,821.8
			c-0.2-0.7-0.5-1.3-0.9-1.9c-0.4-0.5-0.9-0.9-1.5-1.2c-0.6-0.3-1.4-0.4-2.3-0.4c-1.5,0-2.8,0.5-3.7,1.4c-0.9,1-1.5,2.4-1.7,4.4
			h10.3C45.1,823.3,45,822.5,44.9,821.8z"/>
		<path class="st2" d="M52.5,817.3v2.6c0.6-0.9,1.4-1.6,2.2-2.1c0.8-0.5,1.7-0.7,2.6-0.7c0.2,0,0.4,0,0.6,0s0.4,0,0.6,0.1l-0.2,1.7
			c-0.4-0.1-0.7-0.1-1-0.1c-0.5,0-1.1,0.1-1.6,0.3s-1.1,0.5-1.6,1c-0.5,0.4-0.9,0.9-1.2,1.5s-0.5,1.3-0.5,2.1v9.5h-1.8v-15.8H52.5z"
			/>
		<path class="st2" d="M62.8,817.3v2.6c0.6-0.9,1.4-1.6,2.2-2.1c0.8-0.5,1.7-0.7,2.6-0.7c0.2,0,0.4,0,0.6,0s0.4,0,0.6,0.1l-0.2,1.7
			c-0.4-0.1-0.7-0.1-1-0.1c-0.5,0-1.1,0.1-1.6,0.3s-1.1,0.5-1.6,1c-0.5,0.4-0.9,0.9-1.2,1.5s-0.5,1.3-0.5,2.1v9.5H61v-15.8H62.8z"/>
		<path class="st2" d="M73.3,811.2v2.7h-2v-2.7H73.3z M73.2,817.3v15.8h-1.8v-15.8H73.2z"/>
		<path class="st2" d="M76,818.8v-1.5h2.4V813h1.8v4.3h4.5v1.5h-4.5v10.3c0,0.8,0.2,1.4,0.5,2s0.9,0.8,1.7,0.8c0.5,0,1,0,1.3-0.1
			c0.4-0.1,0.7-0.2,1-0.3l0.4,1.4c-0.3,0.1-0.7,0.2-1.1,0.3c-0.4,0.1-1,0.2-1.7,0.2c-0.9,0-1.6-0.2-2.1-0.5
			c-0.5-0.3-0.9-0.7-1.1-1.2c-0.3-0.5-0.4-1.1-0.5-1.7c-0.1-0.7-0.1-1.3-0.1-2.1v-9.2H76z"/>
		<path class="st2" d="M90.8,833c-0.9-0.4-1.7-0.9-2.3-1.7c-0.6-0.7-1.1-1.6-1.4-2.6s-0.5-2.2-0.5-3.4c0-1.3,0.2-2.5,0.5-3.5
			c0.4-1,0.9-1.9,1.5-2.7c0.6-0.7,1.4-1.3,2.3-1.7c0.9-0.4,1.9-0.6,3.1-0.6c1.1,0,2.2,0.2,3.1,0.6c0.9,0.4,1.7,0.9,2.3,1.7
			c0.6,0.7,1.1,1.6,1.5,2.6c0.3,1,0.5,2.2,0.5,3.4c0,1.3-0.2,2.5-0.5,3.5c-0.3,1-0.8,1.9-1.5,2.7S98,832.6,97,833
			c-0.9,0.4-2,0.6-3.1,0.6C92.7,833.6,91.7,833.4,90.8,833z M96.5,831.5c0.7-0.4,1.3-0.8,1.7-1.5c0.4-0.6,0.8-1.3,1-2.2
			s0.3-1.7,0.3-2.7c0-0.9-0.1-1.8-0.3-2.6c-0.2-0.8-0.5-1.5-1-2.2s-1-1.1-1.7-1.5c-0.7-0.4-1.5-0.5-2.5-0.5c-1,0-1.8,0.2-2.5,0.5
			c-0.7,0.4-1.3,0.8-1.7,1.5s-0.8,1.3-1,2.2c-0.2,0.8-0.3,1.7-0.3,2.7c0,1,0.1,1.9,0.3,2.7c0.2,0.8,0.5,1.6,1,2.2
			c0.4,0.6,1,1.1,1.7,1.5c0.7,0.4,1.5,0.5,2.5,0.5C95,832.1,95.8,831.9,96.5,831.5z"/>
		<path class="st2" d="M107,817.3v2.6c0.6-0.9,1.4-1.6,2.2-2.1c0.8-0.5,1.7-0.7,2.6-0.7c0.2,0,0.4,0,0.6,0s0.4,0,0.6,0.1l-0.2,1.7
			c-0.4-0.1-0.7-0.1-1-0.1c-0.5,0-1.1,0.1-1.6,0.3s-1.1,0.5-1.6,1c-0.5,0.4-0.9,0.9-1.2,1.5s-0.5,1.3-0.5,2.1v9.5h-1.8v-15.8H107z"
			/>
		<path class="st2" d="M117.5,811.2v2.7h-2v-2.7H117.5z M117.4,817.3v15.8h-1.8v-15.8H117.4z"/>
		<path class="st2" d="M125.5,833c-0.9-0.4-1.7-0.9-2.3-1.7c-0.6-0.7-1.1-1.6-1.4-2.6s-0.5-2.2-0.5-3.4c0-1.3,0.2-2.5,0.5-3.5
			c0.4-1,0.9-1.9,1.5-2.7c0.6-0.7,1.4-1.3,2.3-1.7c0.9-0.4,1.9-0.6,3.1-0.6c1.1,0,2.2,0.2,3.1,0.6c0.9,0.4,1.7,0.9,2.3,1.7
			c0.6,0.7,1.1,1.6,1.5,2.6c0.3,1,0.5,2.2,0.5,3.4c0,1.3-0.2,2.5-0.5,3.5c-0.3,1-0.8,1.9-1.5,2.7s-1.4,1.3-2.4,1.7
			c-0.9,0.4-2,0.6-3.1,0.6C127.5,833.6,126.4,833.4,125.5,833z M131.2,831.5c0.7-0.4,1.3-0.8,1.7-1.5c0.4-0.6,0.8-1.3,1-2.2
			s0.3-1.7,0.3-2.7c0-0.9-0.1-1.8-0.3-2.6c-0.2-0.8-0.5-1.5-1-2.2s-1-1.1-1.7-1.5c-0.7-0.4-1.5-0.5-2.5-0.5c-1,0-1.8,0.2-2.5,0.5
			c-0.7,0.4-1.3,0.8-1.7,1.5s-0.8,1.3-1,2.2c-0.2,0.8-0.3,1.7-0.3,2.7c0,1,0.1,1.9,0.3,2.7c0.2,0.8,0.5,1.6,1,2.2
			c0.4,0.6,1,1.1,1.7,1.5c0.7,0.4,1.5,0.5,2.5,0.5C129.7,832.1,130.5,831.9,131.2,831.5z"/>
		<path class="st2" d="M142.4,831.3c0.8,0.5,2,0.8,3.5,0.8c1.5,0,2.6-0.3,3.2-0.9c0.6-0.6,0.9-1.3,0.9-2.1c0-0.4,0-0.7-0.1-1
			s-0.2-0.6-0.5-0.9s-0.6-0.5-1-0.7s-1-0.3-1.7-0.5l-1.9-0.3c-0.8-0.1-1.6-0.3-2.3-0.5s-1.2-0.5-1.7-0.8c-0.5-0.3-0.8-0.8-1-1.3
			s-0.4-1.1-0.4-1.9c0-0.7,0.2-1.3,0.5-1.9c0.3-0.6,0.7-1,1.3-1.4s1.2-0.7,1.9-0.9c0.7-0.2,1.5-0.3,2.3-0.3c1.1,0,2,0.1,2.7,0.3
			c0.7,0.2,1.3,0.5,1.8,0.9c0.5,0.4,0.8,0.8,1.1,1.3c0.3,0.5,0.5,1,0.6,1.6l-1.6,0.3c-0.2-0.5-0.4-0.9-0.6-1.2s-0.5-0.7-0.8-0.9
			c-0.3-0.2-0.7-0.4-1.2-0.5c-0.5-0.1-1.1-0.2-1.8-0.2c-0.8,0-1.5,0.1-2.1,0.2c-0.6,0.2-1,0.4-1.3,0.6c-0.3,0.3-0.6,0.6-0.7,0.9
			c-0.1,0.3-0.2,0.7-0.2,1.1s0,0.7,0.1,1s0.2,0.6,0.5,0.8c0.2,0.2,0.6,0.4,1,0.6c0.4,0.2,1,0.3,1.7,0.4l2.4,0.4
			c1.7,0.3,2.9,0.8,3.7,1.5c0.8,0.7,1.2,1.8,1.2,3.2c0,0.6-0.1,1.2-0.4,1.7c-0.3,0.6-0.6,1-1.1,1.4c-0.5,0.4-1.1,0.7-1.9,0.9
			c-0.8,0.2-1.6,0.4-2.6,0.4c-1,0-1.8-0.1-2.6-0.3c-0.8-0.2-1.5-0.5-2.1-0.9c-0.6-0.4-1.1-0.9-1.4-1.5c-0.4-0.6-0.6-1.4-0.7-2.2h1.7
			C141.1,829.9,141.6,830.8,142.4,831.3z"/>
		<path class="st2" d="M164.3,817.3v2.6c0.6-0.9,1.4-1.6,2.2-2.1c0.8-0.5,1.7-0.7,2.6-0.7c0.2,0,0.4,0,0.6,0s0.4,0,0.6,0.1l-0.2,1.7
			c-0.4-0.1-0.7-0.1-1-0.1c-0.5,0-1.1,0.1-1.6,0.3s-1.1,0.5-1.6,1c-0.5,0.4-0.9,0.9-1.2,1.5s-0.5,1.3-0.5,2.1v9.5h-1.8v-15.8H164.3z
			"/>
		<path class="st2" d="M174.6,817.3v10c0,1.7,0.3,2.8,0.8,3.6s1.4,1.1,2.7,1.1c0.6,0,1.3-0.1,1.9-0.4c0.6-0.2,1.2-0.6,1.8-1.1
			c0.6-0.5,1-1.1,1.3-1.6c0.3-0.6,0.5-1.3,0.5-2.3v-9.2h1.8v15.8h-1.8v-2.6c-1.7,2-3.6,3.1-5.7,3.1c-1.8,0-3.1-0.5-3.9-1.5
			c-0.8-1-1.2-2.4-1.2-4.3v-10.5H174.6z"/>
		<path class="st2" d="M191.4,817.3v2.6c0.6-0.9,1.4-1.6,2.2-2.1c0.8-0.5,1.7-0.7,2.6-0.7c0.2,0,0.4,0,0.6,0s0.4,0,0.6,0.1l-0.2,1.7
			c-0.4-0.1-0.7-0.1-1-0.1c-0.5,0-1.1,0.1-1.6,0.3s-1.1,0.5-1.6,1c-0.5,0.4-0.9,0.9-1.2,1.5s-0.5,1.3-0.5,2.1v9.5h-1.8v-15.8H191.4z
			"/>
		<path class="st2" d="M208.7,831.8c-0.4,0.3-0.8,0.6-1.3,0.8c-0.5,0.2-1,0.4-1.5,0.6s-1.2,0.2-1.9,0.2c-1.7,0-3-0.4-4-1.2
			c-1-0.8-1.5-2-1.5-3.6c0-1.1,0.2-1.9,0.7-2.6s1-1.2,1.8-1.6c0.7-0.4,1.6-0.7,2.5-0.8c0.9-0.2,1.9-0.2,3-0.3l3.1-0.1v-0.5
			c0-1.6-0.3-2.7-0.9-3.4c-0.6-0.7-1.7-1.1-3.2-1.1c-0.8,0-1.4,0.1-1.9,0.2c-0.5,0.1-1,0.3-1.3,0.5s-0.6,0.5-0.8,0.8
			s-0.4,0.7-0.5,1.1l-1.6-0.2c0.6-2.6,2.6-3.9,6.2-3.9c1.1,0,2,0.1,2.8,0.4s1.4,0.6,1.8,1.1s0.8,1.1,1,1.8c0.2,0.7,0.3,1.6,0.3,2.5
			v10.4h-1.8v-2.2C209.4,831.2,209.1,831.5,208.7,831.8z M206.7,824.8c-1.2,0-2.2,0.1-3,0.3c-0.8,0.2-1.4,0.4-1.9,0.7
			c-0.5,0.3-0.8,0.7-1.1,1.2c-0.2,0.5-0.3,1-0.3,1.6c0,1,0.3,1.7,0.8,2.3s1.5,0.9,2.8,0.9c0.7,0,1.3-0.1,2-0.2
			c0.7-0.2,1.2-0.4,1.6-0.8c0.4-0.3,0.7-0.5,0.9-0.8c0.2-0.2,0.4-0.5,0.6-0.8c0.2-0.3,0.3-0.6,0.3-1c0.1-0.4,0.1-0.8,0.1-1.3v-2.3
			L206.7,824.8z"/>
		<path class="st2" d="M217.5,811.2v21.9h-1.8v-21.9H217.5z"/>
		<path class="st2" d="M233.1,832.3c-1.1,0.9-2.6,1.3-4.5,1.3c-2.3,0-4-0.7-5.3-2.2s-1.9-3.5-1.9-6c0-1.4,0.2-2.6,0.5-3.7
			c0.4-1.1,0.9-2,1.5-2.7c0.6-0.7,1.4-1.3,2.3-1.6s1.8-0.6,2.9-0.6c1.2,0,2.3,0.2,3.1,0.6s1.6,0.9,2.1,1.6s0.9,1.5,1.2,2.4
			s0.4,2,0.4,3v1.1h-12.1c0,0.9,0.1,1.7,0.3,2.5s0.6,1.5,1,2.1s1,1,1.7,1.4c0.7,0.3,1.4,0.5,2.3,0.5c0.8,0,1.5-0.1,2-0.2
			c0.6-0.2,1-0.4,1.4-0.7c0.4-0.3,0.7-0.6,0.9-1s0.4-0.8,0.5-1.3h1.7C234.9,830.3,234.2,831.4,233.1,832.3z M233.3,821.8
			c-0.2-0.7-0.5-1.3-0.9-1.9c-0.4-0.5-0.9-0.9-1.5-1.2c-0.6-0.3-1.4-0.4-2.3-0.4c-1.5,0-2.8,0.5-3.7,1.4c-0.9,1-1.5,2.4-1.7,4.4
			h10.3C233.5,823.3,233.4,822.5,233.3,821.8z"/>
		<path class="st2" d="M241.6,831.3c0.8,0.5,2,0.8,3.5,0.8c1.5,0,2.6-0.3,3.2-0.9c0.6-0.6,0.9-1.3,0.9-2.1c0-0.4,0-0.7-0.1-1
			s-0.2-0.6-0.5-0.9s-0.6-0.5-1-0.7s-1-0.3-1.7-0.5l-1.9-0.3c-0.8-0.1-1.6-0.3-2.3-0.5s-1.2-0.5-1.7-0.8c-0.5-0.3-0.8-0.8-1-1.3
			s-0.4-1.1-0.4-1.9c0-0.7,0.2-1.3,0.5-1.9c0.3-0.6,0.7-1,1.3-1.4s1.2-0.7,1.9-0.9c0.7-0.2,1.5-0.3,2.3-0.3c1.1,0,2,0.1,2.7,0.3
			c0.7,0.2,1.3,0.5,1.8,0.9c0.5,0.4,0.8,0.8,1.1,1.3c0.3,0.5,0.5,1,0.6,1.6l-1.6,0.3c-0.2-0.5-0.4-0.9-0.6-1.2s-0.5-0.7-0.8-0.9
			c-0.3-0.2-0.7-0.4-1.2-0.5c-0.5-0.1-1.1-0.2-1.8-0.2c-0.8,0-1.5,0.1-2.1,0.2c-0.6,0.2-1,0.4-1.3,0.6c-0.3,0.3-0.6,0.6-0.7,0.9
			c-0.1,0.3-0.2,0.7-0.2,1.1s0,0.7,0.1,1s0.2,0.6,0.5,0.8c0.2,0.2,0.6,0.4,1,0.6c0.4,0.2,1,0.3,1.7,0.4l2.4,0.4
			c1.7,0.3,2.9,0.8,3.7,1.5c0.8,0.7,1.2,1.8,1.2,3.2c0,0.6-0.1,1.2-0.4,1.7c-0.3,0.6-0.6,1-1.1,1.4c-0.5,0.4-1.1,0.7-1.9,0.9
			c-0.8,0.2-1.6,0.4-2.6,0.4c-1,0-1.8-0.1-2.6-0.3c-0.8-0.2-1.5-0.5-2.1-0.9c-0.6-0.4-1.1-0.9-1.4-1.5c-0.4-0.6-0.6-1.4-0.7-2.2h1.7
			C240.2,829.9,240.8,830.8,241.6,831.3z"/>
	</g>
</g>
</svg>
