<?xml version="1.0" encoding="utf-8"?>
<!-- Generator: Adobe Illustrator 21.0.0, SVG Export Plug-In . SVG Version: 6.00 Build 0)  -->
<svg version="1.1" id="Capa_1" xmlns="http://www.w3.org/2000/svg" xmlns:xlink="http://www.w3.org/1999/xlink" x="0px" y="0px"
	 viewBox="0 0 1252.2 370" style="enable-background:new 0 0 1252.2 370;" xml:space="preserve">
<style type="text/css">
	.st0{fill:#FFFFFF;}
</style>
<g>
	<g>
		<path class="st0" d="M103.9,267.5v-164l105.8,82L103.9,267.5z M146.5,14.2c-1,0-2.1,0-3.1,0.1l-35.8-0.1c-0.3-0.1-0.7-0.1-1.1-0.1
			H40.4c-2.4,0-4.3,1.9-4.3,4.3v334.2c0,2.4,2.6,4.3,5,4.3h64.5l0,0l36-0.1c1.6,0.1,3.2,0.2,4.9,0.2c44.3,0,130.9-29.3,131-169
			C277.4,19.6,178.1,14.2,146.5,14.2"/>
		<g>
			<path class="st0" d="M305.1,185.1H368v167.7h-62.8V185.1H305.1z M302.2,140.9c0-18.6,14.7-32.1,34.3-32.1c19.2,0,34,13.5,34,32.1
				c0,18.3-14.7,31.7-34,31.7C317,172.6,302.2,159.1,302.2,140.9"/>
			<path class="st0" d="M400.3,185.1h63.2v34c10.6-26,28.9-36.5,53.9-36.2v59c-34.9-1.9-53.9,9.6-53.9,33.7v77.3h-63.2L400.3,185.1
				L400.3,185.1z"/>
			<path class="st0" d="M650.1,249.9c-0.7-18-9.3-28.9-26.3-28.9c-15.4,0-26.3,9.9-28.9,28.9H650.1z M530.8,271v-2.6
				c0-54.5,41.7-88.2,93-88.2c47.1,0,87.2,26.9,87.2,87.2v15.4H594.6c1.6,20.2,13.5,31.1,31.4,31.1c17.6,0,24.4-8.3,26.3-17.9h59
				c-5.1,38.5-34.3,60.9-87.5,60.9C570.3,357,530.8,326.5,530.8,271"/>
			<path class="st0" d="M724.8,271.3v-2.6c0-57.1,40.4-88.2,90.7-88.2c42,0,80.8,18,84,70.5h-59.3c-1.9-13.5-7.7-22.1-23.1-22.1
				c-18.6,0-28.2,12.8-28.2,38.5v2.6c0,27.2,9,41,29.2,41c14.4,0,24-9,25.7-25.3h56.7c-1.6,43.3-30.1,71.2-86.6,71.2
				C763.6,357,724.8,328.4,724.8,271.3"/>
			<path class="st0" d="M928.7,296.7v-69.3h-19.5v-42.3h19.5v-34.3h63.2v34.3h32.1v42.3h-32.1v63.2c0,11.5,6.1,16.4,16.3,16.4
				c5.8,0,10.3-0.6,15.7-2.6v47.5c-7.7,2.2-19.6,4.8-33.3,4.8C951.1,356.6,928.7,338.7,928.7,296.7"/>
			<path class="st0" d="M1143.5,294.1v-8.7H1130c-21.2,0-28.8,4.2-28.8,16c0,8,6.1,13.1,17.6,13.1
				C1133.2,314.6,1143.5,306.6,1143.5,294.1 M1039,306.3c0-39.4,32.1-54.8,90.1-54.8h14.4v-2.9c0-14.1-2.6-24.4-19.5-24.4
				c-14.4,0-18.9,9.3-19.9,17.9h-59c2.6-41,34.6-61.9,82.7-61.9c48.7,0,78.2,19.9,78.2,64.1v108.4h-60.9v-19.2
				c-7,11.5-21.8,23.4-49.1,23.4C1065.9,357,1039,342.2,1039,306.3"/>
		</g>
	</g>
</g>
</svg>
