<?xml version="1.0" encoding="utf-8"?>
<!-- Generator: Adobe Illustrator 21.0.0, SVG Export Plug-In . SVG Version: 6.00 Build 0)  -->
<svg version="1.1" id="Capa_1" xmlns="http://www.w3.org/2000/svg" xmlns:xlink="http://www.w3.org/1999/xlink" x="0px" y="0px"
	 viewBox="0 0 232.3 34.4" style="enable-background:new 0 0 232.3 34.4;" xml:space="preserve">
<style type="text/css">
	.st0{fill:#FFFFFF;}
</style>
<path class="st0" d="M140.9,19l7.3,2.4l-7.3,2.5c0,0-0.8-0.8-0.8-2.5C140.1,20,140.9,19,140.9,19 M136.3,17.4c0,0-1,1.8-1,4.2
	c0,2.1,1,4,1,4l-4,1.6v6.3l23-8.9v-6.5l-23-8.7v6.4L136.3,17.4z"/>
<path class="st0" d="M17.6,10.7c-1.8-0.7-3.5-1.2-5.5-1.2c-3.2,0-6.5,1.4-8.8,3.7C1.2,15.5,0,18.5,0,21.7c0,3.4,1.2,6.4,3.7,8.7
	c2.4,2.2,5.4,3.4,8.6,3.4c1.9,0,3.3-0.5,5.3-1.1v-7.2C16.4,27,14.4,28,12.5,28c-3.7,0-6.2-2.6-6.2-6.3c0-3.6,2.5-6.4,6.1-6.4
	c2,0,4,0.9,5.3,2.5V10.7z"/>
<path class="st0" d="M32.9,9.4c-6.6,0-12.7,4.9-12.7,11.9c0,7.5,5.3,12.7,12.7,12.7c7.4,0,12.7-5.3,12.7-12.7
	C45.7,14.3,39.5,9.4,32.9,9.4 M32.9,15.2c3.6,0,6.5,2.9,6.5,6.1c0,4-2.9,6.9-6.5,6.9c-3.6,0-6.5-2.9-6.5-6.9
	C26.4,18.1,29.3,15.2,32.9,15.2"/>
<path class="st0" d="M60,9.4c-6.6,0-12.7,4.9-12.7,11.9c0,7.5,5.3,12.7,12.7,12.7c7.4,0,12.7-5.3,12.7-12.7
	C72.8,14.3,66.6,9.4,60,9.4 M60,15.2c3.6,0,6.5,2.9,6.5,6.1c0,4-2.9,6.9-6.5,6.9c-3.6,0-6.5-2.9-6.5-6.9
	C53.5,18.1,56.4,15.2,60,15.2"/>
<path class="st0" d="M75.5,33.2h6v-7.6h3.4c5.2,0,8.2-2.4,8.2-7.8c0-5.3-3.4-7.6-8.4-7.6h-9.2V33.2z M81.5,15h1c2.3,0,4.3,0,4.3,2.9
	c0,2.8-2.1,2.8-4.3,2.8h-1V15z"/>
<polygon class="st0" points="95.7,10.1 95.7,33.2 108.8,33.2 108.8,28.1 101.7,28.1 101.7,24.1 108.5,24.1 108.5,19 101.7,19 
	101.7,15.2 108.8,15.2 108.8,10.1 "/>
<path class="st0" d="M124.4,23.7c3.3-0.6,5-3.3,5-6.5c0-4.9-3.5-7.1-8-7.1h-9v23h6v-8.9h0.1l5.7,8.9h7.5L124.4,23.7z M118.5,14.7
	h0.6c2,0,4.2,0.4,4.2,2.9s-2.2,2.9-4.2,2.9h-0.6V14.7z"/>
<path class="st0" d="M174.2,10.7c-1.8-0.7-3.5-1.2-5.5-1.2c-3.2,0-6.5,1.4-8.8,3.7c-2.2,2.3-3.4,5.3-3.4,8.4c0,3.4,1.2,6.4,3.7,8.7
	c2.4,2.2,5.4,3.4,8.6,3.4c1.9,0,3.3-0.5,5.3-1.1v-7.2C173,27,171,28,169,28c-3.7,0-6.2-2.6-6.2-6.3c0-3.6,2.5-6.4,6.1-6.4
	c2,0,4,0.9,5.3,2.5V10.7z"/>
<path class="st0" d="M194.4,10.7c-1.8-0.7-3.5-1.2-5.5-1.2c-3.2,0-6.5,1.4-8.8,3.7c-2.2,2.3-3.4,5.3-3.4,8.4c0,3.4,1.2,6.4,3.7,8.7
	c2.4,2.2,5.4,3.4,8.6,3.4c1.9,0,3.3-0.5,5.3-1.1v-7.2c-1.3,1.5-3.2,2.4-5.2,2.4c-3.7,0-6.2-2.6-6.2-6.3c0-3.6,2.5-6.4,6.1-6.4
	c2,0,4,0.9,5.3,2.5V10.7z"/>
<rect x="198.1" y="10.1" class="st0" width="6" height="23"/>
<path class="st0" d="M223.4,3.2L220,0.7L215.7,6l2.5,1.8L223.4,3.2z M219.5,9.4c-6.6,0-12.7,4.9-12.7,11.9c0,7.5,5.3,12.7,12.7,12.7
	c7.4,0,12.7-5.3,12.7-12.7C232.3,14.3,226.2,9.4,219.5,9.4 M219.5,15.2c3.6,0,6.5,2.9,6.5,6.1c0,4-2.9,6.9-6.5,6.9
	c-3.6,0-6.5-2.9-6.5-6.9C213,18.1,216,15.2,219.5,15.2"/>
</svg>
