<?xml version="1.0" encoding="utf-8"?>
<!-- Generator: Adobe Illustrator 21.0.0, SVG Export Plug-In . SVG Version: 6.00 Build 0)  -->
<svg version="1.1" xmlns="http://www.w3.org/2000/svg" xmlns:xlink="http://www.w3.org/1999/xlink" x="0px" y="0px"
	 viewBox="0 0 960 500" style="enable-background:new 0 0 960 500;" xml:space="preserve">
<style type="text/css">
	.st0{fill:#FFFFFF;}
	.st1{opacity:0.3;fill:#FFFFFF;enable-background:new    ;}
</style>
<g id="Capa_1">
	<g id="Capa_1_1_">
		<circle class="st0" cx="714.1" cy="383.7" r="6"/>
		<g id="Modo_de_aislamiento">
			<path class="st0" d="M632.7,52.7c0.6,5.5-2.7,15.5-8.3,17.6c-2.5,0.9-3.5,3.1-4.5,5.5c-2.3,6-8.1,7.5-13.5,3.8
				c-2.3-1.6-4.9-3.2-7.5-3.6c-2.2-0.3-4.6,1.3-6.9,2.1c-2,0.7-4.2,2.4-6,2.1c-6.4-1-12.2,1.9-18.4,2.3c-1.7,0.1-3.4,1.4-5,2.4
				c-3.9,2.3-7.9,4.3-10.8,8.2c-2.3,3.1-6.1,2.6-9.6,1.7c-1.5-0.4-3-0.6-4.6-0.9c-3.9-0.9-6.7,1.2-9.1,3.8c-1.6,1.7-3.5,1.9-5.5,2.2
				c-1.9,0.3-3.8,0.1-5.6,0.6c-1.3,0.4-2.5,1.4-3.6,2.4c-5.9,5-12.8,8.2-20.1,10.3c-4.8,1.4-9.8,1.6-14.2-2.3
				c-2.1-1.9-4.7-3.2-7.3-4.5c-4.6-2.3-9.4-2.7-14.4-1.3c-2.8,0.8-5.6,2.1-8.4,2.2c-3.6,0.2-6.1,2.3-8.9,3.7c-3,1.5-5.9,3.4-8.7,5.4
				c-1.1,0.7-1.7,2.1-2.5,3.2c-1.3,1.8-2.4,3.6-3.8,5.3c-2,2.6-4.5,3.9-7.8,2.1c-0.4,0.8-0.8,1.5-1.3,2.5c-0.9-0.6-1.7-1.1-2.6-1.6
				c-1.2,2-2.4,4.1-3.5,6.1c-0.3,0-0.5-0.1-0.8-0.1c-0.6-1.6-1.1-3.1-2-5.3c-1.3,2.8-2.7,2.2-4.1,1.1c-1-0.7-2-1.6-3.1-1.7
				c-1.1-0.1-2.3,0.5-3.5,0.9c-2,0.7-0.7,2.1-0.5,3.1c0.8,4.1,1.5,8.2,0.5,12.4c-0.1,0.5-0.1,1.1,0,1.5c1.3,2.9,0.8,5.7-0.7,8.1
				c-1.4,2.3-3.4,4.4-5.5,6.2c-1.5,1.4-3.3,2.7-5.1,3.3c-1.8,0.6-4,0-5.9,0.3c-2.1,0.3-4.7,0.4-6.1,1.6c-1.4,1.2-1.9,3.6-2.2,5.6
				c-0.5,2.7-1,5.2-3.6,6.7c-1.9-1-3.9-1.9-5.7-3.1c-3.7-2.5-7-1-10.1,1c-0.9,0.6-1.6,2.3-1.5,3.3c0.4,2.3-0.8,3.3-2.5,3.8
				c-2.2,0.6-2.5,1.8-1.6,3.7c-3.2-0.8-4.1-1.8-4-4.5c0.1-1.4,0.6-1.9,2.1-1.3c0.8,0.3,1.7,0.1,2.6,0.2c0.1-0.3,0.3-0.6,0.4-0.9
				c-0.5-0.3-1.1-0.5-0.9-0.5c0.8-1.8,1.7-3.3,2.2-4.9c0.7-2.6-2.4-2.2-3.3-4.1c-0.6,1-1,1.8-1,1.9c-1.2-0.1-2.4-0.5-3.1-0.1
				c-0.6,0.4-1.2,1.7-1,2.5c0.2,1.1,1.1,2.2,1.4,2.8c-0.8,1.4-1.5,2.4-1.9,3.4c-0.4,1.1-0.4,2.3-0.6,3.5c-0.4,0.1-0.7,0.2-1.1,0.2
				c-0.5-1.2-1.1-2.3-1.3-3.5c-0.3-1.7-1-1.7-2.7-1.8c-1.4-0.1-2.8-0.7-3.8,0.6c-0.6,0.7-0.7,1.7-1.2,2.5c-0.8,1.4-1.8,2.8-3,4.7
				c-0.4-2.5-0.7-4.2-1-5.9c0.2,0,0.3,0.1,0.5,0.1c0.3-1.4,0.8-2.9,0.7-4.3c0-0.5-1.5-1-2.4-1.3c-2.4-0.9-3.3,1.3-4.7,2.4
				c-0.3,0.2,0.3,1.7,0.6,2.5c0.5,1.4,1.2,2.8,1.8,4.2c-3.6,3.3-5.2-1.3-7.9-2c0.8-1.7,1.6-3.3,2.8-5.8c-2.8,0.9-5.1,1.3-7.2,2.3
				c-1.6,0.8-1.6,3,0.1,4c3.2,2,3.5,4.3,2.7,7.9c-0.3,1.5-1.7,1.8-1.9,3.2c-0.7-1.5-1.3-2.9-2-4.4c-0.8-1.6-1.9-2.1-3.3-0.8
				c-1.5,1.2-2.5-0.1-3.6-0.7c-0.4-0.2-0.1-1.6-0.1-2.5c-1.3,0.5-2.8,1.2-4.4,1.8c1.9,2.3,2,3.9,0.4,5.5c0.5,0.2,0.9,0.3,1.3,0.5
				c-1.3,3.2,0.1,5.5,2.7,5.9c1.3,2.1,2.4,3.7,3.5,5.5c-1.7,2.2-1.6,2.7,0.9,4.3c-1.4,1.1-2.8,2.3-4.2,3.4c1.3-2,2.1-4.2,0.5-6.3
				c-1.8-2.3-3.7-4.4-5.9-6.3c-1.1-1-2.8-1.3-4.1-1.9c-0.2,0.1,0.1-0.1,0.4-0.3c0.4-0.2,0.8-0.3,0.7-0.9c0.5-0.6,1.1-1.1,1.5-1.8
				c0.2-0.4,0.3-1.4,0.2-1.5c-2.2-1-2.1-3.3-2.9-5.5c-0.7,0.3-1.5,0.6-2.2,0.9c-0.7,0.3-1.5,0.7-2.3,0.8c-2.1,0.3-2.4,0.9-1.2,3
				c-0.8-0.1-1.5-0.1-2.5-0.2c0.7-1.6,1.3-2.9,1.9-4.5c-0.1-0.1-0.5-0.5-0.9-1.1c0.3-0.3,0.7-0.7,1-1.1c-0.2-0.2-0.3-0.4-0.4-0.5
				c-2.2-0.1-3.8-1.3-5.2-2.9c-1.1-1.2-4.6-0.3-5.2,1.3c-0.4,1-1,1.9-1.1,2.9c-0.1,0.9,0.3,1.8,0.5,2.8c-0.2,0.1-0.4,0.1-0.6,0.2
				c-0.2-0.6-0.3-1.1-0.5-1.7c-0.5-1.6-1.3-2.4-3.1-1.7c-3.4,1.3-6,3.1-5.4,7.4c0.1,0.7-0.7,1.6-1.3,2.2c-2.4,2.4-3.4,5.6-4.8,8.6
				c-1.5,3.2-3.3,6.2-6.9,7.7c-0.9,0.4-1.6,1.6-2.2,2.6c-1.1,2.1-3,2.8-5.1,3.4c-0.8,0.2-1.5,1.1-2.3,1.3c-1.7,0.5-3.4,1.2-5.1,1.1
				c-3-0.1-6.2-0.1-9-1.2c-1.9-0.8-3.5-3.1-4.7-5.1c-2-3.5-4.6-5.1-8.6-5.8c-5.4-1-10.5-3.4-15.8-4.9c-1.8-0.5-3.9-0.7-5.6-0.3
				c-2.4,0.6-2.7,5.8-0.7,7.5c4.5,3.7,4.2,7.3-0.1,11.5s-9.3,7.5-14.1,11.1c-2.1,1.6-3.4,4.2-5.3,6.1c-4.1,4.2-8.3,8.3-12.5,12.3
				c-0.6,0.6-1.8,0.9-2.6,0.8c-4.8-0.7-9.6-2-14.4-2.2c-3.5-0.1-7.1,0.9-10.5,1.8c-3.6,1-6.4,3.2-8.8,6.1c-2.2,2.6-6.4,3.5-9.5,2.2
				c-0.4-0.2-0.8-0.6-1.1-0.9c-4.2-6.2-10.1-8.5-17.7-7.9c-0.5,1.7-1,3.5-1.6,5.4c-3.7-0.8-7.4-0.4-10.9-2.7
				c-2.2-1.5-2.2-2.9-2.2-5.1c-3,1.6-5.9,2.6-9.1,0.9c-0.6-0.3-1.9,0.3-2.6,0.8c-2.1,1.5-3,1-4.9-0.3s-4.4-2.1-6.7-2.4
				c-1.8-0.2-2.7,1.9-2.4,4.4c-1.5-0.5-2.9-1-4.9-1.7c1.7-3.7-1.5-6.7-2.3-10.6c-3.7,3.4-4.9-1.3-7.3-2.3c-1.7-0.7-3.3-1.8-4.8-2.8
				c-1-0.6-1.7-1.9-2.7-2.2c-1.4-0.3-3.5-0.5-4.4,0.3c-2.2,1.9-4.4,4-4.1,7.9c-4.2-2.7-7.6,0-11.1,1c-3.1,0.9-3,1-2.7,4.5
				c0.8,0.1,1.7,0.1,2.6,0.2c0.9,1.4-3,2.8,0.1,4.1c-2.9,3-3.5,3-5.3-0.5c-0.8,0.8-1.7,1.4-2.3,2.3c-1.1,1.7-2.1,3.5-2.9,5.4
				c-0.2,0.5,0.2,1.6,0.7,2.1c1.7,1.5,3.6,2.7,5.3,4.2c1,0.9,1.7,1.1,2.7,0.1c2.2-2.3,5.3-1.6,6.7,1.3c0.7,1.3,1.8,2.4,2.8,3.5
				c-1.4-1.3-2.8-2.5-4.3-3.8c-1.3,0.9-2.6,2.3-4.4,1c-0.3,0.5-1.1,1.1-1,1.4c0.4,0.9,1.1,1.6,1.6,2.3c-0.9-0.1-2-0.2-3.3-0.3
				c1,3.2,1.6,3.9,3.8,3.3c2.5-0.7,3.4,0.5,4,2.5c0.1,0.4,0.2,0.8,0.3,1.3c0.9-0.2,1.6-0.3,2.7-0.6c-1.5,2-2.4,1.9-4.8-0.2
				c-1.9,1.4-3.8,1.4-5.8,0.1c-0.7-0.4-1.6-0.7-2.3-0.5c-2.1,0.4-3.2-0.9-2.6-3c-1-0.7-2-1.4-3.4-2.3c0.2-1.2,0.6-3.2-2.4-2.7
				c0-14.8,0-29.7,0-44.5c1.1-0.7,2.2-1.5,3.1-2.1c0.9,0.1,1.7,0.3,3,0.5c-0.3,0.4-0.5,1-0.9,1.1c-3.8,1-4.8,3.4-2.8,6.7
				c3.2,5.3,3.2,5.3,4.7,6.1c1.4-0.9,2.7-1.5,3.8-2.4c3-2.5,6.7-5,5.5-9.6c-0.8-3.3-0.9-4.9,3.2-4.3c1.4,0.2,3-0.8,4.5-1.5
				c0.4-0.2,0.7-0.8,1-1.3c0.5-0.6,0.8-1.6,1.5-1.9c2.7-1.1,1.6-3.7,2.3-5.5c0.1-0.2-0.9-0.9-1.5-1.3c-0.5-0.3-1.7-0.4-1.7-0.8
				c-0.2-1-0.3-2.8,0.2-3c2.7-1.3,1.6-3.8,2.3-5.8c0.7,0.2,1.5,0.5,1.9,0.7c1-0.7,1.8-1.3,2.6-1.9c0.3,1.1,0.7,2.1,1,3.1
				c1.1,0.1,2.5,0.3,3.9,0.4c0.6,0,1.2,0,1.8-0.2c2.1-0.8,3.8-2.4,6.2-2.9c3.2-0.7,6.2-2.3,9.4-3.6c-0.2-2.2-0.5-4.8-3.5-5.9
				c-0.3-0.1-0.1-1.5-0.1-2.3c0-0.1,0.2-0.2,0.4-0.3c3.7-2.9,3.7-2.9,0.6-5.7c-1.9,0-3.4,0-5,0c0.2-0.7,0.3-1.3,0.5-1.9
				c0.6,0.5,1.1,0.9,1.6,1.3c1.5-1.3,2.9-1.1,4.7-0.3c2.9,1.4,4.8,0,5.2-3.7c0.3,1.5,0.5,2.9,0.9,4.2c0.2,0.5,1.1,1.1,1.5,0.9
				c0.6-0.1,0.9-0.9,1.4-1.4c0.4-0.4,1-1.1,1.1-1c0.8,0.5,1.6,1.2,2.6,2c3.3-0.5,5.6-2.9,6.6-7.3c0.7,0.4,1.8,0.8,1.8,1.1
				c-0.1,1.2-0.2,2.6-0.8,3.5c-1.5,2.1-2.7,2.6-7.8,4.5c0.5,1.3,0.9,2.7,1.5,4.4c-4.1-0.3-3.8,2.8-4.3,5.7c1.1-0.2,2.1-0.3,3.4-0.5
				c-0.1,0.7-0.3,1.1-0.3,1.5c0.1,0.5,0.5,1.3,0.6,1.3c0.7-0.2,2.1-0.6,2-0.8c-0.4-3.1,3.6-3.3,3.5-6.1c0.2,0,0.5,0,0.7,0.1
				c0.5,1.1,1,2.1,1.5,3.2c0.7,1.6,1.6,1.8,2.7,0.4c1.1-1.4,1.7-2.8,1.3-4.7c-0.4-1.9-0.5-3.9-0.5-5.9c0-1.2,0.7-2.3,1.1-3.8
				c0.8,1,1.1,1.4,1.5,1.8c0.5,0.6,1.3,1.3,1.3,1.9c0,1.8,1.1,2.6,2.4,2.4c0.8-0.1,1.7-1.5,2.1-2.4c0.3-0.7,0.1-1.9-0.4-2.5
				c-1.3-1.6-0.5-2.4,1.2-3.5c0.4,2.1,0.7,4,1,6c0.5,0,1.2,0,2.1,0c-1.4-2.6,0.8-3.6,2-5.1c-0.3-1-0.5-2-0.9-3.5
				c2.1,1.7,2.5,4.8,1.5,6.8c-0.9,1.8-1.8,3.7-2.5,5.6c-1.1,3.2-0.6,3.8,2.5,3.3c0.6-1.9,1.1-3.7,1.6-5.4c0.3,0,0.5,0.1,0.8,0.1
				c1,2,1.9,4.1,3,6.2c-5.1,2.1-2.6,7-3.4,10.1c-2.3,0.3-4.4,0.4-6.4,0.9c-0.7,0.2-2,1.1-1.9,1.4c0.3,1,0.8,2.1,1.6,2.8
				c0.9,0.9,2.2,1.4,3.4,2c1.5,0.9,2.8,2,2.9,3.9c0,0.6-0.2,1.2-0.4,1.8c-0.2,1.1-1,2.5-0.6,3.4c1.7,3.5,1,6.7-1.1,9.6
				c-1.6,2.3-1.8,4.4-0.3,6.8c0.9,1.4,2,1.6,3.5,1.5c1.9-0.1,3.8,0.1,5.8,0.2c0,0.4,0.1,0.9,0.1,1.3c-0.9,0.2-1.8,0.3-2.7,0.5
				c-1.3,0.4-2.6,0.7-3.8,1.2c-1.7,0.8-1.3,2.2-0.5,3.5c1.5,2.4,2.7,5.2,4.6,7.2c1.8,2,4.3,3.6,6.7,4.9c0.8,0.4,2.4-1.5,3.8-0.1
				c0.6,0.7,1.6,1.3,1.8,2.1c0.8,2.7,2.6,4.1,5,5.2c1.8,0.8,2.9,0.3,4.3-0.9c5.6-5.1,12-9.2,19.7-10.3c2.6-0.4,5.5,0.3,8,1.1
				c3.9,1.3,7.6,1,11.4,0c1-0.3,1.9-1.4,2.8-2.2c3.3-2.9,6.1-6,7.9-10.2c1.2-2.8,4.3-5,6.9-7c4.1-3.1,8.5-5.8,12.8-8.7
				c2.3-1.5,2.4-5.7,0.6-8.1c-1.3-1.8-2.3-3.9-3.4-5.8c-0.9-1.6,0.2-2.7,1.2-3.5c2.5-2,5.4-3,8.6-2c6.6,2.1,13.4,3.4,20.4,3
				c2.3-0.1,4.6,0.3,6.9,0.4c0.6,0,1.2,0.1,1.7-0.1c4.9-1.4,7.8,0,9.8,4.6s10.3,5.4,13.4,1.4c4.9-6.4,9-13.4,10.6-21.1
				c1.2-5.6,4.4-8.4,8.5-10.9c1.9-1.2,2.1-2.6,1.5-4.7c0.6,0.1,1.1,0.2,1.6,0.3c0.3-0.8,0.7-1.7,1.1-2.7c3.6,5.6,8.4,4.8,13.7,3.5
				c-0.6-0.7-0.9-1.1-1.3-1.5c0.1-0.1,0.2-0.3,0.3-0.4c0.8,0.5,1.6,0.9,2.6,1.5c1.3-0.8,2.7-1.7,4-2.6c0.9,0.9,2,1.9,3.1,2.9
				c-1.1,0.9-2.2,1.7-3.6,2.9c3.7,1.8,7.1,2,10.3,0.2c2.1-1.2,3-3.5,2.4-6.4c-0.5,0.1-1.1,0.2-1.5,0.4c-2.4,1.4-5.2,0.4-6.1-2.2
				c-0.8-2.1-1.4-2.7-3.6-2.9c0.9-0.9,1.3-2.7,2.9-1c1.6-0.9,3-1.7,4.5-2.5c-0.1-0.2-0.3-0.4-0.4-0.6c1.3-0.3,2.5-0.5,3.8-0.8
				c0.4-0.1,0.9-0.3,1.1-0.1c1.9,1.3,3.6,3.2,5.6,4c1.2,0.5,3.1-0.4,4.6-0.8c0.4-0.1,0.7-0.8,1.2-1.6c0,1,0.1,1.5,0,2.1
				c-0.1,1-0.3,2.1-0.5,3.1c2,0.2,4.2,0.9,6,0.3c2.1-0.6,3.9-2.3,6-3.7c1.1,1.4,2.6,1.5,4.5,0.7c0.6-0.3,1.5,0.2,2.2,0
				c1.9-0.6,2.5-2.6,1.6-5.6c-0.5-1.7-1.2-3.4-1.8-5.1c2.1-1,4.2-2.1,6.1-3c-0.9-0.9-2-1.9-3.2-3c-0.1,0.8-0.3,1.8-0.4,2.6
				c-0.6-0.5-1.3-1.1-1.9-1.6c-0.1,0.1-0.2,0.3-0.4,0.4c0.3,1,0.7,1.9,1.2,3.4c-1.3-1.3-2.2-2.2-3.1-3.1c-0.8-1.8-0.6-3.1,2.1-3.1
				c1.6,0,3.2-0.9,5.3-1.6c0.3,0.3,1,1.2,1.6,2.1c1.6,2.2,3.1,1.9,5.1,0.1c2.7-2.4,5.7-4.4,8.6-6.5c2.2-1.6,4-3.1,2.7-6.6
				c-1.3-3.4,0.1-6.2,2.4-7.4c2.9,3.8,2.9,3.8,5.6,1.9c-1.2-1.6-0.8-4.4-3.9-4.5c-0.2,0-0.6-0.3-0.5-0.5c0.3-2.6-1.7-3.8-3-5.5
				c-0.5-0.6-0.2-1.7-0.3-2.8c1.3-0.1,2.5-0.1,3.8-0.2c0.2-0.8,0.5-1.6,0.8-2.9c-1.3,0-2.5-0.2-3.6,0c-3.1,0.7-6.2,1.7-9.6,2.6
				c0.5-2,0.9-3.3,1.4-4.9c2.2,0,1.3-2.6,1.8-3.8c2.5,0.3,4.8,0.5,7.4,0.8c1.1-3-2.1-3.6-3.9-4.7c-2.5-1.5-5.3-2.1-8.1,0.2
				c0.3-0.7,0.8-1.4,1-2.1c0.3-1.1,0.4-2.2,0.6-3.3c-0.8-0.1-1.6-0.3-2.4-0.4c-0.1,0-0.3-0.2-0.6-0.5c1-0.6,2-1.2,3.1-1.8
				c-1.6-1.1-2.9-2.1-4.3-3.2c-0.2-0.1,0-0.6-0.1-0.8c-0.5-0.7-1-1.9-1.6-2c-2.1-0.3-4.3-0.4-5.7,1.8c-0.4,0.7-1.2,1.1-2.1,1.8
				c0.5-1.1,0.8-2.1,1.4-2.9c1.1-1.4,1.3-2.5-0.2-3.8c-0.6-0.5-0.8-1.5-1.3-2.3c-0.9-1.5-1.6-3.4-2.9-4.5c-0.6-0.5-2.5,0.1-3.6,0.7
				c-1.1,0.5-1.9,1.6-3.1,2.3c0.5-3.7-0.7-6.7-2.9-9.4c-0.5-0.6-1.9-0.9-2.7-0.6c-1.9,0.6-3.6,2-5.5,2.2c-3.1,0.4-6.3,0.1-9.5,0
				c-1.1,0-2.3-0.4-3.5-0.6c-0.3-0.8-0.7-1.8-1-2.8c-0.9-3.1,0-5.2,2.9-6.8c2.3-1.3,4.5-2.7,6.5-4.3c0.6-0.4,1-1.7,0.8-2.3
				c-1-3.7-2.5-7.2-3.3-11c-0.8-3.9-0.9-8-1.3-11.9c0.3,0,0.7-0.1,1-0.1c0.1,0.8,0.2,1.7,0.1,2.5c-0.1,5.9,0.8,11.4,4.5,16.3
				c1.7,2.2,0.6,6.1-1.6,7.7c-2.5,1.9-5,3.8-7.4,5.7c-0.5,0.4-0.9,1.2-1,1.8c-0.9,5.5,1.8,5.5,5.4,4.4c2.3-0.7,4.5-1.5,6.8-2
				c1.8-0.3,1.8-1.1,1.6-2.6c-0.1-0.9,0.4-2.1,0.9-2.9c0.4-0.7,1.3-1,1.9-1.5c2.3-2,4.8-3.1,7.9-2c1.7,0.6,3.4,1.2,4.8-0.6
				c0.2-0.3,0.9-0.3,1.4-0.3c2.3,0,6.3,4.3,6.4,6.6c0.1,2.2,0.5,4.4,0.7,5.9c1.6,1.2,3,2.3,4.7,3.6c-0.2-1-0.4-1.7-0.3-2.3
				c0.1-1.1,0.2-2.2,0.8-3.1c1.1-1.6,1.9-2.9,0.8-4.9c-0.7-1.2-0.6-2.8-0.9-4.6c1.6,2,2.8,3.6,4.1,5.1c0.7-0.4,1.2-0.7,2-1.2
				c-0.2,0.9-0.1,1.5-0.4,1.8c-1.4,1.7-2,5.9-1.1,7.7c0.2,0.4,0,1,0,1.4c0.1,1.1,0,2.6,0.6,3.4c1.7,2,1.4,3.9,0.9,6.1
				c-0.3,1,0.1,2.2,0.1,2.8c2,0.3,3.4,0.5,5,0.7c-0.3,0.5-0.6,0.9-0.7,1.3s-0.1,0.9,0.1,1.2c0.2,0.3,0.9,0.5,1.1,0.4
				c2.5-1.1,5-2.3,7.4-3.5c0.3-0.2,0.5-0.6,0.8-1c0.3,0.3,0.6,0.7,0.6,0.7c-1.5,2-2.9,4.2-5.4,5.2c-1.6,0.7-1.5,1.6-0.4,2.8
				c0.7-0.2,1.4-0.4,1.4-0.4c2.1,2,3.9,3.7,6.2,5.7c0.1-1.3,0.1-2.2,0.2-3.5c0.2-0.1,0.8-0.3,1.9-0.7c0.4,2.4,0.9,4.8,1.3,7.4
				c0.4,0.1,1.4,0.4,3.1,0.9c-1.6,1.2-2.6,2-3.8,2.8c0.3,1.6,0.6,1.8,3.4,1.9c7.4,0.5,8.8-0.5,11.3-7.6c2.6,0,5.1,0,7.8,0
				c0,1.1-1.3,3.1,1.6,3.3c0.4-0.7,0.8-1.5,1.2-2.3c0.7-1.2,1.4-2.3,2.9-0.5c0.6,0.8,2.2,0.9,3.3,1.2c2.1,0.4,3.1,1.8,3.6,3.8
				c-2,2-6,1.2-6.9,4.7c-0.3,1-0.2,2.1-0.2,3.3c4,0.2,6.7-1,7.5-5.2c0.8,4.7,6.4,9,12.1,9.4c-0.1,0.8-0.2,1.5-0.4,2.8
				c1.5,0,2.9,0.1,4.4-0.1c0.4,0,0.8-0.7,1.1-1.1c0.6-1.1,1-2.4,1.8-3.3c5-5.7,11.1-10,18-12.8c6.6-2.6,13.5-4.8,20.5-6
				c6.1-1,11.8,1.8,16.6,5.6c3.3,2.6,6.7,4.6,11,3.7c2.4-0.5,4.8-1.5,7.1-2.5c5.8-2.5,11.7-4.7,16.2-9.4c0.6-0.6,1.7-0.8,2.7-1
				c0.7-0.2,1.5-0.1,2.2,0c4.2,0.6,7.5-0.6,10.2-4c2.4-3.1,6-3.2,9.6-2.3c1.3,0.3,2.7,0.6,4.1,0.8c3.8,0.4,6.6-0.7,9.4-3.8
				c4.5-5,10.7-7.9,17.5-9.1c3.5-0.7,7.1-1.1,10.7-1.6c0.3,0,0.7-0.3,0.9-0.2c4.6,2,8.4-0.2,12.2-2.3c3.7-2,6.7-1.3,9.9,0.8
				c2.5,1.7,4.9,4,8.5,3.3c3-0.6,4.3-1.5,4.9-4.5c0.7-3.3,3.5-4.8,5.9-6.7c4.2-3.4,6.6-7.8,6.5-13.4c0-2,0.4-3.9,0.5-5.9
				c0.2-3.3,2.7-4.4,5.2-5s4.6,1.2,5.4,3.3c2.8,7.2,9.5,9.3,15.3,12.5c1.2,0.7,3.3-0.1,5-0.5c2.6-0.7,5.2-2.3,7.8-2.2
				c2.9,0.1,5.9,1.3,8.8,2.4c3,1.1,5.8,3.1,9.2,2.4c1.4-0.3,3.5-1.2,3.7-2.1c1.1-5.3,4.8-7.3,9.3-9.4c3.5-1.5,6.9-2.1,10.4-2.3
				c4.2-0.3,5.8,1.1,7.2,5c0.7,1.8,1.2,3.7,1.9,5.5c-0.3,0.1-0.6,0.2-0.9,0.3c-0.9-1.9-1.8-3.8-2.7-5.7c-1.8-3.7-3-4.6-6.7-3.7
				c-4.4,1.1-9.2,1.3-12.7,4.5c-1.9,1.8-3.3,4.3-4.6,6.6c-1.7,3-3.4,3.8-6.7,2.5c-2.9-1.1-5.8-2.4-8.8-3.3
				c-4.1-1.2-8.3-1.5-12.6,0.1c-2.5,0.9-5.2,1.1-7.8,1.7c-0.2,0-0.5,0.1-0.7,0c-6.2-3.2-13-5.6-15.7-13c-0.8-2-2.2-3.2-4.4-2.6
				c-2.5,0.6-3.2,1.7-2.8,4.6C632.5,51.6,632.7,52.1,632.7,52.7c-0.5-0.6-0.9-1.3-1.7-2.3c0,2.4,0,4.4,0,6.3c0.2,0,0.5,0.1,0.7,0.1
				c0.2-0.8,0.3-1.5,0.5-2.3C632.4,53.9,632.6,53.3,632.7,52.7z M218.8,208.2c3.4,3.2,6.9,6.4,10.5,9.6c2.6,2.3,5.6,2,8.6,1.2
				c1-0.3,1.9-1,2.9-1.6c-1-0.6-1.8-0.5-2.5-0.6c-1.3-0.1-2.6-0.2-3.9-0.6c-0.4-0.1-0.6-1.1-0.8-1.7c0.6-0.1,1.3-0.3,1.8-0.2
				c1,0.3,1.9,0.8,3.3,1.5C233.4,208.2,225.4,206.9,218.8,208.2z M66.4,203c5.1,2.6,5.5,2.5,7.8-1.2c-1.7-0.4-3.3-0.8-5.1-1.2
				C68.4,201.3,67.5,202.1,66.4,203z M60.8,205.6c0-0.5,0.1-0.9,0.1-1.4c-1.3-0.4-2.6-0.9-3.9-1.1c-0.2,0-0.5,1.6-0.8,2.4
				C57.7,205.6,59.2,205.6,60.8,205.6z M89.9,188.1c-0.3,0.1-0.5,0.3-0.8,0.4c0,1.2,0,2.4,0,3.6c0.2,0.1,0.3,0.3,0.5,0.4
				c0.6-0.6,1.8-1.2,1.7-1.7C91.2,189.9,90.4,189,89.9,188.1z M75.9,224.4c0.1,0.5,0.2,1,0.4,1.5c1-0.1,2-0.2,3-0.2
				c-0.2-0.7-0.3-1.4-0.5-2.2C77.9,223.8,76.9,224.1,75.9,224.4z M83.9,209.6c0-1.8,0-2.9,0-4c-0.2-0.1-0.4-0.1-0.7-0.2
				c-0.4,1-0.9,2-1.1,3.1C82.1,208.8,83.1,209.2,83.9,209.6z M960,151.3c-1.4-0.7-2.9-1.3-4.3-2.2c-1.1-0.7-1.9-1.9-3.1-2.4
				c-3.4-1.5-5.9-3.8-8.2-6.6c-1.6-1.9-3.6-4.1-6.4-3.9c-5.6,0.3-11.1,1-16.6,1.5c-1.7,0.1-3.4,0.1-5,0.2c-2.7,0.1-5.5-0.6-7.8,1.8
				c-0.7,0.7-2,0.8-3,1c-2.2,0.5-4.6,0.7-6.8,1.4c-2,0.6-4.1,1.2-4.4,4c-0.2,1.7-1.6,1.8-3.1,1.2c-2.9-1.2-5.9-2.2-8.7-3.4
				c-1.7-0.7-3.7-1.3-5-2.5c-1.9-1.8-3.4-1.5-4.9,0.1c-0.5,0.5-1,1.2-1.5,1.8c1.7,0,3.4-0.3,4.9,0.1c3.1,0.9,6.1,2.2,9.2,3.2
				c2.6,0.9,5.3,1.6,7.9,2.6c2.1,0.8,3.1,0.2,3.6-1.9c0.3-1.4,1.1-3.1,2.2-3.8c1.5-1,3.5-1.2,5.3-1.7c1.9-0.5,3.8-0.9,5.7-1.4
				c1.6-0.4,3.3-1,4.9-1c2.3,0,4.6,0.9,6.9,0.7c3.3-0.2,6.5-1.3,9.7-1.6c3-0.3,6.4-1.6,8.8,0.8c4,3.9,8.1,7.5,13.1,10
				c2,1,3.6,2.8,6,3.4c0.3,0.1,0.6,0.3,0.9,0.5C960,152.6,960,152,960,151.3z M304.5-1.7c-1,0.7-1.9,1.9-2.9,1.9
				c-3.3,0-4.8,1.7-5.6,4.7c-0.9,3.2-1.8,6.3-4.9,8.2c-0.4,0.2-0.5,1-0.6,1.5c-0.4,2.4,0.6,4.5,2.6,5.4c2.4,1.1,5.2,2.3,7.9,0.4
				c0.3-0.2,0.5-0.6,0.8-0.9c-2.2,1.6-4.4,0.9-6.6,0.4c-4.1-1-4.8-3.1-2.1-7.2c1.5-2.2,3.1-4.6,3.6-7.2c0.5-3.1,1.9-3.9,4.7-4.4
				c1.3-0.2,2.3-1.9,3.5-2.9C304.8-1.7,304.7-1.7,304.5-1.7z M789,82.8c1.3-0.7,2.7-1.3,4.4-2.1c-0.4,0.7-0.6,1.1-0.7,1.2
				c0.9,0.5,1.7,1.1,2.6,1.5c2.7,1.2,5.3,2.7,8.2,3.3c3.9,0.8,6.2,3,6.3,7.1c0,0.8,0,1.9,0.5,2.3c2.2,1.9,4.5,3.8,7,5.3
				c4.8,3,9.3,6,11.8,11.5c1.4,3.1,3.4,6,5.2,9c0.2,0.3,0.6,0.5,1.2,1c-0.2-0.8-0.3-1.3-0.4-1.7c-0.8-3.7-3.4-6.4-5.3-9.5
				c-3-5-6.7-9.1-11.9-11.9c-2.9-1.6-5.5-3.5-6.3-7c-0.2-0.9-0.6-2-1.2-2.7c-1.4-1.6-2.8-3.2-4.5-4.3c-1.4-0.9-3.4-0.7-5-1.4
				c-2.1-0.9-4.3-1.8-6.1-3.3c-2.9-2.4-6-1.7-7,1.2C788.4,82.5,788.7,82.7,789,82.8z M777.4,87.9c-2.6-0.1-5.3,0.2-7.8,0.8
				c-4.9,1.1-9.7,1.3-14.2-1.6c-0.5-0.3-1.2-0.3-1.9-0.4c0,0.2-0.1,0.5-0.1,0.7c4.2,4.2,9.1,5.4,14.8,3.5c2.1-0.7,4.5-0.8,6.8-1
				c5-0.6,10.5,0,13.3-5.7c0.2-0.4,0.4-0.9,0.6-1.3c-0.3-0.2-0.7-0.3-1-0.5C785.8,86.6,782.1,88.1,777.4,87.9z M844.5,151.8
				c-0.4-0.7-0.9-1.3-1.3-2c-2.2-3-5.7-5.4-4.2-9.9c0.2-0.7-0.1-1.6-0.2-2.4c-0.4-2.5-1.6-4.8-0.7-7.5c0.2-0.5-0.2-1.2-0.4-1.8
				c-0.8,1.9-1.4,3.7-1.4,5.6c-0.2,4.5-0.9,9.3,2.4,13.1C840.2,148.9,842.5,150.2,844.5,151.8L844.5,151.8z M844.5,151.8
				c0.1,0.2,0.2,0.4,0.4,0.6c2.9,2.6,7.3,2.8,10.6,0.8c4.2-2.5,8.5-4.9,12.7-7.3c1-0.6,2-1.1,2.9-1.6c-0.1-0.4-0.3-0.8-0.4-1.2
				c-1.5,0.3-3.2,0.2-4.4,0.9c-2.8,1.6-5.4,3.6-8,5.4C854,152.4,849.6,154.2,844.5,151.8L844.5,151.8z M752.5,84.6
				c-4.1-4.3-8.3-8.6-12.5-12.8c-0.2-0.2-0.7-0.2-1-0.3c-0.1,0.3-0.3,0.6-0.4,0.8c0.1,0.4,0.1,0.8,0.4,1.1c2.1,2.3,4.2,4.7,6.5,6.9
				c2.6,2.5,5.4,4.7,8.1,7.1c0-0.2,0.1-0.5,0.1-0.7C753.2,86,753,85.2,752.5,84.6z M735.6,67c-5.4-2.4-10.9-4.8-16.3-7.2
				c2.2,3.9,12.3,9,15.9,8C735.4,67.6,735.5,67.3,735.6,67z M307.9,24.6c-0.6,2.3-0.7,4.8-0.9,7.3c0,0.3,0.6,0.7,0.9,1.1
				c-0.8-2.8-0.4-5.1,0.7-7.6c2.1-4.7,0.3-7.3-5.3-6.8C308.9,19.2,309.2,19.9,307.9,24.6z M736.7,67.3c-0.3,1.2-0.8,2-0.5,2.4
				c0.6,1,1.5,1.8,2.3,2.7c0.1-0.3,0.3-0.6,0.4-0.8C738.3,70.3,737.7,69.1,736.7,67.3z M89.1,188.5c0,1.2,0,2.4,0,3.6
				c0.2,0.1,0.3,0.3,0.5,0.4c0.6-0.6,1.8-1.2,1.7-1.7c-0.1-0.9-0.9-1.8-1.4-2.7C89.6,188.3,89.4,188.4,89.1,188.5z M632.8,52.7
				c-0.5-0.7-1-1.3-1.7-2.3c0,2.4,0,4.4,0,6.3c0.2,0,0.5,0.1,0.7,0.1c0.2-0.8,0.3-1.5,0.5-2.3C632.4,53.9,632.6,53.3,632.8,52.7
				C632.7,52.7,632.8,52.7,632.8,52.7z"/>
		</g>
	</g>
	<g id="Modo_de_aislamiento_1_">
		<path class="st1" d="M0,0v500h960.3V0H0z"/>
		<g>
			<path class="st0" d="M479.7,77.1c0.8,0,1.4,0.2,1.9,0.4c0.5,0.2,0.9,0.4,1.2,0.7c0.3,0.3,0.5,0.6,0.5,1c0.1,0.4,0.1,0.7,0.1,1.1
				c0,0.7-0.2,1.3-0.6,1.8c-0.3,0.5-0.9,0.8-1.6,1l2.1,5.2l-1.1-0.1l-1.9-5c-0.2,0-0.4,0-0.5,0s-0.4,0-0.6,0l-2.4-0.1l-0.3,4.8
				l-0.9-0.1l0.6-10.9L479.7,77.1z M480.9,82.4c0.4-0.1,0.7-0.2,0.9-0.4c0.2-0.2,0.4-0.4,0.5-0.7c0.1-0.3,0.2-0.6,0.2-1
				c0-0.4,0-0.7-0.1-0.9c-0.1-0.3-0.2-0.5-0.4-0.7c-0.2-0.2-0.5-0.4-0.9-0.5c-0.4-0.1-0.9-0.2-1.4-0.2l-2.5-0.1l-0.3,4.5l2.6,0.1
				C480.1,82.5,480.5,82.5,480.9,82.4z"/>
			<path class="st0" d="M489.3,77.1l0.7,10.9l-0.9,0.1l-0.7-10.9L489.3,77.1z"/>
			<path class="st0" d="M495.1,76.5l1.3,6.6c0.2,1.2,0.7,2.1,1.2,2.6c0.6,0.5,1.4,0.7,2.5,0.5c0.6-0.1,1-0.3,1.3-0.5
				s0.6-0.5,0.8-0.9c0.2-0.4,0.3-0.8,0.3-1.2c0-0.5,0-1-0.2-1.6l-1.3-6.6l0.9-0.2l1.3,6.5c0.2,0.8,0.2,1.5,0.1,2.1
				c-0.1,0.6-0.2,1.1-0.5,1.5c-0.3,0.4-0.6,0.8-1.1,1c-0.5,0.3-1,0.5-1.6,0.6c-0.6,0.1-1.2,0.2-1.7,0.1c-0.5-0.1-1-0.3-1.4-0.6
				c-0.4-0.3-0.8-0.7-1-1.3c-0.3-0.5-0.5-1.2-0.7-2l-1.3-6.5L495.1,76.5z"/>
			<path class="st0" d="M513.5,71.2l3.9,9.3l5.5-2.3l0.2,0.9l-6.2,2.6l-4.2-10.1L513.5,71.2z"/>
			<path class="st0" d="M529,64.1l0.4,0.8l-5.4,2.6l1.8,3.6l5.1-2.5l0.4,0.8l-5.1,2.5l1.9,3.9l5.6-2.7l0.2,0.9l-6.2,3l-4.8-9.8
				L529,64.1z"/>
			<path class="st0" d="M535,61.1l7.6,7.4l-0.4-10.6l1.1-0.5l4.5,10l-0.8,0.4l-3.8-8.6c0,0.1,0,0.5,0,1.3c0,0.3,0,0.7,0,1.2
				c0,0.5,0,1.1,0.1,1.8c0,0.7,0,1.6,0.1,2.5c0,1,0.1,2.1,0.1,3.3l-0.8,0.4l-7.3-6.9l3.8,8.5l-0.8,0.4l-4.5-10L535,61.1z"/>
			<path class="st0" d="M553.2,54.3c0.8-0.2,1.4-0.3,2-0.3s1,0.1,1.3,0.3s0.6,0.5,0.9,0.8c0.2,0.3,0.4,0.7,0.5,1.1
				c0.1,0.4,0.2,0.9,0.2,1.3c0,0.4-0.1,0.8-0.3,1.2c-0.2,0.4-0.5,0.7-1,1c-0.4,0.3-1.1,0.6-1.8,0.8l-2.5,0.7l1.2,4.3l-0.9,0.2
				l-2.9-10.6L553.2,54.3z M556.1,59.3c0.3-0.2,0.6-0.5,0.8-0.7c0.2-0.3,0.2-0.6,0.2-0.9s-0.1-0.7-0.2-1c-0.1-0.4-0.2-0.7-0.4-1
				c-0.2-0.3-0.4-0.5-0.7-0.6c-0.3-0.1-0.6-0.2-1-0.2c-0.4,0-0.9,0.1-1.5,0.3l-2.5,0.7l1.3,4.7l2.5-0.7
				C555.3,59.7,555.8,59.5,556.1,59.3z"/>
			<path class="st0" d="M565.4,51.3l6.6,9.7l-1,0.2l-2-3l-5,1.1l-0.5,3.6l-1,0.2l1.8-11.6L565.4,51.3z M565,52.5l-0.9,6.1l4.4-1
				L565,52.5z"/>
		</g>
		<g>
			<path class="st0" d="M611,420.1c0.5,0.4,1.4,0.5,2.4,0.5c0.6,0,1-0.1,1.4-0.2c0.4-0.1,0.7-0.3,0.9-0.5c0.2-0.2,0.4-0.4,0.5-0.7
				s0.1-0.6,0.1-0.9c0-0.3,0-0.5-0.1-0.7s-0.2-0.4-0.3-0.6c-0.2-0.2-0.4-0.4-0.7-0.5c-0.3-0.1-0.7-0.3-1.2-0.3l-1.4-0.2
				c-0.5-0.1-1-0.2-1.4-0.4c-0.4-0.1-0.8-0.3-1.1-0.6s-0.5-0.5-0.7-0.9s-0.2-0.8-0.2-1.3c0-0.5,0.1-0.9,0.3-1.3s0.5-0.7,0.8-0.9
				c0.4-0.2,0.8-0.4,1.2-0.5c0.5-0.1,1-0.2,1.5-0.2c0.7,0,1.3,0.1,1.7,0.2c0.5,0.1,0.8,0.3,1.1,0.6c0.3,0.2,0.5,0.5,0.7,0.8
				c0.2,0.3,0.3,0.6,0.4,0.9l-0.9,0.2c-0.1-0.3-0.2-0.6-0.4-0.9c-0.1-0.3-0.3-0.5-0.6-0.6s-0.5-0.3-0.9-0.4
				c-0.3-0.1-0.8-0.1-1.3-0.1c-0.6,0-1,0.1-1.4,0.2s-0.7,0.3-0.9,0.4s-0.4,0.4-0.5,0.7c-0.1,0.3-0.2,0.5-0.2,0.8
				c0,0.3,0,0.6,0.1,0.8c0.1,0.2,0.2,0.4,0.4,0.6s0.4,0.3,0.7,0.4c0.3,0.1,0.7,0.2,1.1,0.3l1.6,0.3c0.6,0.1,1,0.2,1.4,0.4
				c0.4,0.2,0.7,0.4,1,0.6c0.3,0.3,0.5,0.5,0.6,0.9c0.1,0.3,0.2,0.8,0.2,1.2c0,0.4-0.1,0.8-0.2,1.2c-0.2,0.4-0.4,0.7-0.7,1
				c-0.3,0.3-0.7,0.5-1.2,0.7c-0.5,0.2-1,0.2-1.7,0.2c-0.6,0-1.1-0.1-1.7-0.2s-1-0.3-1.3-0.5s-0.7-0.6-0.9-1
				c-0.2-0.4-0.4-0.9-0.5-1.5h0.9C610.1,419.1,610.4,419.7,611,420.1z"/>
			<path class="st0" d="M631.2,410.2v0.8h-6v4h5.6v0.9h-5.6v4.4h6.2l-0.2,0.9h-6.9v-11H631.2z"/>
			<path class="st0" d="M639.3,410.2l6.1,9.5v-9.5h0.9v11h-1l-6.2-9.5v9.5h-0.9v-11H639.3z"/>
			<path class="st0" d="M655.2,420.1c0.5,0.4,1.4,0.5,2.4,0.5c0.6,0,1-0.1,1.4-0.2c0.4-0.1,0.7-0.3,0.9-0.5c0.2-0.2,0.4-0.4,0.5-0.7
				c0.1-0.3,0.1-0.6,0.1-0.9c0-0.3,0-0.5-0.1-0.7c-0.1-0.2-0.2-0.4-0.3-0.6c-0.2-0.2-0.4-0.4-0.7-0.5c-0.3-0.1-0.7-0.3-1.2-0.3
				l-1.4-0.2c-0.5-0.1-1-0.2-1.4-0.4c-0.4-0.1-0.8-0.3-1.1-0.6c-0.3-0.2-0.5-0.5-0.7-0.9c-0.1-0.3-0.2-0.8-0.2-1.3
				c0-0.5,0.1-0.9,0.3-1.3s0.5-0.7,0.8-0.9c0.4-0.2,0.8-0.4,1.2-0.5c0.5-0.1,1-0.2,1.5-0.2c0.7,0,1.3,0.1,1.7,0.2
				c0.5,0.1,0.8,0.3,1.1,0.6c0.3,0.2,0.5,0.5,0.7,0.8c0.2,0.3,0.3,0.6,0.4,0.9l-0.9,0.2c-0.1-0.3-0.2-0.6-0.4-0.9
				c-0.1-0.3-0.3-0.5-0.6-0.6c-0.2-0.2-0.5-0.3-0.9-0.4c-0.3-0.1-0.8-0.1-1.3-0.1c-0.6,0-1,0.1-1.4,0.2c-0.4,0.1-0.7,0.3-0.9,0.4
				s-0.4,0.4-0.5,0.7c-0.1,0.3-0.2,0.5-0.2,0.8c0,0.3,0,0.6,0.1,0.8c0.1,0.2,0.2,0.4,0.4,0.6s0.4,0.3,0.7,0.4
				c0.3,0.1,0.7,0.2,1.1,0.3l1.5,0.3c0.6,0.1,1,0.2,1.4,0.4c0.4,0.2,0.7,0.4,1,0.6c0.3,0.3,0.5,0.5,0.6,0.9c0.1,0.3,0.2,0.8,0.2,1.2
				c0,0.4-0.1,0.8-0.2,1.2c-0.2,0.4-0.4,0.7-0.7,1c-0.3,0.3-0.7,0.5-1.2,0.7c-0.5,0.2-1,0.2-1.7,0.2c-0.6,0-1.1-0.1-1.7-0.2
				c-0.5-0.1-1-0.3-1.3-0.5s-0.7-0.6-0.9-1c-0.2-0.4-0.4-0.9-0.5-1.5h0.9C654.3,419.1,654.6,419.7,655.2,420.1z"/>
			<path class="st0" d="M669.4,410.2v6.7c0,1.2,0.2,2.2,0.7,2.8c0.5,0.6,1.3,0.9,2.4,0.9c0.6,0,1-0.1,1.4-0.2
				c0.4-0.2,0.7-0.4,0.9-0.7c0.2-0.3,0.4-0.7,0.5-1.2s0.2-1,0.2-1.6v-6.7h0.9v6.7c0,0.8-0.1,1.5-0.3,2.1c-0.2,0.6-0.4,1.1-0.8,1.4
				c-0.3,0.4-0.8,0.6-1.3,0.8c-0.5,0.2-1.1,0.3-1.7,0.3c-0.6,0-1.2-0.1-1.7-0.3s-0.9-0.4-1.3-0.8c-0.3-0.4-0.6-0.9-0.8-1.4
				c-0.2-0.6-0.3-1.3-0.3-2.1v-6.6H669.4z"/>
			<path class="st0" d="M684.8,410.2l6.1,9.5v-9.5h0.9v11h-1l-6.2-9.5v9.5h-0.9v-11H684.8z"/>
			<path class="st0" d="M698.3,411.1v-0.9h8.5v0.9H703v10.1h-0.9v-10.1H698.3z"/>
			<path class="st0" d="M720.2,410.2v0.8h-6v4h5.6v0.9h-5.6v4.4h6.2l-0.2,0.9h-6.9v-11H720.2z"/>
			<path class="st0" d="M728.2,410.2l6.1,9.5v-9.5h0.9v11h-1l-6.2-9.5v9.5h-0.9v-11H728.2z"/>
			<path class="st0" d="M746.2,410.2c0.8,0,1.5,0.1,2,0.3s0.9,0.4,1.2,0.7c0.3,0.3,0.5,0.6,0.6,1s0.2,0.8,0.2,1.2
				c0,0.5-0.1,0.9-0.2,1.3c-0.1,0.4-0.3,0.8-0.6,1.1c-0.3,0.3-0.7,0.5-1.2,0.7c-0.5,0.2-1.2,0.3-2,0.3h-2.6v4.4h-0.9v-11H746.2z
				 M747.7,415.8c0.4-0.1,0.7-0.3,0.9-0.5c0.2-0.2,0.4-0.5,0.5-0.8c0.1-0.3,0.1-0.7,0.1-1c0-0.4,0-0.8-0.1-1.1
				c-0.1-0.3-0.3-0.5-0.5-0.7c-0.2-0.2-0.5-0.3-0.9-0.4c-0.4-0.1-0.9-0.1-1.5-0.1h-2.6v4.9h2.6C746.8,415.9,747.3,415.9,747.7,415.8
				z"/>
			<path class="st0" d="M763.8,410.2v0.8h-6v4h5.6v0.9h-5.6v4.4h6.2l-0.2,0.9h-6.9v-11H763.8z"/>
			<path class="st0" d="M775.3,421.5c-0.7,0-1.4-0.1-2-0.4c-0.6-0.2-1.1-0.6-1.6-1.1c-0.4-0.5-0.8-1.1-1-1.8
				c-0.3-0.7-0.4-1.5-0.4-2.5s0.1-1.8,0.4-2.5c0.3-0.7,0.6-1.3,1-1.8s1-0.9,1.6-1.1c0.6-0.3,1.3-0.4,2-0.4s1.4,0.1,2,0.4
				c0.6,0.2,1.1,0.6,1.6,1.1c0.4,0.5,0.8,1.1,1,1.8c0.3,0.7,0.4,1.5,0.4,2.5c0,1-0.1,1.9-0.4,2.6c-0.3,0.7-0.7,1.4-1.1,1.9l1.4,1.6
				l-0.6,0.6l-1.4-1.6C777.2,421.2,776.3,421.5,775.3,421.5z M776.7,417.9l1.4,1.6c0.4-0.4,0.7-1,0.9-1.6c0.2-0.6,0.3-1.3,0.3-2.1
				c0-0.7-0.1-1.4-0.3-2s-0.4-1.1-0.8-1.6c-0.3-0.4-0.7-0.8-1.2-1s-1.1-0.4-1.7-0.4c-0.7,0-1.2,0.1-1.7,0.4c-0.5,0.2-0.9,0.6-1.2,1
				c-0.3,0.4-0.6,1-0.7,1.6s-0.3,1.3-0.3,2s0.1,1.4,0.2,2c0.2,0.6,0.4,1.1,0.7,1.6c0.3,0.4,0.7,0.8,1.2,1c0.5,0.2,1.1,0.4,1.7,0.4
				c0.8,0,1.5-0.2,2.1-0.6l-1.4-1.6L776.7,417.9z"/>
			<path class="st0" d="M788.1,410.2v6.7c0,1.2,0.2,2.2,0.7,2.8c0.5,0.6,1.3,0.9,2.4,0.9c0.6,0,1-0.1,1.4-0.2
				c0.4-0.2,0.7-0.4,0.9-0.7c0.2-0.3,0.4-0.7,0.5-1.2s0.2-1,0.2-1.6v-6.7h0.9v6.7c0,0.8-0.1,1.5-0.3,2.1c-0.2,0.6-0.4,1.1-0.8,1.4
				c-0.3,0.4-0.8,0.6-1.3,0.8s-1.1,0.3-1.7,0.3c-0.6,0-1.2-0.1-1.7-0.3s-0.9-0.4-1.3-0.8c-0.3-0.4-0.6-0.9-0.8-1.4
				c-0.2-0.6-0.3-1.3-0.3-2.1v-6.6H788.1z"/>
			<path class="st0" d="M809.4,410.2v0.8h-6v4h5.6v0.9h-5.6v4.4h6.2l-0.2,0.9h-6.9v-11H809.4z"/>
		</g>
	</g>
</g>
<g id="Modo_de_aislamiento_2_">
</g>
</svg>
