<?xml version="1.0" encoding="utf-8"?>
<!-- Generator: Adobe Illustrator 21.0.0, SVG Export Plug-In . SVG Version: 6.00 Build 0)  -->
<svg version="1.1" id="Capa_1" xmlns="http://www.w3.org/2000/svg" xmlns:xlink="http://www.w3.org/1999/xlink" x="0px" y="0px"
	 viewBox="0 0 960 500" style="enable-background:new 0 0 960 500;" xml:space="preserve">
<style type="text/css">
	.st0{fill:#FFFFFF;}
	.st1{opacity:0.5;fill:#FFFFFF;}
	.st2{fill:none;stroke:#FFFFFF;stroke-miterlimit:10;}
	.st3{clip-path:url(#SVGID_2_);}
</style>
<g id="Capa_1_1_">
</g>
<circle class="st0" cx="426.4" cy="393.4" r="6"/>
<circle class="st0" cx="583.6" cy="89.8" r="6"/>
<path class="st1" d="M0,0v502h960V0H0z M622.1,72.2l-3.8,2.1l-2.5,0.3l-0.3-1.3l-2.6,0.8L613,76l-11.3,1.8l-0.1,1.4v1.7h5.6l0.2,1.8
	l-9.5,1.9l0.2,4.2l6.2-0.7l0.2,3.3l-7.4,3l0.2,5.1l0.8,4.3h2.8l3.9,6.1l-6.3,3.9l-3.4,2.6l-2.8-1.9l-8.3-4.1l-8,5.1l-1.6-5.5
	l1.8-1.7l-0.3-10.6l-2.8-2.5l-0.6-1.8l-1.3-7.7l-3.2-5.8l-7.9-10.2l-3.2-2.7v-4.7l1-6.9h1.9l2.6-4.5l1.6-4.3l-0.9-0.6l0.3-3.4
	l0.6-2.8l2-6.2l2.2,0.7V32h2.1l1.2,2.8l1.8,0.3l1.3-3l2.8,0.3l0.7,1.3L574.1,51l2.9,0.1l-0.1-1.3l4.4,1.1v0.8l5.6-0.7v1.7l-5.3,1.8
	l0.6,0.9l-5.3,4.3l2.6,6.7l-0.7,0.7l1.2,4.3l1.4,4.6l3.3-1.3l7.3-1.3l0.9-3.2h4.2l3.8,0.2l0.8-1.3h5.8v-2l1.7-0.1v-5.2l0.9-0.5
	l2.8-0.3v-2.4l2.4,1l0.6,1.3l1.7,0.2l2.8,4.4l3.8-0.7l1.3,2l-4.8,2.3L622.1,72.2z"/>
<g>
	<g>
		<path class="st2" d="M437,393.4c0,0,104.9-14.3,146.6-104.2c39-84.1,10.3-171.3,6.4-182.1"/>
		<g>
			<path class="st0" d="M596.8,112c-0.2,0.2-0.5,0.3-0.7,0.1l-6-4.7l-1.8,7.4c-0.1,0.3-0.3,0.4-0.6,0.4c-0.3-0.1-0.4-0.3-0.4-0.6
				l1.9-8.2c0-0.2,0.2-0.3,0.3-0.4c0.2-0.1,0.3,0,0.5,0.1l6.6,5.2c0.1,0.1,0.1,0.1,0.2,0.2C596.9,111.7,596.9,111.9,596.8,112z"/>
		</g>
	</g>
</g>
<g>
	<defs>
		<rect id="SVGID_1_" width="960" height="502"/>
	</defs>
	<clipPath id="SVGID_2_">
		<use xlink:href="#SVGID_1_"  style="overflow:visible;"/>
	</clipPath>
	<g class="st3">
		<path class="st0" d="M250.9,528.1c-0.7-2.8-0.2-4.5,2.8-4.5c0.6,0,1.2-0.1,1.8-0.4c1.7-0.9,3.1-2,1.4-4.1
			c-0.7-0.9-1.3-1.8-1.9-2.5c-5.8,3.2-10.6,7.6-17.5,8.6c0-1.4,0.5-3.3-0.1-3.7c-2.1-1.5-0.1-2.1,0.3-3c0.3-0.6,1-1.2,0.9-1.7
			c-0.7-3.7-2.9-4-6.8-0.7c1.7-0.4,3.2-0.7,5.4-1.1c-0.5,1.5-0.9,2.3-1.2,3.2c-0.4,1.4-1.2,3-0.9,4.4c0.4,1.6,1.6,4.1,2.6,4.2
			c2.3,0.1,4.7-0.7,6.9-1.7c3-1.4,5.7-3.3,8.7-4.8c0.7-0.4,1.7-0.3,2.5-0.4c0,0.3,0.1,0.6,0.1,0.8c-1.1,0.5-2.3,0.9-3.4,1.4
			c-2.5,1.2-3.7,3.1-3.3,5.9c0.4,2.8,2.5,2,4.3,2.1c0.3,0,0.6,0.1,0.9,0.1c2.5,6.4,2.7,6.5,7.2,3.7c-0.2-1.2-0.4-2.4-0.5-3.2
			c2-0.7,3.8-0.8,5-1.7c2.6-2.2,5-2,7.6-0.2c0.7,0.5,1.8,0.5,2.7,0.7c-6.4-3.8-6.4-3.8-12.2-0.9c-0.4,0.2-1.1,0.4-1.4,0.3
			c-2.4-1.3-2.8,0.1-3,2.1c-0.1,0.8-0.8,1.5-1.7,3C257.3,529.2,254.2,528.2,250.9,528.1z M146.6,502.1c-0.1,0.2-0.3,0.5-0.4,0.7
			c4.4,2.8,8.9,5.5,13.3,8.3c0.2-0.3,0.4-0.5,0.7-0.8c-0.3-1.8-0.6-3.6-1-5.5c1.5,0.3,2.8,0.5,4.1,0.8c0-0.2,0.1-0.5,0.1-0.7
			c-1.5-0.3-3.1-0.7-4.7-1.1c-0.1,2.1-0.2,3.6-0.4,5.7C154.1,506.9,150.4,504.5,146.6,502.1z M228.9,509.1c-0.5,1.4-1,2.8-1.5,4.3
			c0.3,0.1,0.6,0.2,0.9,0.4c0.8-1.7,1.7-3.3,2.8-5.4c-1.7-0.4-3.1-0.6-4.5-0.9c0.2-0.8,0.3-1.5,0.6-2.9
			C224.9,508,225.4,508.7,228.9,509.1z M166.2,510.7c-0.1,0.2-0.2,0.3-0.3,0.5c0.9,0.3,1.9,1,2.6,0.8c3.1-1,6.2-2.4,9,0.9
			c-1.7-3.4-4-4.1-7.2-2.6C169.2,510.7,167.7,510.5,166.2,510.7z M202.6,506.6c2.1-2.4,1.5-6.2,5.5-5.6c0.2,1,0.3,1.8,0.5,2.7
			c0.3-0.1,0.6-0.2,0.9-0.3c-0.3-1-0.3-2.1-0.9-3c-0.3-0.5-1.5-0.9-2.1-0.7C203.5,500.6,203.3,503.3,202.6,506.6z M193,516
			c0.1-0.1,0.2-0.2,0.4-0.4c-0.4-1.2-1-2.4-1.1-3.6c-0.3-2.5-2.9-4.7-5.3-4.2c-0.4,0.1-0.7,0.8-1.4,1.6c4.2-0.8,5.8,0.4,6.1,3.9
			C191.7,514.2,192.5,515.1,193,516z"/>
		<path class="st0" d="M329.9,465.8c1.7-3.1,2.3-3.3,5.3-1.6c0.5,0.3,1,1,1.5,1c1.1,0,2.2-0.3,3.1-0.8c0.3-0.2,0.1-1.8-0.4-2.4
			c-1.2-1.8-2.6-3.5-0.7-5.6c0.1-0.1,0.1-0.4,0.1-0.6c-1.2-8.4,5.9-13.2,8.9-19.7c0.5-1,2.7-1.2,4-1.7c1.7-0.7,3.4-1.4,5.3-2.2
			c-1.4-3.4-2.4-6.4,0.6-8.8c0.4-0.3,0.8-0.8,1.2-0.9c3.3-0.8,6.8-1.3,10-2.5c2.3-0.8,4.2-2.6,6.4-4c-1-0.7-1.5-3-3.6-1.3
			c-0.2,0.2-1.7-0.5-1.7-0.8c0-0.8,0.3-1.8,0.7-2.5c0.6-1,1.5-1.9,2.4-3c0.1,0,0.7,0.2,1.4,0.5c0.1-1,0.2-1.9,0.4-3
			c0.6,0.5,1.2,0.7,1.4,1.2c0.3,0.6,0.5,1.8,0.2,2c-2.2,1.9-0.8,4.2-0.2,6c0.3,0.9,2.6,1.9,3.7,1.6c4.8-1.1,6.3-4.7,4.1-9.1
			c-0.4-0.9-0.9-1.7-1.8-3.3c0,2.3,0,3.8,0,5.4c-3.7-2.4-4.6-4.3-2.4-5.4c3.7-2,4.2-4.7,3.9-8.4c-0.1-1.5,1.7-3.2,2.7-4.8l-0.1,0.1
			c0.5-0.2,1.1-0.2,1.4-0.6c2.2-2,4.3-1.7,6.5,0.1c0.8,0.6,2,0.7,3.7,1.2c-0.6-4-1-7.4-1.6-11.1c-2,0.6-3.2,1-4.5,1.3
			c2.7-3.9,5.3-7.7,7.9-11.3c-0.5-1.1-1-2.3-1.5-3.5c0.3-0.1,0.6-0.3,0.9-0.4c0.4,0.4,0.8,0.9,1.2,1.4c0.5-3,0.9-6,1.4-9
			c-6.2,3.4-8.8,11-15.2,15c2.2-3.9,4.4-7.8,6.7-12c-0.9,0.2-1.5,0.4-2.3,0.6c0.1-0.9,0.1-1.6,0.2-2.9c-1.8,0.6-3.4,1.1-5,1.7
			c-1,0.4-2.3,1.8-2.8,1.5c-3.2-1.6-5.7-0.8-7.8,2.3c-0.3-0.4-0.5-0.7-0.8-1.1c1.4-1.6,2.5-3.8,4.2-4.7c1.8-1,4.3-0.7,6.8-0.9
			c0.1-0.8,0.1-1.7,0.3-3.3c5.6,4.4,9.7,1.9,13.9-2.9c-2.8-0.3-5-0.5-7.3-0.7c0-0.3,0-0.6,0.1-1c2.9,0.1,5.9,0.3,9.1,0.4
			c1.5-2.4-5.1-3.4-2.1-5.8c2,1.3,3.7,2.6,5.6,3.3c0.3,0.1,1.6-2.2,1.9-3.7c0.9-0.5,1.7-1,2.6-1.6c-0.6-1-1.3-2-2.3-3.5
			c0.6-2.4,3.3-3.7,6.6-2.1c3.2,1.5,5.8,0.1,5.9-3.6c0.1-1.9-0.1-3.9-0.7-5.8c-0.8-3,1.3-4.2,3.2-4.3c2.7-0.1,3-1.8,3.5-3
			c-3.5-0.5-6.9-0.9-10.5-1.4c-0.1-5,3.3-8,7.4-10.7c1.1-0.7,2.1-1.7,2.6-2.8c1.7-3.5,3.2-7.1,5.1-11.5c2-0.6,3.6-2.8,3.1-6.3
			c-0.3-2.1,0-4.1,2-5.5c0.6-0.4,0.7-1.4,1-2.1c-0.6-0.2-1.3-0.3-1.9-0.5c-0.5-0.2-1-0.6-1.2-1c-1.4-2.1-2.9-2-4.4-0.3
			c-1.7,1.9-3.4,3.9-5.3,6.1c0.6,0.9,1.3,1.9,2.2,3.2c-3.5,2.5-4.7,6-3.5,10.8c-1.3-1-3-1.7-3.9-3c-0.9-1.2-0.9-3-1.5-5.4
			c-2.4,3.2-4.4,5.9-6.4,8.7c0.8,0.5,1.5,1,2.6,1.7c-1.2,1.4-2.3,2.7-3.7,4.2c0.2,0.4,0.5,1.2,0.7,1.7c-1.3,1.2-2.5,2.3-3.6,3.2
			c-0.1-1.2,0.3-2.8-0.4-3.9c-1.6-3-3.1-3.1-6-1.1c-1.2,0.8-2.6,1.5-3.9,2.3c-1.6-3.1-2.8-3.2-4.8-0.4c-0.9,1.3-1.5,2.8-2.4,4.1
			c-0.5,0.8-1.2,1.4-1.8,2c-0.1,1.3-0.2,2.8-0.3,4.3c-0.3,0-0.5,0.1-0.8,0.1c-0.5-1.2-1.1-2.3-1.6-3.5c-3.7-1.1-3.6,6-7.9,3.6
			c-0.1,0.9-0.3,1.8-0.4,2.6c0,2.2-0.4,3.4-3.2,4.2c-4.5,1.2-8.8,3.7-13.4,5.3c0.8-0.8,1.8-1.6,2.3-2.5c1-1.8,2.3-3.8,2.4-5.7
			c0-3.3,1.7-5,4.2-6.2c2-1,4.2-1.6,6.7-2.5c-3-5.6,0.1-9.8,4.2-13.7c-0.3-0.2-0.5-0.5-0.8-0.7c-2.3,0.4-4.6,0.9-6.7,1.3
			c-0.8-1.6-1.5-3-2.4-4.5c4.4-0.6,8.8-1.3,13.2-1.9c-0.3-2.9,1.8-4.3,8.8-5.7c-1.3-1.2-2.3-2.2-4-3.7c3.6-1,6.9-1.8,10.3-2.7
			c0.9,0.6,2.2,1.5,3.4,2.4c2-3.5,5.9-4.5,10.1-2.7c2.4-4.4,6.5-5.5,11.3-5.5c2.2,0,4.7-0.8,6.5-2c1.1-0.7,1.2-2.9,2-5
			c0.4,0.9,1,1.6,1,2.1c-0.6,3.4,0.6,4.4,4,5.7c2.2,0.8,3.7,1.6,5.7,0.4c0.5-0.3,0.7-1.1,1.1-1.7c-1.4-0.7-2.9-1.1-3.5-2
			c-1.1-1.5-2.6-4.4-2.1-4.9c1.5-1.5,3.9-2.7,6-2.9c2.7-0.2,4-0.8,4.8-3.6c0.4-1.4,2.1-2.5,3.3-3.7c0.4,0.1,0.7,0.2,1.1,0.3
			c-0.7-0.9-1.3-1.9-2-2.8c-1.2-1.5-1.1-3.1,0.1-4.2c0.7-0.6,2.3-0.6,3.3-0.3c5.1,1.9,7.6,0.8,9.7-4.3c0.6-1.4,1.1-3.7,3.2-2.6
			c1.2,0.6,2.3,2.5,2.6,3.9c0.4,2.1,5.6,10.7,7.7,11.4c0.6,0.2,1.7,0.2,2.2-0.2c1.9-1.6,3.8-3.4,5.6-5.2c1.1-1.1,2-2.3,3.2-3.3
			c1.9-1.6,2.5-3.5,1.3-5.8c-2.6-5.1-0.7-9,5.1-10.3c3.8-0.8,6-2.9,7-6.7c1.6-6.5,4.5-8,11.4-6.6c1.1,0.2,2.6-0.3,3.6-0.9
			c3.7-2.4,7.5-4.8,10.9-7.6c1.1-0.9,1.4-2.9,2-4.4c0.8-2.1,1.5-4.3,2.4-6.3c1.4-3.1,3-6,4.5-9.1c0.5-1.1,0.7-2.4,1.5-3.3
			c4.2-5.2,6.8-11.2,8.6-17.6c0.4-1.5,0.6-3.2,0.9-4.7c1.4-6.2,6-9.5,11.2-12.2c3.1-1.6,4-3.7,3.6-7.2c-0.3-2,0.7-4.5,1.8-6.4
			c1.6-2.6,3-5.1,4-8.1c1.6-5.3,4.3-10.2,6.5-15.3c-1.6-1.5-3.6-3.3-5.4-5.2c-2-2.1-2-4.9-0.5-7.3c1.7-2.7,3.5-5.4,0.5-8.5
			c-0.7-0.7-0.5-2.6-0.3-3.9c1.2-9.4-5.4-14.9-10.6-21c-1.1-1.3-2.7-2.2-4-3.4c-0.5-0.5-0.9-1.3-0.9-1.9c-0.3-7,0.7-13.6,6.4-18.7
			c0.6-0.5,0.9-1.6,1-2.4c0.1-2,0.3-4,0-5.9c-0.8-4.7,1.2-8.1,4.4-11.1c0.9-0.9,2.4-1.4,3.7-1.6c1.5-0.3,3.1-0.1,4.5-0.1
			c1.3-4.7,7.4-9.8,12.2-9.9c1.9-0.1,2.5-0.9,2.6-2.5c0.1-1.7,0.1-3.6,0.7-5.2c1.1-3.3,2.5-6.5,3.7-9.7c0.6,0,1.2,0,1.9,0
			c-0.5,2-1.1,3.9-1.6,5.9c-0.9,3.4-1.9,6.7-2.7,10.1c-0.5,2.2-1.2,4.4-4,3.9c-4.2-0.7-5.9,2.2-8,4.8c-1.4,1.7-3,3.3-4.7,4.7
			c-0.9,0.8-2.1,1.6-3.5,0.1c-0.4-0.5-2.5-0.3-2.8,0.2c-1.6,2.6-3,5.4-4.3,8.2c-0.3,0.7-0.1,1.6,0,2.5c0.4,4.8-0.4,8.9-4,12.8
			c-2.3,2.5-2.9,6.6-3.7,10.1c-0.5,2,0.6,3.7,2.5,5.4c3.2,2.8,5.6,6.4,8.3,9.7c0.9,1.1,1.7,2.3,2.5,3.5c1.4,2,2.6,3.8,2.6,6.5
			c0,3.1,1.2,6.2,1.3,9.4c0.1,2.8-0.2,5.8-1.1,8.4c-1.6,4.4-0.9,7.4,3.2,9.5c3.4,1.8,3.4,2.8,1.5,6.2c-2.4,4.4-4.2,9.1-6.3,13.7
			c-1.2,2.6-2.6,5-3.8,7.6c-0.5,1-1.1,2.3-0.9,3.4c1.3,6.8-0.8,11.3-7.2,13.4c-6.3,2.2-8.2,6.9-9.2,12.9c-0.7,4.3-2.3,8.7-4.2,12.7
			c-2.7,5.6-6,11-9.2,16.3c-1.6,2.7-4.4,4.8-2.8,8.7c0.3,0.8-1.6,2.8-2.9,3.7c-4.7,3.3-9.4,6.4-14.3,9.3c-1,0.6-2.8,0.4-4.2,0.1
			c-3.5-0.7-4.7-0.4-5.9,3c-1.8,5.5-4.6,9.9-10.4,11.9c-1,0.3-1.8,2.2-2,3.4c-0.3,1.6,0.1,3.3,0,4.9c-0.1,1.3-0.1,2.9-0.9,3.9
			c-3,3.8-6.2,7.6-9.6,11.1c-1.8,1.9-3.9,2-5.6-0.5c-3.3-4.7-6.6-9.4-9.6-13.7c-2.1,1.8-4.3,4.4-7.1,5.8c-1.7,0.9-4.3-0.1-6.9-0.3
			c0.4,1.4,1,3,1.5,4.7c0.5,1.7,1.4,3.7-2,2.9c-0.4-0.1-1.8,1.2-1.8,2c-0.2,2.8-1.5,3.9-4.3,4.1c-1.8,0.1-3.6,0.9-5.3,1.4
			c-0.1,3,0.8,5,3.2,6.4c0.5,0.3,0.9,1.7,0.6,2.1c-1.5,2.5,0.8,3.1,1.9,4.5c3.1-2.2,1.9-7.9,7.3-7.9c0.1,1.6,0.2,3.2,0.3,4.8
			c1.1,0.6,2.2,1.1,3.6,1.9c-3.2,3.2-0.6,10.7-9.2,10c2.6,3,4.6,5.3,6.9,8c-1.5,0.3-2.2,0.5-3,0.7c0,0.9,0,1.8,0,2.8
			c1.4,0,2.6,0,3.7,0c0.3,2.9,0.5,5.6,0.7,7.9c-2.4,2-4.7,4-7.1,5.9c0.3,0.3,0.5,0.6,0.8,0.9c1.4-1.2,2.8-2.5,4.5-3.9
			c0.6,0.4,1.6,1.1,3,2c-2.1,0.6-4.6-0.2-4.6,3c0,1.9-0.7,3.7-1.2,5.6c-0.2,0.9-0.4,1.8-0.6,2.7c-0.3-0.1-0.7-0.2-1-0.3
			c0.2-0.8,0.4-1.5,0.5-1.8c-0.9-1-1.8-1.8-2.3-2.3c-0.9,0.5-2.1,1.2-3.4,1.9c1.9,2.5-1.7,3-2.3,4.5c1.2,1.5,2.3,2.8,3.3,4
			c-1.6,1.3-2.9,2.4-4.2,3.6c-0.1-0.9-0.1-1.9-0.3-2c-3.6-1.1-1.4-3.6-1.2-5.5c-1.1,0-2.1,0-3.5,0c0.9,2.1-2.3,4.5,1.2,6.5
			c-2.1,2.8-4.2,5.6-6.5,8.3c-1,1.2-2,2-1,3.7c0.3,0.5-0.7,1.6-1.7,2.2c0-0.9,0.1-1.7,0.1-2.6c-0.2-0.1-0.4-0.3-0.6-0.4
			c-1.5,2.4-3,4.8-4.7,7.5c-0.4-0.1-1.1-0.3-1.9-0.5c0.1,0.3,0.2,0.6,0.3,1c-2,0.9-4,1.9-6.2,2.9c0,0.1,0.2,0.8,0.3,1.4
			c-1.3,0.4-2.5,0.8-3.6,1.2c0.4,2,0.7,3.7,1.1,5.4c0.6,0.3,1.2,0.6,1.8,0.9c-1,0.8-2,1.7-3,2.5c-0.3-0.3-0.5-0.5-0.8-0.8
			c0.8,1,1.6,2,2.4,3c-0.3,0.2-0.5,0.5-0.8,0.7c-0.9-0.8-1.8-1.5-3-2.6c-0.3,1.1-0.9,2.1-0.7,3c0.4,2.5-1,3.6-2.9,4.5
			c-0.4,0.2-0.9,0.9-0.8,1.2c0.3,0.7,0.7,1.5,1.3,1.7c1.5,0.6,3.1,0.9,4.7,1.3c4.2,1,4.2,1,7.6,4.8c-0.5,0-0.9,0-1.1-0.1
			c-0.4-0.2-0.6-0.5-1.3-1c0.1,1.1,0.2,1.9,0.3,2.9c-2.6,0.2-1.4-5.2-5.2-3.1c-0.1,0.9-0.2,2.1-0.3,3.4c-0.5-1.1-0.8-2.5-1.7-3.2
			c-0.8-0.7-2.1-0.7-3.4-0.4c0.7,0.7,1.3,1.4,1.9,2c-2.6,3.1-4.5,0.4-6.4-1.4c-0.1,0.3-0.3,0.6-0.4,0.8c1.4,2.7,2.7,5.4,3.7,7.4
			c-1.5,1.9-2.5,3.3-3.6,4.6c-0.5,0.6-1.2,1.3-1.8,1.3c-0.5,0-1.1-0.8-1.9-1.5c-1.2,0.8-3.2,1.6-4.1,3c-0.8,1.2-0.2,3.3-0.2,5.4
			c-0.9-0.7-1.7-1.3-2.4-1.9c-1.5,2-3,4-4.7,6.4c1.2,4.1-1.3,7.5-4.3,10.7c-0.6,0.7-2.4,1.1-3,0.7c-1.1-0.7-1.7-1.7-2.7-0.1
			c-3.7-3.1-5.2,1.6-7.9,2.3c-1.4,0.4-2.6,1.5-4,2.1c-2.1,0.9-4.3,1.6-5.8,2.2c0.4,3.2,0.7,5.7,0.9,8c-4.5,1.7-8.5,3.2-12.5,4.8
			c-0.7,0.3-1.5,0.8-1.7,1.4c-1.8,4.9-4.1,9.7-5.1,14.8c-0.5,2.7,1.3,5.8,2.2,8.7c0.4,1.3,1,2.2-0.7,3.3c-1.6,1.1-2.9,1.3-4.4,0.2
			c-0.7-0.5-1.4-0.9-1.9-1.5C334.4,464.5,332.2,464.4,329.9,465.8L329.9,465.8z M441.1,289.2c0,2.5,0,4.7,0,7.1
			C444.8,294.2,444.7,292.5,441.1,289.2z"/>
		<path class="st0" d="M329.9,465.8c-0.4,1.6-0.5,3.4-1.4,4.7c-2,2.7-4.5,5.1-6.8,7.6c2,2.3,4,4.5,5.8,6.9c0.5,0.7,0.8,1.8,0.8,2.8
			c-0.1,2.3-0.4,4.5-0.7,6.8c-0.1,0.5-0.2,1.1-0.5,1.3c-2.9,2.2-5.9,4.3-9.4,6.7c2.8,3.3,5.6,6.7,8.3,10.2c0.8,1,1.2,2.4,1.6,3.7
			c0.4,1.2,0.5,2.5,1,3.7c0.9,2.1-0.3,4.5-2.8,6c-2.4,1.4-4.6,3.1-6.7,4.9c-0.7,0.6-1.2,1.9-1.3,3c-0.6,5.6-4.7,8.6-11.3,7.4
			c1.8,1.9,3.1,3.3,4.5,4.7c-0.9,1.3-1.7,2.5-2.3,3.5c1.7,5.1,1.1,9.9-0.4,14.5c-1.5-0.2-2.7-0.3-4.5-0.5c0.6,2.4,0.8,4.6,1.6,6.4
			c1.5,3,0.7,6.1-0.5,8.4c-2.2,4-2.6,7.9-2.2,12.3c0.5,4.9-1.7,6.3-6.4,4.9c-1-0.3-2.2,0.1-3.2,0.4c-1.1,0.3-2.2,0.9-3.8,1.6
			c3.7-4,4-4,8.6-2.9c0.8,0.2,2.1-0.1,2.7-0.7c1.8-1.8,1.3-6.5-0.7-7.4c1.6-3.4,3.3-6.8,4.6-10.3c0.5-1.4,0-3.2-0.3-4.7
			c-0.3-2.1-1.1-4.1-1.2-6.2c-0.1-1.1,0.6-2.5,1.4-3.2c0.6-0.4,2,0.3,3.5,0.6c0.9-3,1.1-6.5-0.1-9.7c-1-2.6-1-4.5,1-6.3
			c-1-1.3-2.1-2.5-2.9-3.9c-0.3-0.6-0.3-1.8,0.1-2.3c0.4-0.5,1.6-0.8,2.3-0.7c4.2,0.8,7-1.4,7.6-5.7c0.6-3.8,2.6-6.8,6.3-8.3
			c3-1.2,4.4-2.9,3.4-6.2c-0.2-0.7,0.2-1.5,0.1-2.3c-0.1-1.1-0.1-2.3-0.7-3.1c-2.5-3.5-5.3-6.8-8-10.2c-0.4-0.5-1-0.7-1.4-1
			c-2.7,3.1-1.5,8.5-6.4,10.1c-1.7-1.3-3.6-2.7-5.5-4c-0.5-0.3-1.2-0.7-1.7-0.6c-3.7,1.4-4.6-0.6-4.2-4.7c-1.7,1.7-2.8,2.6-3.7,3.7
			c-1.3,1.4-0.8,2.4,0.7,3.3c2.2,1.4,2.2,3.5-0.3,4.1c-4.2,1-5.7,4.9-8.6,7.3c-1.8,1.5-2.7,3.8-5.6,3.7c-0.7,0-1.5,1.2-2.3,1.9
			c-0.2-0.2-0.3-0.4-0.5-0.6c0.9-0.7,1.8-1.4,2.7-2c1-0.7,2.1-1.1,2.9-2c3.4-3.5,6.7-7.1,10-10.6c-2.7-1.6-2.5-4,1.5-7.5
			c1.2-1.1,3.1-1.4,4.6-2.1c0.5,1.3,0.9,2.6,1.1,3.2c2.6,1.4,4.8,2.7,7.2,3.6c0.8,0.3,2.5-0.2,3.1-0.9c0.8-1,0.7-2.8,1.4-3.9
			c1.3-1.9,2.7-4.2,4.6-5.1c4.8-2.2,7.5-6,9.2-10.5c0.5-1.3-1.2-3.6-2.3-5.1c-1.1-1.4-3-2.1-4.3-3.3c-0.7-0.6-1.5-1.9-1.3-2.5
			c0.4-1,1.6-2.2,2.5-2.2c2.3,0,2.8-1.4,3.8-2.9C325.8,470.7,328,468.3,329.9,465.8C329.9,465.8,329.9,465.8,329.9,465.8z"/>
		<path class="st0" d="M250.9,528.1c3.4,0.1,6.4,1.1,7.3,5.7c0.9-1.5,1.6-2.2,1.7-3c0.2-2,0.6-3.4,3-2.1c0.3,0.2,1-0.1,1.4-0.3
			c5.8-2.8,5.8-2.8,12.2,0.9c-0.9-0.2-1.9-0.2-2.7-0.7c-2.6-1.8-5-2-7.6,0.2c-1.1,0.9-3,1.1-5,1.7c0.1,0.8,0.3,2,0.5,3.2
			c-4.5,2.9-4.7,2.7-7.2-3.7c-0.3,0-0.6-0.1-0.9-0.1c-1.7-0.1-3.8,0.7-4.3-2.1c-0.4-2.8,0.8-4.7,3.3-5.9c1.1-0.5,2.2-0.9,3.4-1.4
			c0-0.3-0.1-0.6-0.1-0.8c-0.8,0.1-1.8,0-2.5,0.4c-2.9,1.5-5.7,3.4-8.7,4.8c-2.1,1-4.6,1.8-6.9,1.7c-1-0.1-2.3-2.6-2.6-4.2
			c-0.3-1.3,0.5-2.9,0.9-4.4c0.2-0.9,0.6-1.8,1.2-3.2c-2.2,0.5-3.7,0.8-5.4,1.1c3.9-3.2,6.1-2.9,6.8,0.7c0.1,0.5-0.7,1.1-0.9,1.7
			c-0.4,0.9-2.5,1.5-0.3,3c0.6,0.4,0.1,2.3,0.1,3.7c6.9-1,11.7-5.4,17.5-8.6c0.6,0.7,1.2,1.6,1.9,2.5c1.7,2.1,0.3,3.2-1.4,4.1
			c-0.5,0.3-1.2,0.3-1.8,0.4C250.7,523.7,250.1,525.4,250.9,528.1z"/>
		<path class="st0" d="M386.5,391.1c-0.8-0.1-1.9-0.7-2.3-0.4c-3.7,2.9-3.7,3-7.9,2.4c1.6-3.3,3.1-6.6,4.7-9.9
			C387.1,385.9,387.1,385.9,386.5,391.1C386.5,391.2,386.5,391.1,386.5,391.1z"/>
		<path class="st0" d="M146.6,502.1c3.8,2.4,7.5,4.8,11.8,7.4c0.1-2.2,0.2-3.6,0.4-5.7c1.6,0.4,3.2,0.7,4.7,1.1
			c0,0.2-0.1,0.5-0.1,0.7c-1.3-0.2-2.6-0.5-4.1-0.8c0.3,1.8,0.6,3.6,1,5.5c-0.2,0.3-0.4,0.5-0.7,0.8c-4.4-2.8-8.9-5.5-13.3-8.3
			C146.3,502.6,146.5,502.4,146.6,502.1z"/>
		<path class="st0" d="M228.9,509.1c-3.6-0.4-4-1.1-1.8-4.6c-0.3,1.3-0.5,2.1-0.6,2.9c1.4,0.3,2.8,0.6,4.5,0.9
			c-1.1,2.1-1.9,3.8-2.8,5.4c-0.3-0.1-0.6-0.2-0.9-0.4C227.9,512,228.4,510.5,228.9,509.1z"/>
		<path class="st0" d="M166.2,510.7c1.4-0.2,3,0,4.2-0.5c3.2-1.5,5.5-0.8,7.2,2.6c-2.9-3.3-5.9-1.8-9-0.9c-0.7,0.2-1.8-0.5-2.6-0.8
			C166.1,511,166.2,510.9,166.2,510.7z"/>
		<path class="st0" d="M202.6,506.6c0.7-3.3,0.9-6,4-6.9c0.6-0.2,1.8,0.2,2.1,0.7c0.5,0.8,0.6,2,0.9,3c-0.3,0.1-0.6,0.2-0.9,0.3
			c-0.1-0.9-0.3-1.7-0.5-2.7C204.1,500.4,204.7,504.3,202.6,506.6z"/>
		<path class="st0" d="M193,516c-0.5-0.9-1.3-1.8-1.4-2.7c-0.4-3.4-1.9-4.7-6.1-3.9c0.7-0.8,1-1.5,1.4-1.6c2.5-0.5,5,1.7,5.3,4.2
			c0.1,1.2,0.7,2.4,1.1,3.6C193.2,515.7,193.1,515.8,193,516z"/>
		<path class="st0" d="M441.1,289.2c3.6,3.3,3.7,5,0,7.1C441.1,293.9,441.1,291.7,441.1,289.2z"/>
	</g>
</g>
</svg>
